<svg width="179" height="24" viewBox="0 0 179 24" fill="none" xmlns="http://www.w3.org/2000/svg">
<path fill-rule="evenodd" clip-rule="evenodd" d="M95.3298 3.46406C94.8339 3.44491 94.4161 3.83085 94.3959 4.32674V16.5253L84.1456 3.97703C83.9257 3.66378 83.5703 3.47344 83.1877 3.46406C82.6155 3.44947 82.1368 3.89508 82.1104 4.46679V18.9517C82.1156 19.1854 82.2157 19.4069 82.3876 19.5653C82.5596 19.7237 82.7886 19.8052 83.0219 19.7912C83.2575 19.8054 83.489 19.7246 83.6645 19.5668C83.84 19.409 83.945 19.1875 83.9559 18.9517V6.72915L94.1812 19.2782C94.4082 19.5834 94.7594 19.7715 95.1392 19.7912C95.4189 19.807 95.6932 19.7096 95.9004 19.521C96.1075 19.3324 96.2301 19.0684 96.2406 18.7885V4.32674C96.2235 3.83842 95.8175 3.45425 95.329 3.46406" fill="#0490B1"/>
<path fill-rule="evenodd" clip-rule="evenodd" d="M101.263 3.46414C100.753 3.46036 100.334 3.86581 100.321 4.37571V18.878C100.336 19.3873 100.753 19.7923 101.263 19.7923C101.772 19.7923 102.189 19.3873 102.204 18.878V4.37571C102.191 3.86581 101.772 3.46036 101.262 3.46414" fill="#0490B1"/>
<path fill-rule="evenodd" clip-rule="evenodd" d="M119.506 3.46406C119.01 3.44491 118.592 3.83085 118.572 4.32674V16.5253L108.322 3.97703C108.102 3.66378 107.747 3.47344 107.364 3.46406C106.792 3.44947 106.313 3.89508 106.287 4.46679V18.9517C106.292 19.1854 106.392 19.4069 106.564 19.5653C106.736 19.7237 106.965 19.8052 107.198 19.7912C107.434 19.8054 107.665 19.7246 107.841 19.5668C108.016 19.409 108.121 19.1875 108.132 18.9517V6.72915L118.358 19.2782C118.584 19.5834 118.936 19.7715 119.316 19.7912C119.595 19.807 119.869 19.7096 120.077 19.521C120.284 19.3324 120.406 19.0684 120.417 18.7885V4.32674C120.4 3.83842 119.994 3.45425 119.505 3.46406" fill="#0490B1"/>
<path fill-rule="evenodd" clip-rule="evenodd" d="M132.185 3.46369C131.674 3.45896 131.253 3.86419 131.238 4.37527V13.7032C131.344 14.9211 130.941 16.1286 130.125 17.0387C128.514 18.4933 126.066 18.5033 124.443 17.0619C124.273 16.8905 124.045 16.7903 123.804 16.7818C123.572 16.7755 123.347 16.8639 123.182 17.0267C123.017 17.1894 122.925 17.4125 122.928 17.6445C122.943 17.9542 123.089 18.2427 123.331 18.4375C125.72 20.2852 129.069 20.2367 131.404 18.3207C132.615 17.1099 133.245 15.4353 133.132 13.7264V4.37527C133.129 4.12822 133.028 3.8927 132.849 3.72138C132.671 3.55006 132.432 3.45724 132.185 3.46369Z" fill="#0490B1"/>
<path fill-rule="evenodd" clip-rule="evenodd" d="M137.214 18.8786C137.229 19.3879 137.646 19.7929 138.156 19.7929C138.665 19.7929 139.082 19.3879 139.098 18.8786V13.3006C138.447 12.9938 137.818 12.6448 137.214 12.2556V18.8786Z" fill="#0490B1"/>
<path fill-rule="evenodd" clip-rule="evenodd" d="M139.126 10.3729C139.065 8.99097 139.526 7.63668 140.418 6.57912C141.271 5.66771 142.472 5.16462 143.72 5.19684C144.967 5.17077 146.166 5.67287 147.022 6.57912C147.917 7.63578 148.387 8.98858 148.338 10.3729V10.687C148.977 10.4724 149.612 10.2287 150.244 9.96437C150.187 8.18295 149.474 6.48532 148.242 5.19684C147.033 4.02877 145.4 3.40317 143.72 3.46402C142.05 3.41849 140.43 4.04235 139.222 5.19684C137.917 6.55034 137.195 8.36248 137.213 10.2428C137.832 10.539 138.472 10.7918 139.126 10.9994V10.3729Z" fill="#0490B1"/>
<path fill-rule="evenodd" clip-rule="evenodd" d="M148.36 18.8853C148.364 19.1309 148.465 19.3651 148.642 19.5354C148.819 19.7057 149.057 19.7981 149.303 19.7919C149.807 19.7876 150.221 19.3895 150.244 18.8853V13.9827C149.565 14.1716 148.938 14.3141 148.36 14.4219L148.36 18.8853Z" fill="#0490B1"/>
<path fill-rule="evenodd" clip-rule="evenodd" d="M12.6208 5.94246C12.2429 5.94246 11.8178 5.51402 10.8722 5.18088C10.0732 4.91228 9.23389 4.78333 8.39109 4.79968C4.80802 4.87252 1.94655 7.80742 1.9645 11.3912C1.9011 13.1338 2.55075 14.8269 3.76351 16.0799C4.97627 17.3328 6.64735 18.0373 8.39109 18.0308C9.24291 18.0408 10.0901 17.904 10.8954 17.6264C11.9346 17.2692 12.3606 16.8407 12.7385 16.8407C12.9714 16.841 13.1947 16.9341 13.3588 17.0994C13.5229 17.2647 13.6143 17.4887 13.6128 17.7217C13.6128 18.2686 13.1155 18.6026 12.4526 18.9117C11.1844 19.4831 9.80594 19.7683 8.41513 19.747C6.16955 19.8307 3.98986 18.9792 2.39556 17.3956C0.801271 15.812 -0.0647977 13.6381 0.00378455 11.392C0.0795693 6.79613 3.81864 3.10568 8.41513 3.09006C9.77171 3.06251 11.118 3.33058 12.3606 3.87567C13.0459 4.16158 13.4951 4.53864 13.4951 5.06569C13.5044 5.30083 13.4155 5.52925 13.2497 5.69619C13.0838 5.86314 12.856 5.95356 12.6208 5.94578" fill="#0D3744"/>
<path fill-rule="evenodd" clip-rule="evenodd" d="M18.2413 4.91422V11.5306H22.7304C23.6932 11.5986 24.6569 11.4111 25.524 10.987C26.4792 10.4066 27.0246 9.33635 26.9328 8.2224C27.0244 7.12687 26.5002 6.07106 25.572 5.48188C24.7102 5.04103 23.744 4.84497 22.7785 4.91504L18.2413 4.91422ZM18.2407 18.7132C18.2263 19.229 17.802 19.6385 17.2861 19.6347C17.0367 19.6407 16.7954 19.5466 16.6159 19.3735C16.4363 19.2004 16.3336 18.9626 16.3306 18.7132V4.2291C16.3336 3.97971 16.4363 3.74192 16.6159 3.56878C16.7954 3.39565 17.0367 3.30158 17.2861 3.30758H22.9925C24.3766 3.20631 25.7588 3.52766 26.9562 4.2291C28.262 5.1244 28.9975 6.64302 28.8904 8.22262C28.9452 9.74581 28.2285 11.194 26.9844 12.0744C26.2922 12.5741 25.4892 12.8983 24.6441 13.0192L28.6318 18.0519C28.7928 18.2264 28.8859 18.4527 28.8945 18.69C28.8792 19.2187 28.4447 19.6385 27.9158 19.6355C27.5891 19.6242 27.2876 19.4573 27.1045 19.1864L22.4489 13.1136H18.2465L18.2407 18.7132Z" fill="#0D3744"/>
<path fill-rule="evenodd" clip-rule="evenodd" d="M33.6218 17.7911H42.6845C43.1355 17.8111 43.4908 18.1825 43.4908 18.6339C43.4908 19.0853 43.1355 19.4567 42.6845 19.4767H32.6672C32.4185 19.4816 32.1783 19.387 31.9996 19.214C31.821 19.041 31.7189 18.8038 31.7158 18.5552V4.23354C31.7178 3.98409 31.8194 3.74579 31.9981 3.57175C32.1769 3.39771 32.4178 3.30239 32.6672 3.30705H42.6812C43.1322 3.32705 43.4875 3.69846 43.4875 4.14984C43.4875 4.60122 43.1322 4.97263 42.6812 4.99263H33.6218V10.5251H41.4473C41.9111 10.535 42.2806 10.9163 42.276 11.3803C42.276 11.838 41.905 12.209 41.4473 12.209H33.6218V17.7911Z" fill="#0D3744"/>
<path fill-rule="evenodd" clip-rule="evenodd" d="M47.8981 17.8627H51.4533C53.121 17.9391 54.7707 17.4907 56.1703 16.5807C57.8207 15.3865 58.7559 13.4393 58.6564 11.4046C58.7315 9.77855 58.1899 8.18412 57.1398 6.94034C55.9076 5.58707 54.0115 4.92162 51.6886 4.92162H47.8965L47.8981 17.8627ZM57.5939 17.8384C55.8358 19.004 53.7515 19.578 51.6446 19.4767H46.9516C46.7032 19.4816 46.4631 19.387 46.2847 19.2139C46.1064 19.0408 46.0046 18.8037 46.002 18.5552V4.23352C46.0032 3.98445 46.1042 3.74627 46.2824 3.57218C46.4605 3.39809 46.701 3.3026 46.95 3.30703H51.9985C54.7009 3.30703 57.0469 3.97 58.73 5.84784C60.0343 7.39499 60.7036 9.37908 60.6029 11.4002C60.7422 13.9141 59.6119 16.3305 57.593 17.835L57.5939 17.8384Z" fill="#0D3744"/>
<path fill-rule="evenodd" clip-rule="evenodd" d="M63.5116 4.01479C63.5331 3.49214 63.9672 3.08188 64.4903 3.08996C65.0145 3.08193 65.4492 3.49415 65.469 4.01811V18.8163C65.4505 19.3412 65.0155 19.7549 64.4903 19.7469C63.9657 19.7554 63.5305 19.343 63.5107 18.8188L63.5116 4.01479Z" fill="#0D3744"/>
<path fill-rule="evenodd" clip-rule="evenodd" d="M74.8133 4.98443V18.7127C74.8133 19.2354 74.3896 19.6591 73.8669 19.6591C73.3442 19.6591 72.9205 19.2354 72.9205 18.7127V4.98443H68.0237C67.5605 4.98443 67.1851 4.60895 67.1851 4.14578C67.1851 3.6826 67.5605 3.30713 68.0237 3.30713H79.7358C80.1845 3.32708 80.538 3.69665 80.538 4.14578C80.538 4.59491 80.1845 4.96447 79.7358 4.98443H74.8133Z" fill="#0D3744"/>
<path fill-rule="evenodd" clip-rule="evenodd" d="M177.36 8.47663C173.542 8.34072 170.842 6.60625 169.133 6.13306L168.47 6.38167C168.359 6.45045 168.249 6.5184 168.138 6.58387C168.293 6.66674 168.448 6.75624 168.603 6.83911C169.733 7.44241 171.504 8.77165 173.833 10.0611C175.049 10.7501 176.325 11.3273 177.645 11.7856C177.738 10.5803 178.201 9.43315 178.971 8.50149C178.468 8.50149 177.93 8.50149 177.359 8.47746" fill="#0D3744"/>
<path fill-rule="evenodd" clip-rule="evenodd" d="M171.293 6.51331C171.997 5.89945 172.757 5.35417 173.565 4.88491C173.313 3.7258 172.25 2.92617 171.066 3.00541C170.428 3.81756 169.966 4.7541 169.71 5.75505C170.073 5.89924 170.47 6.09813 170.916 6.32437L171.293 6.51331Z" fill="#166279"/>
<path fill-rule="evenodd" clip-rule="evenodd" d="M154.483 12.1744C154.421 17.0066 158.285 20.9756 163.117 21.0415C164.399 21.0429 165.664 20.7515 166.815 20.1896C167.512 19.8493 168.159 19.4163 168.74 18.9026C169.814 17.9541 170.642 16.76 171.155 15.4221C171.349 14.9165 171.496 14.3945 171.596 13.8625C171.837 12.571 171.798 11.2428 171.482 9.96756C171.319 9.31593 171.084 8.68466 170.78 8.08558C169.677 5.88456 167.694 4.25347 165.322 3.59649C164.603 3.40167 163.862 3.3033 163.117 3.30396C159.907 3.32128 156.973 5.12491 155.507 7.98199C155.211 8.54975 154.977 9.14762 154.808 9.76536C154.593 10.5503 154.483 11.3605 154.483 12.1744Z" fill="#231F20"/>
<path fill-rule="evenodd" clip-rule="evenodd" d="M158.64 16.2938C157.537 16.2938 156.545 12.7404 156.523 11.8139C156.523 10.865 157.472 10.4672 158.642 10.0927C160.186 9.6935 161.771 9.47108 163.365 9.42969C164.849 9.48529 166.323 9.70767 167.757 10.0927C168.816 10.3355 169.876 10.865 169.876 11.8139C169.876 12.7627 168.927 16.3378 167.757 16.3378C166.1 16.3378 164.824 14.4616 163.192 14.5063C161.493 14.5511 160.346 16.2938 158.647 16.2938H158.64Z" fill="#E6C496"/>
<path fill-rule="evenodd" clip-rule="evenodd" d="M169.567 6.24784C168.74 5.8209 167.844 5.5437 166.921 5.42908C165.97 5.3143 165.008 5.32238 164.059 5.45311C164.253 5.79961 164.403 6.16941 164.504 6.55363C164.609 6.9545 164.663 7.36729 164.662 7.78177C164.662 7.83315 164.662 7.88453 164.662 7.93508C164.662 7.98563 164.658 8.03701 164.655 8.08756C165.717 7.79853 166.81 7.64046 167.911 7.61686C168.906 7.59634 169.894 7.7861 170.811 8.17375C170.614 7.75647 170.391 7.35184 170.143 6.96218C169.974 6.70696 169.781 6.46784 169.568 6.24784" fill="#0490B1"/>
<path fill-rule="evenodd" clip-rule="evenodd" d="M162.32 7.85396C162.32 8.05191 162.294 8.24898 162.241 8.43986C162.191 8.62211 162.116 8.79684 162.02 8.95945L162.244 8.87658L162.466 8.79868C162.524 8.65099 162.569 8.49812 162.599 8.34207C162.63 8.18039 162.646 8.01611 162.645 7.85148C162.646 7.48647 162.569 7.12556 162.418 6.79322C162.276 6.47934 162.068 6.19978 161.808 5.97363L161.599 6.02916L161.389 6.08717C161.672 6.27077 161.904 6.52345 162.063 6.8214C162.232 7.138 162.32 7.49166 162.319 7.85065" fill="#00ABD5"/>
<path fill-rule="evenodd" clip-rule="evenodd" d="M158.564 7.77572C158.564 7.62606 158.578 7.47673 158.607 7.32988C158.635 7.18806 158.677 7.04929 158.732 6.91553L158.538 6.99343L158.344 7.0763C158.313 7.18873 158.29 7.30307 158.275 7.41855C158.259 7.53722 158.251 7.65682 158.251 7.77655C158.249 8.21592 158.358 8.64866 158.568 9.03452C158.762 9.39292 159.048 9.69284 159.397 9.903L159.61 9.81268L159.822 9.72318C159.451 9.58174 159.135 9.32495 158.921 8.9906C158.688 8.62937 158.564 8.2077 158.567 7.77738" fill="#00ABD5"/>
<path fill-rule="evenodd" clip-rule="evenodd" d="M163.302 7.8907C163.302 8.14453 163.269 8.39727 163.203 8.64233L163.361 8.59509L163.519 8.54869C163.726 7.57694 163.465 6.56411 162.813 5.81396L162.648 5.84628L162.482 5.88026C162.736 6.14413 162.938 6.45336 163.077 6.79184C163.221 7.1405 163.295 7.5142 163.295 7.89153" fill="#00ABD5"/>
<path fill-rule="evenodd" clip-rule="evenodd" d="M157.737 7.87795C157.737 7.79508 157.74 7.71221 157.747 7.62934C157.754 7.54647 157.763 7.46608 157.776 7.38818L157.631 7.44619L157.486 7.5042C157.479 7.56553 157.474 7.62713 157.47 7.689C157.466 7.75088 157.464 7.81331 157.464 7.87629C157.463 8.35971 157.566 8.83768 157.767 9.27763C157.957 9.69576 158.235 10.0684 158.581 10.3707L158.729 10.311L158.877 10.2514C158.527 9.97788 158.244 9.62815 158.049 9.22873C157.843 8.80798 157.736 8.34557 157.737 7.87712" fill="#00ABD5"/>
<path fill-rule="evenodd" clip-rule="evenodd" d="M156.902 7.71164C156.902 7.68429 156.902 7.65694 156.902 7.62877C156.902 7.60059 156.902 7.57407 156.902 7.5459L156.79 7.59562L156.678 7.64534C156.678 7.65612 156.678 7.66772 156.678 7.67849C156.678 7.68926 156.678 7.70004 156.678 7.71164C156.677 8.23997 156.77 8.76422 156.954 9.25966C157.126 9.72507 157.381 10.1555 157.706 10.5301L157.821 10.4812L157.935 10.4323C157.609 10.0776 157.352 9.66459 157.179 9.21491C156.994 8.73565 156.9 8.2262 156.901 7.71247" fill="#00ABD5"/>
<path fill-rule="evenodd" clip-rule="evenodd" d="M163.974 7.8396C163.974 7.92303 163.971 8.0059 163.965 8.08821C163.958 8.17053 163.95 8.25174 163.939 8.33185L164.066 8.29788L164.192 8.26473C164.199 8.19512 164.205 8.12468 164.209 8.05341C164.213 7.98214 164.216 7.91087 164.216 7.8396C164.217 7.06223 163.981 6.30298 163.54 5.6626L163.407 5.68332L163.273 5.70486C163.729 6.32316 163.974 7.07095 163.974 7.83877" fill="#00ABD5"/>
<path fill-rule="evenodd" clip-rule="evenodd" d="M164.103 5.50586C163.932 5.52741 163.76 5.55254 163.588 5.58127C164 6.2298 164.217 6.98265 164.214 7.75082C164.214 7.89226 164.207 8.0336 164.192 8.17429C164.354 8.12898 164.516 8.08589 164.676 8.04501C164.682 7.94722 164.686 7.84943 164.686 7.75082C164.689 6.965 164.489 6.19166 164.106 5.50586" fill="#0D3744"/>
<path fill-rule="evenodd" clip-rule="evenodd" d="M156.702 7.92367C156.702 7.90213 156.702 7.88141 156.702 7.85986L156.211 8.06124C156.24 9.08479 156.62 10.0672 157.288 10.8432L157.785 10.6468C157.09 9.91118 156.704 8.93607 156.708 7.92367" fill="#0D3744"/>
<path fill-rule="evenodd" clip-rule="evenodd" d="M158.059 10.3727L158.565 10.1689C157.868 9.55886 157.471 8.67646 157.477 7.75072C157.477 7.62999 157.484 7.50937 157.497 7.3894L157 7.59161C157 7.64465 157 7.69685 157 7.74989C156.996 8.73007 157.378 9.67237 158.065 10.3719" fill="#0D3744"/>
<path fill-rule="evenodd" clip-rule="evenodd" d="M163.554 7.83259C163.554 8.05281 163.531 8.27245 163.487 8.48809C163.667 8.43284 163.846 8.38119 164.025 8.33312C164.047 8.16831 164.058 8.00221 164.059 7.8359C164.06 7.05761 163.817 6.29853 163.364 5.66553C163.177 5.69757 162.99 5.73238 162.802 5.76994C163.289 6.34821 163.555 7.08009 163.554 7.8359" fill="#0D3744"/>
<path fill-rule="evenodd" clip-rule="evenodd" d="M158.276 7.75888C158.276 7.52731 158.309 7.29698 158.376 7.0752C158.19 7.14425 158.004 7.21442 157.818 7.28569C157.792 7.4421 157.779 7.60035 157.779 7.75888C157.777 8.66334 158.202 9.5158 158.925 10.0585L159.505 9.83395C158.746 9.42206 158.273 8.62648 158.275 7.76219" fill="#0D3744"/>
<path fill-rule="evenodd" clip-rule="evenodd" d="M162.401 5.81885C162.222 5.86249 162.042 5.90945 161.86 5.95973C162.379 6.45 162.668 7.13492 162.658 7.84834C162.659 8.17376 162.601 8.49663 162.487 8.80135C162.669 8.7345 162.849 8.67014 163.029 8.60826C163.087 8.35918 163.117 8.10419 163.117 7.84834C163.123 7.10898 162.87 6.39077 162.401 5.81885" fill="#0D3744"/>
<path fill-rule="evenodd" clip-rule="evenodd" d="M159.862 9.74372C160.598 9.45284 161.323 9.17523 162.034 8.92413C162.23 8.59914 162.333 8.22647 162.332 7.84682C162.338 7.15477 161.989 6.50792 161.407 6.13306C160.524 6.37752 159.632 6.67917 158.737 7.01397C158.623 7.27724 158.564 7.56135 158.564 7.84847C158.551 8.69142 159.071 9.45086 159.862 9.74372Z" fill="#0D3744"/>
<path fill-rule="evenodd" clip-rule="evenodd" d="M164.059 11.4585L164.194 12.0991L166.475 11.4941L167.826 11.4684L166.476 10.3721L164.059 11.4585Z" fill="#231F20"/>
<path fill-rule="evenodd" clip-rule="evenodd" d="M158.565 11.4684L159.917 11.4941L162.197 12.0991L162.333 11.4585L159.916 10.3721L158.565 11.4684Z" fill="#231F20"/>
<path fill-rule="evenodd" clip-rule="evenodd" d="M166.794 12.5946C166.011 12.2073 165.063 12.442 164.552 13.1498C164.508 13.2301 164.532 13.3306 164.608 13.3819C164.633 13.3977 164.661 13.4057 164.691 13.4051C164.748 13.4043 164.799 13.3725 164.826 13.3222C164.849 13.279 164.877 13.2385 164.909 13.2012C164.77 13.7432 164.963 14.4103 165.535 14.4509C166.647 14.5337 166.726 13.3164 166.24 12.767C166.388 12.7897 166.531 12.8356 166.665 12.9029C166.703 12.9212 166.747 12.9226 166.787 12.9069C166.826 12.8912 166.857 12.8597 166.873 12.82C166.91 12.7365 166.877 12.6385 166.796 12.5946" fill="#231F20"/>
<path fill-rule="evenodd" clip-rule="evenodd" d="M159.597 12.5902C159.517 12.6322 159.483 12.7292 159.52 12.8115C159.536 12.851 159.567 12.8823 159.607 12.898C159.646 12.9137 159.69 12.9124 159.728 12.8943C159.847 12.836 159.973 12.7942 160.103 12.77C159.653 13.3501 159.753 14.531 160.84 14.4523C161.42 14.41 161.607 13.7197 161.463 13.1628C161.504 13.2055 161.539 13.2531 161.568 13.3045C161.595 13.3548 161.646 13.3866 161.703 13.3874C161.733 13.3879 161.761 13.3799 161.786 13.3642C161.862 13.3151 161.886 13.2159 161.843 13.1371C161.322 12.4412 160.381 12.2127 159.6 12.5927" fill="#231F20"/>
<path fill-rule="evenodd" clip-rule="evenodd" d="M160.494 13.5116C160.134 13.4951 160.311 12.9854 160.577 13.0459C160.706 13.0688 160.791 13.1916 160.768 13.3202C160.746 13.4488 160.623 13.5345 160.494 13.5116Z" fill="white"/>
<path fill-rule="evenodd" clip-rule="evenodd" d="M165.519 13.5116C165.158 13.4951 165.335 12.9854 165.602 13.0459C165.73 13.0688 165.816 13.1916 165.793 13.3202C165.77 13.4488 165.647 13.5345 165.519 13.5116Z" fill="white"/>
<path d="M154.496 8.61842L154.751 8.50655L155.497 8.18335C155.745 8.07562 155.993 7.96844 156.243 7.86182C156.257 8.39176 156.36 8.91561 156.547 9.41149C156.726 9.88434 156.983 10.324 157.307 10.7126C156.883 10.886 156.456 11.0587 156.027 11.2305C155.597 11.4023 155.166 11.5711 154.733 11.7368C154.482 11.833 154.23 11.9274 153.978 12.0203C153.726 12.1131 153.474 12.2039 153.221 12.2929C153.04 12.3636 152.858 12.4329 152.676 12.5009C152.494 12.5689 152.311 12.6354 152.128 12.7006C151.892 12.784 151.655 12.8647 151.416 12.9426C151.178 13.0205 150.939 13.0948 150.699 13.1655C150.467 13.2384 150.233 13.3056 149.995 13.3669C149.758 13.4282 149.519 13.4865 149.279 13.5418C149.044 13.5953 148.808 13.6445 148.571 13.6893C148.334 13.734 148.096 13.7741 147.856 13.8094C147.621 13.8442 147.385 13.8743 147.149 13.8998C146.912 13.9252 146.675 13.9453 146.436 13.9602C146.201 13.9752 145.966 13.9843 145.73 13.9876C145.494 13.9909 145.257 13.989 145.019 13.9818C144.785 13.9741 144.55 13.9608 144.315 13.942C144.079 13.9232 143.842 13.8981 143.605 13.8666C143.371 13.8368 143.137 13.7995 142.902 13.7547C142.668 13.71 142.432 13.66 142.196 13.6047C141.962 13.5489 141.729 13.4862 141.494 13.4166C141.26 13.347 141.025 13.2705 140.789 13.1871C140.557 13.1053 140.323 13.0158 140.09 12.9186C139.856 12.8213 139.622 12.7175 139.387 12.607C139.155 12.497 138.923 12.3799 138.69 12.2556C138.458 12.1313 138.224 11.999 137.99 11.8587C137.758 11.7205 137.527 11.5741 137.295 11.4194C137.063 11.2648 136.83 11.1023 136.597 10.9322C136.366 10.7653 136.135 10.5891 135.904 10.4034C135.673 10.2178 135.44 10.0245 135.208 9.82336C135.097 9.72833 134.987 9.63165 134.876 9.53331C134.766 9.43497 134.655 9.33442 134.545 9.23166C134.655 9.30735 134.766 9.38111 134.876 9.45293C134.987 9.52475 135.097 9.59519 135.208 9.66425C135.443 9.8112 135.677 9.9507 135.91 10.0827C136.142 10.2148 136.374 10.3396 136.604 10.4573C136.84 10.5783 137.074 10.6916 137.308 10.7971C137.542 10.9026 137.774 11.0015 138.005 11.0938C138.246 11.1788 138.483 11.2614 138.717 11.3415C138.952 11.4217 139.185 11.4949 139.416 11.5612C139.653 11.6291 139.889 11.6902 140.124 11.7443C140.359 11.7984 140.592 11.8462 140.824 11.8877C141.062 11.9302 141.299 11.9661 141.534 11.9954C141.77 12.0247 142.004 12.0479 142.236 12.065C142.475 12.081 142.712 12.0923 142.948 12.099C143.184 12.1056 143.418 12.1056 143.652 12.099C143.89 12.0923 144.128 12.0796 144.365 12.0609C144.602 12.0421 144.837 12.0183 145.071 11.9896C145.311 11.9598 145.549 11.9247 145.786 11.8843C146.023 11.844 146.259 11.799 146.493 11.7493C146.733 11.699 146.972 11.6437 147.21 11.5835C147.448 11.5233 147.684 11.4587 147.919 11.3896C148.159 11.3206 148.399 11.246 148.637 11.1659C148.875 11.0858 149.112 11.0029 149.347 10.9172C149.588 10.8294 149.828 10.7382 150.067 10.6438C150.305 10.5493 150.542 10.4523 150.778 10.3529C151.019 10.2507 151.259 10.1466 151.498 10.0405C151.736 9.9344 151.974 9.82612 152.21 9.71563C152.452 9.60292 152.692 9.48911 152.931 9.3742C153.169 9.25928 153.407 9.14354 153.643 9.02697L153.943 8.87863L154.242 8.7303L154.496 8.61842Z" fill="#0490B1"/>
</svg>
