<svg width="90" height="25" viewBox="0 0 185 32" fill="none" xmlns="http://www.w3.org/2000/svg">
<path d="M39.54 23V10.06H48.32C49.32 10.06 50.1867 10.2 50.92 10.48C51.6667 10.7467 52.2467 11.1733 52.66 11.76C53.0733 12.3333 53.28 13.0733 53.28 13.98C53.28 14.5933 53.1733 15.1133 52.96 15.54C52.7467 15.9667 52.4467 16.3133 52.06 16.58C51.6867 16.8467 51.2533 17.0533 50.76 17.2C50.2667 17.3333 49.74 17.42 49.18 17.46L48.9 17.3C49.8333 17.3133 50.6 17.3933 51.2 17.54C51.8 17.6733 52.2467 17.9267 52.54 18.3C52.8467 18.66 53 19.2 53 19.92V23H50.34V20.1C50.34 19.6067 50.2533 19.2267 50.08 18.96C49.9067 18.68 49.5933 18.4867 49.14 18.38C48.7 18.2733 48.06 18.22 47.22 18.22H42.2V23H39.54ZM42.2 16.14H48.32C49.0667 16.14 49.6333 15.96 50.02 15.6C50.42 15.24 50.62 14.7533 50.62 14.14C50.62 13.5533 50.42 13.1067 50.02 12.8C49.6333 12.4933 49.0667 12.34 48.32 12.34H42.2V16.14ZM64.7248 19.7H67.2448C67.1382 20.38 66.8515 20.9867 66.3848 21.52C65.9315 22.0533 65.3115 22.4733 64.5248 22.78C63.7382 23.0867 62.7782 23.24 61.6448 23.24C60.3782 23.24 59.2582 23.04 58.2848 22.64C57.3115 22.2267 56.5515 21.6333 56.0048 20.86C55.4582 20.0867 55.1848 19.1533 55.1848 18.06C55.1848 16.9667 55.4515 16.0333 55.9848 15.26C56.5182 14.4733 57.2582 13.8733 58.2048 13.46C59.1648 13.0467 60.2848 12.84 61.5648 12.84C62.8715 12.84 63.9582 13.0467 64.8248 13.46C65.6915 13.8733 66.3315 14.5 66.7448 15.34C67.1715 16.1667 67.3515 17.2267 67.2848 18.52H57.8048C57.8715 19.0267 58.0582 19.4867 58.3648 19.9C58.6848 20.3133 59.1115 20.64 59.6448 20.88C60.1915 21.12 60.8382 21.24 61.5848 21.24C62.4115 21.24 63.0982 21.1 63.6448 20.82C64.2048 20.5267 64.5648 20.1533 64.7248 19.7ZM61.4448 14.82C60.4848 14.82 59.7048 15.0333 59.1048 15.46C58.5048 15.8733 58.1182 16.3867 57.9448 17H64.7048C64.6382 16.3333 64.3182 15.8067 63.7448 15.42C63.1848 15.02 62.4182 14.82 61.4448 14.82ZM74.0595 23.22C73.0729 23.22 72.1729 23.0067 71.3595 22.58C70.5595 22.14 69.9195 21.5333 69.4395 20.76C68.9729 19.9733 68.7395 19.0667 68.7395 18.04C68.7395 16.9867 68.9795 16.0733 69.4595 15.3C69.9395 14.5267 70.5862 13.9267 71.3995 13.5C72.2262 13.06 73.1595 12.84 74.1995 12.84C75.3462 12.84 76.2662 13.0733 76.9595 13.54C77.6662 13.9933 78.1795 14.6133 78.4995 15.4C78.8195 16.1867 78.9795 17.0667 78.9795 18.04C78.9795 18.6267 78.8862 19.2267 78.6995 19.84C78.5129 20.44 78.2262 21 77.8395 21.52C77.4529 22.0267 76.9462 22.44 76.3195 22.76C75.6929 23.0667 74.9395 23.22 74.0595 23.22ZM74.8995 21.22C75.6862 21.22 76.3662 21.0867 76.9395 20.82C77.5129 20.5533 77.9529 20.18 78.2595 19.7C78.5662 19.22 78.7195 18.6667 78.7195 18.04C78.7195 17.36 78.5595 16.7867 78.2395 16.32C77.9329 15.84 77.4929 15.48 76.9195 15.24C76.3595 14.9867 75.6862 14.86 74.8995 14.86C73.7929 14.86 72.9329 15.1533 72.3195 15.74C71.7062 16.3133 71.3995 17.08 71.3995 18.04C71.3995 18.68 71.5462 19.24 71.8395 19.72C72.1329 20.1867 72.5395 20.5533 73.0595 20.82C73.5929 21.0867 74.2062 21.22 74.8995 21.22ZM78.7195 13.06H81.3195V23H78.8995C78.8995 23 78.8795 22.8733 78.8395 22.62C78.8129 22.3533 78.7862 22.02 78.7595 21.62C78.7329 21.22 78.7195 20.8267 78.7195 20.44V13.06ZM83.8727 9.06H86.4727V23H83.8727V9.06ZM94.2666 23V10.06H103.047C104.047 10.06 104.913 10.2 105.647 10.48C106.393 10.7467 106.973 11.1733 107.387 11.76C107.8 12.3333 108.007 13.0733 108.007 13.98C108.007 14.5933 107.9 15.1133 107.687 15.54C107.473 15.9667 107.173 16.3133 106.787 16.58C106.413 16.8467 105.98 17.0533 105.487 17.2C104.993 17.3333 104.467 17.42 103.907 17.46L103.627 17.3C104.56 17.3133 105.327 17.3933 105.927 17.54C106.527 17.6733 106.973 17.9267 107.267 18.3C107.573 18.66 107.727 19.2 107.727 19.92V23H105.067V20.1C105.067 19.6067 104.98 19.2267 104.807 18.96C104.633 18.68 104.32 18.4867 103.867 18.38C103.427 18.2733 102.787 18.22 101.947 18.22H96.9266V23H94.2666ZM96.9266 16.14H103.047C103.793 16.14 104.36 15.96 104.747 15.6C105.147 15.24 105.347 14.7533 105.347 14.14C105.347 13.5533 105.147 13.1067 104.747 12.8C104.36 12.4933 103.793 12.34 103.047 12.34H96.9266V16.14ZM119.451 19.7H121.971C121.865 20.38 121.578 20.9867 121.111 21.52C120.658 22.0533 120.038 22.4733 119.251 22.78C118.465 23.0867 117.505 23.24 116.371 23.24C115.105 23.24 113.985 23.04 113.011 22.64C112.038 22.2267 111.278 21.6333 110.731 20.86C110.185 20.0867 109.911 19.1533 109.911 18.06C109.911 16.9667 110.178 16.0333 110.711 15.26C111.245 14.4733 111.985 13.8733 112.931 13.46C113.891 13.0467 115.011 12.84 116.291 12.84C117.598 12.84 118.685 13.0467 119.551 13.46C120.418 13.8733 121.058 14.5 121.471 15.34C121.898 16.1667 122.078 17.2267 122.011 18.52H112.531C112.598 19.0267 112.785 19.4867 113.091 19.9C113.411 20.3133 113.838 20.64 114.371 20.88C114.918 21.12 115.565 21.24 116.311 21.24C117.138 21.24 117.825 21.1 118.371 20.82C118.931 20.5267 119.291 20.1533 119.451 19.7ZM116.171 14.82C115.211 14.82 114.431 15.0333 113.831 15.46C113.231 15.8733 112.845 16.3867 112.671 17H119.431C119.365 16.3333 119.045 15.8067 118.471 15.42C117.911 15.02 117.145 14.82 116.171 14.82ZM129.035 21.3H128.095L131.735 13.06H134.575L129.795 23H127.335L122.655 13.06H125.515L129.035 21.3ZM139.075 8.7V10.98H136.055V8.7H139.075ZM136.255 13.06H138.855V23H136.255V13.06ZM150.506 19.7H153.026C152.919 20.38 152.633 20.9867 152.166 21.52C151.713 22.0533 151.093 22.4733 150.306 22.78C149.519 23.0867 148.559 23.24 147.426 23.24C146.159 23.24 145.039 23.04 144.066 22.64C143.093 22.2267 142.333 21.6333 141.786 20.86C141.239 20.0867 140.966 19.1533 140.966 18.06C140.966 16.9667 141.233 16.0333 141.766 15.26C142.299 14.4733 143.039 13.8733 143.986 13.46C144.946 13.0467 146.066 12.84 147.346 12.84C148.653 12.84 149.739 13.0467 150.606 13.46C151.473 13.8733 152.113 14.5 152.526 15.34C152.953 16.1667 153.133 17.2267 153.066 18.52H143.586C143.653 19.0267 143.839 19.4867 144.146 19.9C144.466 20.3133 144.893 20.64 145.426 20.88C145.973 21.12 146.619 21.24 147.366 21.24C148.193 21.24 148.879 21.1 149.426 20.82C149.986 20.5267 150.346 20.1533 150.506 19.7ZM147.226 14.82C146.266 14.82 145.486 15.0333 144.886 15.46C144.286 15.8733 143.899 16.3867 143.726 17H150.486C150.419 16.3333 150.099 15.8067 149.526 15.42C148.966 15.02 148.199 14.82 147.226 14.82ZM167.57 21.2L166.75 21.18L169.99 13.06H172.85L168.47 23H166.03L162.83 14.98H163.71L160.41 23H157.97L153.71 13.06H156.57L159.69 21.2H158.87L161.79 13.06H164.77L167.57 21.2ZM173.605 19.7H176.005C176.151 20.1533 176.451 20.5267 176.905 20.82C177.371 21.1 177.978 21.24 178.725 21.24C179.231 21.24 179.625 21.1933 179.905 21.1C180.185 21.0067 180.378 20.8733 180.485 20.7C180.591 20.5133 180.645 20.3067 180.645 20.08C180.645 19.8 180.558 19.5867 180.385 19.44C180.211 19.28 179.945 19.1533 179.585 19.06C179.225 18.9667 178.765 18.88 178.205 18.8C177.645 18.7067 177.105 18.5933 176.585 18.46C176.065 18.3267 175.605 18.1533 175.205 17.94C174.805 17.7133 174.485 17.4333 174.245 17.1C174.018 16.7533 173.905 16.3333 173.905 15.84C173.905 15.36 174.018 14.9333 174.245 14.56C174.485 14.1867 174.811 13.8733 175.225 13.62C175.651 13.3667 176.145 13.1733 176.705 13.04C177.278 12.9067 177.891 12.84 178.545 12.84C179.531 12.84 180.351 12.9867 181.005 13.28C181.658 13.56 182.145 13.96 182.465 14.48C182.798 14.9867 182.965 15.5733 182.965 16.24H180.665C180.558 15.7467 180.345 15.3933 180.025 15.18C179.705 14.9533 179.211 14.84 178.545 14.84C177.891 14.84 177.398 14.94 177.065 15.14C176.731 15.34 176.565 15.6133 176.565 15.96C176.565 16.24 176.665 16.46 176.865 16.62C177.078 16.7667 177.385 16.8867 177.785 16.98C178.198 17.0733 178.711 17.1733 179.325 17.28C179.845 17.3867 180.338 17.5067 180.805 17.64C181.285 17.7733 181.711 17.9467 182.085 18.16C182.458 18.36 182.751 18.6333 182.965 18.98C183.191 19.3133 183.305 19.74 183.305 20.26C183.305 20.9 183.118 21.44 182.745 21.88C182.385 22.32 181.865 22.66 181.185 22.9C180.505 23.1267 179.691 23.24 178.745 23.24C177.905 23.24 177.178 23.1533 176.565 22.98C175.965 22.7933 175.465 22.56 175.065 22.28C174.665 21.9867 174.351 21.68 174.125 21.36C173.911 21.0267 173.765 20.7133 173.685 20.42C173.605 20.1267 173.578 19.8867 173.605 19.7Z" fill="#2E2D31"/>
<g clip-path="url(#clip0_250_363)">
<path d="M15.9994 9.22949C18.3861 9.22949 20.3279 7.2878 20.3279 4.90105C20.3279 2.5143 18.3861 0.57243 15.9994 0.57243C13.6126 0.57243 11.6709 2.51424 11.6709 4.90106C11.6708 7.28774 13.6126 9.22949 15.9994 9.22949Z" fill="#FE5621"/>
<path d="M15.9993 9.22949L15.9993 0.572367C13.6125 0.572367 11.6708 2.51418 11.6708 4.90099C11.6707 7.28774 13.6125 9.22949 15.9993 9.22949Z" fill="#FE5621"/>
<path d="M10.2364 13.9304C10.7104 14.1386 11.2636 13.9231 11.4717 13.449L14.1585 7.32969C14.3666 6.85562 14.151 6.30256 13.677 6.09437C13.5543 6.04056 13.4264 6.015 13.3006 6.015C12.9399 6.015 12.596 6.22444 12.4417 6.57594L9.75497 12.6951C9.54678 13.1692 9.76235 13.7223 10.2364 13.9304Z" fill="#FE5621"/>
<path d="M2.99146 17.4962C3.42596 17.6375 3.87615 17.709 4.32965 17.709C6.21014 17.709 7.86439 16.5067 8.44571 14.7172C9.18327 12.4473 7.93664 10.0005 5.66664 9.26286C5.23214 9.12167 4.78183 9.05011 4.32833 9.05011C2.44783 9.05011 0.793644 10.2525 0.212331 12.0419C-0.525231 14.3117 0.721457 16.7585 2.99146 17.4962Z" fill="#18A7FC"/>
<path d="M6.18188 11.5399C6.23332 12.0551 6.69288 12.4311 7.208 12.3795L13.8578 11.7152C14.3729 11.6638 14.7489 11.2044 14.6974 10.6892C14.6492 10.2057 14.2416 9.84486 13.7657 9.84486C13.7346 9.84486 13.7031 9.84636 13.6714 9.84949L7.02157 10.5138C6.50632 10.5653 6.13044 11.0247 6.18188 11.5399Z" fill="#18A7FC"/>
<path d="M4.82276 17.2806L9.81226 21.7267C10.1988 22.0712 10.7914 22.0371 11.1359 21.6506C11.4804 21.2639 11.4463 20.6713 11.0597 20.3269L6.07026 15.8807C5.89151 15.7214 5.6687 15.6431 5.44682 15.6431C5.18882 15.6431 4.93183 15.749 4.74658 15.9569C4.40208 16.3435 4.4362 16.9361 4.82276 17.2806Z" fill="#18A7FC"/>
<path d="M7.60943 24.7678C8.115 24.8782 8.61475 24.5574 8.72512 24.0515L10.1482 17.5219C10.2584 17.016 9.93768 16.5165 9.43181 16.4063C9.36456 16.3916 9.29743 16.3845 9.23125 16.3845C8.8 16.3845 8.41181 16.684 8.31612 17.1226L6.893 23.6521C6.78281 24.1581 7.10356 24.6576 7.60943 24.7678Z" fill="#86CAFD"/>
<path d="M11.3669 27.4982C11.6281 27.9453 12.2024 28.0958 12.6494 27.8348L18.4198 24.4634C18.8668 24.2022 19.0175 23.628 18.7564 23.181C18.582 22.8826 18.2682 22.7163 17.946 22.7163C17.7854 22.7163 17.6225 22.7576 17.4739 22.8444L11.7034 26.2158C11.2564 26.477 11.1057 27.0511 11.3669 27.4982Z" fill="#86CAFD"/>
<path d="M4.51128 27.7762C4.69222 28.9181 5.30691 29.9212 6.24228 30.6009C6.98678 31.1418 7.86553 31.4277 8.7836 31.4277C10.1662 31.4277 11.4765 30.7606 12.2883 29.6432C12.968 28.7079 13.2425 27.5639 13.0617 26.4218C12.8808 25.2798 12.2662 24.2767 11.3308 23.597C10.5863 23.0562 9.70747 22.7702 8.78947 22.7702C7.40678 22.7702 6.0966 23.4374 5.28485 24.5547C4.60516 25.4901 4.33047 26.634 4.51128 27.7762Z" fill="#86CAFD"/>
<path d="M13.5786 24.4636L19.3487 27.8347C19.7958 28.0959 20.3699 27.9453 20.6311 27.4981C20.8923 27.0511 20.7416 26.477 20.2945 26.2157L14.5243 22.8446C14.3756 22.7577 14.2129 22.7164 14.0522 22.7164C13.73 22.7164 13.4162 22.8828 13.2419 23.1811C12.9809 23.6283 13.1315 24.2023 13.5786 24.4636Z" fill="#FEA832"/>
<path d="M21.8499 17.5221L23.2732 24.052C23.3836 24.5579 23.8829 24.8787 24.3889 24.7683C24.8948 24.6581 25.2155 24.1586 25.1053 23.6527L23.6821 17.1228C23.5864 16.6841 23.1983 16.3847 22.7669 16.3847C22.7008 16.3847 22.6336 16.3917 22.5664 16.4064C22.0604 16.5169 21.7396 17.0163 21.8499 17.5221Z" fill="#FEA832"/>
<path d="M19.7097 29.643C20.5215 30.7605 21.8317 31.4277 23.2144 31.4277C24.1325 31.4277 25.0112 31.1417 25.7557 30.6008C26.6911 29.9213 27.3058 28.9181 27.4867 27.7762C27.6677 26.6342 27.393 25.4902 26.7133 24.5547C25.9015 23.4372 24.5915 22.7702 23.2086 22.7702C22.2905 22.7702 21.4118 23.0561 20.6672 23.597C18.7364 25.0001 18.3068 27.7124 19.7097 29.643Z" fill="#FEA832"/>
<path d="M23.5525 14.7178C24.1342 16.5072 25.7883 17.7095 27.6687 17.7095C28.1222 17.7095 28.5724 17.6379 29.0068 17.4967C30.1065 17.1394 31.001 16.3753 31.526 15.3452C32.0509 14.315 32.1433 13.1422 31.786 12.0425C31.2046 10.253 29.5505 9.05053 27.67 9.05053C27.2165 9.05053 26.7662 9.1221 26.3318 9.26329C25.2322 9.62047 24.3376 10.3846 23.8125 11.415C23.2877 12.4453 23.1953 13.6182 23.5525 14.7178Z" fill="#B10FFD"/>
<path d="M20.8627 21.6511C21.2071 22.0377 21.7997 22.0717 22.1862 21.7273L27.1755 17.2812C27.562 16.9367 27.5961 16.3442 27.2517 15.9575C27.0665 15.7497 26.8096 15.6438 26.5515 15.6438C26.3295 15.6438 26.1067 15.7222 25.928 15.8814L20.9389 20.3275C20.5523 20.6719 20.5182 21.2645 20.8627 21.6511Z" fill="#B10FFD"/>
<path d="M18.1405 11.7155L24.7906 12.3796C25.3055 12.4311 25.7651 12.0551 25.8166 11.5398C25.868 11.0247 25.4921 10.5653 24.9769 10.5138L18.3266 9.84981C18.295 9.84662 18.2636 9.84512 18.2324 9.84512C17.7565 9.84512 17.3489 10.206 17.3006 10.6896C17.2493 11.2047 17.6253 11.6641 18.1405 11.7155Z" fill="#B10FFD"/>
<path d="M17.8401 7.32981L20.5266 13.449C20.7347 13.9231 21.2877 14.1386 21.7619 13.9304C22.236 13.7223 22.4516 13.1692 22.2434 12.6951L19.5569 6.57606C19.4026 6.22456 19.0587 6.01512 18.698 6.01512C18.5721 6.01512 18.4442 6.04062 18.3216 6.0945C17.8475 6.30275 17.6319 6.85581 17.8401 7.32981Z" fill="#FE5621"/>
<path d="M8.44556 14.7172L0.212244 12.0421C-0.525318 14.3119 0.721495 16.7587 2.99143 17.4963C5.26131 18.2337 7.70806 16.9871 8.44556 14.7172Z" fill="#18A7FC"/>
<path d="M11.3305 23.597L6.24209 30.6007C8.1729 32.0035 10.8853 31.574 12.2881 29.643C13.691 27.7122 13.2615 25 11.3305 23.597Z" fill="#86CAFD"/>
<path d="M20.6674 23.5969L25.7559 30.6006C27.6868 29.1978 28.1163 26.4853 26.7134 24.5545C25.3106 22.6235 22.5984 22.194 20.6674 23.5969Z" fill="#FEA832"/>
<path d="M23.5527 14.7173L31.7861 12.0421C31.0486 9.77222 28.6017 8.52547 26.3318 9.2631C24.0619 10.0005 22.8152 12.4472 23.5527 14.7173Z" fill="#B10FFD"/>
</g>
<defs>
<clipPath id="clip0_250_363">
<rect width="32" height="32" fill="white" transform="translate(32 32) rotate(180)"/>
</clipPath>
</defs>
</svg>
