<svg id="67754f0de7347" width="66" height="17" viewBox="0 0 66 17" aria-labelledby="67754f0de7347_svg_title" role="img" fill="none" xmlns="http://www.w3.org/2000/svg"><title id="67754f0de7347_svg_title">trustpilot-logo</title>
<g id="Trustpilot_Logo_(2022) (1) 1" clip-path="url(#clip0_1002_5474)">
<path id="Vector" d="M17.1028 6.17725H23.6922V7.40454H21.1013V14.3038H19.6765V7.40454H17.097V6.17725H17.1028ZM23.4107 8.41964H24.6287V9.55518H24.6516C24.6919 9.39459 24.7665 9.23975 24.8757 9.09064C24.9848 8.94153 25.117 8.79815 25.2721 8.67772C25.4272 8.55155 25.5996 8.45405 25.7891 8.37376C25.9787 8.2992 26.1741 8.25906 26.3694 8.25906C26.5188 8.25906 26.6279 8.2648 26.6854 8.27053C26.7428 8.27627 26.8003 8.28774 26.8635 8.29347V9.54371C26.7715 9.5265 26.6796 9.51503 26.582 9.50356C26.4843 9.49209 26.3924 9.48636 26.3004 9.48636C26.0821 9.48636 25.8753 9.53224 25.68 9.61826C25.4847 9.70429 25.3181 9.83619 25.1744 10.0025C25.0308 10.1746 24.9159 10.381 24.8297 10.6334C24.7436 10.8857 24.7033 11.1725 24.7033 11.4993V14.298H23.405V8.41964H23.4107ZM32.8325 14.3038H31.5571V13.4837H31.5341C31.3733 13.7819 31.1377 14.017 30.8217 14.1948C30.5058 14.3726 30.184 14.4644 29.8566 14.4644C29.081 14.4644 28.518 14.2751 28.1733 13.8909C27.8286 13.5066 27.6563 12.9274 27.6563 12.1531V8.41964H28.9546V12.027C28.9546 12.5431 29.0523 12.9102 29.2534 13.1224C29.4487 13.3346 29.7302 13.4435 30.0864 13.4435C30.3621 13.4435 30.5862 13.4034 30.77 13.3174C30.9539 13.2313 31.1032 13.1224 31.2124 12.979C31.3273 12.8413 31.4077 12.6693 31.4594 12.4743C31.5111 12.2793 31.5341 12.0671 31.5341 11.8377V8.42538H32.8325V14.3038ZM35.0443 12.417C35.0845 12.7955 35.2281 13.0593 35.4752 13.2141C35.7279 13.3632 36.0267 13.4435 36.3771 13.4435C36.4978 13.4435 36.6356 13.4321 36.7908 13.4148C36.9459 13.3976 37.0952 13.3575 37.2274 13.3059C37.3652 13.2543 37.4744 13.174 37.5663 13.0707C37.6525 12.9675 37.6927 12.8356 37.687 12.6693C37.6812 12.503 37.618 12.3653 37.5031 12.2621C37.3882 12.1531 37.2446 12.0729 37.0665 12.004C36.8884 11.9409 36.6873 11.8836 36.4575 11.8377C36.2277 11.7918 35.9979 11.7402 35.7624 11.6886C35.5211 11.637 35.2856 11.5682 35.0615 11.4936C34.8375 11.4191 34.6364 11.3158 34.4583 11.1839C34.2802 11.0578 34.1366 10.8914 34.0332 10.6907C33.924 10.49 33.8723 10.2434 33.8723 9.94516C33.8723 9.624 33.9527 9.36018 34.1079 9.14225C34.263 8.92432 34.464 8.75227 34.6996 8.62037C34.9409 8.48846 35.2051 8.3967 35.4981 8.33935C35.7911 8.28774 36.0726 8.25906 36.3369 8.25906C36.6414 8.25906 36.9344 8.29347 37.2101 8.35656C37.4859 8.41964 37.7387 8.52287 37.9627 8.67198C38.1868 8.81536 38.3706 9.00461 38.52 9.23401C38.6694 9.46341 38.7613 9.74443 38.8015 10.0713H37.4457C37.3825 9.76164 37.2446 9.54944 37.0205 9.44621C36.7965 9.33724 36.538 9.28563 36.2507 9.28563C36.1588 9.28563 36.0496 9.29136 35.9233 9.30857C35.7969 9.32577 35.682 9.35445 35.5671 9.39459C35.4579 9.43474 35.366 9.49782 35.2856 9.57812C35.2109 9.65841 35.1707 9.76164 35.1707 9.89354C35.1707 10.0541 35.2281 10.1803 35.3373 10.2778C35.4464 10.3753 35.59 10.4556 35.7681 10.5244C35.9462 10.5875 36.1473 10.6448 36.3771 10.6907C36.6069 10.7366 36.8425 10.7882 37.0837 10.8398C37.3193 10.8914 37.5491 10.9603 37.7789 11.0348C38.0087 11.1094 38.2098 11.2126 38.3878 11.3445C38.5659 11.4764 38.7096 11.637 38.8187 11.832C38.9279 12.027 38.9853 12.2736 38.9853 12.5603C38.9853 12.9102 38.9049 13.2027 38.744 13.4493C38.5832 13.6901 38.3764 13.8909 38.1236 14.04C37.8708 14.1891 37.5836 14.3038 37.2733 14.3726C36.9631 14.4414 36.6529 14.4758 36.3484 14.4758C35.975 14.4758 35.6303 14.4357 35.3143 14.3497C34.9983 14.2636 34.7226 14.1375 34.4928 13.9711C34.263 13.7991 34.0791 13.5869 33.947 13.3346C33.8149 13.0822 33.7459 12.7783 33.7344 12.4284H35.0443V12.417ZM39.33 8.41964H40.3124V6.65325H41.6108V8.41964H42.7827V9.38886H41.6108V12.5317C41.6108 12.6693 41.6165 12.784 41.628 12.8872C41.6395 12.9847 41.6682 13.0707 41.7084 13.1396C41.7487 13.2084 41.8118 13.26 41.898 13.2944C41.9842 13.3288 42.0933 13.346 42.2427 13.346C42.3346 13.346 42.4266 13.346 42.5185 13.3403C42.6104 13.3346 42.7023 13.3231 42.7942 13.3001V14.3038C42.6506 14.321 42.507 14.3325 42.3749 14.3497C42.237 14.3669 42.0991 14.3726 41.9555 14.3726C41.6108 14.3726 41.335 14.3382 41.1282 14.2751C40.9214 14.212 40.7548 14.1145 40.6399 13.9883C40.5192 13.8622 40.4445 13.7073 40.3986 13.5181C40.3584 13.3288 40.3296 13.1109 40.3239 12.87V9.40033H39.3415V8.41964H39.33ZM43.7019 8.41964H44.9314V9.21681H44.9543C45.1382 8.87271 45.391 8.63184 45.7184 8.48273C46.0459 8.33362 46.3963 8.25906 46.7812 8.25906C47.2466 8.25906 47.6487 8.33935 47.9934 8.50567C48.3381 8.66625 48.6254 8.88991 48.8552 9.17666C49.085 9.46341 49.2516 9.79605 49.3665 10.1746C49.4814 10.5531 49.5388 10.9603 49.5388 11.3904C49.5388 11.7861 49.4871 12.1703 49.3837 12.5374C49.2803 12.9102 49.1252 13.2371 48.9184 13.5238C48.7115 13.8106 48.4473 14.0342 48.1256 14.2063C47.8038 14.3783 47.4304 14.4644 46.9938 14.4644C46.8042 14.4644 46.6146 14.4472 46.4251 14.4127C46.2355 14.3783 46.0516 14.321 45.8793 14.2464C45.7069 14.1719 45.5403 14.0744 45.3967 13.9539C45.2473 13.8335 45.1267 13.6959 45.0233 13.541H45.0003V16.4774H43.7019V8.41964ZM48.2405 11.3674C48.2405 11.1036 48.206 10.8456 48.1371 10.5932C48.0681 10.3409 47.9647 10.1229 47.8268 9.92795C47.6889 9.73296 47.5166 9.57812 47.3155 9.46341C47.1087 9.34871 46.8732 9.28563 46.6089 9.28563C46.0631 9.28563 45.6495 9.47488 45.3737 9.8534C45.098 10.2319 44.9601 10.7366 44.9601 11.3674C44.9601 11.6657 44.9946 11.9409 45.0692 12.1933C45.1439 12.4456 45.2473 12.6636 45.3967 12.8471C45.5403 13.0306 45.7127 13.174 45.9138 13.2772C46.1148 13.3862 46.3504 13.4378 46.6146 13.4378C46.9134 13.4378 47.1604 13.3747 47.3672 13.2543C47.574 13.1338 47.7406 12.9733 47.8728 12.784C48.0049 12.589 48.1026 12.3711 48.16 12.1245C48.2117 11.8779 48.2405 11.6255 48.2405 11.3674ZM50.5327 6.17725H51.8311V7.40454H50.5327V6.17725ZM50.5327 8.41964H51.8311V14.3038H50.5327V8.41964ZM52.9915 6.17725H54.2899V14.3038H52.9915V6.17725ZM58.2712 14.4644C57.8001 14.4644 57.3807 14.3841 57.013 14.2292C56.6453 14.0744 56.3351 13.8564 56.0766 13.5869C55.8238 13.3116 55.6285 12.9847 55.4963 12.6062C55.3642 12.2277 55.2953 11.809 55.2953 11.356C55.2953 10.9086 55.3642 10.4957 55.4963 10.1172C55.6285 9.7387 55.8238 9.4118 56.0766 9.13652C56.3294 8.86124 56.6453 8.64904 57.013 8.4942C57.3807 8.33935 57.8001 8.25906 58.2712 8.25906C58.7422 8.25906 59.1616 8.33935 59.5293 8.4942C59.897 8.64904 60.2072 8.86697 60.4657 9.13652C60.7185 9.4118 60.9138 9.7387 61.046 10.1172C61.1781 10.4957 61.2471 10.9086 61.2471 11.356C61.2471 11.809 61.1781 12.2277 61.046 12.6062C60.9138 12.9847 60.7185 13.3116 60.4657 13.5869C60.213 13.8622 59.897 14.0744 59.5293 14.2292C59.1616 14.3841 58.7422 14.4644 58.2712 14.4644ZM58.2712 13.4378C58.5584 13.4378 58.8112 13.3747 59.0238 13.2543C59.2363 13.1338 59.4087 12.9732 59.5466 12.7783C59.6844 12.5833 59.7821 12.3596 59.851 12.113C59.9142 11.8664 59.9487 11.614 59.9487 11.356C59.9487 11.1036 59.9142 10.857 59.851 10.6047C59.7878 10.3523 59.6844 10.1344 59.5466 9.93942C59.4087 9.74443 59.2363 9.58959 59.0238 9.46915C58.8112 9.34871 58.5584 9.28563 58.2712 9.28563C57.9839 9.28563 57.7311 9.34871 57.5186 9.46915C57.306 9.58959 57.1337 9.75017 56.9958 9.93942C56.8579 10.1344 56.7602 10.3523 56.6913 10.6047C56.6281 10.857 56.5936 11.1036 56.5936 11.356C56.5936 11.614 56.6281 11.8664 56.6913 12.113C56.7545 12.3596 56.8579 12.5833 56.9958 12.7783C57.1337 12.9732 57.306 13.1338 57.5186 13.2543C57.7311 13.3804 57.9839 13.4378 58.2712 13.4378ZM61.6262 8.41964H62.6086V6.65325H63.907V8.41964H65.079V9.38886H63.907V12.5317C63.907 12.6693 63.9127 12.784 63.9242 12.8872C63.9357 12.9847 63.9644 13.0707 64.0046 13.1396C64.0449 13.2084 64.1081 13.26 64.1942 13.2944C64.2804 13.3288 64.3896 13.346 64.5389 13.346C64.6308 13.346 64.7228 13.346 64.8147 13.3403C64.9066 13.3346 64.9985 13.3231 65.0904 13.3001V14.3038C64.9468 14.321 64.8032 14.3325 64.6711 14.3497C64.5332 14.3669 64.3953 14.3726 64.2517 14.3726C63.907 14.3726 63.6312 14.3382 63.4244 14.2751C63.2176 14.212 63.051 14.1145 62.9361 13.9883C62.8154 13.8622 62.7408 13.7073 62.6948 13.5181C62.6546 13.3288 62.6259 13.1109 62.6201 12.87V9.40033H61.6377V8.41964H61.6262Z" fill="#191919"></path>
<path id="Vector_2" d="M15.5861 6.1772H9.6343L7.79592 0.522461L5.95178 6.1772L0 6.17146L4.82002 9.66982L2.97589 15.3188L7.79592 11.8262L12.6102 15.3188L10.7718 9.66982L15.5861 6.1772Z" fill="#00B67A"></path>
<path id="Vector_3" d="M11.1854 10.9488L10.7718 9.66992L7.79591 11.8263L11.1854 10.9488Z" fill="#005128"></path>
</g>
<defs>
<clipPath id="clip0_1002_5474">
<rect width="65.0789" height="15.9548" fill="white" transform="translate(0 0.522461)"></rect>
</clipPath>
</defs>
</svg>