<svg width="44" height="44" viewBox="0 0 44 44" fill="none" xmlns="http://www.w3.org/2000/svg">
<path d="M41.18 22.5436C41.18 21.1198 41.0522 19.7508 40.8149 18.4365H21.9043V26.2125H32.7104C32.2358 28.7132 30.812 30.8307 28.6763 32.2544V37.3106H35.1928C38.9896 33.806 41.18 28.6585 41.18 22.5436Z" fill="#4285F4"/>
<path d="M21.9044 42.166C27.3257 42.166 31.8708 40.3772 35.193 37.3106L28.6765 32.2544C26.8876 33.4591 24.606 34.1892 21.9044 34.1892C16.6839 34.1892 12.2483 30.6663 10.6603 25.9204H3.97949V31.1044C7.28338 37.6574 14.0554 42.166 21.9044 42.166Z" fill="#34A853"/>
<path d="M10.6599 25.9021C10.2583 24.6974 10.021 23.4196 10.021 22.0871C10.021 20.7546 10.2583 19.4769 10.6599 18.2721V13.0881H3.97911C2.6101 15.7897 1.8252 18.838 1.8252 22.0871C1.8252 25.3362 2.6101 28.3846 3.97911 31.0861L9.18136 27.0338L10.6599 25.9021Z" fill="#FBBC05"/>
<path d="M21.9044 10.0033C24.8615 10.0033 27.49 11.0255 29.5892 12.9969L35.339 7.24706C31.8526 3.99793 27.3257 2.0083 21.9044 2.0083C14.0554 2.0083 7.28338 6.51692 3.97949 13.0882L10.6603 18.2722C12.2483 13.5263 16.6839 10.0033 21.9044 10.0033Z" fill="#EA4335"/>
</svg>
