<svg width="33" height="23" viewBox="0 0 33 23" fill="none" xmlns="http://www.w3.org/2000/svg">
<g clip-path="url(#clip0_1345_9177)">
<path d="M20.8608 22.2227L30.2171 22.2227C31.649 22.2227 32.8115 21.0601 32.8115 19.6282L32.8115 10.2719C32.8115 8.84006 31.649 7.6775 30.2171 7.6775L28.6013 7.6775C27.2319 7.6775 26.1186 6.56748 26.1186 5.19474V0.505087C26.1186 0.252214 25.8132 0.127419 25.6358 0.304758C25.6358 0.304758 22.1219 3.78916 20.6736 5.26699C19.0578 6.9156 18.2664 8.4821 18.2664 11.0798L18.2664 19.6282C18.2664 21.0601 19.4289 22.2227 20.8608 22.2227Z" fill="#0C2A53"/>
<path d="M2.59418 22.2227L11.9505 22.2227C13.3824 22.2227 14.5449 21.0601 14.5449 19.6282L14.5449 10.2719C14.5449 8.84006 13.3824 7.6775 11.9505 7.6775L10.3347 7.6775C8.96528 7.6775 7.85198 6.56748 7.85198 5.19474L7.85198 0.505087C7.85198 0.252214 7.54656 0.127419 7.36922 0.304758C7.36922 0.304758 3.85526 3.78916 2.40699 5.26699C0.791224 6.9156 -0.000237465 8.4821 -0.000237465 11.0798L-0.000237465 19.6282C-0.000237465 21.0601 1.16232 22.2227 2.59418 22.2227Z" fill="#0C2A53"/>
</g>
<defs>
<clipPath id="clip0_1345_9177">
<rect width="32.8112" height="22" fill="white" transform="matrix(-1 0 0 -1 32.8115 22.2227)"/>
</clipPath>
</defs>
</svg>
