<svg width="20" height="20" viewBox="0 0 20 20" fill="none" xmlns="http://www.w3.org/2000/svg">
<path d="M10 19C14.9706 19 19 14.9706 19 10C19 5.02944 14.9706 1 10 1C5.02944 1 1 5.02944 1 10C1 14.9706 5.02944 19 10 19Z" fill="#0E2B56" stroke="#0E2B56"/>
<path d="M8.50213 11.811L14.1145 6.19864C14.2469 6.06619 14.4014 5.99997 14.578 5.99997C14.7546 5.99997 14.9091 6.06619 15.0416 6.19864C15.174 6.33108 15.2402 6.48847 15.2402 6.6708C15.2402 6.85313 15.174 7.0103 15.0416 7.1423L8.96569 13.2347C8.83324 13.3672 8.67872 13.4334 8.50213 13.4334C8.32554 13.4334 8.17102 13.3672 8.03858 13.2347L5.19103 10.3872C5.05858 10.2547 4.99501 10.0976 5.00031 9.91568C5.0056 9.73379 5.07469 9.57641 5.20758 9.44352C5.34047 9.31063 5.49785 9.24441 5.67974 9.24485C5.86163 9.2453 6.0188 9.31152 6.15125 9.44352L8.50213 11.811Z" fill="white"/>
</svg>
