<svg width="40" height="41" viewBox="0 0 40 41" fill="none" xmlns="http://www.w3.org/2000/svg">
<path d="M40 20.8062C40 31.8521 31.0459 40.8062 20 40.8062C8.9541 40.8062 0 31.8521 0 20.8062C0 9.76025 8.9541 0.806152 20 0.806152C31.0459 0.806152 40 9.76025 40 20.8062Z" fill="white"/>
<path d="M25.4268 10.3149H14.5742C11.7777 10.3149 9.50977 12.5829 9.50977 15.3794V26.232C9.50977 29.0285 11.7777 31.2964 14.5742 31.2964H25.4268C28.2233 31.2964 30.4913 29.0285 30.4913 26.232V15.3794C30.4913 12.5829 28.2233 10.3149 25.4268 10.3149ZM28.6823 25.8706C28.6823 27.8678 27.0616 29.4885 25.0644 29.4885H14.9356C12.9384 29.4885 11.3177 27.8678 11.3177 25.8706V15.7418C11.3177 13.7446 12.9384 12.1239 14.9356 12.1239H25.0644C27.0616 12.1239 28.6823 13.7446 28.6823 15.7418V25.8706Z" fill="#172B54"/>
<path d="M20.0103 15.3794C17.0155 15.3794 14.5845 17.8104 14.5845 20.8052C14.5845 23.8 17.0155 26.231 20.0103 26.231C23.0051 26.231 25.4361 23.8 25.4361 20.8052C25.4361 17.8104 23.0051 15.3794 20.0103 15.3794ZM20.0103 24.4231C18.0171 24.4231 16.3924 22.7984 16.3924 20.8052C16.3924 18.812 18.0171 17.1873 20.0103 17.1873C22.0034 17.1873 23.6282 18.812 23.6282 20.8052C23.6282 22.7984 22.0034 24.4231 20.0103 24.4231Z" fill="#172B54"/>
<path d="M25.7981 16.1032C25.2001 16.1032 24.7129 15.616 24.7129 15.018C24.7129 14.4201 25.2001 13.9329 25.7981 13.9329C26.396 13.9329 26.8832 14.4201 26.8832 15.018C26.8832 15.616 26.396 16.1032 25.7981 16.1032Z" fill="#172B54"/>
</svg>
