<svg width="24" height="25" viewBox="0 0 24 25" fill="none" xmlns="http://www.w3.org/2000/svg">
<path d="M6.94043 5.35476C6.94017 5.88519 6.7292 6.3938 6.35394 6.76868C5.97868 7.14357 5.46986 7.35403 4.93943 7.35376C4.409 7.3535 3.90039 7.14253 3.52551 6.76727C3.15062 6.39201 2.94016 5.88319 2.94043 5.35276C2.9407 4.82233 3.15166 4.31372 3.52692 3.93884C3.90218 3.56395 4.411 3.35349 4.94143 3.35376C5.47186 3.35403 5.98047 3.56499 6.35535 3.94025C6.73024 4.31551 6.9407 4.82433 6.94043 5.35476ZM7.00043 8.83476H3.00043V21.3548H7.00043V8.83476ZM13.3204 8.83476H9.34043V21.3548H13.2804V14.7848C13.2804 11.1248 18.0504 10.7848 18.0504 14.7848V21.3548H22.0004V13.4248C22.0004 7.25476 14.9404 7.48476 13.2804 10.5148L13.3204 8.83476Z" fill="#262A33"/>
</svg>
