<svg xmlns="http://www.w3.org/2000/svg" width="74" height="67" fill="none"><path fill="#4A4A4A" d="M12.545.79c-.376.101-.795.275-.94.376-.664.506-1.242 1.127-1.488 1.59-.144.274-1.676 4.307-3.396 8.96C5 16.372 3.498 20.39 3.382 20.635c-.173.448-.246.477-.853.477-.766 0-1.272.232-1.835.824-.578.607-.694 1.07-.694 2.76 0 1.23.058 1.648.275 2.053.404.752 1.185 1.315 1.95 1.402l.666.087.029 12.126.043 12.14.347.275c.433.361.896.347 1.373-.029l.376-.289V28.193h8.787c7.761 0 8.874-.029 9.51-.23.636-.218 1.373-.912 7.183-6.693L37 14.84l6.475 6.431c5.796 5.796 6.533 6.475 7.169 6.692.636.202 1.763.231 9.51.231h8.787v1.662c0 1.475.03 1.691.29 1.952.433.433 1.2.39 1.575-.087.26-.332.303-.593.303-1.937v-1.546l.65-.073c.825-.1 1.605-.679 1.966-1.474.203-.448.275-.94.275-2.067 0-1.618-.116-2.08-.694-2.688-.563-.592-1.07-.824-1.835-.824-.622 0-.68-.029-.868-.477-.1-.26-1.604-4.278-3.324-8.917-1.734-4.654-3.252-8.687-3.396-8.976-.333-.621-1.287-1.517-2.01-1.835C61.398.675 59.33.66 37.29.63 18.211.617 13.08.646 12.545.791m48.49 2.168c.26.101.579.318.709.463.202.23 6.62 17.257 6.62 17.575 0 .058-3.368.115-7.473.115h-7.487l-7.299-7.27C38.244 6.008 38.519 6.225 37 6.225s-1.243-.217-9.105 7.616l-7.3 7.27H13.11c-4.206 0-7.472-.058-7.472-.13 0-.318 6.403-17.315 6.62-17.56.606-.68-.333-.65 24.714-.665 19.599 0 23.674.029 24.065.202M45.05 15.793l7.415 7.414 9.654.072 9.64.073v2.601l-10.102.043c-9.915.03-10.103.03-10.565-.26-.26-.159-3.295-3.15-6.735-6.648s-6.46-6.504-6.736-6.663c-.346-.217-.607-.275-.881-.202-.26.057-2.746 2.442-7.27 6.952l-6.865 6.85-10.19-.029-10.175-.043v-2.601l9.64-.073 9.655-.072 7.415-7.414 7.4-7.4h1.3z"/><path fill="#4A4A4A" d="M35.15 22.398c-1.489.549-2.573 1.503-3.266 2.876-1.46 2.876-.203 6.417 2.76 7.804.752.347 1.012.39 2.356.39s1.604-.043 2.356-.39c2.356-1.098 3.743-3.7 3.295-6.157-.347-1.878-1.517-3.454-3.18-4.249-1.242-.607-3.107-.722-4.321-.274m3.382 2.24a3.48 3.48 0 0 1 1.865 2.168c.274.896.274 1.156-.015 2.096-.434 1.488-1.778 2.471-3.382 2.471-1.026 0-1.619-.217-2.37-.867-1.04-.925-1.446-2.284-1.04-3.642a3.552 3.552 0 0 1 4.942-2.226M69.23 35.42c-.289.289-.289.477-.289 12.357v12.069H46.25V37.487l-.332-.304-.333-.318H28.372l-.304.333-.318.332v22.316H5.059v-1.648c0-1.619-.015-1.662-.376-1.951-.506-.405-.997-.376-1.431.058-.347.332-.361.448-.361 1.95v1.59h-.94c-.997 0-1.705.246-1.864.651C.043 60.626 0 62 0 63.531c0 2.53.029 2.819.275 3.122L.549 67H73.45l.275-.347c.246-.303.275-.593.275-3.122 0-1.532-.043-2.905-.087-3.035-.159-.405-.867-.65-1.864-.65h-.94V47.864c0-11.895 0-11.967-.303-12.357-.376-.477-1.142-.52-1.575-.087M44.083 49.44v10.406H29.918V52.07l1.026-.058c.867-.043 1.07-.115 1.3-.39.362-.448.348-.997-.042-1.416-.26-.29-.448-.333-1.301-.333h-.983v-10.84h14.164zm27.75 14.019v1.445H2.168v-2.89h69.664z"/><path fill="#4A4A4A" d="M32.982 41.591c-.491.188-.607.853-.607 3.411 0 2.327.029 2.544.303 2.905l.29.376h8.064l.29-.376c.274-.36.303-.578.303-2.905 0-2.616-.116-3.208-.65-3.425-.29-.101-7.718-.101-7.993.014m6.475 3.296v1.228h-4.914v-2.457h4.914zM8.094 37.154c-.29.29-.29.477-.29 10.406s0 10.118.29 10.407c.274.274.477.289 7.963.289 4.727 0 7.762-.058 7.935-.145.55-.289.578-.751.578-10.55s-.029-10.262-.578-10.551c-.173-.087-3.208-.145-7.935-.145-7.486 0-7.689.015-7.963.29m6.937 4.408v2.53H9.972v-5.058999999999999h5.06zm7.371 0v2.53H17.2v-5.058999999999999h5.202999999999999zm-7.37 7.3v2.6h-5.06V46.26h5.06zm7.298 0v2.529l-2.558.043-2.573.029V46.26l2.573.029 2.558.043zm.072 5.997v1.229H9.973V53.63h12.429zM49.849 37.14l-.347.274-.043 9.67c-.03 5.304 0 9.871.043 10.131s.217.607.376.766c.26.26.535.275 8.007.275 7.544 0 7.732 0 8.021-.29.29-.288.29-.476.29-10.406s0-10.117-.29-10.406c-.289-.289-.477-.289-8.007-.289-7.385 0-7.732.015-8.05.275m6.952 4.422v2.53h-5.202999999999999v-5.058999999999999H56.8zm7.226 0v2.53h-5.058999999999999v-5.058999999999999h5.06zm-7.226 7.3v2.6l-2.558-.028-2.573-.043-.043-2.385c-.015-1.3 0-2.457.029-2.558.057-.145.679-.188 2.616-.188H56.8zm7.226 0v2.6h-5.058999999999999V46.26h5.06zm0 5.997v1.229H51.598V53.63h12.429z"/></svg>