<svg xmlns="http://www.w3.org/2000/svg" width="74" height="74" fill="none"><path fill="#4A4A4A" d="M7.227.213c-.709.232-1.923 1.475-2.14 2.212-.13.462-.173 7.804-.173 32.201v31.595h-.766C1.677 66.22 0 67.825 0 70.21c0 .81.072 1.17.376 1.763.433.867 1.387 1.677 2.226 1.908.36.101 12.082.13 34.702.115 32.36-.043 34.196-.057 34.63-.303.693-.361 1.488-1.214 1.791-1.893.405-.882.362-2.414-.072-3.353-.636-1.374-2.081-2.226-3.801-2.226h-.766l-.029-17.185-.043-17.185-.448-.563c-.897-1.113-.203-1.056-11.65-1.056H46.684V16.531c0-13.456-.015-13.702-.304-14.338-.39-.867-.925-1.416-1.792-1.82l-.723-.348L25.8.04C13.066.054 7.588.098 7.227.213m36.725 2.544.42.42v27.055H34.355l-.622.362c-.434.26-.709.578-.983 1.113l-.376.751V45.35c0 12.82 0 12.878.303 13.268.376.477 1.272.535 1.72.087.29-.289.29-.477.29-13.051 0-7.776.057-12.834.144-12.965.116-.187 2.052-.216 15.754-.26 10.695-.014 15.71.015 15.898.116.29.159.29.42.29 16.91v16.766H34.687v-1.88c0-1.69-.03-1.907-.29-2.167-.448-.448-1.344-.39-1.72.087-.274.346-.303.578-.303 2.167v1.793H7.227V3.176l.419-.419.419-.42h35.468zM70.82 68.75c1.157.593 1.186 2.226.044 2.804-.448.231-67.28.231-67.728 0-.52-.275-.824-.752-.824-1.33 0-.708.188-1.055.767-1.402.448-.289 1.04-.289 33.892-.289 29.383 0 33.474.03 33.85.217"/><path fill="#4A4A4A" d="M11.765 6.688c-.593.174-1.315.998-1.431 1.605-.058.26-.072 1.662-.043 3.107.043 2.876.086 3.006 1.04 3.714.362.275.636.304 3.093.347 3.137.058 3.599-.043 4.278-.881l.448-.564V11.04c0-3.31-.028-3.426-.997-4.12-.419-.303-.607-.317-3.194-.346-1.503-.015-2.948.029-3.194.115m5.145 4.322v2.168h-4.336V8.842h4.336zM22.547 6.862c-1.07.563-1.156.881-1.156 4.148 0 3.28.086 3.599 1.156 4.148.593.303.824.332 3.266.332s2.66-.029 3.238-.332c1.098-.578 1.17-.867 1.127-4.293-.043-3.353-.087-3.483-1.214-4.047-.52-.26-.867-.289-3.194-.289-2.428 0-2.645.03-3.223.333m5.348 4.148v2.168h-4.192V8.842h4.192zM33.878 6.688c-.592.174-1.315.998-1.43 1.605-.059.26-.073 1.662-.044 3.107.043 2.876.087 3.006 1.04 3.714.362.275.636.304 3.093.347 3.137.058 3.6-.043 4.279-.881l.448-.564V11.04c0-3.31-.03-3.426-.998-4.12-.419-.303-.607-.317-3.194-.346-1.503-.015-2.948.029-3.194.115m5.145 4.322v2.168h-4.335V8.842h4.335zM11.375 20.433c-.969.564-1.113 1.099-1.113 4.105 0 2.948.159 3.57 1.04 4.105.434.26.723.289 3.44.289 2.92 0 2.977 0 3.498-.362.882-.607 1.012-1.17.954-4.307-.044-2.977-.087-3.122-1.128-3.83-.448-.303-.607-.318-3.31-.318-2.644 0-2.876.03-3.381.318m5.535 4.09v2.096h-4.336v-4.191000000000001h4.336zM22.547 20.36c-.275.146-.65.478-.824.753-.318.462-.332.621-.332 3.396 0 2.645.029 2.948.289 3.382.592.968.896 1.04 4.119 1.04 2.63 0 2.934-.028 3.367-.288.954-.593 1.041-.896 1.041-4.047 0-3.108-.087-3.498-.91-4.105-.376-.275-.637-.303-3.325-.347-2.558-.029-2.977 0-3.425.217m5.348 4.163v2.096h-4.192v-4.191000000000001h4.192zM33.488 20.433c-.968.564-1.113 1.099-1.113 4.105 0 2.948.159 3.57 1.04 4.105.434.26.723.289 3.44.289 3.44 0 3.7-.073 4.206-1.243.275-.593.29-.91.246-3.382-.043-3.021-.087-3.166-1.127-3.874-.448-.303-.607-.318-3.31-.318-2.645 0-2.876.03-3.382.318m5.535 4.09v2.096h-4.335v-4.191000000000001h4.335zM11.346 33.976c-.94.563-1.012.81-1.055 3.888-.044 2.572-.03 2.833.245 3.396.203.42.506.737.882.954.55.304.694.318 3.454.275 2.645-.044 2.92-.073 3.281-.347.954-.708.997-.839 1.04-3.816.044-2.471.03-2.79-.245-3.382-.506-1.17-.766-1.243-4.206-1.243-2.63 0-3.006.03-3.396.275m5.564 4.133v2.096h-4.336v-4.191000000000001h4.336zM22.691 33.802c-.115.044-.375.217-.549.39-.694.622-.751.897-.751 3.96 0 2.747.014 2.906.332 3.368.622.925.968 1.012 4.25.969 2.688-.044 2.948-.073 3.324-.347.823-.607.91-.998.91-4.105 0-3.15-.087-3.454-1.04-4.047-.434-.26-.723-.289-3.368-.274-1.59 0-2.992.043-3.108.086m5.204 4.307v2.096h-4.192v-4.191000000000001h4.192zM38.59 35.956c-.593.217-.896.448-1.17.881-.276.434-.29.665-.247 3.223l.044 2.776.535.491.549.491h2.746c4.134 0 4.119.015 4.119-3.902 0-2.327-.029-2.732-.26-3.078-.535-.824-.81-.897-3.57-.925-1.388-.015-2.63 0-2.746.043m4.336 3.888v1.662h-3.4690000000000003v-3.324h3.4690000000000003zM48.028 36.028c-.622.188-1.157.867-1.272 1.648-.058.347-.072 1.604-.044 2.775.087 3.31.145 3.367 4.163 3.367h2.746l.55-.491.534-.491.044-2.776c.043-2.587.028-2.789-.26-3.237-.492-.81-1.1-.954-3.73-.94-1.243 0-2.471.073-2.731.145m4.437 3.816v1.662h-3.4690000000000003v-3.324h3.4690000000000003zM57.798 36c-1.3.418-1.43.78-1.43 3.916 0 2.674.072 3.02.809 3.599.36.289.563.303 3.165.303 2.645 0 2.804-.014 3.266-.332.708-.477.839-.997.839-3.642.014-2.544-.102-3.021-.897-3.6-.375-.274-.636-.303-2.89-.331-1.373-.015-2.66.028-2.862.086m4.35 3.844v1.662H58.68v-3.324h3.468zM37.752 45.322l-.535.49-.044 2.718c-.057 2.992.015 3.339.752 3.86.42.303.593.317 3.194.317 2.4 0 2.804-.029 3.15-.26.84-.55.897-.78.897-3.715 0-3.916.015-3.902-4.12-3.902h-2.745zm5.174 3.483v1.662h-3.4690000000000003v-3.324h3.4690000000000003zM47.68 45.047c-.852.462-.924.766-.924 3.685 0 2.934.058 3.166.896 3.715.347.231.752.26 3.15.26 2.602 0 2.776-.014 3.195-.318.737-.52.81-.867.751-3.859l-.043-2.717-.535-.492-.549-.49h-2.775c-2.124.013-2.876.057-3.165.216m4.785 3.758v1.662h-3.4690000000000003v-3.324h3.4690000000000003zM57.177 45.134c-.737.578-.81.925-.81 3.598 0 2.963.116 3.34 1.128 3.787.563.26.896.275 3.136.231 2.269-.043 2.544-.072 2.92-.346.794-.579.91-1.056.895-3.6 0-2.644-.13-3.165-.838-3.642-.462-.318-.621-.332-3.266-.332-2.602 0-2.804.014-3.165.304m4.971 3.67v1.663H58.68v-3.324h3.468zM11.635 47.345c-.535.246-1.012.752-1.214 1.286-.087.231-.16 1.518-.16 3.007 0 2.948.087 3.324.955 3.974l.534.42 2.674.043c3.079.057 3.657-.073 4.336-.954l.39-.506v-3.006c0-2.804-.014-3.021-.303-3.397-.708-.968-.824-.997-3.931-1.026-2.154-.029-2.949 0-3.281.159m5.275 4.278v2.168h-4.336v-4.336h4.336zM22.547 47.46c-1.07.55-1.156.868-1.156 4.134 0 3.18.086 3.556.997 4.105.491.318.665.332 3.41.332 3.267 0 3.527-.072 4.106-1.084.274-.506.303-.766.303-3.353 0-3.252-.087-3.584-1.156-4.133-.593-.29-.824-.318-3.252-.318s-2.66.029-3.252.318m5.348 4.163v2.168h-4.192v-4.336h4.192zM38.055 53.936c-.824.49-.91.852-.91 3.714 0 2.298.028 2.616.289 3.035.52.853.852.94 3.902.882l2.732-.044.448-.433c.636-.607.751-1.258.693-3.816-.072-3.526-.187-3.627-4.119-3.627-2.298 0-2.616.028-3.035.288m4.87 3.685v1.662h-3.468V55.96h3.4690000000000003zM47.753 53.878c-.838.419-.997.881-1.04 3.396-.058 2.558.057 3.209.693 3.816l.448.433 2.732.044c3.05.058 3.382-.03 3.902-.882.26-.419.29-.737.29-3.064 0-2.89-.102-3.295-.998-3.758-.621-.318-5.376-.318-6.027.015m4.712 3.743v1.662h-3.4690000000000003V55.96h3.4690000000000003zM57.278 53.936c-.824.491-.91.852-.91 3.714 0 3.859.086 3.946 4.06 3.946 2.92 0 3.267-.101 3.744-1.099.289-.578.303-.824.26-3.122-.072-3.685-.116-3.728-4.12-3.728-2.297 0-2.615.028-3.034.288m4.87 3.685v1.662H58.68V55.96h3.468zM58.969 2.786c-3.6.52-6.678 3.339-7.603 6.923-.332 1.33-.216 4.293.232 5.709.954 3.02 3.107 6.114 5.94 8.542 1.908 1.633 2.601 1.908 3.671 1.503.997-.376 4.307-3.556 5.593-5.348 1.301-1.835 2.573-4.654 2.573-5.709 0-.506-.607-1.084-1.113-1.084-.65 0-1.026.362-1.286 1.272-.636 2.255-2.313 4.755-4.64 6.967-1.864 1.763-1.879 1.777-2.746 1.07-1.127-.911-2.92-2.79-3.685-3.889-.998-1.402-1.937-3.353-2.226-4.64-.16-.75-.217-1.517-.174-2.485.044-1.258.102-1.518.593-2.53 1.33-2.803 4.35-4.48 7.241-4.017 2.385.375 4.35 1.864 5.42 4.104.318.665.68 1.258.81 1.316.433.159.895.086 1.286-.217.563-.434.505-1.142-.203-2.53-1.806-3.57-5.68-5.55-9.683-4.957"/><path fill="#4A4A4A" d="M58.752 7.006c-1.3.434-2.356 1.373-3.064 2.746-.347.665-.39.91-.405 2.197 0 1.301.044 1.532.405 2.27.52 1.069 1.72 2.167 2.818 2.572.998.376 2.688.42 3.614.087 2.5-.896 3.945-3.585 3.295-6.157-.42-1.605-1.258-2.674-2.746-3.426-.607-.318-.969-.39-2.038-.433-.81-.03-1.518.029-1.879.144m2.934 2.428c1.142.564 1.836 2.11 1.474 3.267-.665 2.038-2.948 2.775-4.553 1.445-2.616-2.153.015-6.186 3.079-4.712"/></svg>