<svg xmlns="http://www.w3.org/2000/svg" width="76" height="74" fill="none"><path fill="#4A4A4A" d="M36.93.376c-.375.39-.375.404-.375 2.616 0 2.153.014 2.24.347 2.572.419.405.953.579 1.474.449.202-.058.535-.26.722-.449.333-.332.347-.419.347-2.572 0-2.212 0-2.226-.376-2.616C38.767.072 38.55 0 38 0c-.55 0-.766.072-1.07.376M24.313 4.004c-.173.028-.477.23-.68.433-.288.29-.375.52-.375 1.026v.665l2.833 2.847c2.037 2.053 2.962 2.877 3.266 2.934.665.13 1.387-.245 1.648-.867.404-.954.23-1.214-2.457-3.931-1.359-1.388-2.63-2.63-2.833-2.76-.42-.304-.94-.434-1.402-.347M50.863 4.003c-.549.102-5.868 5.478-5.998 6.056-.144.694.246 1.475.853 1.72.94.39 1.156.246 4.191-2.804l2.833-2.847v-.665c0-.52-.086-.737-.376-1.04-.216-.203-.462-.376-.578-.376-.1 0-.26-.03-.375-.058-.102-.029-.347-.014-.55.014M37.046 8.296c-.607.275-.838.622-2.211 3.368-.91 1.835-1.243 2.37-1.489 2.428-.188.029-1.3.202-2.5.361-1.186.174-2.4.376-2.703.448-.65.174-1.373.954-1.503 1.662-.188 1.012.087 1.446 2.298 3.642l2.081 2.082-.404 2.327c-.492 2.79-.535 3.642-.217 4.263.433.839 1.532 1.287 2.5 1.012.275-.072 1.546-.694 2.804-1.359L38 27.316l2.313 1.229c1.286.68 2.587 1.286 2.905 1.358.982.217 1.965-.202 2.384-1.026.318-.621.275-1.474-.216-4.263l-.405-2.327 2.081-2.082c2.211-2.196 2.486-2.63 2.298-3.642-.13-.708-.853-1.488-1.503-1.662-.303-.087-1.547-.274-2.775-.448-1.229-.173-2.356-.347-2.5-.405-.16-.072-.824-1.185-1.59-2.702-.838-1.62-1.474-2.689-1.72-2.862-.491-.361-1.633-.463-2.226-.188m2.038 6.056c.607 1.228 1.156 2.139 1.373 2.298.246.173 1.142.361 2.645.578l2.27.332-1.576 1.59c-.867.867-1.648 1.735-1.735 1.908-.23.448-.202 1.026.174 3.223l.332 1.966-2.067-1.055c-1.228-.622-2.24-1.055-2.5-1.055s-1.272.433-2.5 1.055l-2.067 1.055.332-1.966c.39-2.283.405-2.775.13-3.295-.115-.217-.896-1.07-1.734-1.908l-1.532-1.517 2.153-.304c2.949-.434 2.934-.42 4.177-2.949.535-1.098.998-2.008 1.041-2.008s.535.925 1.084 2.052M35.688 31.74c-3.065.794-5.652 3.41-6.432 6.488-.275 1.113-.275 3.383 0 4.481.376 1.43 1.2 2.92 2.197 3.96.491.52.881.954.867.969-.014.014-.39.202-.824.419-2.052 1.04-4.076 2.847-5.348 4.77-.39.62-.722 1.184-.722 1.242 0 .072-.492-.289-1.099-.78-.607-.506-1.618-1.2-2.269-1.547-.65-.347-1.214-.636-1.228-.665-.03-.014.217-.289.563-.592.81-.723 1.894-2.414 2.298-3.541.449-1.258.564-3.86.232-5.175-.795-3.18-3.368-5.78-6.519-6.576-1.098-.274-3.382-.274-4.48 0-3.122.795-5.71 3.382-6.504 6.504-.275 1.113-.275 3.382 0 4.48.376 1.432 1.2 2.92 2.197 3.96.491.521.881.955.867.97-.014.014-.39.202-.824.418-3.396 1.706-5.983 4.842-7.183 8.701l-.39 1.272-.058 5.868-.043 5.853.39.39.39.391h72.468l.39-.39.39-.39-.043-5.854-.058-5.868-.39-1.272c-1.2-3.859-3.787-6.995-7.183-8.7-.434-.217-.81-.405-.824-.42s.376-.448.867-.968c.998-1.04 1.821-2.53 2.197-3.96.275-1.099.275-3.368 0-4.48-.795-3.123-3.382-5.71-6.504-6.505-1.098-.274-3.382-.274-4.48 0-3.151.795-5.724 3.397-6.519 6.577-.332 1.315-.216 3.916.232 5.174.404 1.127 1.488 2.818 2.298 3.54.346.304.592.579.563.593-.014.03-.578.318-1.228.665s-1.662 1.04-2.27 1.547c-.606.491-1.098.852-1.098.78 0-.058-.332-.621-.722-1.243-1.272-1.922-3.296-3.729-5.348-4.77-.434-.216-.81-.404-.824-.418-.014-.015.376-.448.867-.969.998-1.04 1.821-2.53 2.197-3.96.275-1.099.275-3.368 0-4.48-.795-3.122-3.382-5.71-6.504-6.504-1.084-.275-3.483-.275-4.553.014m4.783 3.323c1.229.593 2.342 1.706 2.935 2.934.419.882.447 1.07.447 2.472s-.028 1.59-.447 2.471c-.593 1.229-1.706 2.342-2.934 2.934-.882.42-1.07.448-2.472.448s-1.59-.029-2.471-.448c-1.229-.592-2.342-1.705-2.935-2.934-.419-.881-.447-1.07-.447-2.471s.028-1.59.447-2.472c.506-1.07 1.634-2.283 2.559-2.746 1.185-.607 1.59-.708 2.992-.665 1.2.03 1.488.087 2.326.477m-22.835 3.469c1.228.593 2.341 1.706 2.934 2.934.419.882.448 1.07.448 2.471 0 1.403-.03 1.59-.448 2.472-.593 1.229-1.706 2.341-2.934 2.934-.882.42-1.07.448-2.472.448s-1.59-.029-2.471-.448c-1.229-.593-2.342-1.706-2.934-2.934-.42-.882-.448-1.07-.448-2.471 0-1.403.028-1.59.448-2.472.505-1.07 1.633-2.284 2.558-2.746 1.185-.607 1.59-.708 2.992-.665 1.2.029 1.488.087 2.327.477m45.671 0c1.229.593 2.342 1.706 2.934 2.934.42.882.448 1.07.448 2.471 0 1.403-.028 1.59-.448 2.472-.592 1.229-1.705 2.341-2.934 2.934-.881.42-1.07.448-2.471.448s-1.59-.029-2.471-.448c-1.23-.593-2.342-1.706-2.934-2.934-.42-.882-.449-1.07-.449-2.471 0-1.403.03-1.59.449-2.472.505-1.07 1.633-2.284 2.558-2.746 1.185-.607 1.59-.708 2.992-.665 1.2.029 1.488.087 2.326.477M40.688 49.863c3.96.998 7.097 4.134 8.166 8.166.29 1.07.318 1.605.39 7.111l.058 5.97h-2.76l-.044-2.516c-.043-2.297-.072-2.558-.346-2.933-.564-.752-1.648-.795-2.313-.087-.347.361-.347.433-.347 2.948v2.587H26.698l.058-5.969c.072-5.506.1-6.041.39-7.11 1.07-4.004 4.191-7.14 8.108-8.152 1.503-.405 3.902-.405 5.434-.015m-22.85 3.469c2.168.55 4.408 1.908 5.694 3.454l.622.737-.16.723c-.1.463-.158 2.992-.158 6.793v6.07H3.847l.087-4.234c.058-3.672.116-4.365.376-5.377 1.04-3.989 4.177-7.14 8.108-8.151 1.503-.405 3.902-.405 5.42-.015m45.686 0c3.96.997 7.111 4.148 8.166 8.166.26 1.012.318 1.706.376 5.377l.087 4.234H52.164v-6.07c0-3.801-.058-6.33-.159-6.793l-.159-.723.622-.737c1.271-1.517 3.512-2.89 5.636-3.454 1.489-.39 3.888-.39 5.42 0"/><path fill="#4A4A4A" d="M44.36 59.561c-.535.217-.868.709-.868 1.33 0 1.012.795 1.677 1.778 1.489 1.3-.246 1.619-2.01.477-2.703-.492-.303-.838-.332-1.388-.116"/></svg>