<svg xmlns="http://www.w3.org/2000/svg" width="80" height="85" fill="none"><path fill="#4A4A4A" d="M20.085 10.951.645 21.391.6 24.406v3.06h79.2v-3.06l-.045-3.015-19.35-10.35C49.74 5.326 40.695.646 40.29.601s-9.495 4.59-20.205 10.35m22.95-2.295c1.08.585 2.565 3.06 2.565 4.32 0 1.71-1.35 4.14-2.745 4.815-2.61 1.35-5.58.585-7.2-1.845-2.97-4.545 2.385-9.855 7.38-7.29M9.69 30.121c-.405.225-.54 1.17-.45 3.015.135 2.52.18 2.655 1.395 2.79l1.215.135v20.61l-1.215.135c-1.215.135-1.26.225-1.26 2.835v2.7l5.355.135c5.94.135 6.12.09 6.12-2.7 0-2.43-.36-3.06-1.845-3.06H17.7v-20.7h1.035c1.575 0 2.115-.855 2.115-3.24 0-1.665-.18-2.25-.855-2.61-1.035-.54-9.45-.585-10.305-.045M26.61 30.211c-.585.315-.81 1.035-.81 2.565 0 2.385.54 3.24 2.115 3.24 1.035 0 1.035 0 1.035 6.525v6.48l2.385-1.08c1.26-.63 2.61-1.125 2.925-1.125.405 0 .54-1.395.54-5.355v-5.4l1.26-.135c1.17-.135 1.215-.27 1.35-2.79.09-1.845-.045-2.79-.45-3.015-.855-.54-9.45-.45-10.35.09M43.44 30.121c-.405.225-.54 1.17-.45 3.015.135 2.52.18 2.655 1.395 2.79l1.215.135v5.4c0 3.96.135 5.355.585 5.355.27 0 1.62.495 2.925 1.125l2.34 1.08v-6.48c0-6.525 0-6.525 1.035-6.525 1.575 0 2.115-.855 2.115-3.24 0-1.665-.18-2.25-.855-2.61-1.035-.54-9.45-.585-10.305-.045M60.36 30.211c-.585.315-.81 1.035-.81 2.565 0 2.385.54 3.24 2.115 3.24H62.7v20.7h-1.305c-1.485 0-1.845.63-1.845 3.06 0 2.79.18 2.835 6.12 2.7l5.355-.135v-2.7c0-2.61-.045-2.7-1.215-2.835l-1.26-.135v-20.61l1.26-.135c1.17-.135 1.215-.27 1.35-2.79.09-1.845-.045-2.79-.45-3.015-.855-.54-9.45-.45-10.35.09M34.305 49.201c-5.31 1.8-8.64 4.815-11.07 10.035-1.125 2.385-1.26 3.15-1.26 7.38 0 4.365.09 4.95 1.395 7.65 3.465 7.335 9.72 11.07 17.73 10.71 7.065-.315 12.51-3.87 15.66-10.17 1.62-3.285 1.665-3.6 1.665-8.145 0-4.275-.135-5.04-1.26-7.425-2.43-5.265-6.165-8.55-11.61-10.215a18.15 18.15 0 0 0-11.25.18m12.465 3.915c9.135 4.455 11.43 16.155 4.635 23.58-3.33 3.645-6.345 4.995-11.205 4.995-3.285 0-4.185-.18-6.39-1.26-7.515-3.69-10.8-12.465-7.425-19.8 3.69-8.1 12.555-11.34 20.385-7.515"/><path fill="#4A4A4A" d="M37.005 54.601c-.405.315-.945.945-1.215 1.485-.405.765-2.79 8.73-2.79 9.315 0 .135.9.36 2.025.495 1.98.315 2.025.36 2.025 1.98.045 1.215.45 2.115 1.575 3.465l1.575 1.8 1.575-1.8c.945-1.08 1.53-2.25 1.53-2.925-.09-2.07.045-2.205 2.115-2.52 1.8-.27 2.025-.405 1.8-1.26-.18-.495-.72-2.61-1.215-4.635-1.305-4.995-2.205-5.985-5.67-5.985-1.44 0-2.925.27-3.33.585"/><path fill="#4A4A4A" d="M31.965 70.441c-1.98.675-1.8.585-2.52 1.89-.45.9-.315 1.26 1.305 3.015 2.7 2.925 5.31 4.05 9.45 4.05s6.75-1.125 9.45-4.05c1.53-1.665 1.755-2.115 1.35-2.88-.63-1.125-2.07-2.07-3.825-2.43-1.26-.27-1.53-.045-4.005 3.105-1.44 1.845-2.79 3.375-2.97 3.375s-1.53-1.53-2.97-3.375-2.835-3.375-3.105-3.375c-.225.045-1.215.315-2.16.675M4.65 68.191v2.925h15.075l-.135-2.925-.18-2.925H4.65zM60.81 68.191l-.135 2.925H75.75v-5.85H60.99zM.6 76.516v3.15h11.52c6.345 0 11.43-.135 11.34-.36-.09-.18-.81-1.575-1.62-3.15l-1.44-2.79H.6zM58.56 76.156c-.81 1.575-1.53 2.97-1.62 3.15-.09.225 4.995.36 11.34.36H79.8v-6.3H60z"/></svg>