<svg xmlns="http://www.w3.org/2000/svg" width="74" height="74" fill="none"><path fill="#4A4A4A" d="m35.902.578-.492.491v3.628c0 3.96.058 4.278.795 4.61.694.318 1.344.16 1.836-.462.23-.275.26-.708.26-3.946 0-3.93-.044-4.249-.737-4.61-.65-.333-1.128-.246-1.662.289M12.27.94c-.332.332-.418.548-.418 1.04 0 .621.028.65 3.006 3.628l3.006 3.006h.665c.723 0 1.33-.448 1.445-1.055.145-.78-.159-1.185-3.107-4.12C13.962.564 13.904.52 13.31.52c-.491 0-.708.087-1.04.42M59.46.94c-.303.23-1.72 1.575-3.122 3.005-2.486 2.515-2.572 2.63-2.572 3.195 0 .419.1.708.375 1.026.318.375.477.448 1.041.448h.665l3.006-3.006C61.83 2.63 61.86 2.6 61.86 1.98c0-.492-.086-.708-.419-1.04-.563-.565-1.228-.565-1.98 0M31.118 12.14c-.318.101-.795.333-1.027.506-.404.275-.506.29-1.185.145-2.269-.492-4.813.94-5.636 3.165-.246.65-.304 1.07-.26 2.009l.043 1.17-.506.16c-.78.23-1.865.997-2.341 1.662-.824 1.127-1.041 1.777-1.041 3.223v1.315l-.766.318c-1.04.434-2.067 1.387-2.573 2.414-.39.751-.433.982-.433 2.21 0 1.2.043 1.46.39 2.111l.376.752-.593.26c-.91.404-2.038 1.619-2.428 2.616-.477 1.243-.448 2.731.072 3.873.217.477.593 1.084.853 1.344l.448.463-2.37 2.4c-2.082 2.066-2.428 2.37-2.746 2.312-1.648-.362-1.923-.39-2.718-.217-1.33.274-1.879.636-3.873 2.645-2.327 2.341-2.587 2.79-2.587 4.64 0 1.907.274 2.384 2.862 4.942 2.009 2.01 2.095 2.067 2.688 2.067.824 0 1.46-.593 1.46-1.373 0-.491-.16-.708-2.01-2.602-2.876-2.934-2.876-3.035-.245-5.68l1.763-1.763h.737c.65 0 .839.072 1.446.564.375.303 4.119 4.003 8.325 8.209 5.752 5.767 7.66 7.776 7.76 8.137.261.925 0 1.388-1.835 3.209-1.864 1.835-2.327 2.081-3.266 1.69-.246-.1-1.344-1.054-2.428-2.11-1.807-1.763-2.024-1.922-2.515-1.922-.78 0-1.373.636-1.373 1.475 0 .607.043.664 2.139 2.731 2.558 2.53 2.992 2.79 4.798 2.79 1.85.014 2.602-.405 4.871-2.689 2.168-2.197 2.573-2.92 2.558-4.596 0-.751-.1-1.33-.318-1.879l-.318-.795 2.775-2.775c1.822-1.835 2.949-2.847 3.252-2.948.318-.101 1.634-.13 3.903-.072l3.44.087 2.934 2.933 2.934 2.934-.246.636c-.145.376-.246 1.099-.26 1.735-.015 1.705.448 2.529 2.76 4.784 2.27 2.225 2.775 2.5 4.524 2.515 2.255 0 1.59.534 11.172-9.02 9.67-9.64 9.28-9.162 9.28-11.36 0-1.199-.044-1.372-.492-2.196-.347-.65-1.012-1.417-2.327-2.688-1.532-1.518-1.966-1.85-2.688-2.125-1.055-.39-2.602-.42-3.513-.058l-.621.246-2.4-2.4-2.384-2.384.55-.752c.288-.405.664-1.142.823-1.633.737-2.327-.448-4.957-2.703-6.013-.361-.173-.751-.303-.881-.303-.16 0-.203-.087-.116-.318.174-.564.072-2.226-.173-2.876-.55-1.402-1.822-2.66-3.093-3.035l-.506-.16v-1.387c0-1.243-.044-1.503-.405-2.226-.506-1.011-1.72-2.153-2.66-2.5l-.708-.246.015-1.33c0-1.127-.058-1.43-.376-2.124-.881-1.879-2.298-2.79-4.683-3.02-.795-.073-3.497-.52-5.998-1.012-5.015-.969-6.402-1.113-7.327-.81m5.593 3.44c1.792.332 3.28.622 3.324.65.03.03-.78.897-1.806 1.923l-1.865 1.864-.578-.318c-.91-.491-2.992-2.645-3.454-3.57-.217-.433-.39-.925-.39-1.07 0-.245.086-.26.765-.187.405.058 2.212.361 4.004.708m-7.805.26c.116.058.333.42.463.795.824 2.226 3.584 5.001 6.099 6.143.838.376.954.491 1.084.968.303 1.099-.448 2.385-1.503 2.587-1.229.232-1.33.16-5.174-3.67-1.98-1.966-3.686-3.744-3.802-3.961-.289-.564-.26-1.547.087-2.11.535-.867 1.865-1.229 2.746-.752m16.289 1.171c.621.231 1.185.853 1.358 1.46.26.997.015 1.445-1.893 3.367-1.69 1.72-1.734 1.778-1.734 2.414 0 .867.535 1.416 1.416 1.416.564 0 .694-.086 1.735-1.084 1.156-1.098 1.633-1.373 2.312-1.373.578 0 1.489.593 1.778 1.157.621 1.17.217 2.08-1.764 3.974-.664.636-1.33 1.316-1.46 1.518-.65.94.03 2.168 1.186 2.168.55 0 .694-.087 1.792-1.142.78-.752 1.344-1.17 1.662-1.243.983-.217 1.951.231 2.4 1.084.26.491.289 1.474.057 1.922-.087.174-.867 1.04-1.734 1.922-1.489 1.518-1.575 1.634-1.575 2.197 0 .81.447 1.316 1.257 1.431.593.073.636.058 1.59-.852 1.532-1.475 2.283-1.72 3.382-1.099.766.434 1.2 1.33 1.07 2.168-.102.55-.348.853-2.183 2.732-1.98 2.009-2.081 2.139-2.081 2.688 0 .94.881 1.662 1.777 1.43.188-.042.65-.346 1.026-.678l.694-.608 2.327 2.328 2.342 2.34-6.692 6.678-6.678 6.692-2.384-2.385-2.4-2.399 1.316-1.3c1.387-1.388 1.517-1.677 1.098-2.501-.245-.448-.78-.737-1.416-.737-.347 0-.65.202-1.474 1.012-1.691 1.633-2.544 1.85-6.316 1.604-2.53-.16-3.975-.044-5.016.419-.505.217-1.445 1.07-3.67 3.28l-2.993 2.978-6.648-6.62c-3.671-3.642-6.663-6.691-6.663-6.778s1.04-1.2 2.298-2.457l2.298-2.298.708.303c1.446.622 3.007.535 4.438-.23 1.271-.694 2.312-2.183 2.5-3.614.101-.752.217-.896.795-.896.708 0 1.965-.578 2.702-1.243.853-.766 1.446-1.908 1.59-2.977l.087-.767.766-.086c1.07-.145 2.211-.737 2.978-1.59.664-.737 1.242-1.995 1.242-2.703 0-.578.145-.694.94-.81 1.604-.201 3.05-1.343 3.801-2.948.52-1.127.535-2.775.029-3.902l-.332-.78 2.08-2.082c2.53-2.529 3.18-2.92 4.279-2.5m-20.51 5.03c.507.159 5.435 4.755 6.331 5.925 1.157 1.504.232 3.484-1.604 3.484-.289 0-.665-.073-.838-.16-.174-.086-1.662-1.502-3.324-3.15-3.252-3.238-3.44-3.498-3.151-4.61.173-.637.795-1.287 1.402-1.475.563-.159.636-.159 1.185-.014m-3.728 6.374c.65.173 5.275 4.769 5.42 5.39.145.579 0 1.46-.304 1.88-.693.939-2.066 1.112-3.035.404-.852-.621-4.321-4.206-4.596-4.74-.506-1.012-.087-2.255.954-2.776.708-.346.853-.36 1.561-.159m-2.37 7.66c.535.216 2.37 1.994 2.601 2.558.709 1.662-.78 3.382-2.515 2.905-.737-.202-2.688-2.154-2.89-2.89-.448-1.663 1.185-3.18 2.804-2.573m50.441 14.77c1.85 1.865 2.038 2.169 1.865 3.123-.087.462-1.055 1.503-8.138 8.585-4.422 4.437-8.252 8.166-8.498 8.281-.55.26-1.17.275-1.604.03-.188-.102-1.04-.897-1.922-1.75-1.663-1.662-1.952-2.139-1.778-3.035.057-.346 1.734-2.11 8.05-8.455 4.38-4.394 8.166-8.122 8.397-8.267.275-.173.694-.274 1.157-.274h.708z"/><path fill="#4A4A4A" d="M48.823 48.288c-.824.462-.954 1.56-.275 2.254 1.026 1.012 2.775-.029 2.327-1.387-.087-.26-.275-.578-.42-.709-.375-.346-1.17-.419-1.632-.158M9.597 62.365c-.174.072-.448.318-.636.549-.42.535-.332 1.416.217 1.879.896.78 2.384.13 2.384-1.026 0-.954-1.127-1.749-1.965-1.402"/></svg>