<svg xmlns="http://www.w3.org/2000/svg" width="62" height="74" fill="none"><path fill="#4A4A4A" d="M27.965.113c-2.53.404-4.726 1.156-6.417 2.168-2.616 1.56-5.001 3.931-6.562 6.504-.81 1.33-1.532 3.18-1.937 4.885-.419 1.806-.52 5.42-.202 7.24.925 5.32 4.119 9.829 8.932 12.59 4.74 2.717 11.057 2.948 16.245.606 1.735-.78 3.368-1.98 5.059-3.656 3.787-3.787 5.449-8.094 5.217-13.413-.216-4.726-1.82-8.44-5.116-11.779-2.63-2.674-5.911-4.394-9.54-5.03-1.14-.202-4.725-.274-5.68-.115M34.15 4.91c2.168.636 4.133 1.836 5.853 3.585s2.674 3.353 3.382 5.636c.362 1.171.39 1.46.39 3.73-.014 2.24-.043 2.572-.39 3.728-.665 2.183-1.633 3.801-3.338 5.565-2.544 2.644-5.926 4.075-9.54 4.075-3.584-.014-6.532-1.185-9.09-3.613-1.995-1.893-3.209-3.815-3.888-6.171-.29-.983-.333-1.446-.318-3.657 0-2.341.029-2.63.404-3.83.983-3.194 3.252-6.013 6.302-7.82 1.127-.664 2.226-1.083 3.772-1.43 1.402-.318 5.073-.202 6.46.202"/><path fill="#4A4A4A" d="M14.379 35.798c-3.339.491-5.868 1.734-7.993 3.916C2.34 43.877.07 51.262.07 60.296c0 3.815.275 5.174 1.489 7.573.448.882.91 1.474 1.908 2.472 1.416 1.43 2.645 2.24 4.365 2.847 2.384.867 1.59.838 23.688.795l20.22-.044 1.229-.375c1.56-.492 2.384-.853 3.425-1.518 2.414-1.532 4.192-3.96 4.958-6.706.462-1.72.592-3.773.433-6.938-.722-14.164-6.1-22.142-15.248-22.648-1.965-.1-1.994-.1-5.362 2.067-2.602 1.662-4.408 2.486-6.807 3.108-1.807.476-5.045.476-6.837.014-2.558-.665-4.278-1.46-6.88-3.15-.953-.622-2.124-1.345-2.63-1.605-.838-.434-1.026-.477-2.096-.463-.65.015-1.344.044-1.546.073m3.83 5.795c2.587 1.662 4.51 2.602 6.75 3.281 4.364 1.315 8.498 1.229 12.848-.289 1.98-.68 3.397-1.416 5.955-3.064l2.14-1.359.88.087c5.334.607 8.572 4.972 10.017 13.456.433 2.515.694 7.212.506 8.903-.39 3.498-2.573 5.926-6.042 6.735-1.04.246-2.298.26-20.407.26-21.449 0-20.09.058-22.244-.968-1.185-.564-2.674-2.023-3.223-3.15-.694-1.446-.838-2.342-.838-5.146.014-7.617 1.792-13.89 4.943-17.33 1.214-1.329 2.731-2.182 4.668-2.6 1.633-.362 1.677-.348 4.047 1.184"/></svg>