<svg xmlns="http://www.w3.org/2000/svg" width="91" height="90" fill="none"><path fill="#4A4A4A" fill-rule="evenodd" d="M45.596 86.967H5.943c-2.002 0-2.344-.343-2.345-2.342V71.29c0-.233-.004-.468.002-.701.03-1.2.529-1.712 1.707-1.747.293-.008.585-.002.878-.002q10.702.001 21.405-.002c1.378 0 1.27.097 1.274-1.288.005-2.193-.002-4.387.003-6.58.004-1.475.475-1.95 1.938-1.955 2.252-.006 4.503 0 6.755-.003 1.128 0 1.13-.004 1.131-1.169.002-2.164-.03-4.328.018-6.491.015-.726-.21-1.161-.818-1.573-3.288-2.223-5.311-5.311-5.985-9.222-1.256-7.288 3.44-14.322 10.753-15.933 7.837-1.726 15.483 3.447 16.723 11.33.898 5.707-1.163 10.339-5.847 13.728-.716.518-.963 1.022-.943 1.862.05 2.192.013 4.386.02 6.58.003.87.015.883.883.886 2.31.007 4.62 0 6.93.004 1.537.004 2.005.462 2.008 1.975.005 2.28 0 4.562.003 6.842.002 1 .009 1.006 1.03 1.007 7.31.002 14.621 0 21.932.002 1.946 0 2.304.356 2.304 2.294v13.422c0 .235.005.469-.002.702-.038 1.178-.55 1.678-1.75 1.706-.35.009-.701.003-1.052.003zm.114-25.266c-4.413 0-8.827-.003-13.24.002-.897 0-.914.013-.914.854q-.008 10.434 0 20.869c0 .83.02.848.828.85q3.42.015 6.84.002c.855-.003.865-.016.869-.9.007-1.87-.003-3.741.005-5.612.005-1.414.488-1.901 1.897-1.905q3.639-.011 7.278 0c1.455.003 1.926.483 1.93 1.962.006 1.841-.003 3.683.004 5.524.003.919.012.929.926.931 2.163.007 4.325.004 6.488.002 1.123 0 1.126-.004 1.126-1.173q.002-10.127 0-20.255c0-.204-.01-.409-.005-.613.007-.364-.163-.54-.53-.533-.262.005-.525-.006-.788-.006zm11.23-23.424c.135-6.238-5.25-11.302-11.19-11.356-6.044-.054-11.376 5.062-11.419 11.242-.042 6.097 5.09 11.369 11.262 11.396 6.224.028 11.454-5.215 11.347-11.282M17.6 71.527c-3.477 0-6.955-.004-10.432.002-.857.002-.877.015-.879.801q-.01 5.566 0 11.133c.002.795.024.809.865.815q1.973.013 3.945 0c.907-.005.917-.013.92-.938.005-2.309-.002-4.618.004-6.926.003-1.477.473-1.954 1.933-1.957q3.594-.009 7.188-.001c1.52.003 1.98.466 1.984 1.997.005 2.191.001 4.383.002 6.574 0 .234.01.468.006.701-.006.354.14.547.515.546q2.367-.005 4.733-.005c.33 0 .471-.178.472-.493.001-.205.01-.409.01-.614l-.001-10.52c0-.204-.008-.408-.01-.613 0-.316-.144-.49-.473-.492-.262 0-.525-.01-.788-.01zm56.197 0c-3.506 0-7.013-.004-10.52.003-.815.002-.837.023-.839.84q-.009 5.523 0 11.046c.002.849.017.857.906.862q1.929.011 3.858.001c.957-.004.965-.01.967-.98.005-2.308-.003-4.617.004-6.925.004-1.422.485-1.91 1.885-1.917 1.841-.008 3.682-.003 5.523-.002.701 0 1.404-.019 2.104.007 1.031.04 1.534.557 1.59 1.593.012.233.004.467.004.7 0 2.192-.003 4.384.003 6.576.002.933.01.941.91.947q1.928.01 3.857 0c.956-.003.964-.01.965-.98q.004-5.348 0-10.696c0-1.068-.006-1.074-1.048-1.075q-5.084-.003-10.169 0M45.628 59.011c1.196 0 2.392.01 3.587-.005.66-.009.695-.04.7-.708q.019-3.019 0-6.037c-.004-.635-.065-.694-.656-.544-2.394.606-4.779.61-7.173.006-.636-.16-.698-.1-.702.581a509 509 0 0 0 0 5.95c.004.715.037.744.744.753 1.167.015 2.333.004 3.5.004M20.44 80.777c0-.993-.007-1.985.004-2.978.004-.416-.116-.66-.59-.656a360 360 0 0 1-4.555.001c-.395-.002-.588.154-.587.566a680 680 0 0 1-.003 5.957c-.003.455.197.617.633.613 1.49-.01 2.979-.015 4.467.002.518.007.644-.247.637-.702-.016-.934-.005-1.869-.006-2.803m56.152-.029c0-.963.012-1.927-.004-2.89-.012-.669-.04-.703-.7-.71q-2.146-.022-4.292 0c-.68.006-.725.041-.73.678-.014 1.927.003 3.855-.01 5.782-.003.478.177.68.665.675 1.46-.016 2.92.005 4.38-.01.644-.007.675-.047.687-.722.016-.934.004-1.868.004-2.803m-28.08.664c0-.759-.006-1.518.004-2.277.005-.396-.156-.588-.567-.586-1.547.007-3.094.005-4.641.002-.372 0-.52.186-.519.542q.006 2.32 0 4.64c0 .357.15.542.52.54 1.548-.002 3.095-.004 4.642.004.412.002.57-.193.565-.588-.01-.759-.003-1.518-.003-2.277" clip-rule="evenodd"/><path fill="#4A4A4A" fill-rule="evenodd" d="M65.39 39.238c-.73 0-1.462-.01-2.193.003-.435.009-.648-.156-.643-.613.03-2.534-.3-2.025 1.9-2.071.994-.021 1.988 0 2.982-.006.833-.004.842-.006 1.103-.787.836-2.507 3.038-4.735 6.475-4.788 3.74-.058 6.258 2.531 6.888 5.498.844 3.979-1.931 8.2-6.652 8.343-3.061.093-5.462-1.743-6.534-4.323a7 7 0 0 1-.252-.747c-.103-.36-.322-.517-.706-.509-.788.018-1.578.005-2.368.005zm9.738-5.61c-2.398-.002-4.27 1.87-4.269 4.267s1.872 4.27 4.268 4.27c2.394.002 4.272-1.876 4.27-4.269 0-2.397-1.871-4.268-4.269-4.269M25.832 39.24c-.673 0-1.346-.005-2.018.002-.786.008-.787.011-1.044.75-.77 2.215-2.24 3.754-4.472 4.485-4.076 1.334-8.284-1.317-8.958-5.558-.63-3.957 2.355-7.367 5.802-7.869 3.21-.468 6.514 1.448 7.586 4.621.297.879.308.879 1.213.881 1.345.004 2.69-.007 4.035.005.704.005.748.057.766.744.011.438-.01.878.003 1.316.015.45-.19.632-.633.624-.76-.014-1.52-.004-2.28-.004zm-9.703 2.926c2.407.011 4.3-1.846 4.311-4.229.011-2.408-1.845-4.3-4.228-4.31-2.412-.01-4.298 1.84-4.31 4.227-.012 2.408 1.843 4.3 4.227 4.312M24.83 10.15c4.931-.072 8.495 5.208 6.179 9.963-.396.812-.566.727.26 1.547a484 484 0 0 1 2.727 2.728c.591.596.586.601.036 1.178-1.252 1.312-1.252 1.312-2.542.022q-1.083-1.086-2.171-2.168c-.588-.582-.59-.58-1.335-.218-3.16 1.535-6.745.688-8.768-2.072-2.954-4.031-.67-9.924 4.218-10.863.456-.087.93-.08 1.396-.117m-.088 11.134c2.461.016 4.308-1.765 4.334-4.182.027-2.39-1.845-4.322-4.212-4.345-2.367-.024-4.32 1.87-4.353 4.224-.034 2.401 1.82 4.286 4.231 4.303M66.411 10.173c3.739-.088 6.57 2.82 6.924 5.941.51 4.513-2.744 7.262-5.558 7.739-1.596.27-3.073.036-4.501-.673-.695-.345-.7-.349-1.264.211-.954.947-1.898 1.904-2.853 2.85-.594.59-.6.584-1.177.033-1.312-1.252-1.312-1.252-.02-2.543.722-.723 1.449-1.443 2.17-2.169.582-.587.579-.59.21-1.335-1.544-3.13-.693-6.741 2.077-8.762 1.218-.889 2.583-1.34 3.992-1.292m.008 11.11c2.456.02 4.342-1.778 4.37-4.165.029-2.365-1.866-4.324-4.217-4.36a4.26 4.26 0 0 0-4.348 4.208c-.04 2.431 1.775 4.3 4.195 4.318M44.306 18.76c0-.468-.028-.938.007-1.403.04-.533-.187-.78-.69-.93-1.51-.445-2.714-1.34-3.628-2.62-2.963-4.143-.455-9.987 4.561-10.822 3.539-.588 7.923 1.876 8.014 6.784.061 3.276-2.009 5.66-4.633 6.577-.98.343-.938.228-.943 1.353-.003.848.01 1.696-.004 2.543-.012.686-.063.728-.766.746-.35.01-.702.007-1.053.002-.821-.013-.849-.037-.862-.827-.008-.468-.002-.936-.002-1.404zm1.346-13.208c-2.396-.001-4.271 1.872-4.271 4.266 0 2.397 1.872 4.272 4.266 4.273 2.396 0 4.272-1.873 4.273-4.268 0-2.4-1.869-4.27-4.268-4.27M82.823 54.754c-.794-.148-1.61-.052-2.419-.07-.993-.021-1.007-.01-1-.956.013-2.003-.242-1.715 1.71-1.73a327 327 0 0 1 4.735 0c1.349.008 1.843.505 1.85 1.865q.013 2.807 0 5.614c-.003.768-.043.82-.782.814-2.249-.014-1.86.274-1.901-1.803q-.013-.744-.037-1.488c-.001-.046-.061-.09-.11-.156-.337.068-.513.36-.732.578-1.969 1.958-3.93 3.924-5.895 5.888q-.185.187-.372.372c-1.067 1.052-1.602 1.06-2.647.024-.789-.782-1.567-1.575-2.358-2.354-.633-.624-.644-.625-1.362-.055-1.556 1.236-3.104 2.484-4.66 3.72-.636.505-.665.505-1.176-.143-1.34-1.697-1.29-1.206.242-2.465 1.716-1.41 3.463-2.783 5.201-4.167 1.054-.84 1.528-.815 2.49.134.81.8 1.607 1.618 2.422 2.415.477.467.544.476.996.027 1.868-1.852 3.726-3.716 5.584-5.579.12-.12.27-.234.221-.485M11.9 6.995c-.002 1.482.11 1.354-1.378 1.364-1.575.01-1.418-.151-1.43 1.39-.01 1.545.135 1.411-1.412 1.415-1.358.004-1.268.078-1.277-1.289-.011-1.696.184-1.504-1.478-1.516-1.426-.01-1.327.095-1.327-1.326 0-1.482-.11-1.354 1.377-1.364 1.573-.01 1.419.152 1.43-1.391.01-1.544-.135-1.41 1.412-1.415 1.358-.004 1.269-.078 1.277 1.29.011 1.696-.184 1.504 1.478 1.515 1.426.01 1.327-.094 1.327 1.327M83.518 2.863c1.494.002 1.367-.113 1.378 1.363.012 1.607-.165 1.433 1.464 1.443 1.43.01 1.344-.107 1.342 1.311-.002 1.49.114 1.37-1.363 1.38-1.61.01-1.431-.163-1.443 1.463-.01 1.428.106 1.343-1.313 1.342-1.49-.002-1.367.115-1.376-1.364-.01-1.613.158-1.43-1.465-1.442-1.426-.01-1.344.11-1.342-1.312.003-1.49-.115-1.368 1.364-1.378 1.61-.011 1.43.162 1.442-1.464.01-1.428-.107-1.343 1.312-1.342M21.847 58.936c0-2.014-.004-4.028.002-6.042.002-.873.022-.902.876-.895 2.122.015 1.794-.266 1.803 1.803.017 3.707.007 7.414.004 11.12 0 .98-.006.993-.966.986-1.985-.015-1.702.244-1.717-1.719-.013-1.75-.002-3.502-.002-5.253M14.828 61.061c0-1.312-.004-2.625.001-3.938.004-.905.013-.908.946-.917q.437-.005.875 0c.821.014.859.038.861.824q.01 4.026 0 8.051c-.002.79-.04.832-.856.826-2.139-.017-1.798.268-1.825-1.783-.013-1.02-.002-2.042-.002-3.063M10.495 62.46c0 .874.008 1.748-.002 2.622-.008.789-.041.815-.856.828-.35.005-.7.008-1.05-.001-.71-.018-.769-.058-.773-.733a433 433 0 0 1 0-5.421c.004-.679.064-.722.768-.74q.569-.015 1.137 0c.73.018.766.053.775.82.008.875.001 1.75.001 2.624M42.78 68.867c0 .789.015 1.578-.003 2.367-.027 1.14-.542 1.674-1.67 1.689a178 178 0 0 1-4.998-.002c-1.076-.017-1.605-.557-1.62-1.645a181 181 0 0 1 0-4.997c.014-1.086.544-1.626 1.622-1.642 1.694-.025 3.39-.027 5.084.003 1.029.018 1.546.559 1.578 1.597.028.876.006 1.753.007 2.63m-2.684-.021c-.023-1.7.186-1.527-1.464-1.527-1.624 0-1.462-.17-1.46 1.437 0 1.671-.185 1.48 1.502 1.483 1.57.004 1.404.151 1.422-1.393M56.818 68.795c0 .819.016 1.637-.004 2.455-.028 1.131-.55 1.66-1.685 1.673q-2.456.03-4.91 0c-1.142-.013-1.678-.535-1.693-1.663a178 178 0 0 1 0-4.997c.017-1.08.554-1.612 1.638-1.627q2.499-.034 4.998 0c1.12.016 1.63.557 1.653 1.704.017.818.003 1.637.003 2.455m-4.175 1.448c1.67-.021 1.484.183 1.486-1.504 0-1.593.164-1.42-1.478-1.42-1.61 0-1.442-.165-1.443 1.456 0 1.63-.166 1.449 1.435 1.468M42.869 41.116c.117 0 .234.01.35-.002.538-.057.907.069 1.169.638.31.674 1.052.907 1.711.694.637-.205 1.022-.785 1.012-1.48-.006-.458-.202-.789-.605-.985-.288-.14-.59-.25-.89-.363-.574-.216-1.16-.403-1.724-.64-1.459-.61-2.293-1.717-2.36-3.294-.066-1.535.572-2.776 1.854-3.66.072-.05.144-.106.225-.135.542-.196.729-.565.71-1.148-.026-.833.02-.84.821-.854.41-.007.819.011 1.228-.003.447-.016.684.19.615.628-.119.758.248 1.141.876 1.501 1.01.579 1.606 1.508 1.814 2.666.113.63.084.668-.52.697-.263.013-.526-.004-.79.005-.65.022-1.217.05-1.538-.769-.253-.642-1.114-.797-1.76-.522-.639.272-.987.954-.86 1.656.078.42.349.669.716.819.432.176.876.322 1.314.484.41.153.825.296 1.227.467 3.033 1.296 2.961 5.251.595 6.782-.932.603-1.166 1.243-1.068 2.199.018.173-.007.35.002.525.019.397-.157.61-.56.612-.526.002-1.053.005-1.578-.003-.345-.004-.551-.165-.544-.536.003-.117-.016-.236-.002-.35.137-1.114-.077-1.966-1.224-2.56-.868-.448-1.295-1.398-1.464-2.394-.105-.619-.084-.643.546-.675q.044-.002.088 0z" clip-rule="evenodd"/></svg>