<svg width="91" height="90" viewBox="0 0 91 90" fill="none" xmlns="http://www.w3.org/2000/svg">
<path fill-rule="evenodd" clip-rule="evenodd" d="M45.5958 86.9673C32.3783 86.9673 19.1608 86.9675 5.94317 86.967C3.94081 86.967 3.59861 86.6241 3.59843 84.6249C3.5979 80.18 3.59808 75.7352 3.59808 71.2905C3.59808 71.0566 3.59439 70.8225 3.60019 70.5886C3.62984 69.3884 4.12877 68.8772 5.30736 68.8424C5.59956 68.8337 5.89228 68.8395 6.18465 68.8395C13.3198 68.8393 20.4549 68.841 27.59 68.8379C28.9678 68.8372 28.8608 68.9353 28.8641 67.5498C28.8695 65.3567 28.8616 63.1634 28.8672 60.9702C28.8709 59.4949 29.3419 59.0191 30.805 59.0149C33.0566 59.0088 35.3083 59.0146 37.56 59.0121C38.6877 59.0111 38.6902 59.0081 38.6912 57.843C38.6932 55.6792 38.6619 53.5147 38.7086 51.3516C38.7242 50.6264 38.4991 50.1905 37.8912 49.7793C34.6034 47.5564 32.5796 44.4676 31.9059 40.5568C30.6504 33.2695 35.3462 26.2346 42.6593 24.6239C50.496 22.8976 58.1423 28.0713 59.3824 35.9545C60.28 41.6608 58.219 46.2929 53.5352 49.6818C52.8192 50.1998 52.5724 50.7042 52.5919 51.5441C52.6424 53.7361 52.6045 55.9301 52.6117 58.1233C52.6147 58.9949 52.6267 59.0072 53.4945 59.01C55.8046 59.0172 58.1148 59.01 60.425 59.0144C61.9623 59.0176 62.4298 59.4765 62.4331 60.9888C62.4382 63.2695 62.4321 65.5506 62.4364 67.8314C62.4384 68.8302 62.4447 68.8372 63.4659 68.8375C70.7763 68.8398 78.0871 68.8386 85.3977 68.8395C87.3443 68.8396 87.7017 69.1964 87.7019 71.1343C87.7026 75.6083 87.7024 80.0825 87.7023 84.5564C87.7023 84.7906 87.707 85.0245 87.6996 85.2582C87.6621 86.4356 87.1502 86.9359 85.9505 86.9644C85.5999 86.9728 85.2487 86.967 84.8979 86.967C71.7971 86.9675 58.6965 86.9675 45.5958 86.9673ZM45.7098 61.7006C41.2966 61.7006 36.8832 61.6982 32.4697 61.7027C31.5731 61.7038 31.5563 61.7157 31.5558 62.5572C31.5512 69.5133 31.5512 76.4695 31.5558 83.4258C31.5563 84.2553 31.5753 84.2736 32.3839 84.2767C34.6637 84.2857 36.9434 84.2851 39.2232 84.2778C40.0785 84.275 40.0892 84.2616 40.0929 83.378C40.1004 81.5075 40.0903 79.6367 40.0976 77.7662C40.1032 76.3517 40.5862 75.8649 41.9949 75.8607C44.4207 75.8535 46.8467 75.8542 49.2727 75.8603C50.7285 75.864 51.1987 76.3443 51.2032 77.8228C51.2089 79.6641 51.2004 81.5055 51.2069 83.347C51.2103 84.2658 51.2192 84.2758 52.133 84.2785C54.2956 84.2848 56.4585 84.2823 58.6214 84.2802C59.7441 84.2792 59.7472 84.276 59.7474 83.1071C59.7486 76.3554 59.7481 69.6039 59.7477 62.8522C59.7477 62.6476 59.7372 62.443 59.7418 62.2385C59.7493 61.8749 59.5791 61.6999 59.2128 61.7064C58.9501 61.7112 58.6869 61.7003 58.4238 61.7003C54.1859 61.6996 49.9478 61.6996 45.7098 61.7006ZM56.9399 38.2766C57.0747 32.0388 51.6897 26.9748 45.7509 26.9214C39.7058 26.8669 34.3736 31.9826 34.3312 38.1629C34.2892 44.2601 39.4209 49.5317 45.593 49.5591C51.8169 49.587 57.0466 44.3435 56.9399 38.2766ZM17.6 71.5267C14.1226 71.5267 10.6451 71.5234 7.16775 71.5292C6.31082 71.5306 6.29099 71.5439 6.28941 72.33C6.28187 76.0409 6.28204 79.7522 6.28941 83.4633C6.29099 84.2583 6.31328 84.2718 7.15406 84.2778C8.46902 84.2869 9.78415 84.286 11.0991 84.2785C12.0064 84.2732 12.016 84.2651 12.0183 83.3398C12.0243 81.0312 12.0167 78.7224 12.0225 76.414C12.0262 74.9371 12.4958 74.4604 13.9557 74.4567C16.3519 74.4504 18.7482 74.4517 21.1444 74.456C22.6638 74.4589 23.1248 74.9225 23.1282 76.4526C23.1331 78.644 23.1294 80.8357 23.1299 83.0274C23.1299 83.2611 23.1396 83.4951 23.1357 83.7285C23.1299 84.0817 23.2768 84.2748 23.6509 84.2736C25.2288 84.2692 26.8064 84.2697 28.3845 84.2686C28.7139 84.2685 28.855 84.0907 28.8562 83.7757C28.8571 83.5714 28.8651 83.367 28.8651 83.1623C28.8657 79.6557 28.8655 76.149 28.865 72.6427C28.865 72.4381 28.8565 72.2336 28.8558 72.029C28.8546 71.7129 28.7109 71.5392 28.3825 71.5375C28.1197 71.5362 27.8568 71.5264 27.5939 71.5264C24.2625 71.5257 20.9312 71.5259 17.6 71.5267ZM73.7974 71.5271C70.2907 71.5271 66.7841 71.5232 63.2774 71.5301C62.4619 71.5317 62.4399 71.5534 62.4385 72.3703C62.4321 76.0521 62.4321 79.7341 62.4382 83.4161C62.4396 84.2646 62.455 84.273 63.3444 84.2783C64.6301 84.2862 65.9161 84.285 67.2017 84.2792C68.159 84.2748 68.1668 84.2686 68.1689 83.2994C68.1738 80.9908 68.1659 78.6822 68.1729 76.3738C68.1771 74.952 68.6576 74.4636 70.0584 74.4571C71.8993 74.4487 73.7402 74.4543 75.5813 74.4545C76.2825 74.4546 76.9847 74.436 77.6851 74.4624C78.7161 74.5013 79.2194 75.0188 79.2745 76.0546C79.2868 76.2878 79.2794 76.5221 79.2794 76.7557C79.2797 78.9474 79.2761 81.1391 79.2817 83.3308C79.2841 84.2641 79.2927 84.2725 80.1919 84.2779C81.4776 84.2858 82.7634 84.2844 84.0491 84.2788C85.0046 84.2746 85.0127 84.2688 85.0137 83.2973C85.0174 79.7322 85.0169 76.1671 85.0145 72.6022C85.0137 71.5336 85.0083 71.5278 83.9664 71.5269C80.5768 71.5243 77.1872 71.526 73.7974 71.5271ZM45.6281 59.0107C46.8239 59.0107 48.0198 59.0219 49.2153 59.0063C49.8751 58.9974 49.9104 58.9656 49.9146 58.2984C49.9274 56.2859 49.9278 54.2735 49.9151 52.2613C49.9111 51.626 49.8504 51.5671 49.2588 51.7168C46.8655 52.3226 44.4804 52.3273 42.0859 51.7233C41.4501 51.5629 41.3882 51.6227 41.3842 52.3043C41.3726 54.2877 41.3726 56.2709 41.3842 58.2542C41.3884 58.9689 41.4212 58.9984 42.1281 59.0074C43.2946 59.0216 44.4614 59.0111 45.6281 59.0107ZM20.4393 80.7771C20.4393 79.7843 20.4321 78.7916 20.4428 77.799C20.4472 77.3832 20.3268 77.1388 19.8531 77.1426C18.335 77.1548 16.8166 77.1512 15.2983 77.1442C14.9027 77.1423 14.7097 77.2985 14.7107 77.7104C14.7167 79.6957 14.7191 81.6814 14.7077 83.6665C14.7051 84.1219 14.9046 84.2837 15.3413 84.2804C16.8303 84.2693 18.3195 84.2646 19.8084 84.2825C20.3257 84.2888 20.4524 84.0351 20.4449 83.5802C20.4293 82.6459 20.4403 81.7114 20.4393 80.7771ZM76.5907 80.7483C76.5907 79.7847 76.603 78.821 76.5867 77.8578C76.5752 77.1893 76.5465 77.1555 75.8868 77.1484C74.4564 77.133 73.0254 77.1337 71.5948 77.1474C70.9141 77.1539 70.8699 77.1895 70.8651 77.8265C70.8511 79.7534 70.8683 81.6807 70.8553 83.6076C70.852 84.0865 71.032 84.2878 71.5202 84.2827C72.98 84.2671 74.4402 84.2883 75.8998 84.2729C76.5438 84.2662 76.5754 84.2258 76.5868 83.5512C76.6026 82.6171 76.5907 81.6826 76.5907 80.7483ZM48.5119 81.4122C48.5119 80.6533 48.5051 79.8943 48.5147 79.1353C48.5196 78.7389 48.3587 78.5467 47.9479 78.5487C46.4009 78.5562 44.8538 78.5545 43.3067 78.5515C42.9352 78.5508 42.7874 78.7375 42.7881 79.0929C42.7916 80.6398 42.7916 82.1871 42.7883 83.7339C42.7876 84.0903 42.9381 84.2748 43.3086 84.2739C44.8557 84.2709 46.4029 84.2692 47.9498 84.2769C48.3622 84.279 48.5198 84.0842 48.5149 83.6888C48.5052 82.9302 48.5119 82.171 48.5119 81.4122Z" fill="#4A4A4A"/>
<path fill-rule="evenodd" clip-rule="evenodd" d="M65.3902 39.2378C64.6593 39.2378 63.9282 39.2276 63.1975 39.2414C62.7624 39.2499 62.5492 39.0851 62.5545 38.6278C62.5843 36.094 62.2538 36.6029 64.454 36.5566C65.4476 36.5357 66.4423 36.5568 67.4363 36.5515C68.2686 36.5471 68.2781 36.5454 68.5387 35.7636C69.3751 33.2567 71.5768 31.0295 75.0138 30.9758C78.7535 30.9177 81.2715 33.5071 81.9015 36.4743C82.7461 40.4527 79.9709 44.6745 75.2497 44.8173C72.1888 44.91 69.7879 43.0737 68.7156 40.4943C68.6149 40.2521 68.5366 39.9996 68.4641 39.7472C68.3606 39.3869 68.1416 39.2299 67.7585 39.2383C66.9695 39.2557 66.1798 39.2434 65.3902 39.2434C65.3902 39.2416 65.3902 39.2397 65.3902 39.2378ZM75.1282 33.6271C72.7303 33.6261 70.8585 35.4977 70.8594 37.8953C70.8603 40.2925 72.7312 42.1648 75.1274 42.1658C77.5209 42.1669 79.3988 40.2893 79.3979 37.8961C79.3972 35.4991 77.5258 33.628 75.1282 33.6271Z" fill="#4A4A4A"/>
<path fill-rule="evenodd" clip-rule="evenodd" d="M25.8315 39.2403C25.159 39.2403 24.4863 39.2351 23.8138 39.2417C23.0283 39.2495 23.0266 39.2533 22.7698 39.992C22.0003 42.2065 20.5302 43.7461 18.2983 44.4765C14.2222 45.8109 10.0143 43.1599 9.34003 38.9188C8.71071 34.9617 11.6948 31.5524 15.1416 31.05C18.3519 30.582 21.6562 32.4981 22.7283 35.6712C23.0252 36.5499 23.0359 36.5497 23.9411 36.552C25.286 36.5555 26.6312 36.5455 27.9761 36.5567C28.6795 36.5625 28.7237 36.6145 28.7416 37.3012C28.753 37.7395 28.7315 38.1786 28.7455 38.6168C28.7599 39.0663 28.5544 39.2491 28.1122 39.241C27.3521 39.2275 26.5917 39.2374 25.8315 39.2374C25.8315 39.2386 25.8315 39.2395 25.8315 39.2403ZM16.1289 42.1656C18.5356 42.177 20.4291 40.3198 20.4402 37.9371C20.4514 35.5292 18.5947 33.6369 16.2117 33.6271C13.8003 33.6171 11.9136 35.4675 11.9018 37.8541C11.8899 40.2624 13.745 42.1546 16.1289 42.1656Z" fill="#4A4A4A"/>
<path fill-rule="evenodd" clip-rule="evenodd" d="M24.8303 10.1503C29.7612 10.0776 33.3249 15.3585 31.009 20.1133C30.6134 20.9254 30.4427 20.8403 31.2684 21.66C32.1806 22.5661 33.0912 23.4743 33.9962 24.3877C34.5874 24.9844 34.5823 24.9893 34.0324 25.5656C32.7799 26.8779 32.78 26.8778 31.4902 25.5881C30.7668 24.8649 30.0448 24.1404 29.3185 23.42C28.7311 22.8376 28.7288 22.8401 27.9837 23.2021C24.8243 24.7373 21.2387 23.89 19.2163 21.1304C16.2616 17.0989 18.5451 11.2064 23.4344 10.2672C23.8904 10.1796 24.3645 10.187 24.8303 10.1503ZM24.7424 21.2838C27.2035 21.3003 29.0498 19.5189 29.0765 17.1018C29.1028 14.7111 27.2314 12.7804 24.8643 12.7569C22.4968 12.733 20.5437 14.6279 20.5107 16.9806C20.4771 19.3822 22.3311 21.2675 24.7424 21.2838Z" fill="#4A4A4A"/>
<path fill-rule="evenodd" clip-rule="evenodd" d="M66.4112 10.1729C70.1497 10.0854 72.9813 12.9938 73.3345 16.1142C73.8455 20.6271 70.5907 23.3757 67.7774 23.853C66.1813 24.1238 64.7037 23.8893 63.2757 23.1798C62.5813 22.8346 62.5762 22.8315 62.0125 23.3911C61.0584 24.3381 60.1144 25.295 59.1594 26.2409C58.5645 26.8302 58.559 26.8248 57.9818 26.2739C56.6704 25.0221 56.6702 25.022 57.9613 23.7312C58.6845 23.008 59.4109 22.288 60.1313 21.562C60.7139 20.9748 60.7109 20.9718 60.3429 20.2267C58.7979 17.0968 59.6487 13.486 62.4193 11.4649C63.6372 10.576 65.0018 10.1247 66.4112 10.1729ZM66.4191 21.2838C68.8751 21.3028 70.7609 19.5052 70.7894 17.118C70.8176 14.7526 68.9234 12.7941 66.5718 12.7574C64.1919 12.7204 62.2621 14.5881 62.224 16.9655C62.1849 19.3973 63.9994 21.2654 66.4191 21.2838Z" fill="#4A4A4A"/>
<path fill-rule="evenodd" clip-rule="evenodd" d="M44.3056 18.7595C44.3056 18.2917 44.2779 17.8219 44.313 17.3567C44.353 16.8242 44.1264 16.5761 43.6229 16.4273C42.1134 15.9817 40.9093 15.0862 39.9948 13.8074C37.0322 9.66436 39.5403 3.81979 44.556 2.98533C48.0948 2.39674 52.4793 4.86063 52.5704 9.7693C52.6313 13.045 50.561 15.4292 47.9369 16.3465C46.9567 16.6891 46.9985 16.5736 46.9941 17.6987C46.9908 18.5465 47.0033 19.3948 46.9896 20.2424C46.9785 20.9279 46.9269 20.9697 46.2239 20.9885C45.8733 20.9981 45.5221 20.9949 45.1713 20.9897C44.3498 20.9772 44.3225 20.9527 44.3089 20.1629C44.301 19.6953 44.3075 19.2274 44.3075 18.7595C44.3067 18.7595 44.3061 18.7595 44.3056 18.7595ZM45.6523 5.55224C43.2558 5.55102 41.3809 7.42368 41.3807 9.81809C41.3805 12.2151 43.2528 14.0902 45.6469 14.0911C48.0432 14.0918 49.919 12.2183 49.9196 9.82317C49.9201 7.42386 48.0511 5.5533 45.6523 5.55224Z" fill="#4A4A4A"/>
<path fill-rule="evenodd" clip-rule="evenodd" d="M82.8233 54.7538C82.0287 54.6062 81.2134 54.702 80.4042 54.6845C79.4111 54.6627 79.3974 54.6736 79.4037 53.7281C79.4174 51.7254 79.1624 52.0133 81.1131 51.9974C82.6919 51.9842 84.2708 51.9877 85.8493 51.9974C87.1976 52.0056 87.6921 52.503 87.6992 53.8634C87.7088 55.7345 87.7072 57.6057 87.6993 59.4766C87.6958 60.2448 87.6556 60.2962 86.9172 60.2914C84.6681 60.2765 85.0571 60.565 85.0155 58.4883C85.0055 57.992 84.9968 57.4959 84.9792 56.9998C84.9775 56.9541 84.9178 56.9104 84.8692 56.8441C84.5317 56.912 84.3561 57.2035 84.137 57.4215C82.1682 59.3803 80.2064 61.3461 78.2423 63.3101C78.1182 63.4341 77.995 63.5589 77.8701 63.6821C76.8034 64.7342 76.2682 64.7412 75.2233 63.7063C74.4341 62.9245 73.6557 62.1315 72.8645 61.3518C72.2319 60.7279 72.2208 60.7265 71.5031 61.2968C69.9466 62.5333 68.3993 63.7814 66.8422 65.0171C66.2066 65.5216 66.1783 65.5225 65.6668 64.874C64.3278 63.1772 64.3764 63.6684 65.9089 62.4093C67.6252 60.999 69.3724 59.6263 71.1101 58.2415C72.1638 57.402 72.638 57.4274 73.5991 58.3761C74.4106 59.1769 75.2066 59.9938 76.0218 60.7909C76.4995 61.2582 76.5662 61.2666 77.0182 60.8183C78.8865 58.9656 80.7437 57.1015 82.6024 55.2394C82.7221 55.1188 82.8723 55.0046 82.8233 54.7538Z" fill="#4A4A4A"/>
<path fill-rule="evenodd" clip-rule="evenodd" d="M11.8992 6.99539C11.8982 8.47706 12.0094 8.34912 10.5221 8.3586C8.94709 8.36878 9.10381 8.20785 9.09292 9.7499C9.08204 11.2937 9.22718 11.1603 7.68004 11.1645C6.32192 11.1682 6.41177 11.2423 6.40282 9.87502C6.39176 8.1789 6.58691 8.37106 4.92518 8.35948C3.49897 8.34948 3.59777 8.45407 3.59812 7.03259C3.59864 5.55074 3.48791 5.67885 4.9752 5.6692C6.54848 5.65902 6.39387 5.82082 6.4044 4.27773C6.41493 2.73376 6.27032 2.86748 7.81728 2.86309C9.17541 2.85941 9.08555 2.78535 9.09433 4.1526C9.10538 5.84873 8.91041 5.65656 10.5721 5.66832C11.9984 5.67832 11.899 5.57391 11.8992 6.99539Z" fill="#4A4A4A"/>
<path fill-rule="evenodd" clip-rule="evenodd" d="M83.5179 2.86302C85.0121 2.86548 84.8855 2.75 84.8962 4.22606C84.908 5.83286 84.7313 5.6586 86.3598 5.66913C87.7896 5.67843 87.7041 5.56155 87.702 6.98004C87.7001 8.46979 87.8161 8.34923 86.3388 8.35923C84.7283 8.37011 84.9078 8.19743 84.8964 9.82283C84.8866 11.2506 85.0019 11.1664 83.5834 11.1646C82.0935 11.1625 82.2161 11.2801 82.2065 9.80089C82.1961 8.18795 82.3648 8.37099 80.7418 8.35906C79.3158 8.34835 79.3984 8.46979 79.4004 7.04673C79.4027 5.55628 79.2853 5.67878 80.7638 5.66877C82.3744 5.65789 82.1949 5.83058 82.2061 4.205C82.216 2.77668 82.0986 2.86179 83.5179 2.86302Z" fill="#4A4A4A"/>
<path fill-rule="evenodd" clip-rule="evenodd" d="M21.8469 58.936C21.8471 56.922 21.8432 54.9083 21.8489 52.8943C21.8513 52.0206 21.8708 51.992 22.7254 51.9985C24.8466 52.0143 24.5193 51.7326 24.5284 53.8025C24.5448 57.5091 24.5346 61.2158 24.5321 64.9223C24.5314 65.9021 24.5256 65.9153 23.5659 65.9081C21.5809 65.8932 21.8643 66.1517 21.8494 64.1895C21.8362 62.4384 21.8468 60.687 21.8469 58.936Z" fill="#4A4A4A"/>
<path fill-rule="evenodd" clip-rule="evenodd" d="M14.8278 61.0611C14.8278 59.7486 14.8236 58.4358 14.8294 57.1231C14.8334 56.2181 14.842 56.2149 15.7746 56.2063C16.0662 56.2035 16.3581 56.2021 16.6496 56.2068C17.471 56.22 17.5089 56.2439 17.511 57.0299C17.5179 59.7137 17.5179 62.3976 17.5114 65.0814C17.5095 65.8708 17.4703 65.9134 16.6554 65.9069C14.5165 65.8899 14.8571 66.1746 14.8301 64.1241C14.8167 63.1035 14.8278 62.0823 14.8278 61.0611Z" fill="#4A4A4A"/>
<path fill-rule="evenodd" clip-rule="evenodd" d="M10.4953 62.4593C10.4953 63.3336 10.5025 64.2084 10.4932 65.0825C10.485 65.8708 10.4518 65.8973 9.63681 65.9098C9.28705 65.915 8.93712 65.9175 8.58754 65.9087C7.8768 65.891 7.81837 65.8513 7.81415 65.1764C7.80275 63.3692 7.80292 61.562 7.81415 59.7548C7.81837 59.076 7.87751 59.0335 8.58193 59.0156C8.96064 59.0056 9.33987 59.0059 9.71876 59.0152C10.4481 59.0331 10.4853 59.0681 10.4936 59.8358C10.5025 60.7103 10.4953 61.585 10.4953 62.4593Z" fill="#4A4A4A"/>
<path fill-rule="evenodd" clip-rule="evenodd" d="M42.7797 68.8668C42.7804 69.656 42.7953 70.4454 42.7767 71.234C42.7502 72.3733 42.235 72.908 41.1067 72.9226C39.4413 72.9438 37.7749 72.9463 36.1094 72.9207C35.0333 72.904 34.5037 72.3643 34.4886 71.2765C34.4654 69.6111 34.4654 67.9448 34.4883 66.2792C34.503 65.1927 35.0333 64.6526 36.1105 64.6371C37.8052 64.6125 39.5008 64.6103 41.1954 64.6398C42.2236 64.6577 42.7413 65.1987 42.7734 66.2369C42.8006 67.1128 42.779 67.9902 42.7797 68.8668ZM40.0956 68.8456C40.0731 67.1451 40.2823 67.3192 38.6323 67.319C37.0078 67.319 37.1699 67.1484 37.1712 68.7559C37.1727 70.4275 36.9866 70.2356 38.6735 70.2391C40.244 70.2425 40.0782 70.3904 40.0956 68.8456Z" fill="#4A4A4A"/>
<path fill-rule="evenodd" clip-rule="evenodd" d="M56.818 68.7951C56.8178 69.6136 56.8341 70.4323 56.814 71.2501C56.7861 72.3813 56.2643 72.9092 55.1285 72.9231C53.4923 72.9431 51.8553 72.9425 50.2188 72.9234C49.0767 72.9101 48.541 72.3878 48.5259 71.2603C48.5036 69.5949 48.5023 67.9286 48.5267 66.263C48.5427 65.1835 49.0797 64.6513 50.1644 64.636C51.8298 64.6128 53.4961 64.6128 55.1617 64.6362C56.282 64.6518 56.7911 65.1932 56.815 66.3402C56.8319 67.1582 56.8182 67.9768 56.818 68.7951ZM52.6427 70.2433C54.3123 70.2215 54.1274 70.4256 54.1286 68.7388C54.1298 67.1459 54.2934 67.3189 52.6508 67.3187C51.0401 67.3186 51.2089 67.1541 51.2084 68.775C51.2081 70.4055 51.0417 70.2238 52.6427 70.2433Z" fill="#4A4A4A"/>
<path fill-rule="evenodd" clip-rule="evenodd" d="M42.8685 41.1157C42.9856 41.1157 43.1033 41.126 43.2192 41.1137C43.7574 41.0572 44.1264 41.183 44.3877 41.7518C44.6971 42.4259 45.4395 42.6586 46.0991 42.4457C46.7358 42.2407 47.121 41.6607 47.111 40.9665C47.1045 40.5085 46.9087 40.177 46.5063 39.9809C46.2185 39.8405 45.9156 39.7305 45.6153 39.6177C45.0418 39.402 44.4565 39.2149 43.8918 38.9785C42.433 38.3685 41.5988 37.2608 41.5315 35.6839C41.4658 34.1485 42.1039 32.9079 43.3857 32.0245C43.4578 31.9748 43.5299 31.9183 43.6107 31.8892C44.1533 31.693 44.3397 31.3239 44.3214 30.7413C44.2953 29.9083 44.3407 29.9005 45.1422 29.8869C45.5513 29.8798 45.961 29.8981 46.3697 29.8839C46.8171 29.8684 47.0536 30.0734 46.9848 30.5123C46.866 31.2695 47.233 31.653 47.8605 32.0131C48.8701 32.5919 49.4673 33.5214 49.6748 34.6795C49.7876 35.3087 49.7587 35.3469 49.1548 35.3759C48.8924 35.3885 48.6285 35.3717 48.3658 35.3806C47.7152 35.4029 47.1482 35.4303 46.8265 34.6123C46.5742 33.97 45.7132 33.8145 45.0672 34.0899C44.4285 34.3621 44.0796 35.0444 44.2079 35.7456C44.2847 36.1656 44.5559 36.4146 44.9228 36.5646C45.3547 36.7414 45.7992 36.8868 46.2371 37.0493C46.6474 37.2019 47.0619 37.3447 47.4639 37.5163C50.4968 38.8122 50.4253 42.7674 48.0587 44.2984C47.1272 44.901 46.8932 45.5407 46.991 46.4967C47.0087 46.6703 46.9845 46.8476 46.9929 47.0223C47.0119 47.4186 46.8355 47.6315 46.4326 47.6336C45.9066 47.6364 45.3805 47.6388 44.8546 47.6313C44.5104 47.6266 44.3039 47.4663 44.3114 47.095C44.3139 46.9781 44.2954 46.8595 44.3095 46.7445C44.4457 45.6309 44.2316 44.7794 43.0847 44.1859C42.2167 43.7366 41.7903 42.7869 41.6213 41.7913C41.5162 41.1723 41.5372 41.1479 42.1671 41.116C42.1962 41.1144 42.2255 41.1153 42.2548 41.1153C42.4593 41.1158 42.6639 41.1158 42.8685 41.1157Z" fill="#4A4A4A"/>
</svg>
