<svg width="92" height="25" viewBox="0 0 92 25" fill="none" xmlns="http://www.w3.org/2000/svg">
<path d="M79.6979 23.7975H85.2913V12.7462C85.7998 11.0852 88.2745 9.52577 91.8 10.3055V4.88154C88.8507 4.88154 86.3422 6.81381 85.2913 9.89867V5.22053H79.6979V23.7975ZM70.545 8.91558C72.24 8.91558 73.1214 9.83087 73.1214 10.7462C73.1214 12.0343 72.0705 13.3564 66.2736 14.0005C66.2736 10.9496 68.2059 8.91558 70.545 8.91558ZM77.7317 22.1025V17.1532C75.8672 18.7126 73.3925 19.56 71.3925 19.56C69.3246 19.56 67.6296 18.4414 66.816 16.6786C74.1722 16.1701 77.7656 13.6276 77.7656 10.0682C77.7656 7.22061 74.8163 4.77984 70.7484 4.77984C65.3245 4.77984 60.9514 8.74609 60.9514 14.5429C60.9514 20.0007 65.4261 24.0348 71.0874 24.0348C73.4942 24.0687 75.935 23.3568 77.7317 22.1025ZM56.8496 18.0346V8.91558H60.6802V5.28833L56.8496 5.32223V0.847489L46.239 8.33929V1.83058L37.3573 8.50879V8.91558H40.7134V19.0854C40.7134 22.3059 43.0863 24.0348 46.3068 24.0348C47.7306 24.0348 48.9171 23.7636 49.9679 23.1534V19.3227C49.4595 19.6278 48.8154 19.8312 48.1035 19.8312C46.917 19.8312 46.2051 19.221 46.2051 18.2041V8.91558H51.29V19.0515C51.29 22.3059 53.663 24.0348 56.9174 24.0348C58.375 24.0348 59.5615 23.8653 60.7141 23.1534V19.2888C60.2395 19.5939 59.4937 19.8312 58.7479 19.8312C57.5954 19.8312 56.8496 19.1871 56.8496 18.0346ZM29.7977 8.91558C31.4927 8.91558 32.3741 9.83087 32.3741 10.7462C32.3741 12.0343 31.3232 13.3564 25.5264 14.0005C25.5264 10.9496 27.4247 8.91558 29.7977 8.91558ZM36.9505 22.1025V17.1532C35.086 18.7126 32.6114 19.56 30.6113 19.56C28.5434 19.56 26.8485 18.4414 26.0349 16.6786C33.3911 16.1701 36.9844 13.6276 36.9844 10.0682C36.9844 7.22061 34.0352 4.77984 29.9672 4.77984C24.5433 4.77984 20.1702 8.74609 20.1702 14.5429C20.1702 20.0007 24.645 24.0348 30.3062 24.0348C32.7131 24.0687 35.1538 23.3568 36.9505 22.1025ZM10.0004 13.831C11.7292 13.831 13.1869 14.9158 13.1869 16.7125C13.1869 18.4075 11.7292 19.4583 10.0004 19.4583H5.76293V13.831H10.0004ZM9.69527 4.30524C11.3564 4.30524 12.7123 5.35613 12.7123 6.94941C12.7123 8.64439 11.3903 9.69527 9.69527 9.69527H5.76293V4.30524H9.69527ZM0 0V23.7975H11.2208C15.526 23.7975 18.916 21.1533 18.916 17.1532C18.916 14.5768 17.2888 12.5428 14.9158 11.5936C17.0854 10.6106 18.5092 8.74609 18.5092 6.47481C18.4753 2.57637 15.0853 0 10.7462 0H0Z" fill="#707070"/>
</svg>
