<svg width="132" height="36" viewBox="0 0 132 36" fill="none" xmlns="http://www.w3.org/2000/svg">
<g clip-path="url(#clip0_766_3240)">
<path d="M33.5936 19.7159H39.0354L36.2333 13.2182L33.5936 19.7159ZM42.9747 22.0308C43.3402 22.8836 43.7463 23.5334 44.2743 24.0613C44.7616 24.5893 45.3708 24.833 46.1018 24.833H46.3454V25.3203H38.9542V24.833H39.1979C39.604 24.833 39.9695 24.7111 40.2538 24.508C40.538 24.2644 40.7005 23.9801 40.7005 23.6552C40.7005 23.4521 40.6599 23.2491 40.5786 23.0055C40.4974 22.8024 40.4162 22.5587 40.2538 22.315L39.401 20.4876H33.3093L32.4971 22.4369C32.4159 22.5993 32.3753 22.7618 32.3346 22.9242C32.294 23.0867 32.294 23.2491 32.294 23.4115C32.294 23.8583 32.4159 24.1831 32.7001 24.4674C32.9844 24.7517 33.3499 24.8736 33.7966 24.8736H34.0403V25.3609H28.436V24.8736H28.6797C29.2888 24.8736 29.8574 24.5893 30.4259 24.0613C30.9945 23.5334 31.4818 22.8024 31.8473 21.9089L37.1267 9.0759H37.3704L42.9747 22.0308Z" fill="#626476"/>
<path d="M50.8938 14.6802C51.5436 14.2741 52.2339 14.071 53.0463 14.071C53.9802 14.071 54.7112 14.2741 55.1986 14.7208C55.6859 15.1675 55.97 15.8173 56.0512 16.6295C56.6198 15.7767 57.2292 15.1269 57.8382 14.7208C58.488 14.2741 59.219 14.071 60.0716 14.071C61.0464 14.071 61.8183 14.3553 62.3056 14.8833C62.8334 15.4112 63.077 16.1828 63.077 17.1574V23.1679C63.077 23.8176 63.1583 24.2644 63.3616 24.508C63.5644 24.7517 63.8893 24.8735 64.417 24.8735H64.9453V25.3609H59.0162V24.8735H59.5439C60.0313 24.8735 60.3966 24.7517 60.5999 24.508C60.8027 24.2644 60.8839 23.8176 60.8839 23.1679V17.8884C60.8839 17.1168 60.6811 16.5483 60.3153 16.1828C59.9501 15.8173 59.4627 15.6142 58.8538 15.6142C58.6504 15.6142 58.4068 15.6549 58.1227 15.7361C57.879 15.8173 57.5945 15.9391 57.3508 16.1015C57.1071 16.264 56.8634 16.4671 56.6198 16.6701C56.3761 16.8732 56.1733 17.1574 56.0108 17.4011V23.1679C56.0108 23.8176 56.0921 24.2644 56.2949 24.508C56.4982 24.7517 56.8231 24.8735 57.3508 24.8735H57.879V25.3609H51.9496V24.8735H52.4776C52.9651 24.8735 53.3303 24.7517 53.5337 24.508C53.7365 24.2644 53.8177 23.8176 53.8177 23.1679V17.8884C53.8177 17.1168 53.6149 16.5483 53.2491 16.1828C52.8839 15.8173 52.3964 15.6142 51.7872 15.6142C51.5842 15.6142 51.3405 15.6549 51.0562 15.7361C50.8126 15.8173 50.5283 15.9391 50.2846 16.1015C50.041 16.264 49.7973 16.4671 49.5536 16.6701C49.3099 16.8732 49.1069 17.1574 48.9445 17.4011V23.1679C48.9445 23.8176 49.0663 24.2644 49.2693 24.508C49.4724 24.7517 49.8379 24.8735 50.3658 24.8735H50.8938V25.3609H45.127V24.8735H45.3707C45.858 24.8735 46.2235 24.7517 46.4672 24.508C46.6702 24.2644 46.7921 23.8176 46.7921 23.1679V16.5889C46.7921 15.9391 46.6702 15.4924 46.4672 15.2487C46.2641 15.005 45.8986 14.8833 45.3707 14.8833H45.127V14.3959L48.9851 14.071V16.5889C49.6348 15.7361 50.244 15.1269 50.8938 14.6802Z" fill="#626476"/>
<path d="M72.174 18.1321C72.174 17.6854 72.1331 17.2387 72.0115 16.8325C71.8894 16.4265 71.727 16.0609 71.5242 15.7361C71.3208 15.4112 71.0368 15.1675 70.7119 15.005C70.387 14.8426 70.0212 14.7208 69.6151 14.7208C69.2907 14.7208 69.0061 14.802 68.6812 14.9644C68.3972 15.1269 68.1127 15.3299 67.869 15.6549C67.6253 15.9391 67.4225 16.3046 67.26 16.7107C67.0976 17.1168 67.0163 17.6041 66.9755 18.1321H72.174ZM69.6151 14.071C70.2649 14.071 70.8744 14.1928 71.4429 14.3959C72.0115 14.6396 72.5392 14.9238 72.9454 15.3299C73.3924 15.7361 73.7173 16.2234 73.9605 16.8325C74.2041 17.4011 74.3666 18.0509 74.3666 18.7819H66.9351V19.1474C66.9351 19.8784 67.0163 20.5281 67.1788 21.1373C67.3413 21.7465 67.5849 22.2338 67.9098 22.6806C68.2347 23.1272 68.6 23.4522 69.047 23.6958C69.4935 23.9395 70.0212 24.0613 70.5898 24.0613C71.4021 24.0613 72.0519 23.8176 72.6205 23.3303C73.1891 22.843 73.5952 22.1526 73.8389 21.2997L74.2041 21.381C74.1229 21.9901 73.9201 22.5587 73.6764 23.046C73.4327 23.5334 73.1078 23.9801 72.7017 24.305C72.2956 24.6705 71.8491 24.9141 71.3208 25.1172C70.7931 25.3203 70.2649 25.4015 69.656 25.4015C68.8437 25.4015 68.1126 25.2797 67.4628 24.9954C66.813 24.7111 66.2444 24.3456 65.7571 23.8582C65.2697 23.3709 64.9044 22.8023 64.6608 22.112C64.4171 21.4216 64.2546 20.6906 64.2546 19.8784C64.2546 19.0256 64.4171 18.2133 64.7016 17.4824C64.9857 16.7513 65.3918 16.1422 65.8792 15.6142C66.3665 15.0863 66.9351 14.6802 67.5849 14.3959C68.2347 14.2334 68.9249 14.071 69.6151 14.071Z" fill="#626476"/>
<path d="M80.9459 14.071C81.5145 14.071 82.0018 14.1929 82.3268 14.4772C82.6517 14.7614 82.8545 15.1675 82.8545 15.6955C82.8545 16.1422 82.6925 16.4671 82.408 16.7107C82.1239 16.9544 81.799 17.0763 81.3929 17.0763C81.1084 17.0763 80.9056 17.0357 80.7431 16.9138C80.5806 16.792 80.4182 16.6295 80.2961 16.4671C80.1336 16.1828 80.0121 15.9391 79.89 15.7361C79.7684 15.533 79.565 15.4518 79.2401 15.4518C79.1589 15.4518 79.0373 15.4924 78.9152 15.533C78.7937 15.5736 78.6716 15.6955 78.5903 15.8173C78.4687 15.9798 78.3875 16.1422 78.3063 16.4265C78.2251 16.6701 78.1847 16.995 78.1847 17.4011V23.0867C78.1847 23.7364 78.3063 24.1832 78.5091 24.4268C78.7124 24.6705 79.0777 24.7923 79.6059 24.7923H80.4182V25.2797H73.7985V24.7923H74.6107C75.0981 24.7923 75.4634 24.6705 75.707 24.4268C75.9104 24.1832 76.0319 23.7364 76.0319 23.0867V16.5077C76.0319 15.8579 75.9104 15.4112 75.707 15.1675C75.5042 14.9239 74.8544 14.802 74.3262 14.802H74.083V14.3147L78.2251 13.9898V15.533C78.4687 15.0863 78.8749 14.7208 79.3622 14.4366C79.8899 14.2335 80.3773 14.071 80.9459 14.071Z" fill="#626476"/>
<path d="M84.4385 11.1471C84.4385 10.7409 84.601 10.3754 84.885 10.0912C85.1696 9.80686 85.5348 9.64441 85.9818 9.64441C86.388 9.64441 86.7532 9.80686 87.0781 10.0912C87.3627 10.3754 87.5251 10.7409 87.5251 11.1471C87.5251 11.5531 87.3627 11.9187 87.0781 12.2029C86.7941 12.4872 86.4283 12.6496 85.9818 12.6496C85.5757 12.6496 85.2099 12.4872 84.885 12.2029C84.601 11.878 84.4385 11.5531 84.4385 11.1471ZM87.0781 23.1679C87.0781 23.8176 87.2002 24.2644 87.403 24.508C87.6064 24.7517 88.2153 24.8735 88.7027 24.8735H89.5149V25.3609H82.9361V24.8735H83.4638C83.9512 24.8735 84.3164 24.7517 84.5601 24.508C84.7634 24.2644 84.885 23.8176 84.885 23.1679V16.5483C84.885 15.8985 84.7634 15.4518 84.4789 15.2487C84.1948 15.0457 83.8699 14.9238 83.4638 14.9238H83.2201V14.4365L87.0781 14.1116V23.1679Z" fill="#626476"/>
<path d="M97.5962 21.8683C97.5962 21.3403 97.4747 20.8936 97.2713 20.5281C97.0277 20.1626 96.7436 19.7971 96.3375 19.4723C95.9314 19.1474 95.4849 18.9037 94.9566 18.6194C94.4289 18.3758 93.8603 18.1321 93.2509 17.8884C91.9921 17.3605 91.0174 16.7513 90.3676 15.9797C89.7178 15.2081 89.3929 14.2741 89.3929 13.1776C89.3929 12.5278 89.515 11.9592 89.799 11.4313C90.0835 10.9033 90.4488 10.4972 90.8958 10.1317C91.3423 9.76624 91.87 9.48194 92.4386 9.31949C93.0072 9.11642 93.657 9.03525 94.2665 9.03525C94.9163 9.03525 95.4849 9.11642 95.9717 9.27888C96.4591 9.44133 97.231 9.6444 97.7587 9.92869C97.962 10.0505 98.1245 10.0911 98.2869 10.0911C98.4085 10.0911 98.4897 10.0505 98.571 9.96925C98.6522 9.88808 98.6931 9.72562 98.6931 9.52256V9.3601H99.2617V13.8273H98.6931C98.5306 12.5684 97.7587 11.5531 97.0277 10.8627C96.2966 10.1723 95.3628 9.80685 94.3068 9.80685C93.4946 9.80685 92.8044 10.0099 92.317 10.4566C91.8297 10.9033 91.586 11.4719 91.586 12.2029C91.586 12.6496 91.7076 13.0557 91.9109 13.4212C92.1137 13.7867 92.4386 14.1116 92.8044 14.4365C93.1696 14.7614 93.657 15.0457 94.1852 15.2893C94.7129 15.5736 95.2815 15.8173 95.8905 16.0609C97.2713 16.6295 98.2869 17.2386 98.9367 17.929C99.5866 18.6194 99.9115 19.5129 99.9115 20.5687C99.9115 21.3403 99.749 22.0307 99.4241 22.6399C99.0992 23.249 98.6931 23.777 98.2057 24.1831C97.7183 24.5892 97.1498 24.9141 96.5403 25.1172C95.9314 25.3202 95.3224 25.4421 94.7129 25.4421C93.9416 25.4421 93.2509 25.3202 92.6823 25.0765C92.1137 24.8329 91.5451 24.5486 90.977 24.1831C90.8958 24.1425 90.7737 24.0613 90.6925 24.0613C90.6113 24.0206 90.4897 24.0206 90.3676 24.0206C90.2051 24.0206 90.0427 24.1019 89.9211 24.2643C89.799 24.4268 89.7586 24.9141 89.7586 25.3202H89.2304V19.7565H89.799C89.9211 20.4063 90.1239 21.0561 90.4085 21.6652C90.6925 22.2744 91.0583 22.8024 91.5048 23.249C91.9109 23.6958 92.3982 24.0613 92.926 24.3049C93.4542 24.5486 94.0228 24.7111 94.5914 24.7111C95.4849 24.7111 96.2154 24.4674 96.784 23.9394C97.3122 23.4115 97.5962 22.7211 97.5962 21.8683Z" fill="#626476"/>
<path d="M107.181 18.9444L105.475 19.5535C103.689 20.2033 102.795 21.0967 102.795 22.2744C102.795 22.7618 102.957 23.2085 103.241 23.574C103.566 23.9395 104.013 24.1426 104.704 24.1426C105.151 24.1426 105.516 24.0613 105.841 23.9395C106.166 23.8176 106.45 23.6552 106.693 23.4116L107.181 22.9648V18.9444ZM111.323 23.0054C111.242 23.8176 111.039 24.4268 110.633 24.8329C110.227 25.2391 109.74 25.4421 109.171 25.4421C108.684 25.4421 108.237 25.2796 107.912 24.9954C107.587 24.7111 107.343 24.2644 107.222 23.6552L106.815 24.0613C106.491 24.3456 106.206 24.5892 105.922 24.7923C105.638 24.9548 105.394 25.1172 105.151 25.1985C104.907 25.2796 104.663 25.3609 104.42 25.4015C104.176 25.4421 103.932 25.4421 103.689 25.4421C103.282 25.4421 102.876 25.3609 102.51 25.2391C102.145 25.1172 101.82 24.9142 101.536 24.6705C101.252 24.4268 101.049 24.1426 100.886 23.777C100.724 23.4116 100.643 23.046 100.643 22.5587C100.643 21.7059 100.968 21.0155 101.577 20.4469C102.186 19.8784 103.079 19.4317 104.216 19.1474L107.262 18.3758V16.8326C107.262 16.1016 107.059 15.5737 106.693 15.2081C106.328 14.8426 105.841 14.6802 105.232 14.6802C104.663 14.6802 104.176 14.802 103.81 15.0863C103.445 15.33 102.998 15.6548 102.998 16.0203C102.998 16.1828 103.039 16.3046 103.079 16.4265C103.16 16.5483 103.16 16.7107 103.16 16.9138C103.16 17.2387 103.079 17.4823 102.876 17.726C102.673 17.9291 102.389 18.0509 102.023 18.0509C101.699 18.0509 101.455 17.9697 101.252 17.7666C101.049 17.5636 100.927 17.3199 100.927 16.995C100.927 16.8732 100.927 16.7513 100.968 16.5889C101.008 16.4265 101.049 16.3046 101.089 16.1828C101.414 15.5737 101.942 15.0457 102.673 14.6396C103.404 14.2335 104.541 14.0304 105.435 14.0304C106.003 14.0304 106.531 14.071 106.978 14.1928C107.465 14.3147 107.871 14.4771 108.237 14.7208C108.602 14.9645 108.846 15.2894 109.049 15.7361C109.252 16.1422 109.334 16.6701 109.334 17.2793V22.843C109.334 23.1273 109.415 23.371 109.536 23.5334C109.658 23.6958 109.861 23.777 110.065 23.777C110.267 23.777 110.471 23.6958 110.633 23.574C110.795 23.4522 110.917 23.2085 110.998 22.8836L111.323 23.0054Z" fill="#626476"/>
<path d="M111.648 16.7919C111.323 16.1828 111.039 15.7361 110.755 15.3705C110.471 15.0456 110.146 14.8832 109.74 14.8832H109.211V14.3959H115.669V14.8832H115.222C114.816 14.8832 114.491 14.9645 114.288 15.1269C114.085 15.2893 113.963 15.533 113.963 15.8579C113.963 16.1015 114.044 16.3858 114.206 16.7107L116.846 21.9495L119.12 16.6701C119.202 16.4671 119.283 16.264 119.324 16.1015C119.364 15.9391 119.405 15.7767 119.405 15.6548C119.405 15.1675 119.08 14.8832 118.389 14.8832H118.146V14.3959H122.735V14.8832H122.207C121.232 14.8832 120.46 15.533 119.933 16.8325L116.278 25.3609H115.953L111.648 16.7919Z" fill="#626476"/>
<path d="M128.907 18.1321C128.907 17.6854 128.867 17.2387 128.745 16.8325C128.623 16.4265 128.461 16.0609 128.258 15.7361C128.055 15.4112 127.771 15.1675 127.446 15.005C127.121 14.8426 126.755 14.7208 126.349 14.7208C126.024 14.7208 125.74 14.802 125.415 14.9644C125.131 15.1269 124.847 15.3299 124.603 15.6549C124.359 15.9391 124.156 16.3046 123.993 16.7107C123.831 17.1168 123.75 17.6041 123.709 18.1321H128.907ZM126.349 14.071C126.999 14.071 127.608 14.1928 128.176 14.3959C128.745 14.6396 129.273 14.9238 129.679 15.3299C130.126 15.7361 130.451 16.2234 130.694 16.8325C130.938 17.4011 131.1 18.0509 131.1 18.7819H123.669V19.1474C123.669 19.8784 123.75 20.5281 123.912 21.1373C124.075 21.7465 124.318 22.2338 124.643 22.6806C124.968 23.1272 125.334 23.4522 125.78 23.6958C126.227 23.9395 126.755 24.0613 127.324 24.0613C128.136 24.0613 128.786 23.8176 129.354 23.3303C129.923 22.843 130.329 22.1526 130.573 21.2997L130.938 21.381C130.857 21.9901 130.654 22.5587 130.41 23.046C130.167 23.5334 129.842 23.9801 129.436 24.305C129.029 24.6705 128.582 24.9141 128.055 25.1172C127.527 25.3203 126.999 25.4015 126.39 25.4015C125.578 25.4015 124.847 25.2797 124.197 24.9954C123.547 24.7111 122.978 24.3456 122.491 23.8582C122.004 23.3709 121.638 22.8023 121.395 22.112C121.151 21.4216 120.989 20.6906 120.989 19.8784C120.989 19.0256 121.151 18.2133 121.435 17.4824C121.72 16.7513 122.126 16.1422 122.613 15.6142C123.1 15.0863 123.669 14.6802 124.318 14.3959C124.968 14.2334 125.659 14.071 126.349 14.071Z" fill="#626476"/>
<path d="M24.3343 5.66455V25.3608L0.170837 5.66455L12.2729 0.10083L24.3343 5.66455Z" fill="#797A8A"/>
<path d="M12.2729 0.10083L0.170837 23.6552V5.66455L12.2729 0.10083Z" fill="#626475"/>
<path d="M24.3342 5.66449V25.3608L2.03876 25.3202L24.3342 5.66449Z" fill="#8C8E9D"/>
<path d="M66.6509 29.422V34.7827H65.6353V31.9805L65.6762 30.3967L64.1733 34.742H63.2394L61.7773 30.3967L61.8182 31.9805V34.7827H60.8026V29.422H62.4272L63.4019 32.346L63.7268 33.5643L64.092 32.346L65.0668 29.422H66.6509Z" fill="#626476"/>
<path d="M74.0421 29.3407C74.5698 29.3407 75.0163 29.4626 75.4224 29.6656C75.7882 29.8687 76.1131 30.1936 76.3159 30.5997C76.5192 31.0058 76.6408 31.4931 76.6408 32.0617C76.6408 32.6303 76.5192 33.1176 76.3159 33.5237C76.1131 33.9298 75.8285 34.2547 75.4224 34.4578C75.0571 34.6608 74.5698 34.7826 74.0421 34.7826C73.5138 34.7826 73.0673 34.6608 72.6612 34.4578C72.2551 34.2547 71.9705 33.9298 71.7677 33.5237C71.5644 33.1176 71.4428 32.6303 71.4428 32.0617C71.4428 31.4931 71.5644 31.0058 71.7677 30.5997C71.9705 30.1936 72.2551 29.8687 72.6612 29.6656C73.0265 29.422 73.5138 29.3407 74.0421 29.3407ZM74.0421 30.2342C73.7575 30.2342 73.4735 30.3154 73.2702 30.4372C73.0673 30.5591 72.9049 30.8028 72.7828 31.0464C72.6612 31.3307 72.6203 31.6556 72.6203 32.0617C72.6203 32.4678 72.6612 32.7927 72.7828 33.077C72.9049 33.3612 73.0673 33.5643 73.2702 33.6861C73.4735 33.8079 73.7575 33.8892 74.0421 33.8892C74.3261 33.8892 74.6107 33.8079 74.8135 33.6861C75.0163 33.5643 75.1787 33.3206 75.3008 33.077C75.4224 32.7927 75.4633 32.4678 75.4633 32.0617C75.4633 31.6556 75.4224 31.3307 75.3008 31.0464C75.1787 30.7621 75.0163 30.5591 74.8135 30.4372C74.5698 30.3154 74.3261 30.2342 74.0421 30.2342Z" fill="#626476"/>
<path d="M83.7479 29.422C84.3568 29.422 84.8442 29.5844 85.1691 29.8687C85.5349 30.153 85.6974 30.5591 85.6974 31.0464C85.6974 31.5744 85.5349 31.9805 85.1691 32.2647C84.8039 32.549 84.3568 32.6709 83.7479 32.6709L83.6258 32.7521H82.4892V34.8232H81.3923V29.4626H83.7479V29.422ZM83.6258 31.8586C83.9507 31.8586 84.1944 31.7774 84.3165 31.6556C84.4381 31.5337 84.5602 31.3307 84.5602 31.0464C84.5602 30.7621 84.479 30.5997 84.3165 30.4778C84.154 30.3561 83.9104 30.2748 83.6258 30.2748H82.4892V31.818H83.6258V31.8586ZM84.2756 32.1023L86.0223 34.7827H84.763L83.3418 32.4272L84.2756 32.1023Z" fill="#626476"/>
<path d="M94.713 29.422V30.3154H92.9265V34.7827H91.7894V30.3154H90.0024V29.422H94.713Z" fill="#626476"/>
<path d="M101.292 34.8638C100.805 34.8638 100.358 34.742 99.9927 34.5389C99.627 34.3359 99.3429 34.011 99.1396 33.6049C98.9368 33.1988 98.8147 32.7114 98.8147 32.1023C98.8147 31.5337 98.9368 31.0464 99.1396 30.6403C99.3429 30.2342 99.6678 29.9093 100.074 29.6656C100.48 29.4626 100.927 29.3407 101.455 29.3407C102.023 29.3407 102.51 29.4626 102.876 29.6656C103.241 29.8687 103.526 30.1936 103.729 30.6403L102.673 31.087C102.591 30.8028 102.429 30.5997 102.226 30.4372C102.023 30.3154 101.779 30.2342 101.455 30.2342C101.17 30.2342 100.886 30.3154 100.683 30.4372C100.48 30.5997 100.277 30.8028 100.155 31.0464C100.033 31.3307 99.9927 31.6556 99.9927 32.0617C99.9927 32.4678 100.033 32.7927 100.155 33.077C100.277 33.3612 100.439 33.5643 100.643 33.6861C100.886 33.8079 101.13 33.8892 101.455 33.8892C101.617 33.8892 101.82 33.8486 101.942 33.8079C102.104 33.7673 102.226 33.6861 102.348 33.6049C102.47 33.5237 102.551 33.4019 102.632 33.28C102.714 33.1582 102.714 32.9957 102.714 32.7927V32.6708H101.292V31.8586H103.647V34.7014H102.876L102.795 33.5237L102.998 33.6455C102.876 34.011 102.673 34.2953 102.348 34.4577C102.104 34.742 101.739 34.8638 101.292 34.8638Z" fill="#626476"/>
<path d="M113.272 34.7827H112.094L111.648 33.4831H109.576L109.13 34.7827H107.993L109.942 29.422H111.282L113.272 34.7827ZM109.861 32.6302H111.404L110.632 30.2748L109.861 32.6302Z" fill="#626476"/>
<path d="M119.729 34.8638C119.242 34.8638 118.796 34.742 118.43 34.5389C118.064 34.3359 117.78 34.011 117.577 33.6049C117.374 33.1988 117.252 32.7114 117.252 32.1023C117.252 31.5337 117.374 31.0464 117.577 30.6403C117.78 30.2342 118.105 29.9093 118.511 29.6656C118.917 29.4626 119.364 29.3407 119.892 29.3407C120.46 29.3407 120.948 29.4626 121.313 29.6656C121.679 29.8687 121.963 30.1936 122.166 30.6403L121.11 31.087C121.029 30.8028 120.867 30.5997 120.664 30.4372C120.46 30.3154 120.217 30.2342 119.892 30.2342C119.608 30.2342 119.323 30.3154 119.12 30.4372C118.917 30.5997 118.714 30.8028 118.592 31.0464C118.471 31.3307 118.43 31.6556 118.43 32.0617C118.43 32.4678 118.471 32.7927 118.592 33.077C118.714 33.3612 118.877 33.5643 119.08 33.6861C119.323 33.8079 119.567 33.8892 119.892 33.8892C120.054 33.8892 120.258 33.8486 120.379 33.8079C120.542 33.7673 120.664 33.6861 120.785 33.6049C120.907 33.5237 120.989 33.4019 121.07 33.28C121.151 33.1582 121.151 32.9957 121.151 32.7927V32.6708H119.729V31.8586H122.085V34.7014H121.313L121.232 33.5237L121.435 33.6455C121.313 34.011 121.11 34.2953 120.785 34.4577C120.542 34.742 120.176 34.8638 119.729 34.8638Z" fill="#626476"/>
<path d="M127.039 34.7827V29.422H131.06V30.3154H128.176V31.6556H130.45V32.5084H128.176V33.8892H131.181V34.7827H127.039Z" fill="#626476"/>
</g>
<defs>
<clipPath id="clip0_766_3240">
<rect width="131.011" height="35.1109" fill="white" transform="translate(0.170837 0.10083)"/>
</clipPath>
</defs>
</svg>
