<svg width="109" height="30" viewBox="0 0 109 30" fill="none" xmlns="http://www.w3.org/2000/svg">
<path d="M28.5903 14.3193C28.5903 19.5396 25.8002 24.1057 21.6335 26.6084C21.474 26.7036 21.2702 26.6728 21.143 26.5377L16.3461 21.4235C16.1483 21.2132 16.2342 20.8692 16.507 20.7756C19.1853 19.8558 21.1108 17.3133 21.1108 14.3193C21.1108 10.5117 17.9972 7.43327 14.1815 7.49621C10.4456 7.55916 7.48528 10.6897 7.48528 14.4314V26.2199C7.48528 26.5316 7.14495 26.7205 6.87821 26.5577C2.80191 24.0766 0.0654754 19.6117 0.00108887 14.5021C-0.0954909 6.64255 6.24506 0.114196 14.0926 0.00518502C22.0811 -0.105361 28.5903 6.34623 28.5903 14.3209V14.3193ZM68.6603 24.6554C68.0456 24.7982 66.7042 24.7967 66.7042 23.1646V19.0298H68.7017C68.8029 19.0298 68.8857 18.9469 68.8857 18.8456V17.3886C68.8857 17.2872 68.8029 17.2043 68.7017 17.2043H66.7042V14.585C66.7042 14.4407 66.5463 14.3532 66.4236 14.4283L64.4414 15.6658C64.3878 15.6997 64.3556 15.758 64.3556 15.8225V17.2043H63.0802C62.979 17.2043 62.8962 17.2872 62.8962 17.3886V18.8456C62.8962 18.9469 62.979 19.0298 63.0802 19.0298H64.3525V23.335C64.3525 26.1862 66.7655 26.6652 67.696 26.6652C68.1329 26.6652 68.4656 26.5746 68.7431 26.5132C68.8274 26.4947 68.8872 26.4195 68.8872 26.3336V24.8335C68.8872 24.7137 68.7768 24.6277 68.6603 24.6554ZM87.6205 20.8323V26.3059C87.6205 26.4072 87.5381 26.4902 87.4366 26.4902H85.7982C85.6967 26.4902 85.6135 26.4087 85.6135 26.3074V25.4169H85.5478C85.2233 25.81 84.3263 26.6667 82.6982 26.6667C81.7829 26.6667 80.9413 26.3766 80.3312 25.8484C79.7287 25.3294 79.3975 24.6277 79.3975 23.8739C79.3975 22.9634 79.8375 22.1927 80.6699 21.6461C81.484 21.1118 82.6139 20.8292 83.9369 20.8292H85.4238V20.6712C85.4238 19.6132 84.7582 18.9546 83.6898 18.9546C82.5371 18.9546 82.1815 19.6717 82.0803 20.0032C82.0496 20.1015 81.9577 20.1676 81.8549 20.1676H80.0981C79.9509 20.1676 79.839 20.034 79.8652 19.8897C79.9433 19.4705 80.1901 18.6537 80.9551 17.9858C81.6603 17.3701 82.6123 17.0462 83.7081 17.0462C86.0845 17.0462 87.6188 18.5324 87.6188 20.8339L87.6205 20.8323ZM85.4238 22.3738H83.9569C82.4452 22.3738 81.6112 22.8482 81.6112 23.7096C81.6112 24.4327 82.1815 24.8642 83.1365 24.8642C84.4412 24.8642 85.4238 24.0597 85.4238 22.9373V22.3738ZM45.2328 14.4099H43.4667C43.3978 14.4099 43.3334 14.4498 43.3026 14.5112L38.8309 23.4163L34.3591 14.5112C34.3284 14.4498 34.264 14.4099 34.195 14.4099H32.3155C32.2144 14.4099 32.1316 14.4928 32.1316 14.5942V26.3074C32.1316 26.4087 32.2144 26.4917 32.3155 26.4917H34.2026C34.3038 26.4917 34.3866 26.4087 34.3866 26.3074V19.0697L38.0659 26.3719C38.0965 26.4333 38.1609 26.4732 38.2299 26.4732H39.2662C39.3352 26.4732 39.3996 26.4349 39.4302 26.3719L43.1632 18.9837V26.3059C43.1632 26.4072 43.246 26.4902 43.3472 26.4902H45.2343C45.3355 26.4902 45.4182 26.4072 45.4182 26.3059V14.5927C45.4182 14.4913 45.3355 14.4084 45.2343 14.4084L45.2328 14.4099ZM78.5682 17.3886V25.8437C78.5682 27.049 78.1497 28.0654 77.3587 28.7794C76.5676 29.4948 75.4408 29.8726 74.101 29.8726C70.9997 29.8726 70.0278 27.8397 69.7825 27.1288C69.7411 27.0107 69.8315 26.8862 69.9572 26.8862H71.8259C71.8934 26.8862 71.9547 26.9216 71.9869 26.9815C72.1265 27.2456 72.64 27.9687 74.0627 27.9687C75.4853 27.9687 76.3698 27.1611 76.3698 25.8607V24.9917H76.3622C76.1061 25.3263 75.145 26.1831 73.7223 26.1831C71.3002 26.1831 69.3303 24.1334 69.3303 21.6123C69.3303 20.3702 69.7932 19.2141 70.6333 18.3542C71.4611 17.5083 72.5572 17.0416 73.7208 17.0416C75.1388 17.0416 76.1414 17.8307 76.4925 18.2683H76.5569V17.3855C76.5569 17.2842 76.6397 17.2012 76.7408 17.2012H78.3827C78.4838 17.2012 78.5666 17.2842 78.5666 17.3855L78.5682 17.3886ZM76.3714 21.6138C76.3714 20.1184 75.3074 18.9469 73.9508 18.9469C72.594 18.9469 71.5117 20.1184 71.5117 21.6138C71.5117 23.1093 72.5833 24.2807 73.9508 24.2807C75.3182 24.2807 76.3714 23.0847 76.3714 21.6138ZM97.6343 17.3886V25.8437C97.6343 27.049 97.2158 28.0654 96.4245 28.7794C95.634 29.4948 94.5066 29.8726 93.167 29.8726C90.0659 29.8726 89.094 27.8397 88.8486 27.1288C88.807 27.0107 88.8977 26.8862 89.0233 26.8862H90.8921C90.9595 26.8862 91.0211 26.9216 91.0527 26.9815C91.1925 27.2456 91.7059 27.9687 93.1287 27.9687C94.5515 27.9687 95.436 27.1611 95.436 25.8607V24.9917H95.4285C95.1722 25.3263 94.2112 26.1831 92.7884 26.1831C90.3663 26.1831 88.3968 24.1334 88.3968 21.6123C88.3968 20.3702 88.8594 19.2141 89.6998 18.3542C90.5268 17.5083 91.6235 17.0416 92.7867 17.0416C94.2046 17.0416 95.2072 17.8307 95.5583 18.2683H95.6232V17.3855C95.6232 17.2842 95.7056 17.2012 95.8071 17.2012H97.4488C97.5503 17.2012 97.6326 17.2842 97.6326 17.3855L97.6343 17.3886ZM95.436 21.6138C95.436 20.1184 94.3718 18.9469 93.0155 18.9469C91.6584 18.9469 90.5759 20.1184 90.5759 21.6138C90.5759 23.1093 91.6476 24.2807 93.0155 24.2807C94.3826 24.2807 95.436 23.0847 95.436 21.6138ZM55.8121 21.8549C55.8121 24.5111 53.6613 26.6652 51.0091 26.6652C48.357 26.6652 46.2062 24.5111 46.2062 21.8549C46.2062 19.1987 48.357 17.0446 51.0091 17.0446C53.6613 17.0446 55.8121 19.1987 55.8121 21.8549ZM53.7088 21.8549C53.7088 20.3625 52.5007 19.1527 51.0107 19.1527C49.5206 19.1527 48.3126 20.3625 48.3126 21.8549C48.3126 23.3472 49.5206 24.5572 51.0107 24.5572C52.5007 24.5572 53.7088 23.3472 53.7088 21.8549ZM61.9856 17.0983C61.8384 17.0738 61.59 17.0446 61.2788 17.0446C60.1107 17.0446 59.2215 17.8092 58.8658 18.2775H58.8014V17.3901C58.8014 17.2887 58.7187 17.2058 58.6175 17.2058H56.9802C56.8791 17.2058 56.7963 17.2872 56.7963 17.3886V26.3059C56.7963 26.4072 56.8791 26.4902 56.9802 26.4902H58.8276C58.9288 26.4902 59.0115 26.4072 59.0115 26.3059V21.2531C59.0115 19.8574 59.8592 18.9899 61.2221 18.9899C61.495 18.9899 61.7157 19.0099 61.8737 19.0298C62.0147 19.0482 62.1388 18.9377 62.1388 18.7949V17.2795C62.1388 17.1889 62.0744 17.1122 61.9856 17.0983ZM108.028 22.1236C108.002 22.3293 107.964 22.5074 107.927 22.6517C107.905 22.7332 107.834 22.7884 107.749 22.7884H100.737C100.859 23.2475 101.379 24.7567 103.331 24.7567C104.271 24.7567 104.986 24.3545 105.318 23.9783C105.359 23.9322 105.417 23.9046 105.479 23.9046H107.403C107.541 23.9046 107.632 24.0505 107.567 24.1733C107.146 24.9763 106.371 25.7762 105.278 26.266C104.686 26.5316 104.038 26.6667 103.35 26.6667C102.454 26.6667 101.622 26.4517 100.877 26.0311C99.6046 25.3125 98.4389 23.9 98.4389 21.8549C98.4422 21.4634 98.4972 20.2121 99.37 19.0283C99.4881 18.8687 99.9949 18.2038 100.893 17.6895C101.64 17.2627 102.459 17.0446 103.328 17.0446C105.234 17.0446 106.678 18.0733 107.418 19.3154C107.592 19.6072 108.201 20.7126 108.025 22.1236H108.028ZM105.847 21.0581C105.772 20.6942 105.243 18.9362 103.332 18.9362C101.994 18.9362 100.984 19.8144 100.7 21.0581H105.847ZM60.9814 8.76133C61.0136 8.64467 60.9247 8.528 60.8036 8.528H58.9701C58.8889 8.528 58.8153 8.574 58.7785 8.64617C58.3385 9.53975 57.4202 10.1554 56.3578 10.1554C54.8678 10.1554 53.6597 8.94558 53.6597 7.45322C53.6597 5.96085 54.8678 4.75098 56.3578 4.75098C57.4463 4.75098 58.3845 5.39737 58.8107 6.32627C58.846 6.4015 58.921 6.45063 59.0038 6.45063H60.8204C60.94 6.45063 61.0275 6.33702 60.9983 6.22032C60.9814 6.15277 60.9676 6.10057 60.9676 6.10057C60.3851 4.10307 58.5424 2.64293 56.3578 2.64293C53.6812 2.64293 51.5166 4.83543 51.5549 7.52538C51.5932 10.1417 53.8191 12.3019 56.4299 12.2635C58.5976 12.2312 60.4157 10.7604 60.9784 8.76133H60.9814ZM45.9609 12.2635C43.3931 12.2159 41.2975 10.1171 41.25 7.54534C41.1994 4.81547 43.4192 2.5938 46.1434 2.64447C48.7111 2.69207 50.8068 4.79091 50.8544 7.36263C50.9049 10.0925 48.6851 12.3142 45.9609 12.2635ZM48.748 7.54227C48.797 5.97927 47.5231 4.70339 45.9625 4.75252C44.549 4.79705 43.3993 5.9501 43.3532 7.36571C43.3042 8.92867 44.5781 10.2046 46.1387 10.1554C47.5522 10.1109 48.702 8.95792 48.748 7.54227ZM32.1301 11.9057V0.186357C32.1301 0.0850241 32.2129 0.00211429 32.314 0.00211429H37.4251C38.6944 -0.00402715 41.0538 0.891092 41.0538 3.73304C41.0538 5.69984 39.7905 7.27358 37.3822 7.45322L41.4432 11.7798C41.5535 11.8981 41.4707 12.09 41.3098 12.09H38.9382C38.8784 12.09 38.8202 12.0639 38.7803 12.0209L34.6044 7.45476H34.4894V11.9073C34.4894 12.0087 34.4066 12.0916 34.3054 12.0916H32.3125C32.2113 12.0916 32.1285 12.0087 32.1285 11.9073L32.1301 11.9057ZM34.4909 5.58008H36.5328C37.2825 5.58008 37.8482 5.4204 38.2299 5.10566C38.6101 4.78937 38.8002 4.35332 38.8002 3.79752C38.8002 3.24172 38.627 2.84253 38.2821 2.53699C37.9356 2.23299 37.4343 2.07792 36.7766 2.07792H34.4909V5.58008ZM80.3541 8.93483C80.3541 11.786 82.767 12.2651 83.6973 12.2651C84.1349 12.2651 84.4669 12.1744 84.7449 12.1131C84.8289 12.0946 84.8888 12.0194 84.8888 11.9334V10.4333C84.8888 10.3152 84.7798 10.2276 84.665 10.2537C84.0517 10.3965 82.7073 10.3981 82.7073 8.76442V4.62969H84.7066C84.8073 4.62969 84.8905 4.54678 84.8905 4.44545V2.98839C84.8905 2.88706 84.8073 2.80415 84.7066 2.80415H82.7073V0.184822C82.7073 0.0404983 82.5495 -0.0470173 82.4268 0.0282155L80.4446 1.26572C80.3909 1.29949 80.3587 1.35784 80.3587 1.42232V2.80415H79.0833C78.9821 2.80415 78.8993 2.88706 78.8993 2.98839V4.44545C78.8993 4.54678 78.9821 4.62969 79.0833 4.62969H80.3557V8.93483H80.3541ZM61.9396 12.09H63.9218C64.023 12.09 64.1058 12.0071 64.1058 11.9057V8.38517H64.2146L67.5274 12.0501C67.5504 12.0762 67.5841 12.09 67.6179 12.09H70.0707C70.2316 12.09 70.3144 11.8981 70.2056 11.7798L66.1692 7.45476L69.8362 3.10815C69.9373 2.98839 69.8515 2.80568 69.6951 2.80568H67.4032C67.3404 2.80568 67.2791 2.83332 67.2392 2.88245L64.2375 6.4752H64.1042V0.184822C64.1042 0.0404983 63.9447 -0.0485526 63.8236 0.0282155L61.8415 1.26878C61.7878 1.30257 61.7556 1.36091 61.7556 1.42539V11.9057C61.7556 12.0071 61.8384 12.09 61.9396 12.09ZM78.2371 4.91373C78.4103 5.20545 79.0204 6.31092 78.8441 7.72191C78.8181 7.92765 78.7797 8.10575 78.7429 8.25007C78.7215 8.33145 78.6494 8.38675 78.5651 8.38675H71.5531C71.6742 8.84583 72.1955 10.3551 74.147 10.3551C75.0867 10.3551 75.8026 9.95275 76.1338 9.57667C76.1751 9.53058 76.2334 9.50292 76.2947 9.50292H78.2187C78.3566 9.50292 78.4471 9.64875 78.3827 9.77158C77.9626 10.5746 77.1869 11.3745 76.0939 11.8643C75.5022 12.1299 74.8537 12.2651 74.1654 12.2651C73.2701 12.2651 72.4377 12.0501 71.6926 11.6294C70.4202 10.9108 69.2551 9.49833 69.2551 7.45322C69.2582 7.06171 69.3134 5.81038 70.1856 4.62662C70.3037 4.46694 70.8112 3.80213 71.7095 3.28778C72.4561 2.86096 73.2747 2.64293 74.1439 2.64293C76.0495 2.64293 77.4935 3.67162 78.234 4.91373H78.2371ZM76.6626 6.65791C76.5876 6.29402 76.0586 4.53603 74.1485 4.53603C72.8102 4.53603 71.7999 5.41427 71.5163 6.65791H76.6626Z" fill="#707070"/>
</svg>
