<svg width="90" height="28" viewBox="0 0 90 28" fill="none" xmlns="http://www.w3.org/2000/svg">
<path d="M26.4643 8.69168C21.75 8.69168 17.8929 12.5917 17.8929 17.3583C17.8929 22.125 21.75 26.025 26.4643 26.025C31.1786 26.025 35.0357 22.125 35.0357 17.3583C35.0357 12.5917 31.1786 8.69168 26.4643 8.69168ZM30.6429 17.25C30.6429 19.6333 28.8214 21.5833 26.5714 21.5833C24.3214 21.5833 22.5 19.6333 22.5 17.25C22.5 14.8667 24.3214 12.9167 26.5714 12.9167C28.8214 12.9167 30.6429 14.8667 30.6429 17.25ZM56.4643 9.01668C56.3572 8.90834 56.25 8.90834 56.1429 8.90834H52.7143C52.5 8.90834 52.2857 9.12501 52.2857 9.34168V25.05C52.2857 25.1583 52.2857 25.2667 52.3929 25.375C52.5 25.4833 52.6072 25.4833 52.7143 25.4833H56.1429C56.3572 25.4833 56.5714 25.2667 56.5714 25.05V9.34168C56.5714 9.23334 56.5714 9.12501 56.4643 9.01668ZM54.4286 6.85001C55.7143 6.85001 56.7857 5.76668 56.7857 4.46668C56.8929 3.16668 55.7143 2.08334 54.4286 2.08334C53.1429 2.08334 52.0714 3.16668 52.0714 4.46668C52.0714 5.87501 53.1429 6.85001 54.4286 6.85001ZM49.8214 2.40834H37.2857C37.0714 2.40834 36.8572 2.62501 36.8572 2.84168V25.05C36.8572 25.1583 36.8571 25.2667 36.9643 25.375C37.0714 25.4833 37.1786 25.4833 37.2857 25.4833H40.7143C40.9286 25.4833 41.1429 25.2667 41.1429 25.05V16.0583H48.8572C48.9643 16.0583 49.0714 16.0583 49.1786 15.95C49.2857 15.8417 49.2857 15.7333 49.2857 15.625V12.375C49.2857 12.1583 49.0714 11.9417 48.8572 11.9417H41.1429V6.52501H49.8214C49.9286 6.52501 50.0357 6.52501 50.1429 6.41668C50.25 6.30834 50.25 6.20001 50.25 6.09168V2.84168C50.25 2.62501 50.0357 2.40834 49.8214 2.40834ZM9.85714 12.05C6.42857 10.5333 5.35714 9.88334 5.35714 8.58334C5.35714 6.85001 6.96429 6.30834 8.46429 6.30834C10.0714 6.30834 11.7857 7.17501 11.7857 9.55834C11.7857 9.77501 11.8929 9.88334 12.1071 9.88334H15.8571C15.9643 9.77501 16.0714 9.66668 16.0714 9.55834C16.0714 5.22501 12.9643 2.08334 8.46429 2.08334C3.96429 2.08334 1.07143 4.68334 1.07143 8.58334C1.07143 13.2417 4.5 14.65 7.82143 15.95L8.03571 16.0583C11.1429 17.25 12.2143 17.7917 12.2143 19.3083C12.2143 21.3667 10.0714 21.6917 8.89286 21.6917C6.64286 21.6917 4.92857 20.0667 4.92857 17.9V17.6833C4.92857 17.4667 4.82143 17.3583 4.60714 17.3583H0.857142C0.749999 17.3583 0.535713 17.4667 0.535713 17.6833V18.0083C0.535713 22.775 3.96429 26.025 8.78571 26.025C13.3929 26.025 16.5 23.3167 16.5 19.4167C16.6071 15.4083 14.5714 14 9.85714 12.05ZM89.4643 24.8333C89.4643 25.4833 89.0357 25.9167 88.3929 25.9167C87.75 25.9167 87.3214 25.4833 87.3214 24.8333C87.3214 24.1833 87.75 23.75 88.3929 23.75C89.0357 23.75 89.4643 24.1833 89.4643 24.8333ZM87.5357 24.8333C87.5357 25.375 87.8572 25.7 88.3929 25.7C88.9286 25.7 89.25 25.375 89.25 24.8333C89.25 24.2917 88.9286 23.9667 88.3929 23.9667C87.8572 23.9667 87.5357 24.2917 87.5357 24.8333ZM88.8214 24.6167C88.8214 24.725 88.7143 24.8333 88.6072 24.9417L88.8214 25.375H88.5L88.2857 24.9417H88.1786V25.375H87.9643V24.2917H88.3929C88.6072 24.2917 88.8214 24.4 88.8214 24.6167ZM88.2857 24.5083V24.8333H88.3929C88.5 24.8333 88.6072 24.725 88.6072 24.725C88.6072 24.6167 88.5 24.6167 88.3929 24.6167H88.2857V24.5083ZM83.8929 3.05834C85.3929 3.05834 86.5714 4.25001 86.5714 5.76668C86.5714 7.28334 85.3929 8.47501 83.8929 8.47501C82.3929 8.47501 81.2143 7.28334 81.2143 5.76668C81.2143 4.25001 82.3929 3.05834 83.8929 3.05834ZM83.8929 2.08334C81.8572 2.08334 80.1429 3.81668 80.1429 5.87501C80.1429 7.93334 81.8572 9.66668 83.8929 9.66668C85.9286 9.66668 87.6429 7.93334 87.6429 5.87501C87.6429 3.81668 85.9286 2.08334 83.8929 2.08334Z" fill="#959595"/>
<path d="M85.6782 17.3216C87.4976 16.3211 88.1705 14.0188 87.181 12.1791C86.1916 10.3395 83.9146 9.65917 82.0951 10.6596C80.2757 11.66 79.6029 13.9624 80.5923 15.802C81.5817 17.6417 83.8588 18.322 85.6782 17.3216Z" fill="#959595"/>
<path d="M85.6728 25.4468C87.4923 24.4464 88.1651 22.1441 87.1757 20.3044C86.1862 18.4648 83.9092 17.7844 82.0898 18.7849C80.2703 19.7853 79.5975 22.0876 80.5869 23.9273C81.5763 25.7669 83.8534 26.4473 85.6728 25.4468Z" fill="#959595"/>
<path d="M75.8572 11.2917C76.6072 11.2917 77.25 11.6167 77.7857 12.05C78.3214 12.5917 78.5357 13.2417 78.5357 14C78.5357 15.5167 77.3572 16.7083 75.8572 16.7083C75.1072 16.7083 74.4643 16.3833 73.9286 15.95C73.3929 15.4083 73.1786 14.7583 73.1786 14C73.0714 12.4833 74.3572 11.2917 75.8572 11.2917ZM75.8572 10.2083C73.8214 10.2083 72.1072 11.9417 72.1072 14C72.1072 16.0583 73.8214 17.7917 75.8572 17.7917C77.8929 17.7917 79.6072 16.0583 79.6072 14C79.6072 11.9417 77.8929 10.2083 75.8572 10.2083Z" fill="#959595"/>
<path d="M71.2252 15.5055C72.0639 13.5908 71.2088 11.3511 69.3151 10.5031C67.4215 9.65501 65.2065 10.5197 64.3677 12.4343C63.529 14.349 64.3841 16.5886 66.2778 17.4367C68.1714 18.2848 70.3864 17.4201 71.2252 15.5055Z" fill="#959595"/>
<path d="M79.2771 7.3839C80.1158 5.46923 79.2607 3.2296 77.367 2.38153C75.4734 1.53347 73.2584 2.39812 72.4196 4.31279C71.5809 6.22746 72.436 8.46709 74.3297 9.31516C76.2233 10.1632 78.4383 9.29857 79.2771 7.3839Z" fill="#959595"/>
<path d="M71.235 7.37401C72.0737 5.45935 71.2186 3.2197 69.325 2.37164C67.4313 1.52358 65.2163 2.38823 64.3776 4.3029C63.5388 6.21757 64.394 8.45721 66.2876 9.30527C68.1812 10.1533 70.3962 9.28868 71.235 7.37401Z" fill="#959595"/>
<path d="M79.2575 23.6468C80.0962 21.7321 79.2411 19.4925 77.3474 18.6444C75.4538 17.7963 73.2388 18.661 72.4 20.5757C71.5613 22.4903 72.4164 24.73 74.3101 25.578C76.2037 26.4261 78.4187 25.5614 79.2575 23.6468Z" fill="#959595"/>
<path d="M67.8214 19.4167C68.5714 19.4167 69.2143 19.7417 69.75 20.175C70.2857 20.7167 70.5 21.3667 70.5 22.125C70.5 23.6417 69.3214 24.8333 67.8214 24.8333C66.3214 24.8333 65.1429 23.6417 65.1429 22.125C65.0357 20.6083 66.3214 19.4167 67.8214 19.4167ZM67.8214 18.3333C65.7857 18.3333 64.0714 20.0667 64.0714 22.125C64.0714 24.1833 65.7857 25.9167 67.8214 25.9167C69.8572 25.9167 71.5714 24.1833 71.5714 22.125C71.5714 20.0667 69.8572 18.3333 67.8214 18.3333Z" fill="#959595"/>
</svg>
