<svg width="90" height="33" viewBox="0 0 90 33" fill="none" xmlns="http://www.w3.org/2000/svg">
<path d="M82.0727 13.7485H85.682V17.4171H82.0727V13.7485ZM82.0727 5.41391H85.682V9.02913H82.0727V5.41391Z" fill="#9AB4D4"/>
<path d="M4.35611 0H0V18.1829H3.02261V4.63033L8.14326 18.1829H9.99239L15.1308 4.63033V18.1829H18.1179V0H13.7795L9.06782 13.0718L4.35611 0ZM52.3089 14.1225C51.171 15.1376 49.9619 15.6719 48.7351 15.6719C46.4593 15.6719 44.6635 13.6951 44.6635 11.1662C44.6635 8.47706 46.3526 6.58931 48.7351 6.58931C49.9619 6.58931 51.1354 7.01673 52.0244 7.80032L53.5357 5.5742C52.06 4.36319 50.5131 3.81112 48.5395 3.81112C44.5035 3.81112 41.6942 6.80302 41.6942 11.1662C41.6942 15.4226 44.5212 18.4857 48.5395 18.4857C50.5131 18.4857 52.3978 17.7377 53.8735 16.3486L52.3089 14.1225ZM26.35 3.82893C24.4653 3.88235 22.6162 4.54128 21.1405 5.68106L22.6162 7.90718C22.6162 7.90718 24.2875 6.51808 26.3145 6.51808C27.9147 6.51808 28.5725 7.31948 28.5725 8.7442V9.5456H25.4077C22.3495 9.5456 20.4115 11.3087 20.4115 13.891C20.4115 16.5089 22.2606 18.4679 25.4432 18.4679C26.7412 18.4679 28.0036 17.9158 28.5903 17.0788V18.1829H31.5418V8.90448C31.5418 5.5564 29.7816 3.82893 26.35 3.82893ZM41.303 4.11387C40.5918 3.93578 39.9518 3.82893 39.2761 3.82893C35.9513 3.82893 33.9421 5.73448 33.9421 8.97571V18.1829H36.8047V9.17161C36.8047 7.3551 37.9071 6.51808 39.5428 6.51808C39.9518 6.51808 40.3785 6.57151 40.7519 6.69617L41.303 4.11387ZM72.0092 7.90718C72.0092 7.14139 72.756 6.48246 73.9472 6.48246C76.0097 6.48246 77.681 7.81813 77.681 7.81813L79.2279 5.59201C77.681 4.48786 75.9919 3.82893 74.0539 3.82893C71.1024 3.82893 69.0933 5.73448 69.0933 7.90718C69.0933 13.517 76.7387 11.6649 76.7387 14.3006C76.7387 15.0486 75.9386 15.85 74.6406 15.85C72.3292 15.85 70.2667 14.1225 70.2667 14.1225L68.7199 16.4021C70.3912 17.7021 72.4181 18.4679 74.5162 18.4679C77.6632 18.4679 79.6902 16.3308 79.6902 14.2115C79.6724 8.90448 72.0092 10.5963 72.0092 7.90718ZM60.381 18.4679C61.7679 18.4679 63.0303 17.9158 63.7059 17.0432V18.1829H66.5685V4.07825H63.7059V13.054C63.7059 14.6568 62.2302 15.8322 60.8078 15.8322C59.5098 15.8322 58.1585 14.9417 58.1585 13.054V4.07825H55.2959V13.5526C55.2959 16.4911 57.234 18.4679 60.381 18.4679ZM28.6437 13.6239C28.6437 14.9595 27.2035 16.0281 25.7099 16.0281C24.1453 16.0281 23.2207 15.2267 23.2207 13.9266C23.2207 12.9649 24.1097 11.9854 25.7811 11.9854H28.6437V13.6239ZM26.6878 31.0588H28.2881V23.5612H26.6878V31.0588ZM31.5596 31.2191C32.1997 31.2191 32.7686 30.9163 33.1064 30.3465L33.1953 31.0588H34.5466V23.5612H32.9109V26.2504C32.6086 25.7874 32.1463 25.538 31.524 25.538C30.1905 25.538 29.426 26.5532 29.426 28.3697C29.426 30.1862 30.2083 31.2191 31.5596 31.2191ZM77.2365 27.6039C77.3254 27.1409 77.6632 26.8381 78.1077 26.8381C78.57 26.8381 78.8189 27.0874 78.8189 27.5505V31.0766H80.4547V27.4258C80.4547 26.1614 79.868 25.538 78.6589 25.538C78.1077 25.538 77.5743 25.8408 77.2365 26.3038V23.5612H75.6008V31.0588H77.2365V27.6039ZM2.96927 31.2191C4.32055 31.2191 5.12065 30.1684 5.12065 28.3875C5.12065 26.6066 4.35611 25.5559 2.98705 25.5559C2.40031 25.5559 1.93803 25.7696 1.63576 26.197V23.5791H0V31.0766H1.35128L1.44018 30.3643C1.79578 30.8807 2.34697 31.2191 2.96927 31.2191ZM16.9266 31.2191C17.7623 31.2191 18.7402 31.0588 19.3269 30.8451V26.9806H16.5532V28.2806H17.8512V29.7944C17.5667 29.83 17.2644 29.8478 16.9799 29.8478C15.5931 29.8478 15.1308 29.3314 15.1308 27.6573C15.1308 25.8586 15.682 25.1819 17.14 25.1819C17.6556 25.1819 18.2423 25.3065 18.8113 25.5202L19.1491 24.2558C18.6513 23.9709 17.8156 23.8284 16.9977 23.8284C14.5974 23.8284 13.4595 25.0572 13.4595 27.5861C13.4417 30.0971 14.5263 31.2191 16.9266 31.2191ZM61.1811 31.2191C62.9947 31.2191 63.9193 30.4533 63.9193 28.9574C63.9193 27.7285 63.3681 27.1052 62.0346 26.8203L61.2878 26.66C60.7722 26.5353 60.5766 26.3751 60.5766 25.9477C60.5766 25.4312 60.9144 25.1819 61.6612 25.1819C62.1768 25.1819 62.8347 25.3421 63.3503 25.5559L63.6526 24.2558C63.1369 23.9709 62.3013 23.8284 61.519 23.8284C59.8476 23.8284 58.9053 24.6298 58.9053 26.0189C58.9053 27.1587 59.5276 27.871 60.7189 28.1203L61.4834 28.2984C62.0346 28.4231 62.2302 28.6012 62.2302 28.9752C62.2302 29.5629 61.8034 29.8478 60.9322 29.8478C60.381 29.8478 59.7054 29.6875 59.1187 29.4204L58.7453 30.6848C59.4565 31.0232 60.3277 31.2191 61.1811 31.2191ZM73.076 31.2191C73.6627 31.2191 74.2139 31.0944 74.6406 30.9163L74.3384 29.741C73.965 29.8656 73.6627 29.919 73.3605 29.919C72.4715 29.919 72.1337 29.5094 72.1337 28.4053C72.1337 27.3011 72.507 26.8025 73.396 26.8025C73.6805 26.8025 73.9828 26.8559 74.3206 26.9806L74.6229 25.8052C74.1961 25.5915 73.6983 25.5024 73.1471 25.5024C71.4224 25.5024 70.4623 26.5532 70.4623 28.4053C70.4623 30.293 71.3158 31.2191 73.076 31.2191ZM35.9157 31.0588H37.5515V27.6039C37.6759 27.1052 38.0137 26.8381 38.4405 26.8381C38.8672 26.8381 39.0272 27.0518 39.0272 27.5861V31.0766H40.663V27.6217C40.7519 27.1587 41.0897 26.8559 41.5342 26.8559C41.9965 26.8559 42.1565 27.0696 42.1565 27.6039V31.0944H43.7923V27.4792C43.7923 26.1792 43.2411 25.5737 42.1031 25.5737C41.4631 25.5737 40.8408 25.9477 40.5385 26.5353C40.3251 25.8942 39.7917 25.5737 39.0272 25.5737C38.3516 25.5737 37.7293 25.9833 37.427 26.6244L37.3025 25.7339H35.9513V31.0588H35.9157ZM46.4237 31.1835C47.1349 31.1835 47.6861 30.8451 48.0239 30.2574L48.1484 31.0588H49.4997V27.6395C49.4997 26.1257 48.8596 25.538 47.2416 25.538C46.5659 25.538 45.8014 25.6627 45.1435 25.8764L45.4458 27.0874C46.0325 26.9093 46.5837 26.8025 47.046 26.8025C47.7572 26.8025 47.935 27.0162 47.935 27.782V27.8176H47.0104C45.4458 27.8176 44.7346 28.3697 44.7346 29.5807C44.7524 30.6314 45.3391 31.1835 46.4237 31.1835ZM50.8509 31.0588H52.4867V27.6039C52.5756 27.1409 52.9134 26.8381 53.3579 26.8381C53.8202 26.8381 54.0691 27.0874 54.0691 27.5505V31.0766H55.7049V27.4258C55.7049 26.1614 55.1181 25.538 53.9091 25.538C53.2335 25.538 52.6112 25.9476 52.3445 26.5175L52.22 25.6805H50.8687V31.0588H50.8509ZM83.3706 31.2191C84.9353 31.2191 85.682 30.667 85.682 29.456C85.682 28.4765 85.3442 28.1025 84.0463 27.782L83.584 27.6929C83.1751 27.6039 82.9973 27.4436 82.9973 27.1943C82.9973 26.8915 83.2462 26.7312 83.7618 26.7312C84.1707 26.7312 84.7397 26.8559 85.202 27.0162L85.5042 25.8764C84.9175 25.6271 84.3308 25.538 83.6196 25.538C82.2861 25.538 81.5571 26.1614 81.5571 27.2655C81.5571 28.1916 81.9838 28.708 82.9973 28.9039L83.6196 29.0642C84.0818 29.1533 84.2063 29.2779 84.2063 29.5272C84.2063 29.8656 83.9574 30.0259 83.4062 30.0259C82.8906 30.0259 82.3038 29.9012 81.7704 29.6519L81.4326 30.8273C81.8593 31.0232 82.6594 31.2191 83.3706 31.2191ZM25.621 28.3697C25.621 26.5532 24.732 25.538 23.0607 25.538C21.3894 25.538 20.5004 26.5532 20.5004 28.3697C20.5004 30.1862 21.3894 31.2013 23.0607 31.2013C24.7143 31.2191 25.621 30.204 25.621 28.3697ZM66.3907 31.1835C67.1019 31.1835 67.6531 30.8451 67.9909 30.2574L68.1154 31.0588H69.4666V27.6395C69.4666 26.1257 68.8266 25.538 67.2086 25.538C66.5329 25.538 65.7684 25.6627 65.1105 25.8764L65.4128 27.0874C65.9995 26.9093 66.5507 26.8025 67.013 26.8025C67.7242 26.8025 67.902 27.0162 67.902 27.782V27.8176H67.013C65.4484 27.8176 64.7372 28.3697 64.7372 29.5807C64.7194 30.6314 65.3061 31.1835 66.3907 31.1835ZM8.69444 32.9466L11.0414 25.6983H9.24562L8.16104 29.5807L7.14758 25.6983H5.38735L6.952 30.7561H7.80544L7.0409 32.9466H8.69444ZM23.9497 28.3697C23.9497 29.5094 23.7008 29.9725 23.0607 29.9725C22.4206 29.9725 22.1717 29.5094 22.1717 28.3697C22.1717 27.2299 22.4206 26.7669 23.0607 26.7669C23.7008 26.7669 23.9497 27.2299 23.9497 28.3697ZM2.50699 29.919C2.04471 29.919 1.76022 29.6697 1.63576 29.2067V27.5148C1.76022 27.0874 2.09805 26.8381 2.50699 26.8381C3.14707 26.8381 3.46711 27.3367 3.46711 28.3875C3.44933 29.4204 3.14707 29.919 2.50699 29.919ZM32.0219 29.919C31.3996 29.919 31.0973 29.4204 31.0973 28.3697C31.0973 27.3189 31.3996 26.8203 32.0574 26.8203C32.4308 26.8203 32.7331 27.0696 32.9286 27.4436V29.2067C32.8042 29.6697 32.4841 29.919 32.0219 29.919ZM66.9419 30.0081C66.5152 30.0081 66.3018 29.7944 66.3018 29.3848C66.3018 28.9217 66.5863 28.708 67.1375 28.708H67.9376V29.1711C67.8131 29.7053 67.4397 30.0081 66.9419 30.0081ZM46.9749 30.0081C46.5482 30.0081 46.3348 29.7944 46.3348 29.3848C46.3348 28.9217 46.6193 28.708 47.1705 28.708H47.9706V29.1711C47.8461 29.7053 47.4727 30.0081 46.9749 30.0081ZM86.2866 23.6325H85.682V23.4188H87.1045V23.6325H86.4999V25.36H86.2688V23.6325H86.2866ZM87.3889 23.4188H87.6379L88.3313 25.1462L89.0247 23.4188H89.2736V25.36H89.0603V23.864C89.0425 23.9352 88.9714 24.1133 88.9536 24.1311L88.4557 25.3421H88.2068L87.709 24.1311C87.6912 24.0955 87.6379 23.9174 87.6201 23.8462V25.3421H87.3889V23.4188Z" fill="#616475"/>
</svg>
