<svg width="13" height="14" viewBox="0 0 13 14" fill="none" xmlns="http://www.w3.org/2000/svg">
<g clip-path="url(#clip0_58_397)">
<path d="M10.8318 1.89208L6.4999 0.456299L2.16802 1.89208C1.84164 2.00028 1.55765 2.20856 1.35639 2.48735C1.15513 2.76614 1.04683 3.10125 1.04688 3.4451V6.99501C1.04688 11.0979 6.06365 13.3636 6.2785 13.4579L6.47154 13.5435L6.67221 13.477C6.88815 13.405 11.9529 11.6721 11.9529 6.99501V3.4451C11.953 3.10125 11.8447 2.76614 11.6434 2.48735C11.4421 2.20856 11.1582 2.00028 10.8318 1.89208ZM6.74201 8.07962C6.64668 8.17559 6.53324 8.25166 6.40827 8.30343C6.2833 8.35519 6.1493 8.38162 6.01403 8.38117H5.99604C5.85802 8.37906 5.72186 8.34897 5.59579 8.29274C5.46973 8.2365 5.35638 8.15528 5.26261 8.05399L4.00514 6.74527L4.79201 5.99166L6.01567 7.26767L8.84088 4.44246L9.61193 5.21351L6.74201 8.07962Z" fill="#11695F"/>
</g>
<defs>
<clipPath id="clip0_58_397">
<rect width="13" height="13" fill="white" transform="translate(0 0.5)"/>
</clipPath>
</defs>
</svg>
