<svg width="40" height="41" viewBox="0 0 40 41" fill="none" xmlns="http://www.w3.org/2000/svg">
<path d="M39.999 20.8062C39.999 31.8521 31.0449 40.8062 19.999 40.8062C8.9541 40.8051 0 31.851 0 20.8062C0 9.76025 8.9541 0.806152 20 0.806152C31.0459 0.806152 40 9.76025 40 20.8062H39.999Z" fill="white"/>
<path d="M19.9276 7.99063C13.7468 8.19095 8.64109 13.197 8.33205 19.3738C8.22031 21.6005 8.71155 23.7053 9.66686 25.5324L8.325 31.5421C8.26863 31.8139 8.50922 32.0545 8.78101 31.9981L14.7907 30.6562H14.7947C16.6097 31.6045 18.6924 32.0957 20.903 31.993C27.0697 31.7072 32.0919 26.6407 32.3304 20.472C32.6002 13.4859 26.9056 7.76414 19.9286 7.99063H19.9276ZM20.3272 29.5217C18.5797 29.5217 16.9429 29.0496 15.5356 28.2252C15.4027 28.1507 15.2749 28.0722 15.15 27.9886L11.3107 29.0114L12.3335 25.172C11.3641 23.6812 10.8013 21.9045 10.8013 19.9949C10.8013 14.7432 15.0756 10.469 20.3272 10.469C25.5789 10.469 29.8531 14.7432 29.8531 19.9949C29.8531 25.2465 25.5789 29.5207 20.3272 29.5207V29.5217Z" fill="#172B54"/>
<path d="M25.9764 24.1885C25.8103 24.4381 25.6362 24.6707 25.3573 24.9485C24.7473 25.5585 23.8997 25.8666 23.04 25.779C21.4999 25.621 19.3114 24.7703 17.43 22.8929C15.5486 21.0115 14.698 18.8231 14.544 17.2829C14.4564 16.4232 14.7644 15.5767 15.3744 14.9656C15.6523 14.6878 15.8848 14.5126 16.1345 14.3425C16.5955 14.0315 17.2226 14.2388 17.3968 14.7623L18.028 16.6558C18.2021 17.1752 18.1236 17.5034 17.8991 17.7228L17.3968 18.2302C17.1471 18.4798 17.1059 18.8654 17.2971 19.1643C17.575 19.6002 18.0984 20.2978 19.0618 21.2612C20.0251 22.2245 20.7227 22.748 21.1586 23.0258C21.4576 23.2171 21.8441 23.1758 22.0928 22.9262L22.6001 22.4239C22.8206 22.1994 23.1488 22.1209 23.6672 22.295L25.5607 22.9262C26.0841 23.1003 26.2915 23.7275 25.9764 24.1885Z" fill="#172B54"/>
</svg>
