<svg width="26" height="26" viewBox="0 0 26 26" fill="none" xmlns="http://www.w3.org/2000/svg">
<path d="M0.249817 13.2225C0.249817 14.8969 0.579605 16.5548 1.22036 18.1018C1.86111 19.6487 2.80028 21.0542 3.98423 22.2382C5.16819 23.4221 6.57375 24.3613 8.12066 25.0021C9.66757 25.6428 11.3255 25.9726 12.9999 25.9726C14.6743 25.9726 16.3322 25.6428 17.8792 25.0021C19.4261 24.3613 20.8316 23.4221 22.0156 22.2382C23.1995 21.0542 24.1387 19.6487 24.7795 18.1018C25.4202 16.5548 25.75 14.8969 25.75 13.2225C25.75 9.84097 24.4067 6.59793 22.0156 4.20683C19.6245 1.81572 16.3814 0.472412 12.9999 0.472412C9.61837 0.472412 6.37534 1.81572 3.98423 4.20683C1.59313 6.59793 0.249817 9.84097 0.249817 13.2225Z" fill="white"/>
<path d="M14.7705 8.26392L9.81214 13.2223L14.7705 18.1807" stroke="#0C2A53" stroke-width="2.12502" stroke-linecap="round" stroke-linejoin="round"/>
</svg>
