<svg width="375" height="270" viewBox="0 0 375 270" fill="none" xmlns="http://www.w3.org/2000/svg">
<path d="M-508.136 265.255L-496.95 269M-508.136 265.255H-474.986M-508.136 265.255L-519.694 261.387M-508.136 265.255H-531.613M-496.95 269L-501.02 268.999L-505.048 268.99L-508.993 268.968L-512.813 268.923L-516.469 268.85L-519.919 268.74L-523.123 268.588L-526.098 268.394L-528.65 268.125L-530.974 267.814L-531.613 267.705V265.255M-496.95 269H-464.333M-474.986 265.255L-464.333 269M-474.986 265.255H-441.837M-474.986 265.255L-477.705 264.3L-485.994 261.387M-531.613 265.255L-531.614 261.387M-464.333 269H-431.717M-431.717 269H-399.1M-431.717 269L-441.837 265.255M-399.1 269H-366.483M-399.1 269L-408.688 265.255M-441.837 265.255H-408.688M-441.837 265.255L-452.295 261.387M-366.483 269H-333.867M-366.483 269L-375.539 265.255M-408.688 265.255H-375.539M-408.688 265.255L-418.595 261.387M-333.867 269H-301.25M-333.867 269L-342.39 265.255M-375.539 265.255H-342.39M-375.539 265.255L-384.895 261.387M-301.25 269H-268.633M-301.25 269L-309.24 265.255M-342.39 265.255H-309.24M-342.39 265.255L-344.564 264.3L-345.658 263.82L-351.195 261.387M-268.633 269H-236.017M-268.633 269L-276.091 265.255M-309.24 265.255H-276.091M-309.24 265.255L-311.278 264.3L-317.496 261.387M-236.017 269H-203.4M-236.017 269L-242.941 265.255M-276.091 265.255H-242.941M-276.091 265.255L-283.796 261.387M-203.4 269H-170.783M-203.4 269L-209.792 265.255M-242.941 265.255H-209.792M-242.941 265.255L-244.708 264.3L-245.597 263.82L-250.096 261.387M-170.783 269H-138.167M-170.783 269L-176.643 265.255M-209.792 265.255H-176.643M-209.792 265.255L-216.397 261.387M-138.167 269H-105.55M-138.167 269L-143.493 265.255M-176.643 265.255H-143.493M-176.643 265.255L-178.137 264.3L-178.89 263.82L-182.697 261.387M-105.55 269H-72.933M-105.55 269L-106.734 268.075L-108.528 266.674L-110.344 265.255M-143.493 265.255H-110.344M-143.493 265.255L-144.172 264.779L-144.852 264.3L-148.997 261.387M-72.933 269H-40.317M-72.933 269L-73.985 268.075L-77.194 265.255M-110.344 265.255H-77.194M-110.344 265.255L-111.567 264.3L-112.183 263.82L-115.297 261.387M-40.317 269H-7.70001M-40.317 269L-44.045 265.255M-77.194 265.255H-44.045M-77.194 265.255L-81.598 261.387M-7.70001 269H24.917M-7.70001 269L-8.88599 267.61L-10.088 266.203L-10.491 265.73L-10.896 265.255M-44.045 265.255H-10.896M-44.045 265.255L-44.52 264.779L-44.996 264.3L-45.475 263.82L-47.898 261.387M24.917 269H57.533M24.917 269L23.928 267.61L23.596 267.143L23.262 266.674L22.253 265.255M-10.896 265.255H22.253M-10.896 265.255L-11.711 264.3L-12.122 263.82L-12.534 263.337L-14.198 261.387M57.533 269H90.15M57.533 269L55.402 265.255M22.253 265.255H55.402M22.253 265.255L21.574 264.3L20.198 262.367L19.851 261.878L19.501 261.387M90.15 269L89.953 268.539L89.756 268.075L88.755 265.73L88.552 265.255M90.15 269H122.766M55.402 265.255H88.552M55.402 265.255L55.131 264.779L54.859 264.3L54.585 263.82L53.202 261.387M88.552 265.255H121.701M88.552 265.255L86.901 261.387M122.766 269H155.384M122.766 269L121.701 265.255M155.384 269H188M155.384 269L155.186 267.61L154.851 265.255M121.701 265.255H154.851M121.701 265.255L121.566 264.779L121.43 264.3L121.293 263.82L120.601 261.387M188 269H220.616M188 269V265.255M154.851 265.255H188M154.851 265.255L154.3 261.387M220.616 269H253.234M220.616 269L220.814 267.61L221.149 265.255M188 265.255H221.149M188 265.255V261.387M253.234 269H285.85M253.234 269L254.299 265.255M221.149 265.255H254.299M221.149 265.255L221.7 261.387M285.85 269L286.047 268.539L286.244 268.075L287.245 265.73L287.448 265.255M285.85 269H318.466M254.299 265.255H287.448M254.299 265.255L254.434 264.779L254.57 264.3L254.707 263.82L255.121 262.367L255.399 261.387M287.448 265.255H320.598M287.448 265.255L289.099 261.387M318.466 269H351.084M318.466 269L320.327 265.73L320.598 265.255M351.084 269H383.7M351.084 269L352.072 267.61L352.404 267.143L353.073 266.203L353.409 265.73L353.747 265.255M320.598 265.255H353.747M320.598 265.255L320.869 264.779L321.141 264.3L321.415 263.82L322.799 261.387M383.7 269H416.317M383.7 269L384.886 267.61L386.087 266.203L386.491 265.73L386.896 265.255M353.747 265.255H386.896M353.747 265.255L354.426 264.3L355.802 262.367L356.499 261.387M416.317 269H448.933M416.317 269L420.045 265.255M386.896 265.255H420.045M386.896 265.255L387.711 264.3L388.122 263.82L388.533 263.337L390.198 261.387M448.933 269H481.55M448.933 269L449.985 268.075L453.194 265.255M420.045 265.255L420.52 264.779L423.898 261.387M420.045 265.255H453.194M481.55 269H514.17M481.55 269L486.34 265.255M453.194 265.255H486.34M453.194 265.255L453.737 264.779L457.597 261.387M514.17 269H546.78M514.17 269L519.49 265.255M486.34 265.255H519.49M486.34 265.255L487.57 264.3L488.18 263.82L491.3 261.387M546.78 269H579.4M546.78 269L552.64 265.255M519.49 265.255H552.64M519.49 265.255L520.17 264.779L520.85 264.3L525 261.387M579.4 269H612.02M579.4 269L585.79 265.255M552.64 265.255H585.79M552.64 265.255L554.14 264.3L554.89 263.82L558.7 261.387M612.02 269H644.63M612.02 269L618.94 265.255M585.79 265.255H618.94M585.79 265.255L586.61 264.779L592.4 261.387M644.63 269H677.25M644.63 269L652.09 265.255M618.94 265.255H652.09M618.94 265.255L620.71 264.3L621.6 263.82L626.1 261.387M677.25 269H709.87M677.25 269L685.24 265.255M652.09 265.255H685.24M652.09 265.255L659.8 261.387M709.87 269H742.48M709.87 269L718.39 265.255M685.24 265.255H718.39M685.24 265.255L687.28 264.3L693.5 261.387M742.48 269H775.1M742.48 269L751.54 265.255M718.39 265.255H751.54M718.39 265.255L720.56 264.3L721.66 263.82L727.2 261.387M775.1 269H807.72M775.1 269L784.69 265.255M751.54 265.255H784.69M751.54 265.255L760.89 261.387M807.72 269H840.33M807.72 269L817.84 265.255M784.69 265.255H817.84M784.69 265.255L794.6 261.387M840.33 269H872.95M840.33 269L850.99 265.255M817.84 265.255H850.99M817.84 265.255L828.29 261.387M872.95 269L877.02 268.999L881.05 268.99L884.99 268.968L888.81 268.923L892.47 268.85L895.92 268.74L899.12 268.588L902.1 268.394L904.65 268.125L906.97 267.814L907.61 267.705V265.255M872.95 269L884.14 265.255M850.99 265.255H884.14M850.99 265.255L853.7 264.3L861.99 261.387M907.61 265.255H884.14M907.61 265.255V261.387M884.14 265.255L895.69 261.387M828.29 261.387L839.1 257.388M828.29 261.387H794.6M828.29 261.387H861.99M794.6 261.387L804.84 257.388M794.6 261.387H760.89M693.5 261.387L702.03 257.388M693.5 261.387H659.8M693.5 261.387H727.2M659.8 261.387L667.76 257.388M659.8 261.387H626.1M558.7 261.387L564.96 257.388M558.7 261.387H525M558.7 261.387H592.4M525 261.387L528.53 258.903L530.69 257.388M525 261.387H491.3M423.898 261.387L427.881 257.388M423.898 261.387H390.198M423.898 261.387H457.597M390.198 261.387L392.318 258.903L393.612 257.388M390.198 261.387H356.499M289.099 261.387L289.521 260.4L290.159 258.903L290.59 257.896L290.806 257.388M289.099 261.387H255.399M289.099 261.387H322.799M255.399 261.387H221.7M154.3 261.387H120.601M154.3 261.387H188M120.601 261.387L120.178 259.903L119.607 257.896L119.463 257.388M120.601 261.387H86.901M19.501 261.387L18.799 260.4L16.656 257.388M19.501 261.387H-14.198M19.501 261.387H53.202M-14.198 261.387L-16.318 258.903L-17.612 257.388M-14.198 261.387H-47.898M-115.297 261.387L-119.769 257.896L-120.418 257.388M-115.297 261.387H-148.997M-115.297 261.387H-81.598M-148.997 261.387L-152.53 258.903L-154.687 257.388M-148.997 261.387H-182.697M-250.096 261.387L-257.493 257.388M-250.096 261.387H-283.796M-250.096 261.387H-216.397M-283.796 261.387L-291.761 257.388M-283.796 261.387H-317.496M-384.895 261.387L-394.568 257.388M-384.895 261.387H-351.195M-384.895 261.387H-418.595M-418.595 261.387L-428.836 257.388M-418.595 261.387H-452.295M907.73 230.238H907.61M907.61 230.238H874.36M907.61 230.238V225.107M907.61 230.238V232.045M874.36 230.238L861.71 235.18M874.36 230.238L887.5 225.107M874.36 230.238H836.23M861.71 235.18H899.14M861.71 235.18L849.51 239.943M861.71 235.18H824.28M887.5 225.107L901.16 219.775M887.5 225.107H848.64M887.5 225.107H907.61M836.23 230.238L824.28 235.18M836.23 230.238L848.64 225.107M836.23 230.238H798.1M899.14 235.18L886.26 239.943M899.14 235.18H907.61M899.14 235.18L907.61 232.045M849.51 239.943L837.74 244.537M849.51 239.943H812.76M849.51 239.943H886.26M824.28 235.18L812.76 239.943M824.28 235.18H786.85M886.26 239.943L873.84 244.537M886.26 239.943H907.61M907.61 235.18V232.045M907.61 235.18V239.943M861.86 248.971H826.39M861.86 248.971L850.29 253.252M861.86 248.971H897.32M861.86 248.971L873.84 244.537M826.39 248.971L815.43 253.252M826.39 248.971L837.74 244.537M826.39 248.971H790.93M850.29 253.252H815.43M850.29 253.252L839.1 257.388M850.29 253.252H885.14M897.32 248.971L885.14 253.252M897.32 248.971H907.61M897.32 248.971L907.61 245.355M873.84 244.537H837.74M873.84 244.537H907.61M815.43 253.252H780.57M815.43 253.252L804.84 257.388M837.74 244.537H801.65M790.93 248.971L780.57 253.252M790.93 248.971L801.65 244.537M790.93 248.971H755.46M839.1 257.388H804.84M839.1 257.388H873.37M885.14 253.252L873.37 257.388M885.14 253.252H907.61M780.57 253.252H745.71M780.57 253.252L770.57 257.388M804.84 257.388H770.57M907.98 152.233H907.61M907.61 152.233H877.21M907.61 152.233V160.426M907.61 152.233V143.632M877.21 152.233L860.89 160.426M877.21 152.233L894.34 143.632M877.21 152.233H827.98M860.89 160.426L845.32 168.241M860.89 160.426H812.83M860.89 160.426H907.61M894.34 143.632H843.89M894.34 143.632H907.61M894.34 143.632L907.61 136.969M827.98 152.233L812.83 160.426M827.98 152.233L843.89 143.632M827.98 152.233H778.75M845.32 168.241H892.28M845.32 168.241L830.46 175.702M845.32 168.241H798.37M812.83 160.426L798.37 168.241M812.83 160.426H764.76M907.61 160.426V161.054M892.28 168.241L876.35 175.702M892.28 168.241H907.61M892.28 168.241L907.61 161.054M876.35 175.702L861.13 182.834M876.35 175.702H830.46M876.35 175.702H907.61M907.61 168.241V161.054M907.61 168.241V175.702M861.13 182.834H816.26M861.13 182.834L846.57 189.656M861.13 182.834H906.01M816.26 182.834L802.67 189.656M816.26 182.834L830.46 175.702M816.26 182.834H771.38M846.57 189.656H802.67M846.57 189.656H890.48M846.57 189.656L832.63 196.19M906.01 182.834L890.48 189.656M906.01 182.834H907.61M906.01 182.834L907.61 182.13M802.67 189.656L789.66 196.19M802.67 189.656H758.76M830.46 175.702H784.57M771.38 182.834L758.76 189.656M771.38 182.834L784.57 175.702M771.38 182.834H726.51M890.48 189.656L875.61 196.19M890.48 189.656H907.61M832.63 196.19H789.66M832.63 196.19H875.61M832.63 196.19L819.27 202.453M789.66 196.19L777.18 202.453M789.66 196.19H746.68M758.76 189.656L746.68 196.19M758.76 189.656H714.86M806.44 208.462H765.21M806.44 208.462L794.13 214.231M806.44 208.462H847.67M806.44 208.462L819.27 202.453M765.21 208.462L753.72 214.231M765.21 208.462L777.18 202.453M765.21 208.462H723.98M794.13 214.231H753.72M794.13 214.231H834.54M794.13 214.231L782.3 219.775M847.67 208.462H888.9M847.67 208.462L834.54 214.231M847.67 208.462L861.35 202.453M819.27 202.453H777.18M819.27 202.453H861.35M753.72 214.231L742.68 219.775M753.72 214.231H713.31M777.18 202.453H735.1M723.98 208.462L713.31 214.231M723.98 208.462L735.1 202.453M723.98 208.462H682.75M834.54 214.231H874.95M834.54 214.231L821.92 219.775M782.3 219.775H742.68M782.3 219.775H821.92M782.3 219.775L770.92 225.107M742.68 219.775L732.06 225.107M742.68 219.775H703.06M713.31 214.231L703.06 219.775M713.31 214.231H672.9M759.97 230.238H721.84M759.97 230.238L749.42 235.18M759.97 230.238H798.1M759.97 230.238L770.92 225.107M721.84 230.238L711.99 235.18M721.84 230.238L732.06 225.107M721.84 230.238H683.71M749.42 235.18H711.99M749.42 235.18H786.85M749.42 235.18L739.26 239.943M798.1 230.238L786.85 235.18M798.1 230.238L809.78 225.107M770.92 225.107H732.06M770.92 225.107H809.78M711.99 235.18L702.51 239.943M711.99 235.18H674.57M732.06 225.107H693.2M683.71 230.238L674.57 235.18M683.71 230.238L693.2 225.107M683.71 230.238H645.58M786.85 235.18L776.01 239.943M739.26 239.943H702.51M739.26 239.943H776.01M739.26 239.943L729.45 244.537M702.51 239.943L693.36 244.537M702.51 239.943H665.76M674.57 235.18L665.76 239.943M674.57 235.18H637.14M719.99 248.971H684.53M719.99 248.971L710.86 253.252M719.99 248.971H755.46M719.99 248.971L729.45 244.537M684.53 248.971L676 253.252M684.53 248.971L693.36 244.537M684.53 248.971H649.06M710.86 253.252H676M710.86 253.252L702.03 257.388M710.86 253.252H745.71M755.46 248.971L745.71 253.252M755.46 248.971L765.55 244.537M729.45 244.537H693.36M729.45 244.537H765.55M676 253.252H641.14M676 253.252L667.76 257.388M693.36 244.537H657.26M649.06 248.971L641.14 253.252M649.06 248.971L657.26 244.537M649.06 248.971H613.59M702.03 257.388H667.76M702.03 257.388H736.3M745.71 253.252L736.3 257.388M641.14 253.252H606.29M641.14 253.252L633.49 257.388M667.76 257.388H633.49M882.39 10.181L859.42 26.326M882.39 10.181L906.99 -7.10803M882.39 10.181H812.95M882.39 10.181H907.61M859.42 26.326L837.92 41.436M859.42 26.326H792.28M859.42 26.326H907.61M906.99 -7.10803H835.09L812.95 10.18M906.99 -7.10803H907.61M906.99 -7.10803L907.61 -7.54703M812.95 10.181L792.28 26.326M812.95 10.181H743.51M792.28 26.326L772.93 41.436H707.94H642.95M792.28 26.326H725.14M907.61 26.326V10.18V-7.10703V-7.54703M907.61 26.326V38.435M859.89 68.931H798.81M859.89 68.931L840.26 81.473M859.89 68.931L880.73 55.61M859.89 68.931H907.61M798.81 68.931L780.96 81.473M798.81 68.931L817.76 55.61M798.81 68.931H737.73M840.26 81.473H780.96M840.26 81.473H899.56M840.26 81.473L821.75 93.303M880.73 55.61H817.76M880.73 55.61L902.91 41.436M880.73 55.61H907.61M907.61 68.931V55.61M907.61 68.931V76.754V81.473M780.96 81.473L764.13 93.303M780.96 81.473H721.67M817.76 55.61L837.92 41.437M817.76 55.61H754.78M737.73 68.931L721.67 81.473M737.73 68.931L754.78 55.61M737.73 68.931H676.65M899.56 81.473L879.36 93.303M899.56 81.473H907.61M899.56 81.473L907.61 76.753M821.75 93.303H764.13M821.75 93.303H879.36M821.75 93.303L804.25 104.48M764.13 93.303L748.23 104.48M764.13 93.303H706.52M721.67 81.473L706.52 93.303M721.67 81.473H662.37M787.7 115.057H733.18M787.7 115.057L772.01 125.08M787.7 115.057H842.22M787.7 115.057L804.25 104.48M733.18 115.057L718.92 125.08M733.18 115.057L748.23 104.48M733.18 115.057H678.66M772.01 125.08H718.92M772.01 125.08H825.11M772.01 125.08L757.13 134.592M842.22 115.057H896.74M842.22 115.057L825.11 125.08M842.22 115.057L860.28 104.48M804.25 104.48H748.23M804.25 104.48H860.28M718.92 125.08L705.39 134.592M718.92 125.08H665.83M748.23 104.48H692.21M678.66 115.057L665.83 125.08M678.66 115.057L692.21 104.48M678.66 115.057H624.15M825.11 125.08H878.2M825.11 125.08L808.87 134.592M757.13 134.592H705.39M757.13 134.592H808.87M757.13 134.592L742.98 143.632M705.39 134.592L692.53 143.632M705.39 134.592H653.65M665.83 125.08L653.65 134.592M665.83 125.08H612.74M729.52 152.233H680.29M729.52 152.233L716.7 160.426M729.52 152.233H778.75M729.52 152.233L742.98 143.632M680.29 152.233L668.64 160.426M680.29 152.233L692.53 143.632M680.29 152.233H631.06M716.7 160.426H668.64M716.7 160.426H764.76M716.7 160.426L704.47 168.241M778.75 152.233L764.76 160.426M778.75 152.233L793.43 143.632M742.98 143.632H692.53M742.98 143.632H793.43M668.64 160.426L657.52 168.241M668.64 160.426H620.57M692.53 143.632H642.08M631.06 152.233L620.57 160.426M631.06 152.233L642.08 143.632M631.06 152.233H581.83M764.76 160.426L751.42 168.241M704.47 168.241H657.52M704.47 168.241H751.42M704.47 168.241L692.79 175.702M657.52 168.241L646.9 175.702M657.52 168.241H610.57M620.57 160.426L610.57 168.241M620.57 160.426H572.51M681.63 182.834H636.76M681.63 182.834L670.95 189.656M681.63 182.834H726.51M681.63 182.834L692.79 175.702M636.76 182.834L627.05 189.656M636.76 182.834L646.9 175.702M636.76 182.834H591.88M670.95 189.656H627.05M670.95 189.656H714.86M670.95 189.656L660.73 196.19M726.51 182.834L714.86 189.656M726.51 182.834L738.68 175.702M692.79 175.702H646.9M692.79 175.702H738.68M627.05 189.656L617.75 196.19M627.05 189.656H583.14M646.9 175.702H601.01M591.88 182.834L583.14 189.656M591.88 182.834L601.01 175.702M591.88 182.834H547M714.86 189.656L703.7 196.19M660.73 196.19H617.75M660.73 196.19H703.7M660.73 196.19L650.93 202.453M617.75 196.19L608.84 202.453M617.75 196.19H574.78M583.14 189.656L574.78 196.19M583.14 189.656H539.24M641.52 208.462H600.3M641.52 208.462L632.5 214.231M641.52 208.462H682.75M641.52 208.462L650.93 202.453M600.3 208.462L599.25 209.195L592.09 214.231M600.3 208.462L608.84 202.453M600.3 208.462H559.07M632.5 214.231H592.09M632.5 214.231H672.9M632.5 214.231L623.82 219.775M682.75 208.462L672.9 214.231M682.75 208.462L693.01 202.453M650.93 202.453H608.84M650.93 202.453H693.01M592.09 214.231L584.2 219.775M592.09 214.231H551.68M608.84 202.453H566.76M559.07 208.462L551.68 214.231M559.07 208.462L566.76 202.453M559.07 208.462H517.84M672.9 214.231L663.44 219.775M623.82 219.775H584.2M623.82 219.775H663.44M623.82 219.775L615.48 225.107M584.2 219.775L577.55 224.451L576.61 225.107M584.2 219.775H544.58M551.68 214.231L544.58 219.775M551.68 214.231H511.27M607.44 230.238H569.31M607.44 230.238L599.71 235.18M607.44 230.238H645.58M607.44 230.238L615.48 225.107M569.31 230.238L562.28 235.18M569.31 230.238L572.02 228.336L576.61 225.107M569.31 230.238H531.18M599.71 235.18H562.28M599.71 235.18H637.14M599.71 235.18L592.26 239.943M645.58 230.238L638.18 234.573L637.14 235.18M645.58 230.238L654.34 225.107M615.48 225.107H576.61M615.48 225.107H654.34M562.28 235.18L555.51 239.943M562.28 235.18H524.85M576.61 225.107H537.75M531.18 230.238L524.85 235.18M531.18 230.238L532.8 228.974L537.75 225.107M531.18 230.238H493.05M637.14 235.18L629.01 239.943M592.26 239.943H555.51M592.26 239.943H629.01M592.26 239.943L585.07 244.537M555.51 239.943L548.97 244.537M555.51 239.943H518.75M524.85 235.18L518.75 239.943M524.85 235.18H487.43M578.13 248.971H542.66M578.13 248.971L571.43 253.252M578.13 248.971H613.59M578.13 248.971L585.07 244.537M542.66 248.971L538.07 252.195L537.32 252.725L536.57 253.252M542.66 248.971L548.97 244.537M542.66 248.971H507.2M571.43 253.252H536.57M571.43 253.252L564.96 257.388M571.43 253.252H606.29M613.59 248.971L606.29 253.252M613.59 248.971L621.16 244.537M585.07 244.537H548.97M585.07 244.537H621.16M536.57 253.252H501.71M536.57 253.252L530.69 257.388M548.97 244.537H512.87M507.2 248.971L501.71 253.252M507.2 248.971L512.87 244.537M507.2 248.971H471.73M564.96 257.388H530.69M564.96 257.388H599.22M606.29 253.252L599.22 257.388M501.71 253.252H466.857M501.71 253.252L496.42 257.388M530.69 257.388H496.42M857.23 -173.731H761.63M857.23 -173.731L827.13 -143.504M857.23 -173.731L890.31 -206.948M857.23 -173.731L907.61 -173.732M761.63 -173.731L735.82 -143.504M761.63 -173.731L789.98 -206.948M761.63 -173.731H666.02M827.13 -143.504H735.82M827.13 -143.504L799.62 -115.878M827.13 -143.504H907.61M890.31 -206.948H789.98M890.31 -206.948L907.61 -224.32M890.31 -206.948H907.61M907.61 -173.732V-206.948M907.61 -173.732V-143.504M735.82 -143.504L712.24 -115.878M735.82 -143.504H644.52M789.98 -206.948L821.28 -243.619M789.98 -206.948H689.65M666.02 -173.731L644.52 -143.504M666.02 -173.731L689.65 -206.948M666.02 -173.731H570.42M799.62 -115.878H712.24M799.62 -115.878H886.99M799.62 -115.878L774.37 -90.533M907.61 -143.504V-133.998M712.24 -115.878L690.61 -90.533M712.24 -115.878H624.87M644.52 -143.504L624.87 -115.878M644.52 -143.504H553.22M751.13 -67.197H670.69M751.13 -67.197L729.67 -45.64M751.13 -67.197H831.58M751.13 -67.197L774.37 -90.533M670.69 -67.197L652.28 -45.64M670.69 -67.197L690.61 -90.533M670.69 -67.197H590.24M729.67 -45.64H652.28M729.67 -45.64H807.05M729.67 -45.64L709.77 -25.667M831.58 -67.197L807.05 -45.64M831.58 -67.197L858.14 -90.533M831.58 -67.197H907.61M774.37 -90.533H690.61M652.28 -45.64L635.23 -25.667M652.28 -45.64H574.9M690.61 -90.533H606.84M590.24 -67.197L574.9 -45.64M590.24 -67.197H509.79M807.05 -45.64H884.43M807.05 -45.64L784.31 -25.667M709.77 -25.667H635.23M709.77 -25.667H784.31M709.77 -25.667L691.29 -7.10703H619.39H547.49M635.23 -25.667L619.39 -7.10803L604.63 10.181M635.23 -25.667H560.7M574.9 -45.64L560.7 -25.667M574.9 -45.64H497.52M604.63 10.18H674.07L657.99 26.326M657.99 26.326H590.85M657.99 26.326H725.14M657.99 26.326L642.95 41.436M743.51 10.181H674.07L691.29 -7.10803H763.19L743.51 10.181ZM743.51 10.181L725.14 26.326M604.63 10.181L590.85 26.326M604.63 10.181H535.2M590.85 26.326L577.95 41.436M590.85 26.326H523.71M535.2 10.181L523.71 26.326M535.2 10.181H465.756M725.14 26.326L707.94 41.437L691.81 55.61M642.95 41.436L628.83 55.61M523.71 26.326L512.96 41.436H447.969H382.977M523.71 26.326H456.568M615.57 68.931H554.48M615.57 68.931L603.07 81.473M615.57 68.931H676.65M615.57 68.931L628.83 55.61M554.48 68.931L543.78 81.473M554.48 68.931L565.85 55.61M554.48 68.931H493.4M603.07 81.473H543.78M603.07 81.473H662.37M603.07 81.473L591.29 93.303M676.65 68.931L662.37 81.473M676.65 68.931L691.81 55.61M628.83 55.61H565.85M628.83 55.61H691.81M543.78 81.473L533.68 93.303M543.78 81.473H484.48M565.85 55.61L577.95 41.437M565.85 55.61H502.88M493.4 68.931L484.48 81.473M493.4 68.931L502.88 55.61M493.4 68.931H432.323M662.37 81.473L648.91 93.303M591.29 93.303H533.68M591.29 93.303H648.91M591.29 93.303L580.16 104.48M533.68 93.303L524.14 104.48M533.68 93.303H476.07M484.48 81.473L476.07 93.303M484.48 81.473H425.185M569.63 115.057H515.11M569.63 115.057L559.65 125.08M569.63 115.057H624.15M569.63 115.057L580.16 104.48M515.11 115.057L506.55 125.08M515.11 115.057L524.14 104.48M515.11 115.057H460.591M559.65 125.08H506.55M559.65 125.08H612.74M559.65 125.08L550.17 134.592M624.15 115.057L612.74 125.08M624.15 115.057L636.18 104.48M580.16 104.48H524.14M580.16 104.48H636.18M506.55 125.08L498.43 134.592M506.55 125.08H453.461M524.14 104.48H468.12M460.591 115.057L453.461 125.08M460.591 115.057L468.12 104.48M460.591 115.057H406.073M612.74 125.08L601.91 134.592M550.17 134.592H498.43M550.17 134.592H601.91M550.17 134.592L541.17 143.632M498.43 134.592L490.72 143.632M498.43 134.592H446.695M453.461 125.08L446.695 134.592M453.461 125.08H400.369M532.6 152.233H483.38M532.6 152.233L524.44 160.426M532.6 152.233H581.83M532.6 152.233L541.17 143.632M483.38 152.233L476.38 160.426M483.38 152.233L490.72 143.632M483.38 152.233H434.146M524.44 160.426H476.38M524.44 160.426H572.51M524.44 160.426L516.66 168.241M581.83 152.233L572.51 160.426M581.83 152.233L591.62 143.632M541.17 143.632H490.72M541.17 143.632H591.62M476.38 160.426L469.71 168.241M476.38 160.426H428.318M490.72 143.632H440.265M434.146 152.233L428.318 160.426M434.146 152.233L440.265 143.632M434.146 152.233H384.917M572.51 160.426L563.61 168.241M516.66 168.241H469.71M516.66 168.241H563.61M516.66 168.241L509.23 175.702M469.71 168.241L463.341 175.702M469.71 168.241H422.759M428.318 160.426L424.812 165.353L422.759 168.241M428.318 160.426H380.254M502.13 182.834H457.253M502.13 182.834L495.33 189.656M502.13 182.834H547M502.13 182.834L509.23 175.702M457.253 182.834L451.43 189.656M457.253 182.834L463.341 175.702M457.253 182.834H412.378M495.33 189.656H451.43M495.33 189.656H539.24M495.33 189.656L488.83 196.19M547 182.834L539.24 189.656M547 182.834L555.12 175.702M509.23 175.702H463.341M509.23 175.702H555.12M451.43 189.656L445.852 196.19M451.43 189.656H407.524M463.341 175.702H417.451M412.378 182.834L407.524 189.656M412.378 182.834L413.625 181.081L417.451 175.702M412.378 182.834H367.503M539.24 189.656L531.8 196.19M488.83 196.19H445.852M488.83 196.19H531.8M488.83 196.19L482.59 202.453M445.852 196.19L443.151 199.355L440.506 202.453M445.852 196.19H402.877M407.524 189.656L402.877 196.19M407.524 189.656H363.62M476.61 208.462H435.376M476.61 208.462L470.86 214.231M476.61 208.462H517.84M476.61 208.462L482.59 202.453M435.376 208.462L436.007 207.724L440.506 202.453M435.376 208.462L430.452 214.231M435.376 208.462H394.147M470.86 214.231H430.452M470.86 214.231H511.27M470.86 214.231L465.339 219.775M517.84 208.462L511.27 214.231M517.84 208.462L524.67 202.453M482.59 202.453H440.506M482.59 202.453H524.67M440.506 202.453H398.421M430.452 214.231L425.719 219.775M430.452 214.231H390.043M394.147 208.462L390.043 214.231M394.147 208.462L398.421 202.453M394.147 208.462H352.918M511.27 214.231L504.96 219.775M465.339 219.775H425.719M465.339 219.775H504.96M465.339 219.775L460.029 225.107M425.719 219.775L421.168 225.107M425.719 219.775H386.1M390.043 214.231L386.1 219.775M390.043 214.231H349.635M454.919 230.238H416.788M454.919 230.238L449.997 235.18M454.919 230.238H493.05M454.919 230.238L460.029 225.107M416.788 230.238L412.569 235.18M416.788 230.238L418.411 228.336L419.506 227.054L421.168 225.107M416.788 230.238H378.657M449.997 235.18H412.569M449.997 235.18H487.43M449.997 235.18L445.254 239.943M493.05 230.238L487.43 235.18M493.05 230.238L498.89 225.107M460.029 225.107H421.168M460.029 225.107H498.89M412.569 235.18L411.027 236.987L410.01 238.178L408.503 239.943M412.569 235.18H375.141M421.168 225.107H382.307M378.657 230.238L377.765 231.491L375.141 235.18M378.657 230.238L379.105 229.607L379.556 228.974L380.921 227.054L381.382 226.408L382.307 225.107M378.657 230.238H340.526M487.43 235.18L482 239.943M445.254 239.943H408.503M445.254 239.943H482M445.254 239.943L441.807 243.405L440.678 244.537M408.503 239.943L406.525 242.261L404.582 244.537M408.503 239.943H371.752M375.141 235.18L374.71 235.785L374.282 236.388L372.588 238.769L371.752 239.943M375.141 235.18H337.712M436.263 248.971H400.798M436.263 248.971L433.052 252.195L432 253.252M436.263 248.971H471.73M436.263 248.971L440.118 245.1L440.678 244.537M400.798 248.971L398.044 252.195L397.593 252.725L397.143 253.252M400.798 248.971L402.673 246.774L404.582 244.537M400.798 248.971H365.331M432 253.252H397.143M432 253.252L427.881 257.388M432 253.252H466.857M471.73 248.971L466.857 253.252M471.73 248.971L476.78 244.537M440.678 244.537H404.582M440.678 244.537H476.78M397.143 253.252H362.286M397.143 253.252L393.612 257.388M404.582 244.537H368.485M365.331 248.971L362.286 253.252M365.331 248.971L368.485 244.537M365.331 248.971H329.865M427.881 257.388H393.612M427.881 257.388H462.149M466.857 253.252L463.311 256.367L462.149 257.388M362.286 253.252H327.429M362.286 253.252L360.07 256.367L359.343 257.388M393.612 257.388H359.343M474.81 -173.731H379.209M474.81 -173.731L461.912 -143.504M474.81 -173.731H570.42M474.81 -173.731L488.99 -206.948M379.209 -173.731L370.608 -143.504M379.209 -173.731L388.66 -206.948M379.209 -173.731H283.604L279.304 -143.504M461.912 -143.504H370.608M461.912 -143.504H553.22M461.912 -143.504L450.121 -115.878M570.42 -173.731L553.22 -143.504M570.42 -173.731L589.32 -206.947M488.99 -206.948H388.66M488.99 -206.948L504.64 -243.618M488.99 -206.948L589.32 -206.947M370.608 -143.504L362.747 -115.878M370.608 -143.504H279.304M388.66 -206.948L399.095 -243.618M388.66 -206.948L288.33 -206.947M553.22 -143.504L537.49 -115.878M450.121 -115.878H362.747M450.121 -115.878H537.49M450.121 -115.878L439.304 -90.533M362.747 -115.878L355.535 -90.533M362.747 -115.878H275.374M279.304 -143.504L275.374 -115.878M279.304 -143.504H188M429.343 -67.197H348.896M429.343 -67.197L420.142 -45.64M429.343 -67.197H509.79M429.343 -67.197L439.304 -90.533M348.896 -67.197L342.762 -45.64M348.896 -67.197L355.535 -90.533M348.896 -67.197H268.447M420.142 -45.64H342.762M420.142 -45.64H497.52M420.142 -45.64L411.617 -25.667M509.79 -67.197L497.52 -45.64M509.79 -67.197L523.07 -90.533M439.304 -90.533H355.535M342.762 -45.64L337.078 -25.667M342.762 -45.64H265.381M355.535 -90.533H271.768M268.447 -67.197L265.381 -45.64M268.447 -67.197H188M497.52 -45.64L486.16 -25.667M411.617 -25.667H337.078M411.617 -25.667H486.16M411.617 -25.667L403.696 -7.10703H331.797H259.899M337.078 -25.667L331.797 -7.10803L326.878 10.181M337.078 -25.667H262.539M265.381 -45.64L262.539 -25.667M265.381 -45.64H188M326.878 10.18H396.317L389.426 26.326M389.426 26.326H322.284M389.426 26.326H456.568M389.426 26.326L382.977 41.436M465.756 10.181H396.317L403.696 -7.10803H475.6L465.756 10.181ZM465.756 10.181L456.568 26.326M326.878 10.181L322.284 26.326M326.878 10.181H257.439M322.284 26.326L317.984 41.436M322.284 26.326H255.142M257.439 10.181L255.142 26.326M257.439 10.181H188H118.561L116.101 -7.10803H188V10.18V26.326M456.568 26.326L447.969 41.437L439.903 55.61M382.977 41.436L376.927 55.61M255.142 26.326L252.992 41.436H188H123.008M255.142 26.326H188M371.242 68.931H310.162M371.242 68.931L365.889 81.473M371.242 68.931H432.323M371.242 68.931L376.927 55.61M310.162 68.931L306.593 81.473M310.162 68.931L313.952 55.61M310.162 68.931H249.081M365.889 81.473H306.593M365.889 81.473H425.185M365.889 81.473L360.84 93.303M432.323 68.931L425.185 81.473M432.323 68.931L439.903 55.61M376.927 55.61H313.952M376.927 55.61H439.903M306.593 81.473L303.226 93.303M306.593 81.473H247.296M313.952 55.61L317.984 41.437M313.952 55.61H250.976M249.081 68.931L247.296 81.473M249.081 68.931L250.976 55.61M249.081 68.931H188M425.185 81.473L418.453 93.303M360.84 93.303H303.226M360.84 93.303H418.453M360.84 93.303L356.069 104.48M303.226 93.303L300.046 104.48M303.226 93.303H245.613M247.296 81.473L245.613 93.303M247.296 81.473L188 81.472M351.555 115.057H297.036M351.555 115.057L347.277 125.08M351.555 115.057H406.073M351.555 115.057L356.069 104.48M297.036 115.057L294.185 125.08M297.036 115.057L300.046 104.48M297.036 115.057H242.518M347.277 125.08H294.185M347.277 125.08H400.369M347.277 125.08L343.217 134.592M406.073 115.057L400.369 125.08M406.073 115.057L412.093 104.48M356.069 104.48H300.046M356.069 104.48H412.093M294.185 125.08L291.478 134.592M294.185 125.08H241.092M300.046 104.48H244.023M242.518 115.057L241.092 125.08M242.518 115.057L244.023 104.48M242.518 115.057H188M400.369 125.08L394.956 134.592M343.217 134.592H291.478M343.217 134.592H394.956M343.217 134.592L339.358 143.632M291.478 134.592L288.906 143.632M291.478 134.592H239.739M241.092 125.08L239.739 134.592M241.092 125.08L188 125.079M335.688 152.233H286.459M335.688 152.233L332.191 160.426M335.688 152.233H384.917M335.688 152.233L339.358 143.632M286.459 152.233L284.127 160.426M286.459 152.233L288.906 143.632M286.459 152.233H237.229M332.191 160.426H284.127M332.191 160.426H380.254M332.191 160.426L330.921 163.4L328.855 168.241M384.917 152.233L380.254 160.426M384.917 152.233L389.812 143.632M339.358 143.632H288.906M339.358 143.632H389.812M284.127 160.426L281.903 168.241M284.127 160.426H236.063M288.906 143.632H238.453M237.229 152.233L236.063 160.426M237.229 152.233L238.453 143.632M237.229 152.233H188M380.254 160.426L375.807 168.241M328.855 168.241H281.903M328.855 168.241H375.807M328.855 168.241L325.671 175.702M281.903 168.241L279.781 175.702M281.903 168.241H234.952M236.063 160.426L234.952 168.241M236.063 160.426L188 160.425M322.627 182.834H277.751M322.627 182.834L319.715 189.656M322.627 182.834H367.503M322.627 182.834L324.896 177.515L325.671 175.702M277.751 182.834L277.013 185.427L275.81 189.656M277.751 182.834L279.781 175.702M277.751 182.834H232.875M319.715 189.656L319.36 190.488L316.926 196.19M319.715 189.656H275.81M319.715 189.656H363.62M367.503 182.834L363.62 189.656M367.503 182.834L368 181.959L369.509 179.308L371.561 175.702M325.671 175.702H279.781M325.671 175.702H371.561M275.81 189.656L275.103 192.139L274.871 192.958L274.638 193.772L273.951 196.19M275.81 189.656H231.905M279.781 175.702H233.89M232.875 182.834L231.905 189.656M232.875 182.834L233.89 175.702M232.875 182.834H188M316.926 196.19H273.951M316.926 196.19H359.901M316.926 196.19L314.253 202.453M363.62 189.656L359.901 196.19M273.951 196.19L273.273 198.569L273.051 199.355L272.168 202.453M273.951 196.19H230.975M231.905 189.656L231.787 190.488L230.975 196.19M231.905 189.656H188M311.689 208.462H270.459M311.689 208.462L310.445 211.375L310.138 212.094L309.833 212.81L309.528 213.522L309.226 214.231M311.689 208.462H352.918M311.689 208.462L314.253 202.453M270.459 208.462L269.222 212.81L269.019 213.522L268.818 214.231M270.459 208.462L272.168 202.453M270.459 208.462H229.229M309.226 214.231H268.818M309.226 214.231H349.635M309.226 214.231L307.736 217.721L307.443 218.41L306.86 219.775M352.918 208.462L350.443 212.81L349.635 214.231M352.918 208.462L354.184 206.237L355.47 203.979L356.338 202.453M314.253 202.453H272.168M314.253 202.453H356.338M268.818 214.231L267.824 217.721L267.628 218.41L267.434 219.094L267.24 219.775M268.818 214.231H228.408M272.168 202.453H230.085M229.229 208.462L228.408 214.231M229.229 208.462L229.546 206.237L229.867 203.979L230.085 202.453M229.229 208.462H188M349.635 214.231L346.48 219.775M306.86 219.775H267.24M306.86 219.775H346.48M306.86 219.775L304.584 225.107M267.24 219.775L265.723 225.107M267.24 219.775H227.62M228.408 214.231L227.62 219.775M228.408 214.231L188 214.23M302.394 230.238H264.262M302.394 230.238L300.284 235.18M302.394 230.238H340.526M302.394 230.238L302.934 228.974L303.753 227.054L304.584 225.107M264.262 230.238L264.442 229.607L265.537 225.759L265.723 225.107M264.262 230.238L262.856 235.18M264.262 230.238H226.131M300.284 235.18H262.856M300.284 235.18H337.712M300.284 235.18L298.251 239.943M340.526 230.238L338.059 234.573L337.712 235.18M340.526 230.238L340.884 229.607L341.245 228.974L341.607 228.336L343.445 225.107M304.584 225.107H265.723M304.584 225.107H343.445M265.723 225.107H226.861M262.856 235.18L262.342 236.987L262.173 237.584L262.003 238.178L261.501 239.943M262.856 235.18H225.428M226.131 230.238L225.601 233.963L225.515 234.574L225.428 235.181M226.131 230.238L226.861 225.107M226.131 230.238H188M337.712 235.18L335.002 239.943M294.398 248.971H258.933M294.398 248.971L293.022 252.195L292.572 253.252M294.398 248.971H329.865M294.398 248.971L295.101 247.327L295.336 246.774L295.574 246.218L296.291 244.537M258.933 248.971L258.778 249.514L258.471 250.593L258.166 251.664L257.715 253.252M258.933 248.971L259.558 246.774L259.715 246.218L260.034 245.1L260.194 244.537M258.933 248.971H223.466M292.572 253.252H257.715M292.572 253.252L291.024 256.879L290.806 257.388M292.572 253.252H327.429M329.865 248.971L327.429 253.252M329.865 248.971L332.388 244.537M296.291 244.537H260.194M296.291 244.537L296.532 243.973L296.775 243.406L297.017 242.835L297.263 242.262L297.508 241.686L297.755 241.109L298.251 239.944M296.291 244.537H332.388M257.715 253.252L257.565 253.777L257.416 254.299L257.268 254.819L257.121 255.338L256.682 256.879L256.537 257.388M257.715 253.252H222.857M260.194 244.537L260.355 243.973L260.516 243.406L260.679 242.835L260.841 242.262L261.17 241.109L261.335 240.528L261.501 239.944M260.194 244.537L224.097 244.538M290.806 257.388H325.075M327.429 253.252L326.241 255.338L325.364 256.879L325.075 257.388M92.396 -173.731H-3.20898M92.396 -173.731L96.696 -143.504M92.396 -173.731H188M92.396 -173.731L87.67 -206.948M-3.20898 -173.731L5.39203 -143.504M-3.20898 -173.731L-12.66 -206.948M-3.20898 -173.731H-98.814L-85.912 -143.504M96.696 -143.504H5.39203M96.696 -143.504H188M96.696 -143.504L100.626 -115.878M87.67 -206.948H-12.66M87.67 -206.948L82.452 -243.618M87.67 -206.948L188 -206.947M5.39203 -143.504L13.253 -115.878M5.39203 -143.504H-85.912M-12.66 -206.948L-23.095 -243.618M-12.66 -206.948L-112.991 -206.947M188 -143.504V-115.878M188 -143.504V-173.73M100.626 -115.878H13.253M100.626 -115.878H188M100.626 -115.878L104.232 -90.533M13.253 -115.878L20.464 -90.533M13.253 -115.878H-74.121M-85.912 -143.504L-74.121 -115.878M-85.912 -143.504H-177.216M107.553 -67.197H27.104M107.553 -67.197L110.619 -45.64M107.553 -67.197H188M107.553 -67.197L104.232 -90.533M27.104 -67.197L33.238 -45.64M27.104 -67.197L20.464 -90.533M27.104 -67.197H-53.343M110.619 -45.64H33.238M110.619 -45.64H188M110.619 -45.64L113.461 -25.667M188 -67.197V-45.64M188 -67.197V-90.533M104.232 -90.533H20.464M33.238 -45.64L38.922 -25.667M33.238 -45.64H-44.142M20.464 -90.533H-63.304M-53.343 -67.197L-44.142 -45.64M-53.343 -67.197H-133.791M188 -45.64V-25.668M113.461 -25.667H38.922M113.461 -25.667H188M113.461 -25.667L116.101 -7.10703H44.203H-27.696M38.922 -25.667L44.203 -7.10803L49.122 10.181M38.922 -25.667H-35.617M-44.142 -45.64L-35.617 -25.667M-44.142 -45.64H-121.524M49.122 10.18H118.561L120.858 26.326M120.858 26.326H53.716M120.858 26.326H188M120.858 26.326L123.008 41.436M49.122 10.181L53.716 26.326M49.122 10.181H-20.317M53.716 26.326L58.015 41.436M53.716 26.326H-13.426M-20.317 10.181L-13.426 26.326M-20.317 10.181H-89.756M188 26.326V41.437V55.61M123.008 41.436L125.024 55.61M-13.426 26.326L-6.97699 41.436H-71.969M-13.426 26.326H-80.568M126.919 68.93H65.838M126.919 68.93L128.704 81.472M126.919 68.93H188M126.919 68.93L125.024 55.609M65.838 68.93L69.407 81.472M65.838 68.93L62.048 55.609M65.838 68.93H4.758M128.704 81.472H69.407M128.704 81.472H188M128.704 81.472L130.387 93.302M188 68.93V81.472M188 68.93V55.61M69.407 81.472L72.774 93.302M69.407 81.472H10.111M188 81.472V93.303M10.111 81.472L15.16 93.303M10.111 81.472L4.758 68.931M10.111 81.472L-49.185 81.473M133.482 115.056H78.964M133.482 115.056L134.908 125.079M133.482 115.056H188M133.482 115.056L131.977 104.479M78.964 115.056L81.815 125.079M78.964 115.056L75.954 104.479M78.964 115.056H24.445M134.908 125.079H81.815M134.908 125.079H188M134.908 125.079L136.261 134.591M81.815 125.079L84.522 134.591M81.815 125.079H28.723M188 125.079V134.592M188 125.079V115.057M28.723 125.079L32.783 134.592M28.723 125.079L24.445 115.057M28.723 125.079L-24.369 125.08M138.771 152.232H89.541M138.771 152.232L139.937 160.425M138.771 152.232H188M138.771 152.232L137.547 143.631M89.541 152.232L91.873 160.425M89.541 152.232L87.094 143.631M89.541 152.232H40.312M139.937 160.425H91.873M139.937 160.425H188M139.937 160.425L141.048 168.24M137.547 143.631H87.094M137.547 143.631L137.39 142.526L136.261 134.592M137.547 143.631L188 143.632M91.873 160.425L94.097 168.24M91.873 160.425H43.809M87.094 143.631L84.522 134.592M87.094 143.631L36.641 143.632M188 160.425V168.241M188 160.425V152.233M141.048 168.24H94.097M141.048 168.24L188 168.241M141.048 168.24L142.11 175.701M94.097 168.24L96.219 175.701M94.097 168.24L47.145 168.241M43.809 160.425L44.658 162.414L47.145 168.241M43.809 160.425L40.312 152.233M43.809 160.425L-4.25403 160.426M143.125 182.833H98.249M143.125 182.833L144.095 189.655M143.125 182.833H188M143.125 182.833L142.11 175.701M98.249 182.833L99.952 188.818L100.19 189.655M98.249 182.833L96.219 175.701M98.249 182.833H53.373M144.095 189.655L144.213 190.487L145.025 196.189M144.095 189.655H100.19M144.095 189.655H188M142.11 175.701H96.219M142.11 175.701L188 175.702M100.19 189.655L100.897 192.138L101.129 192.957L101.362 193.771L102.049 196.189M100.19 189.655H56.285M96.219 175.701L50.329 175.702M146.771 208.461H105.541M146.771 208.461L147.591 214.23M146.771 208.461H188M146.771 208.461L146.454 206.236L146.347 205.487L146.241 204.734L146.025 203.217L145.915 202.452M105.541 208.461L106.778 212.809L107.183 214.23M105.541 208.461L103.832 202.452M105.541 208.461H64.311M147.591 214.23H107.183M147.591 214.23H188M147.591 214.23L148.38 219.774M107.183 214.23L108.175 217.72L108.372 218.409L108.566 219.093L108.76 219.774M107.183 214.23H66.774M188 214.23V219.775M188 214.23V208.462M148.38 219.774H108.76M148.38 219.774L188 219.775M148.38 219.774L149.139 225.107M108.76 219.774L110.277 225.107M108.76 219.774L69.14 219.775M66.774 214.23L66.472 213.522L66.167 212.81L65.862 212.094L64.311 208.462M66.774 214.23L67.969 217.03L68.264 217.721L68.557 218.41L69.14 219.775M66.774 214.23L26.365 214.231M149.869 230.237H111.738M149.869 230.237L150.572 235.179M149.869 230.237H188M149.869 230.237L149.139 225.106M111.738 230.237L111.558 229.606L110.463 225.758L110.277 225.106M111.738 230.237L113.144 235.179M111.738 230.237H73.606M150.572 235.179H113.144M150.572 235.179H188M150.572 235.179L151.249 239.942M113.144 235.179L113.658 236.986L113.827 237.583L113.997 238.177L114.499 239.942M113.144 235.179H75.716M152.533 248.97H117.067M152.533 248.97L153.143 253.251M152.533 248.97H188M152.533 248.97L151.903 244.536M117.067 248.97L117.222 249.513L117.53 250.592L117.682 251.129L117.985 252.194L118.135 252.724L118.286 253.251M117.067 248.97L116.442 246.773L116.285 246.217L115.966 245.099L115.806 244.536M117.067 248.97H81.601M153.143 253.251L153.217 253.776L153.292 254.298L153.366 254.818L153.731 257.387M153.143 253.251H118.286M153.143 253.251H188M118.286 253.251H83.428M118.286 253.251L118.584 254.298L118.732 254.818L118.879 255.337L119.317 256.878L119.463 257.387M81.601 248.97L82.978 252.195L83.428 253.251M81.601 248.97L80.426 246.218L79.709 244.537M81.601 248.97L46.135 248.971M83.428 253.251L48.571 253.252M83.428 253.251L84.758 256.367L85.194 257.388M-290.023 -173.731H-385.627M-290.023 -173.731L-268.52 -143.504M-290.023 -173.731H-194.419M-290.023 -173.731L-313.652 -206.948M-385.627 -173.731L-359.824 -143.504M-385.627 -173.731L-413.981 -206.948M-385.627 -173.731H-481.232M-268.52 -143.504H-359.824M-268.52 -143.504H-177.216M-268.52 -143.504L-248.869 -115.878M-313.652 -206.948H-413.981M-313.652 -206.948L-339.737 -243.619M-313.652 -206.948H-213.321M-359.824 -143.504L-336.242 -115.878M-359.824 -143.504H-451.128M-413.981 -206.948L-445.284 -243.619M-413.981 -206.948H-514.312M-481.232 -173.731L-451.128 -143.504M-481.232 -173.731L-514.312 -206.948M-481.232 -173.731H-531.612M-177.216 -143.504L-161.495 -115.878M-177.216 -143.504L-194.419 -173.73M-248.869 -115.878H-336.242M-248.869 -115.878H-161.495M-248.869 -115.878L-230.839 -90.533M-336.242 -115.878L-314.607 -90.533M-336.242 -115.878H-423.616M-451.128 -143.504L-423.616 -115.878M-451.128 -143.504H-531.613M-214.24 -67.197H-294.688M-214.24 -67.197L-198.905 -45.64M-214.24 -67.197H-133.792M-214.24 -67.197L-230.84 -90.533M-294.688 -67.197L-276.286 -45.64M-294.688 -67.197L-314.608 -90.533M-294.688 -67.197H-375.135M-198.905 -45.64H-276.286M-198.905 -45.64H-121.524M-198.905 -45.64L-184.697 -25.667M-276.286 -45.64L-259.235 -25.667M-276.286 -45.64H-353.666M-375.135 -67.197L-353.666 -45.64M-375.135 -67.197L-398.375 -90.533M-375.135 -67.197H-455.582M-121.524 -45.64L-110.156 -25.667M-121.524 -45.64L-133.791 -67.197M-184.697 -25.667H-259.235M-184.697 -25.667H-110.156M-184.697 -25.667L-171.494 -7.10703M-259.235 -25.667L-243.393 -7.10803L-228.635 10.18H-159.196M-259.235 -25.667H-333.774M-353.666 -45.64L-333.774 -25.667M-353.666 -45.64H-431.047M-159.196 10.18L-147.71 26.326M-159.196 10.18H-89.756M-159.196 10.18L-171.494 -7.10803M-147.71 26.326H-214.853M-147.71 26.326H-80.568M-147.71 26.326L-136.961 41.436M-214.853 26.326L-228.635 10.181H-298.074M-214.853 26.326L-201.954 41.436M-214.853 26.326H-281.995M-80.568 26.326L-71.969 41.437L-63.903 55.61M-80.568 26.326L-89.756 10.181M-281.995 26.326L-266.946 41.436M-281.995 26.326L-298.074 10.18L-315.292 -7.10703M-281.995 26.326H-349.138M-117.404 68.93H-178.484M-117.404 68.93L-108.482 81.472M-117.404 68.93H-56.323M-117.404 68.93L-126.879 55.609L-136.961 41.435H-71.969M-178.484 68.93L-167.778 81.472M-178.484 68.93L-189.855 55.61M-108.482 81.472H-167.778M-108.482 81.472L-49.185 81.473M-108.482 81.472L-100.066 93.303H-157.679M-167.778 81.472L-157.679 93.303M-167.778 81.472L-227.074 81.473M-189.855 55.61L-201.954 41.437M-189.855 55.61H-252.831M-189.855 55.61H-126.879H-63.903M-178.484 68.931H-239.565M-239.565 68.931L-252.831 55.61M-239.565 68.931H-300.645M-49.185 81.473L-42.453 93.303M-49.185 81.473L-56.323 68.931M-157.679 93.303L-148.139 104.48M-157.679 93.303H-215.293M-227.074 81.473L-215.293 93.303M-227.074 81.473L-239.565 68.93M-227.074 81.473H-286.371M-84.591 115.057H-139.11M-84.591 115.057L-77.461 125.08M-84.591 115.057H-30.073M-84.591 115.057L-92.115 104.48M-139.11 115.057L-130.554 125.08M-139.11 115.057L-148.139 104.48M-139.11 115.057H-193.629M-77.461 125.08H-130.554M-77.461 125.08H-24.369M-77.461 125.08L-70.695 134.592M-30.073 115.057H24.445M-30.073 115.057L-28.618 117.612L-24.369 125.08M-30.073 115.057L-36.093 104.48M-92.115 104.48H-148.139M-92.115 104.48H-36.093M-130.554 125.08L-122.434 134.592M-130.554 125.08H-183.646M-148.139 104.48H-204.162M-193.629 115.057L-183.646 125.08M-193.629 115.057L-204.162 104.48M-193.629 115.057H-248.147M-24.369 125.08L-18.956 134.592M-70.695 134.592H-122.434M-70.695 134.592H-18.956M-70.695 134.592L-64.265 143.632M-122.434 134.592L-114.718 143.632M-122.434 134.592H-174.173M-183.646 125.08L-174.173 134.592M-183.646 125.08H-236.739M-58.146 152.233H-107.375M-58.146 152.233L-52.318 160.426M-58.146 152.233H-8.91699M-58.146 152.233L-64.265 143.632M-107.375 152.233L-100.381 160.426M-107.375 152.233L-114.718 143.632M-107.375 152.233H-156.604M-52.318 160.426H-100.381M-52.318 160.426H-4.25403M-52.318 160.426L-46.759 168.241M-8.91699 152.233H40.312M-8.91699 152.233L-4.25403 160.426M-8.91699 152.233L-13.812 143.632M-64.265 143.632H-114.718M-64.265 143.632H-13.812M-100.381 160.426L-93.71 168.241M-100.381 160.426H-148.444M-114.718 143.632H-165.17M-156.604 152.233L-148.444 160.426M-156.604 152.233L-165.17 143.632M-156.604 152.233H-205.834M-4.25403 160.426L0.192993 168.241M-46.759 168.241H-93.71M-46.759 168.241H0.192993M-46.759 168.241L-41.451 175.702M-93.71 168.241L-87.341 175.702M-93.71 168.241H-140.662M-148.444 160.426L-140.662 168.241M-148.444 160.426H-196.508M-36.378 182.834L-37 181.959L-37.626 181.081L-41.451 175.702M-36.378 182.834H-81.254M-36.378 182.834L-31.525 189.656M-36.378 182.834H8.49701M-41.451 175.702H-87.341M-41.451 175.702H4.43903M-81.254 182.834L-75.43 189.656M-81.254 182.834L-87.341 175.702M-81.254 182.834H-126.13M-31.525 189.656H-75.43M-31.525 189.656H12.38M-31.525 189.656L-26.877 196.19M8.49701 182.834H53.373M8.49701 182.834L12.38 189.656M8.49701 182.834L6.49103 179.308L4.43903 175.702M-75.43 189.656L-69.852 196.19M-75.43 189.656H-119.335M-87.341 175.702H-133.231M-126.13 182.834L-119.335 189.656M-126.13 182.834L-133.231 175.702M-126.13 182.834H-171.005M12.38 189.656H56.285M12.38 189.656L16.099 196.19M-26.877 196.19H-69.852M-26.877 196.19H16.099M-26.877 196.19L-25.745 197.78L-22.421 202.453M-69.852 196.19L-67.821 198.569L-67.151 199.355L-64.506 202.453M-69.852 196.19H-112.827M-119.335 189.656L-112.827 196.19M-119.335 189.656H-163.24M-18.147 208.462H-59.377M-18.147 208.462L-14.043 214.231M-18.147 208.462H23.082M-18.147 208.462L-22.421 202.453M-59.377 208.462L-56.275 212.094L-54.452 214.231M-59.377 208.462L-64.506 202.453M-59.377 208.462H-100.607M-14.043 214.231H-54.452M-14.043 214.231H26.365M-14.043 214.231L-10.585 219.094L-10.1 219.775M23.082 208.462H64.311M23.082 208.462L25.556 212.81L26.365 214.231M23.082 208.462L21.816 206.237L19.662 202.453M-22.421 202.453H-64.506M-22.421 202.453H19.662M-54.452 214.231L-49.72 219.775M-54.452 214.231H-94.861M-64.506 202.453H-106.591M-100.607 208.462L-94.861 214.231M-100.607 208.462L-106.591 202.453M-100.607 208.462H-141.836M26.365 214.231L29.52 219.775M-10.1 219.775H-49.72M-10.1 219.775H29.52M-10.1 219.775L-6.30701 225.107M-49.72 219.775L-45.168 225.107M-49.72 219.775H-89.339M-94.861 214.231L-91.384 217.721L-90.7 218.41L-89.339 219.775M-94.861 214.231H-135.269M-2.65698 230.238H-40.788M-2.65698 230.238L-1.76599 231.491L0.859009 235.18M-2.65698 230.238H35.474M-2.65698 230.238L-3.55603 228.974L-5.38202 226.408L-6.30701 225.107M-40.788 230.238L-36.569 235.18M-40.788 230.238L-42.411 228.336L-43.506 227.054L-45.168 225.107M-40.788 230.238H-78.919M0.859009 235.18H-36.569M0.859009 235.18H38.288M0.859009 235.18L3.41199 238.769L4.24799 239.943M35.474 230.238H73.606M35.474 230.238L37.941 234.573L38.288 235.18M35.474 230.238L35.116 229.607L34.755 228.974L34.393 228.336L32.555 225.107M-6.30701 225.107H-45.168M-6.30701 225.107H32.555M-36.569 235.18L-35.027 236.987L-34.01 238.178L-32.503 239.943M-36.569 235.18H-73.997M-45.168 225.107H-84.029M-78.919 230.238L-73.997 235.18M-78.919 230.238L-82.09 227.054L-82.734 226.408L-84.029 225.107M-78.919 230.238H-117.051M38.288 235.18H75.716M38.288 235.18L40.998 239.943M4.24799 239.943H-32.503M4.24799 239.943H40.998M4.24799 239.943L7.51501 244.537M-32.503 239.943L-30.524 242.261L-30.035 242.834L-28.581 244.537M-32.503 239.943H-69.254M-73.997 235.18L-69.254 239.943M-73.997 235.18H-111.426M10.669 248.971H-24.798M10.669 248.971L12.585 251.664L13.714 253.252M10.669 248.971H46.135M10.669 248.971L7.51501 244.537M-24.798 248.971L-22.044 252.195L-21.593 252.725L-21.143 253.252M-24.798 248.971L-26.673 246.774L-28.582 244.537M-24.798 248.971H-60.263M13.714 253.252H-21.143M13.714 253.252L15.198 255.338L15.93 256.367L16.294 256.879L16.656 257.388M13.714 253.252H48.571M46.135 248.971L47.97 252.195L48.571 253.252M46.135 248.971L43.612 244.537M7.51501 244.537H-28.581M7.51501 244.537H43.612M-21.143 253.252H-56M-21.143 253.252L-17.612 257.388M16.656 257.388H-17.612M16.656 257.388H50.925M48.571 253.252L49.759 255.338L50.636 256.879L50.925 257.388M-56 253.252H-90.857M-56 253.252L-51.881 257.388M-17.612 257.388H-51.881M-508.428 -45.64H-431.047M-508.428 -45.64L-482.853 -25.667M-508.428 -45.64H-531.613M-508.428 -45.64L-531.613 -63.747M-431.047 -45.64L-408.314 -25.667M-431.047 -45.64L-455.582 -67.197M-482.853 -25.667L-459.088 -7.10703H-387.19M-482.853 -25.667H-408.314M-482.853 -25.667H-531.613M-531.613 -45.64V-25.667M-531.613 -45.64V-63.747M-531.613 -63.747V-67.197V-90.533M-436.952 10.18H-506.391L-530.988 -7.10803H-459.089L-436.952 10.18ZM-436.952 10.18L-416.28 26.325M-436.952 10.18H-367.513M-416.28 26.325L-483.421 26.326M-416.28 26.325L-349.138 26.326M-416.28 26.325L-396.93 41.436M-367.513 10.18L-349.138 26.327M-367.513 10.18L-387.191 -7.10803M-483.421 26.326L-506.391 10.181H-531.613M-483.421 26.326L-461.922 41.436M-483.421 26.326H-531.612M-349.138 26.326L-331.938 41.437M-345.668 81.472L-361.727 68.93H-422.808L-441.758 55.61M-300.645 68.93H-361.726L-378.783 55.61M-300.645 68.93L-286.371 81.473M-300.645 68.93L-315.807 55.61M-378.783 55.61H-441.758M-378.783 55.61L-396.93 41.437M-378.783 55.61H-315.807M-404.964 81.473L-422.807 68.931H-483.888M-404.964 81.473H-345.667M-404.964 81.473L-388.132 93.303M-404.964 81.473H-464.26M-441.758 55.61L-461.923 41.437M-441.758 55.61H-504.734M-483.888 68.931L-504.734 55.61M-483.888 68.931H-531.613M-345.667 81.473H-286.371M-345.667 81.473L-330.519 93.303M-286.371 81.473L-272.906 93.303M-330.519 93.303H-388.132M-330.519 93.303H-272.906M-330.519 93.303L-316.208 104.48M-388.132 93.303L-372.231 104.48M-388.132 93.303H-445.746M-464.26 81.473L-445.746 93.303M-464.26 81.473L-483.888 68.93M-464.26 81.473H-523.556M-302.665 115.057H-357.183M-302.665 115.057L-289.831 125.08M-302.665 115.057H-248.147M-302.665 115.057L-316.208 104.48M-357.183 115.057L-342.923 125.08M-357.183 115.057L-372.231 104.48M-357.183 115.057H-411.702M-289.831 125.08H-342.923M-289.831 125.08H-236.739M-289.831 125.08L-277.651 134.592M-248.147 115.057L-236.739 125.08M-248.147 115.057L-260.184 104.48M-316.208 104.48H-372.231M-316.208 104.48H-260.184M-342.923 125.08L-329.389 134.592M-342.923 125.08H-396.015M-372.231 104.48H-428.254M-411.702 115.057L-396.015 125.08M-411.702 115.057L-428.254 104.48M-411.702 115.057H-466.22M-236.739 125.08L-225.911 134.592M-277.651 134.592H-329.389M-277.651 134.592H-225.911M-277.651 134.592L-266.076 143.632M-329.389 134.592L-316.529 143.632M-329.389 134.592H-381.129M-396.015 125.08L-381.129 134.592M-396.015 125.08H-449.107M-255.063 152.233H-304.292M-255.063 152.233L-244.572 160.426M-255.063 152.233H-205.834M-255.063 152.233L-266.076 143.632M-304.292 152.233L-292.635 160.426M-304.292 152.233L-316.529 143.632M-304.292 152.233H-353.521M-244.572 160.426H-292.635M-244.572 160.426H-196.508M-244.572 160.426L-234.565 168.241M-205.834 152.233L-196.508 160.426M-205.834 152.233L-215.623 143.632M-266.076 143.632H-316.529M-266.076 143.632H-215.623M-292.635 160.426L-281.517 168.241M-292.635 160.426H-340.699M-316.529 143.632H-366.982M-353.521 152.233L-340.699 160.426M-353.521 152.233L-366.982 143.632M-353.521 152.233H-402.751M-196.508 160.426L-187.614 168.241M-234.565 168.241H-281.517M-234.565 168.241H-187.614M-234.565 168.241L-225.012 175.702M-281.517 168.241L-270.902 175.702M-281.517 168.241H-328.469M-340.699 160.426L-328.469 168.241M-340.699 160.426H-388.762M-215.881 182.834H-260.756M-215.881 182.834L-207.144 189.656M-215.881 182.834H-171.005M-215.881 182.834L-225.012 175.702M-260.756 182.834L-251.049 189.656M-260.756 182.834L-270.902 175.702M-260.756 182.834H-305.632M-207.144 189.656H-251.049M-207.144 189.656H-163.24M-207.144 189.656L-198.778 196.19M-171.005 182.834L-163.24 189.656M-171.005 182.834L-179.122 175.702M-225.012 175.702H-270.902M-225.012 175.702H-179.122M-251.049 189.656L-241.753 196.19M-251.049 189.656H-294.954M-270.902 175.702H-316.792M-305.632 182.834L-294.954 189.656M-305.632 182.834L-316.792 175.702M-305.632 182.834H-350.508M-163.24 189.656L-155.803 196.19M-198.778 196.19H-241.753M-198.778 196.19H-155.803M-198.778 196.19L-190.759 202.453M-241.753 196.19L-232.844 202.453M-241.753 196.19H-284.729M-294.954 189.656L-284.729 196.19M-294.954 189.656H-338.859M-183.065 208.462H-224.294M-183.065 208.462L-175.678 214.231M-183.065 208.462H-141.836M-183.065 208.462L-190.759 202.453M-224.294 208.462L-216.087 214.231M-224.294 208.462L-232.844 202.453M-224.294 208.462H-265.525M-175.678 214.231H-216.087M-175.678 214.231H-135.269M-175.678 214.231L-168.579 219.775M-141.836 208.462L-135.269 214.231M-141.836 208.462L-148.674 202.453M-190.759 202.453H-232.844M-190.759 202.453H-148.674M-216.087 214.231L-208.199 219.775M-216.087 214.231H-256.496M-232.844 202.453H-274.927M-265.525 208.462L-256.496 214.231M-265.525 208.462L-274.927 202.453M-265.525 208.462H-306.754M-135.269 214.231L-128.959 219.775M-168.579 219.775H-208.199M-168.579 219.775H-128.959M-168.579 219.775L-161.753 225.107M-208.199 219.775L-201.546 224.451L-200.614 225.107M-208.199 219.775H-247.819M-256.496 214.231L-247.819 219.775M-256.496 214.231H-296.904M-155.182 230.238H-193.313M-155.182 230.238L-148.854 235.18M-155.182 230.238H-117.051M-155.182 230.238L-156.802 228.974L-157.616 228.336L-161.753 225.107M-193.313 230.238L-186.282 235.18M-193.313 230.238L-200.614 225.107M-193.313 230.238H-231.444M-148.854 235.18H-186.282M-148.854 235.18H-111.426M-148.854 235.18L-142.755 239.943M-117.051 230.238L-111.426 235.18M-117.051 230.238L-122.891 225.107M-161.753 225.107H-200.614M-161.753 225.107H-122.891M-186.282 235.18L-179.505 239.943M-186.282 235.18H-223.71M-200.614 225.107H-239.475M-231.444 230.238L-223.71 235.18M-231.444 230.238L-239.475 225.107M-231.444 230.238H-269.576M-111.426 235.18L-106.004 239.943M-142.755 239.943H-179.505M-142.755 239.943H-106.004M-142.755 239.943L-136.873 244.537M-179.505 239.943L-172.97 244.537M-179.505 239.943H-216.256M-223.71 235.18L-216.256 239.943M-223.71 235.18H-261.138M-131.196 248.971H-166.662M-131.196 248.971L-125.714 253.252M-131.196 248.971H-95.73M-131.196 248.971L-136.873 244.537M-166.662 248.971L-162.074 252.195L-161.322 252.725L-160.571 253.252M-166.662 248.971L-172.97 244.537M-166.662 248.971H-202.128M-125.714 253.252H-160.571M-125.714 253.252L-121.071 256.879L-120.418 257.388M-125.714 253.252H-90.857M-95.73 248.971H-60.262M-95.73 248.971L-90.857 253.252M-95.73 248.971L-100.775 244.537M-136.873 244.537H-172.97M-136.873 244.537H-100.775M-160.571 253.252H-195.429M-160.571 253.252L-154.687 257.388M-172.97 244.537H-209.066M-202.128 248.971L-195.429 253.252M-202.128 248.971L-209.066 244.537M-202.128 248.971H-237.595M-120.418 257.388H-154.687M-120.418 257.388H-86.149M-90.857 253.252L-87.311 256.367L-86.149 257.388M-195.429 253.252H-230.286M-195.429 253.252L-188.956 257.388M-154.687 257.388H-188.956M-520.738 115.057L-502.2 125.08M-520.738 115.057H-466.22M-520.738 115.057L-531.613 109.177M-520.738 115.057H-531.613M-502.2 125.08H-449.107M-502.2 125.08L-484.607 134.592M-502.2 125.08H-531.613M-466.22 115.057L-449.107 125.08M-466.22 115.057L-484.277 104.48M-531.613 109.177V115.057M-531.613 109.177V104.48M-531.613 115.057V125.08M-449.107 125.08L-432.868 134.592M-484.607 134.592L-467.888 143.632M-484.607 134.592H-432.868M-484.607 134.592H-531.613M-531.613 125.08V134.592M-451.98 152.233H-501.21M-451.98 152.233L-436.825 160.426M-451.98 152.233H-402.751M-451.98 152.233L-467.888 143.632M-501.21 152.233L-484.89 160.426M-501.21 152.233L-518.341 143.632M-501.21 152.233H-531.613M-436.825 160.426H-484.89M-436.825 160.426H-388.763M-436.825 160.426L-422.373 168.241M-402.751 152.233L-388.762 160.426M-402.751 152.233L-417.435 143.632M-467.888 143.632H-518.341M-467.888 143.632H-417.435M-484.89 160.426L-469.325 168.241M-484.89 160.426H-531.613M-518.341 143.632L-531.613 136.969M-518.341 143.632H-531.613M-531.613 152.233H-531.978M-531.613 152.233V160.426M-531.613 152.233V143.632M-422.373 168.241H-469.325M-422.373 168.241H-375.421M-422.373 168.241L-408.573 175.702M-469.325 168.241L-454.463 175.702M-469.325 168.241H-516.276M-531.613 160.426V161.054M-395.383 182.834H-440.259M-395.383 182.834L-382.764 189.656M-395.383 182.834H-350.508M-395.383 182.834L-408.573 175.702M-440.259 182.834L-426.669 189.656M-440.259 182.834L-454.463 175.702M-440.259 182.834H-485.135M-382.764 189.656H-426.669M-382.764 189.656H-338.859M-382.764 189.656L-370.679 196.19M-350.508 182.834L-338.859 189.656M-350.508 182.834L-362.683 175.702M-408.573 175.702H-454.463M-408.573 175.702H-362.683M-426.669 189.656L-413.655 196.19M-426.669 189.656H-470.574M-454.463 175.702H-500.353M-485.135 182.834L-470.574 189.656M-485.135 182.834L-500.353 175.702M-485.135 182.834H-530.01M-338.859 189.656L-327.704 196.19M-370.679 196.19H-413.655M-370.679 196.19H-327.704M-370.679 196.19L-359.096 202.453M-413.655 196.19L-401.18 202.453M-413.655 196.19H-456.63M-470.574 189.656L-456.63 196.19M-470.574 189.656H-514.48M-347.983 208.462H-389.212M-347.983 208.462L-337.313 214.231M-347.983 208.462H-306.754M-347.983 208.462L-359.096 202.453M-389.212 208.462L-377.722 214.231M-389.212 208.462L-401.18 202.453M-389.212 208.462H-430.443M-337.313 214.231H-377.722M-337.313 214.231H-296.904M-337.313 214.231L-327.059 219.775M-306.754 208.462L-296.904 214.231M-306.754 208.462L-317.011 202.453M-359.096 202.453H-401.18M-359.096 202.453H-317.011M-377.722 214.231L-366.679 219.775M-377.722 214.231H-418.13M-401.18 202.453H-443.265M-430.443 208.462L-418.13 214.231M-430.443 208.462L-443.265 202.453M-430.443 208.462H-471.671M-296.904 214.231L-287.439 219.775M-327.059 219.775H-366.679M-327.059 219.775H-287.439M-327.059 219.775L-317.198 225.107M-366.679 219.775L-356.059 225.107M-366.679 219.775H-406.299M-418.13 214.231L-406.299 219.775M-418.13 214.231H-458.54H-498.947L-512.901 208.462M-307.707 230.238H-345.839M-307.707 230.238L-298.567 235.18M-307.707 230.238H-269.576M-307.707 230.238L-317.198 225.107M-345.839 230.238L-335.995 235.18M-345.839 230.238L-356.059 225.107M-345.839 230.238H-383.97M-298.567 235.18H-335.995M-298.567 235.18H-261.138M-298.567 235.18L-289.757 239.943M-269.576 230.238L-262.176 234.573L-261.138 235.18M-269.576 230.238L-278.337 225.107M-317.198 225.107H-356.059M-317.198 225.107H-278.337M-335.995 235.18L-326.507 239.943M-335.995 235.18H-373.423M-356.059 225.107H-394.921M-383.97 230.238L-373.423 235.18M-383.97 230.238L-394.921 225.107M-383.97 230.238H-422.101M-261.138 235.18L-253.006 239.943M-289.757 239.943H-326.507M-289.757 239.943H-253.006M-289.757 239.943L-281.26 244.537M-326.507 239.943L-317.358 244.537M-326.507 239.943H-363.258M-373.423 235.18L-363.258 239.943M-373.423 235.18H-410.851M-273.061 248.971H-308.527M-273.061 248.971L-265.143 253.252M-273.061 248.971H-237.595M-273.061 248.971L-281.26 244.537M-308.527 248.971L-300 253.252M-308.527 248.971L-317.358 244.537M-308.527 248.971H-343.994M-265.143 253.252H-300M-265.143 253.252L-257.493 257.388M-265.143 253.252H-230.286M-237.595 248.971L-230.286 253.252M-237.595 248.971L-245.163 244.537M-281.26 244.537H-317.358M-281.26 244.537H-245.163M-300 253.252H-334.858M-300 253.252L-291.761 257.388M-317.358 244.537H-353.454M-343.994 248.971L-334.858 253.252M-343.994 248.971L-353.454 244.537M-343.994 248.971H-379.459M-257.493 257.388H-291.761M-257.493 257.388H-223.224M-230.286 253.252L-223.224 257.388M-334.858 253.252H-369.715M-334.858 253.252L-326.03 257.388M-291.761 257.388H-326.03M-512.901 208.462H-471.671M-512.901 208.462L-527.434 202.453M-512.901 208.462H-531.613M-471.671 208.462L-458.538 214.231L-445.919 219.775M-471.671 208.462L-485.349 202.453M-527.434 202.453H-485.349M-527.434 202.453H-531.613M-527.434 202.453L-531.613 200.726M-531.613 208.462V214.231M-531.613 208.462V202.453M-485.54 219.775L-498.948 214.231H-531.613M-485.54 219.775H-525.159M-485.54 219.775H-445.919M-485.54 219.775L-472.643 225.107M-531.613 214.231V217.255M-460.233 230.238H-498.363M-460.233 230.238L-448.279 235.18M-460.233 230.238H-422.101M-460.233 230.238L-472.643 225.107M-498.363 230.238L-485.707 235.18M-498.363 230.238L-511.504 225.107M-498.363 230.238H-531.613M-448.279 235.18H-485.707M-448.279 235.18H-410.851M-448.279 235.18L-436.759 239.943M-422.101 230.238L-410.851 235.18M-422.101 230.238L-433.782 225.107M-472.643 225.107H-511.504M-472.643 225.107H-433.782M-485.707 235.18L-473.509 239.943M-485.707 235.18H-523.135M-511.504 225.107L-525.159 219.775M-511.504 225.107H-531.613M-531.613 230.238H-531.729M-531.613 230.238V232.045M-531.613 230.238V225.107M-410.851 235.18L-400.008 239.943M-436.759 239.943H-473.509M-436.759 239.943H-400.008M-436.759 239.943L-425.648 244.537M-473.509 239.943L-461.745 244.537M-473.509 239.943H-510.26M-523.135 235.18L-510.26 239.943M-523.135 235.18L-531.613 232.045M-523.135 235.18H-531.613M-414.926 248.971H-450.392M-414.926 248.971L-404.572 253.252M-414.926 248.971H-379.459M-414.926 248.971L-425.648 244.537M-450.392 248.971L-439.429 253.252M-450.392 248.971L-461.745 244.537M-450.392 248.971H-485.86M-404.572 253.252H-439.429M-404.572 253.252L-394.568 257.388M-404.572 253.252H-369.715M-379.459 248.971L-369.715 253.252M-379.459 248.971L-389.551 244.537M-425.648 244.537H-461.745M-425.648 244.537H-389.551M-439.429 253.252H-474.286M-439.429 253.252L-428.836 257.388M-461.745 244.537H-497.842M-394.568 257.388H-428.836M-394.568 257.388H-360.299M-369.715 253.252L-360.299 257.388M-474.286 253.252L-485.858 248.971M-474.286 253.252H-509.143M-474.286 253.252L-463.105 257.388M-428.836 257.388H-463.105M-497.842 244.537L-485.858 248.971M-497.842 244.537L-510.26 239.943M-497.842 244.537H-531.612M-485.858 248.971H-521.324M-521.324 248.971L-509.143 253.252M-521.324 248.971L-531.613 245.355M-521.324 248.971H-531.613M-509.143 253.252L-497.373 257.388M-509.143 253.252H-531.613M-463.105 257.388H-497.373M-463.105 257.388L-452.295 261.387M-510.26 239.943H-531.613M-531.613 245.355V248.971M-531.613 245.355V244.537V239.943M-531.613 248.971V253.252M-497.373 257.388L-485.994 261.387M-497.373 257.388H-531.612M-531.613 253.252V257.388M-452.295 261.387H-485.994M-485.994 261.387H-519.693M-531.613 232.045V235.18M-531.613 235.18V239.943M-400.008 239.943L-389.551 244.537M-400.008 239.943H-363.258M-389.551 244.537H-353.454M-525.159 219.775L-531.613 217.255M-525.159 219.775H-531.613M-531.613 225.107V219.775M-531.613 217.255V219.775M-445.919 219.775L-433.782 225.107M-445.919 219.775H-406.299M-433.782 225.107H-394.921M-353.454 244.537L-363.258 239.943M-326.03 257.388H-360.299M-326.03 257.388L-317.496 261.387M-360.299 257.388L-351.195 261.387M-317.496 261.387H-351.195M-253.006 239.943L-245.163 244.537M-253.006 239.943H-216.256M-245.163 244.537H-209.066M-394.921 225.107L-406.299 219.775M-287.439 219.775L-278.337 225.107M-287.439 219.775H-247.819M-278.337 225.107H-239.475M-443.265 202.453L-456.63 196.19M-443.265 202.453H-485.349M-485.349 202.453L-499.607 196.19M-456.63 196.19H-499.607M-499.607 196.19L-514.48 189.656M-499.607 196.19H-531.612M-531.613 202.453V200.726M-531.613 200.726V196.19M-514.48 189.656L-530.009 182.834M-514.48 189.656H-531.613M-327.704 196.19L-317.011 202.453M-327.704 196.19H-284.729M-317.011 202.453H-274.927M-500.353 175.702L-516.276 168.241M-500.353 175.702H-531.613M-530.01 182.834L-531.613 182.13M-530.01 182.834H-531.613M-531.613 189.656V196.19M-531.613 189.656V182.834M-531.837 196.19H-531.613M-531.613 182.13L-532 181.959M-531.613 182.13V182.834M-531.613 182.13V175.702M-516.276 168.241H-531.613M-516.276 168.241L-531.613 161.054M-531.613 175.702V168.241M-531.613 168.241V161.054M-375.421 168.241L-362.683 175.702M-375.421 168.241H-328.469M-375.421 168.241L-388.762 160.426M-362.683 175.702H-316.792M-531.613 136.969L-531.759 136.895M-531.613 136.969V143.632M-531.613 136.969V134.592M-417.435 143.632H-366.982M-417.435 143.632L-432.868 134.592M-209.066 244.537L-216.256 239.943M-188.956 257.388H-223.224M-188.956 257.388L-182.697 261.387M-223.224 257.388L-222.358 257.896L-220.636 258.903L-216.397 261.387M-182.697 261.387H-216.397M-106.004 239.943L-100.775 244.537M-106.004 239.943H-69.254M-100.775 244.537H-64.678M-239.475 225.107L-247.819 219.775M-128.959 219.775L-122.891 225.107M-128.959 219.775H-89.339M-122.891 225.107H-84.029M-274.927 202.453L-284.729 196.19M-155.803 196.19L-148.674 202.453M-155.803 196.19H-112.827M-148.674 202.453H-106.591M-316.792 175.702L-328.469 168.241M-187.614 168.241L-179.122 175.702M-187.614 168.241H-140.662M-179.122 175.702H-133.231M-366.982 143.632L-381.129 134.592M-381.129 134.592H-432.868M-225.911 134.592L-215.623 143.632M-225.911 134.592H-174.173M-215.623 143.632H-165.17M-428.254 104.48L-445.746 93.303M-428.254 104.48H-484.277M-484.277 104.48L-503.36 93.303H-531.613M-484.277 104.48H-531.613M-445.746 93.303H-503.359L-523.557 81.473M-531.613 104.48V93.303M-523.556 81.473H-531.613M-523.556 81.473L-531.613 76.753V68.931M-272.906 93.303L-260.184 104.48M-531.613 93.303V81.473M-260.184 104.48H-204.162M-504.734 55.61L-526.914 41.437M-504.734 55.61H-531.613M-531.613 68.931V55.61M-531.613 81.473L-531.614 76.754M-461.923 41.437H-526.914M-461.923 41.437H-396.93M-526.914 41.437L-531.613 38.435M-526.914 41.437H-531.613M-531.613 55.61V41.437M-396.93 41.437H-331.938M-531.613 38.435V41.437M-531.613 38.435V26.325V10.182V-7.10803V-7.54703V-25.667M-331.938 41.437L-315.807 55.61M-315.807 55.61H-252.831M-530.99 -7.10803H-531.612M-530.987 -7.10803L-531.612 -7.54703M-387.19 -7.10703H-315.292M-387.19 -7.10703L-408.314 -25.667M-28.581 244.537H-64.678M-64.678 244.537L-64.118 245.1L-60.262 248.971M-64.678 244.537L-65.807 243.405L-69.254 239.943M-60.262 248.971L-57.051 252.195L-55.999 253.252M-51.881 257.388H-86.149M-51.881 257.388L-47.898 261.387M-86.149 257.388L-84.424 258.903L-81.598 261.387M-47.898 261.387H-81.598M40.998 239.943L41.66 241.108L43.612 244.537M40.998 239.943H77.749M43.612 244.537H79.709M-84.029 225.107L-89.339 219.775M29.52 219.775L29.906 220.453L30.29 221.128L32.555 225.107M29.52 219.775H69.14M32.555 225.107H71.416M-106.591 202.453L-112.827 196.19M16.099 196.19L19.662 202.453M16.099 196.19H59.074M19.662 202.453H61.747M-133.231 175.702L-140.662 168.241M0.192993 168.241L4.43903 175.702M0.192993 168.241H47.145M4.43903 175.702H50.329M-165.17 143.632L-174.173 134.592M-18.956 134.592L-13.812 143.632M-18.956 134.592H32.783M-13.812 143.632H36.641M-204.162 104.48L-215.293 93.303M-215.293 93.302H-272.906M-42.453 93.302H-100.066L-92.115 104.479M-36.093 104.48H19.931M-36.093 104.48L-42.453 93.303M-252.831 55.61L-266.946 41.437H-201.954M-201.954 41.437H-136.961M-266.946 41.435H-331.938M-63.903 55.61L-56.323 68.931M-63.903 55.61H-0.927002M-315.292 -7.10703H-243.393H-171.494M-315.292 -7.10703L-333.774 -25.667M-298.074 10.182H-367.513M-171.494 -7.10703H-99.595M-333.774 -25.667H-408.314M-110.156 -25.667L-99.595 -7.10703M-110.156 -25.667H-35.617M-99.595 -7.10703H-27.696M-398.375 -90.533H-314.607M-398.375 -90.533L-423.616 -115.878M-398.375 -90.533H-482.143M-455.582 -67.197L-482.143 -90.533M-455.582 -67.197H-531.612M-482.143 -90.533L-510.99 -115.878M-482.143 -90.533H-531.613M-314.607 -90.533H-230.839M-230.839 -90.533H-147.071M-423.616 -115.878H-510.99M-510.99 -115.878H-531.614M-510.99 -115.878L-531.613 -133.998M-531.613 -90.533L-531.614 -115.878M-531.613 -143.504V-133.998M-531.613 -143.504V-173.731V-206.948V-224.32V-243.618M-161.495 -115.878L-147.071 -90.533M-161.495 -115.878H-74.121M-531.614 -115.878L-531.613 -133.998M-147.071 -90.533L-133.791 -67.197M-147.071 -90.533H-63.304M-514.312 -206.948L-531.612 -224.32M-514.312 -206.948H-531.612M-445.284 -243.619H-339.737M-445.284 -243.619L-531.613 -243.618M-339.737 -243.619H-234.19M-531.613 -243.618V-243.749H907.61V-243.618M-213.321 -206.948L-194.419 -173.73M-213.321 -206.948L-112.991 -206.947M-213.321 -206.948L-234.19 -243.618H-128.642M115.806 244.537L115.645 243.972L115.484 243.405L115.321 242.834L115.159 242.261L114.665 240.527L114.499 239.943M115.806 244.537H79.709M115.806 244.537H151.903M114.499 239.943H77.749M114.499 239.943H151.249M79.709 244.537L79.468 243.972L79.225 243.405L78.982 242.834L78.737 242.261L77.749 239.943M151.903 244.537L151.249 239.943M151.903 244.537H188M85.194 257.388H119.463M85.194 257.388L85.41 257.896L85.84 258.903L86.268 259.903L86.479 260.4L86.901 261.387M85.194 257.388H50.925M119.463 257.388H153.731M77.749 239.943L75.716 235.18M50.925 257.388L52.92 260.895L53.202 261.387M86.901 261.387H53.202M151.249 239.943H188V235.18V230.238M75.716 235.18L73.606 230.238M73.606 230.238L73.066 228.974L72.247 227.054L71.416 225.107M188 244.537L224.097 244.538M188 244.537V248.972M188 244.537V239.944H224.75M71.416 225.107H110.277M71.416 225.107L69.14 219.775M110.277 225.107H149.139M149.139 225.107H188M64.311 208.462L62.073 203.218L61.747 202.453M188 219.775V225.107M188 219.775H227.62M188 225.107V230.238M188 225.107H226.861M61.747 202.453H103.832M61.747 202.453L59.074 196.19M103.832 202.453L102.949 199.355L102.727 198.569L102.049 196.19M103.832 202.453H145.915M102.049 196.19H59.074M102.049 196.19H145.025M145.915 202.453L145.696 200.912L145.251 197.78L145.025 196.19M145.915 202.453H188M59.074 196.19L56.285 189.656M145.025 196.19H188M56.285 189.656L53.373 182.834M53.373 182.834L51.103 177.515L50.329 175.702M188 196.19V202.453M188 196.19H230.975M188 196.19V189.656M188 202.453V208.462M188 202.453H230.085M50.329 175.702L47.145 168.241M40.312 152.233L36.641 143.632M188 168.241V175.702M188 168.241H234.952M188 175.702V182.834M188 175.702H233.89M36.641 143.632L32.783 134.592M84.522 134.592H32.783M84.522 134.592H136.261M136.261 134.592H188M24.445 115.057L19.931 104.48M188 134.592V143.632M188 134.592H239.739M188 143.632V152.233M188 143.632H238.453M19.931 104.48H75.954M19.931 104.48L15.16 93.303M75.954 104.48L72.774 93.303M75.954 104.48H131.977M72.774 93.303H15.16M72.774 93.303H130.387M131.977 104.48L130.387 93.303M131.977 104.48H188M15.16 93.303H-42.453M130.387 93.303H188M4.758 68.931L-0.927002 55.61M4.758 68.931H-56.323M188 93.303V104.48M188 93.303H245.613M188 104.48V115.057M188 104.48H244.023M-0.927002 55.61H62.048M-0.927002 55.61L-6.97699 41.437H58.015M62.048 55.61L58.015 41.437M62.048 55.61H125.024M58.015 41.437H123.008M125.024 55.61H188M188 55.61H250.976M-20.317 10.18L-27.696 -7.10803M-89.756 10.181L-99.595 -7.10803M-27.696 -7.10703L-35.617 -25.667M188 -25.667V-7.10703H259.899M188 -25.667H262.539M-53.343 -67.198L-63.304 -90.533M-63.304 -90.533L-74.121 -115.878M188 -115.878V-90.533M188 -115.878H275.374M104.232 -90.534H188M-112.991 -206.947L-98.814 -173.73H-194.419M-112.991 -206.947L-128.642 -243.618M-23.095 -243.618H-128.642M-23.095 -243.618H82.452M82.452 -243.618H188M188 -243.618V-206.947M188 -243.618H293.548M188 -206.947V-173.73M188 -206.947H288.33M261.501 239.944H224.75M261.501 239.944H298.251M224.097 244.538L223.466 248.972M224.097 244.538L224.178 243.973L224.258 243.406L224.34 242.835L224.75 239.944M223.466 248.972L222.857 253.253M223.466 248.972H188M222.857 253.253L222.783 253.778L222.708 254.3L222.634 254.82L222.268 257.389M222.857 253.253H188M188 248.972V253.253M222.268 257.389H256.537M222.268 257.389H188M222.268 257.389L222.053 258.904L221.981 259.405L221.7 261.388M188 253.253V257.389M256.537 257.389L256.393 257.897L255.822 259.904L255.399 261.388M256.537 257.389H290.806M224.75 239.944L225.428 235.181M188 257.389H153.731L153.946 258.904L154.018 259.405L154.089 259.904L154.16 260.401L154.23 260.896L154.3 261.388M188 257.389V261.388M298.251 239.944H335.002M225.428 235.181H188M332.388 244.537H368.485M332.388 244.537L334.34 241.108L335.002 239.943M226.861 225.107L227.62 219.775M346.48 219.775L343.445 225.107M346.48 219.775H386.1M343.445 225.107H382.307M230.085 202.453L230.303 200.912L230.749 197.78L230.975 196.19M188 189.656V182.834M359.901 196.19L356.338 202.453M359.901 196.19H402.877M356.338 202.453H398.421M233.89 175.702L234.952 168.241M375.807 168.241L371.561 175.702M375.807 168.241H422.759M371.561 175.702H417.451M238.453 143.632L239.739 134.592M394.956 134.592L389.812 143.632M394.956 134.592H446.695M389.812 143.632H440.265M244.023 104.48L245.613 93.303M418.453 93.303L412.093 104.48M418.453 93.303H476.07M412.093 104.48H468.12M250.976 55.61L252.992 41.437H317.984M317.984 41.437H382.977M439.903 55.61H502.88M257.439 10.18L259.899 -7.10803M259.899 -7.10703L262.539 -25.667M486.16 -25.667L475.6 -7.10703H547.49M486.16 -25.667H560.7M268.447 -67.198L271.768 -90.533M271.768 -90.533L275.374 -115.878M271.768 -90.533H188M537.49 -115.878L523.07 -90.533M537.49 -115.878H624.87M439.304 -90.534H523.07M288.33 -206.947L283.604 -173.73H188M288.33 -206.947L293.548 -243.618M399.095 -243.618H293.548M399.095 -243.618H504.64M504.64 -243.618H610.19M589.32 -206.947L689.65 -206.948M589.32 -206.947L610.19 -243.619H715.74M368.485 244.537L371.752 239.943M359.343 257.388H325.075M359.343 257.388L357.201 260.4L356.499 261.387M371.752 239.943H335.002M325.075 257.388L324.786 257.896L324.212 258.903L322.799 261.387M356.499 261.387H322.799M482 239.943L476.78 244.537M482 239.943H518.75M476.78 244.537H512.87M382.307 225.107L386.1 219.775M504.96 219.775L499.64 224.451L498.89 225.107M504.96 219.775H544.58M498.89 225.107H537.75M398.421 202.453L402.877 196.19M531.8 196.19L524.67 202.453M531.8 196.19H574.78M524.67 202.453H566.76M417.451 175.702L422.759 168.241M563.61 168.241L555.12 175.702M563.61 168.241H610.57M555.12 175.702H601.01M440.265 143.632L446.695 134.592M601.91 134.592L591.62 143.632M601.91 134.592H653.65M591.62 143.632H642.08M468.12 104.48L476.07 93.303M648.91 93.303L636.18 104.48M648.91 93.303H706.52M636.18 104.48H692.21M502.88 55.61L512.96 41.437H577.95M577.95 41.437H642.95M691.81 55.61H754.78M535.2 10.18L547.49 -7.10803M547.49 -7.10703L560.7 -25.667M784.31 -25.667L763.19 -7.10703H835.09L858.85 -25.667M784.31 -25.667H858.85M590.24 -67.198L606.84 -90.533M606.84 -90.533L624.87 -115.878M606.84 -90.533H523.07M886.99 -115.878L858.14 -90.533M886.99 -115.878H907.61M886.99 -115.878L907.61 -133.998M774.37 -90.534H858.14M689.65 -206.948L715.74 -243.619M821.28 -243.619H715.74M821.28 -243.619L907.61 -243.618M907.61 -243.618V-224.32M907.61 -224.32V-206.948M512.87 244.537L518.75 239.943M496.42 257.388L495.77 257.896L491.3 261.387M496.42 257.388H462.149M462.149 257.388L460.424 258.903L457.597 261.387M491.3 261.387H457.597M629.01 239.943L621.16 244.537M629.01 239.943H665.76M621.16 244.537H657.26M537.75 225.107L544.58 219.775M663.44 219.775L654.34 225.107M663.44 219.775H703.06M654.34 225.107H693.2M566.76 202.453L574.78 196.19M703.7 196.19L693.01 202.453M703.7 196.19H746.68M693.01 202.453H735.1M601.01 175.702L610.57 168.241M751.42 168.241L738.68 175.702M751.42 168.241H798.37M738.68 175.702H784.57M642.08 143.632L653.65 134.592M808.87 134.592L793.43 143.632M808.87 134.592H860.61M793.43 143.632H843.89M692.21 104.48L706.52 93.303M879.36 93.303L860.28 104.48M879.36 93.303H907.61M860.28 104.48H907.61M754.78 55.61L772.93 41.437H837.92M837.92 41.437H902.91M902.91 41.437H907.61M902.91 41.437L907.61 38.435M907.61 38.435V41.435V55.61M907.61 -7.54703V-25.667M858.85 -25.667L884.43 -45.64M858.85 -25.667H907.61M884.43 -45.64H907.61M884.43 -45.64L907.61 -63.747M907.61 -45.64V-63.747M907.61 -45.64V-25.667M907.61 -63.747V-67.197M858.14 -90.533H907.61M907.61 -67.197V-90.533M907.61 -90.533V-115.878M907.61 -115.878V-133.998M657.26 244.537L665.76 239.943M633.49 257.388L632.55 257.896L626.1 261.387M633.49 257.388H599.22M599.22 257.388L598.36 257.896L592.4 261.387M626.1 261.387H592.4M776.01 239.943L765.55 244.537M776.01 239.943H812.76M765.55 244.537H801.65M693.2 225.107L703.06 219.775M821.92 219.775L809.78 225.107M821.92 219.775H861.54M809.78 225.107H848.64M735.1 202.453L746.68 196.19M875.61 196.19L861.35 202.453M875.61 196.19H907.61M861.35 202.453H903.43M784.57 175.702L798.37 168.241M907.61 175.702V182.13M843.89 143.632L860.61 134.592M907.61 143.632V136.969M907.61 136.969L907.76 136.895M907.61 136.969V134.592M860.61 134.592L878.2 125.08M860.61 134.592H907.61M878.2 125.08L896.74 115.057M878.2 125.08H907.61M896.74 115.057H907.61M896.74 115.057L907.61 109.177M907.61 125.08V115.057M907.61 125.08V134.592M907.61 115.057V109.177M907.61 109.177V104.48M907.61 104.48V93.303M907.61 81.473V93.303M801.65 244.537L812.76 239.943M770.57 257.388H736.3M770.57 257.388L760.89 261.387M736.3 257.388L727.2 261.387M760.89 261.387H727.2M907.61 239.943V244.537M907.61 244.537V245.355M848.64 225.107L861.54 219.775M901.16 219.775H861.54M901.16 219.775L907.61 217.255M901.16 219.775H907.61M907.61 225.107V219.775M861.54 219.775L874.95 214.231M874.95 214.231L888.9 208.462M874.95 214.231H907.61M888.9 208.462L903.43 202.453M888.9 208.462H907.61M907.61 214.231V208.462M907.61 214.231V217.255M907.61 217.255V219.775M903.43 202.453L907.61 200.726M903.43 202.453H907.61M907.61 208.462V202.453M907.61 200.726V196.19M907.61 200.726V202.453M907.61 189.656V182.834M907.61 189.656V196.19M907.61 196.19H907.84M907.61 182.834V182.13M907.61 182.13L908 181.959M907.61 248.971V245.355M907.61 248.971V253.252M873.37 257.388L861.99 261.387M873.37 257.388H907.61M907.61 253.252V257.388M861.99 261.387H895.69M907.61 257.388H907.64L907.61 257.398M907.61 257.388V257.398M188 261.387H221.7M895.69 261.387L907.61 257.398M895.69 261.387H907.61M907.61 257.398V261.387M-519.693 261.387L-531.613 257.398M-519.693 261.387H-531.614M-531.613 257.398L-531.614 261.387M-531.613 257.398L-531.643 257.388H-531.613M-531.613 257.398V257.388" stroke="url(#paint0_linear_349_4354)" stroke-miterlimit="10" stroke-linecap="round" stroke-linejoin="round"/>
<defs>
<linearGradient id="paint0_linear_349_4354" x1="188" y1="269" x2="188" y2="-90.5" gradientUnits="userSpaceOnUse">
<stop stop-color="#CED2DF" stop-opacity="0"/>
<stop offset="1" stop-color="#8791AB"/>
</linearGradient>
</defs>
</svg>
