<svg width="1440" height="156" viewBox="0 0 1440 156" fill="none" xmlns="http://www.w3.org/2000/svg">
<path d="M1424.84 4.63304L1413.51 0.842041M1424.84 4.63304H1391.27M1424.84 4.63304L1436.54 8.55004M1424.84 4.63304H1448.61M1413.51 0.842041L1417.63 0.84304L1421.71 0.851044L1425.71 0.875042L1429.57 0.92004L1433.27 0.994041L1436.77 1.10404L1440.01 1.25904L1443.02 1.45604L1445.61 1.72804L1447.96 2.04304L1448.61 2.15304V4.63304M1413.51 0.842041H1380.49M1391.27 4.63304L1380.49 0.842041M1391.27 4.63304H1357.71M1391.27 4.63304L1394.03 5.60004L1402.42 8.55104M1436.54 8.55004L1402.42 8.55104M1436.54 8.55004L1448.61 12.59M1436.54 8.55004H1448.61M1448.61 4.63304V8.55004M1380.49 0.842041H1347.46M1347.46 0.842041H1314.44M1347.46 0.842041L1357.71 4.63304M1314.44 0.842041H1281.41M1314.44 0.842041L1324.15 4.63304M1357.71 4.63304H1324.15M1357.71 4.63304L1368.3 8.55104M1281.41 0.842041H1248.39M1281.41 0.842041L1290.58 4.63304M1324.15 4.63304H1290.58M1324.15 4.63304L1334.18 8.55004M1248.39 0.842041H1215.37M1248.39 0.842041L1257.02 4.63304M1290.58 4.63304H1257.02M1290.58 4.63304L1300.06 8.55004M1215.37 0.842041H1182.34M1215.37 0.842041L1223.46 4.63304M1257.02 4.63304H1223.46M1257.02 4.63304L1259.22 5.60104L1260.33 6.08704L1265.94 8.55104M1182.34 0.842041H1149.32M1182.34 0.842041L1189.89 4.63304M1223.46 4.63304H1189.89M1223.46 4.63304L1225.52 5.60104L1231.81 8.55104H1265.94M1149.32 0.842041H1116.29M1149.32 0.842041L1156.33 4.63304M1189.89 4.63304H1156.33M1189.89 4.63304L1197.69 8.55004M1116.29 0.842041H1083.27M1116.29 0.842041L1122.76 4.63304M1156.33 4.63304H1122.76M1156.33 4.63304L1158.12 5.60004L1159.02 6.08604L1163.57 8.55004M1083.27 0.842041H1050.24M1083.27 0.842041L1089.2 4.63304M1122.76 4.63304H1089.2M1122.76 4.63304L1129.45 8.55004M1050.24 0.842041H1017.22M1050.24 0.842041L1055.64 4.63304M1089.2 4.63304H1055.64M1089.2 4.63304L1090.71 5.60104L1091.48 6.08704L1095.33 8.55104M1017.22 0.842041H984.195M1017.22 0.842041L1018.42 1.77904L1020.23 3.19604L1022.07 4.63304M1055.64 4.63304H1022.07M1055.64 4.63304L1056.32 5.11504L1057.01 5.60004L1061.21 8.55004M984.195 0.842041H951.171M984.195 0.842041L985.26 1.77904L988.509 4.63304M1022.07 4.63304H988.509M1022.07 4.63304L1023.31 5.60004L1023.93 6.08604L1027.09 8.55004M951.171 0.842041H918.146M951.171 0.842041L954.946 4.63304M988.509 4.63304H954.946M988.509 4.63304L992.967 8.55004M918.146 0.842041H885.122M918.146 0.842041L919.347 2.24904L920.564 3.67304L920.972 4.15304L921.383 4.63304M954.946 4.63304H921.383M954.946 4.63304L955.427 5.11604L955.909 5.60104L956.394 6.08704L958.847 8.55104M885.122 0.842041H852.097M885.122 0.842041L886.123 2.24904L886.459 2.72204L886.797 3.19604L887.819 4.63304M921.383 4.63304H887.819M921.383 4.63304L922.208 5.60004L922.623 6.08604L923.04 6.57604L924.726 8.55004M852.097 0.842041H819.073M852.097 0.842041L854.255 4.63304M887.819 4.63304H854.255M887.819 4.63304L888.506 5.60004L889.9 7.55804L890.251 8.05304L890.605 8.55004M819.073 0.842041L819.273 1.30904L819.472 1.77904L820.486 4.15304L820.691 4.63304M819.073 0.842041H786.049M854.255 4.63304H820.691M854.255 4.63304L854.53 5.11604L854.805 5.60104L855.082 6.08704L856.483 8.55104M820.691 4.63304H787.128M820.691 4.63304L822.362 8.55104M786.049 0.842041H753.024M786.049 0.842041L787.128 4.63304M753.024 0.842041H720M753.024 0.842041L753.225 2.24904L753.564 4.63304M787.128 4.63304H753.564M787.128 4.63304L787.265 5.11504L787.402 5.60004L787.541 6.08604L788.242 8.55004M720 0.842041H686.976M720 0.842041V4.63304M753.564 4.63304H720M753.564 4.63304L754.121 8.55004M686.976 0.842041H653.951M686.976 0.842041L686.776 2.24904L686.436 4.63304M720 4.63304H686.436M720 4.63304V8.55104M653.951 0.842041H620.927M653.951 0.842041L652.873 4.63304M686.436 4.63304H652.873M686.436 4.63304L685.879 8.55004M620.927 0.842041L620.727 1.30904L620.528 1.77904L619.514 4.15304L619.309 4.63304M620.927 0.842041H587.903M652.873 4.63304H619.309M652.873 4.63304L652.735 5.11504L652.598 5.60004L652.459 6.08604L652.04 7.55804L651.758 8.55004M619.309 4.63304H585.745M619.309 4.63304L617.638 8.55004M587.903 0.842041H554.878M587.903 0.842041L586.019 4.15204L585.745 4.63304M554.878 0.842041H521.854M554.878 0.842041L553.877 2.24904L553.541 2.72204L552.864 3.67304L552.523 4.15304L552.181 4.63304M585.745 4.63304H552.181M585.745 4.63304L585.47 5.11604L585.195 5.60104L584.918 6.08704L583.516 8.55004M521.854 0.842041H488.829M521.854 0.842041L520.653 2.24904L519.436 3.67304L519.028 4.15304L518.617 4.63304M552.181 4.63304H518.617M552.181 4.63304L551.494 5.60104L550.1 7.55904L549.395 8.55104M488.829 0.842041H455.805M488.829 0.842041L485.054 4.63304M518.617 4.63304H485.054M518.617 4.63304L517.792 5.60004L517.377 6.08604L516.96 6.57604L515.274 8.55004M455.805 0.842041H422.78M455.805 0.842041L454.74 1.77904L451.491 4.63304M485.054 4.63304L484.573 5.11504L481.153 8.55004M485.054 4.63304H451.491M422.78 0.842041H389.756M422.78 0.842041L417.927 4.63304M451.491 4.63304H417.927M451.491 4.63304L450.941 5.11604L447.033 8.55004M389.756 0.842041H356.732M389.756 0.842041L384.363 4.63304M417.927 4.63304H384.363M417.927 4.63304L416.688 5.60104L416.065 6.08704L412.912 8.55004M356.732 0.842041H323.707M356.732 0.842041L350.799 4.63304M384.363 4.63304H350.799M384.363 4.63304L383.676 5.11504L382.987 5.60004L378.791 8.55004M323.707 0.842041H290.683M323.707 0.842041L317.236 4.63304M350.799 4.63304H317.236M350.799 4.63304L349.286 5.60004L348.524 6.08604L344.669 8.55004M290.683 0.842041H257.659M290.683 0.842041L283.672 4.63304M317.236 4.63304H283.672M317.236 4.63304L316.411 5.11604L310.548 8.55004M257.659 0.842041H224.635M257.659 0.842041L250.108 4.63304M283.672 4.63304H250.108M283.672 4.63304L281.883 5.60104L280.983 6.08704L276.427 8.55104M224.635 0.842041H191.61M224.635 0.842041L216.544 4.63304M250.108 4.63304H216.544M250.108 4.63304L242.307 8.55004M191.61 0.842041H158.586M191.61 0.842041L182.981 4.63304M216.544 4.63304H182.981M216.544 4.63304L214.481 5.60004L208.186 8.55004M158.586 0.842041H125.562M158.586 0.842041L149.417 4.63304M182.981 4.63304H149.417M182.981 4.63304L180.78 5.60104L179.671 6.08704L174.065 8.55104M125.562 0.842041H92.537M125.562 0.842041L115.853 4.63304M149.417 4.63304H115.853M149.417 4.63304L139.944 8.55104M92.537 0.842041H59.513M92.537 0.842041L82.29 4.63304M115.853 4.63304H82.29M115.853 4.63304L105.823 8.55004M59.513 0.842041H26.488M59.513 0.842041L48.726 4.63304M82.29 4.63304H48.726M82.29 4.63304L71.702 8.55004M26.488 0.842041L22.368 0.84304L18.288 0.851044L14.295 0.875042L10.427 0.92004L6.726 0.994041L3.232 1.10404L-0.0120001 1.25904L-3.024 1.45604L-5.608 1.72804L-7.961 2.04304L-8.608 2.15304V4.63304M26.488 0.842041L15.162 4.63304M48.726 4.63304H15.162M48.726 4.63304L45.974 5.60004L37.58 8.55004M-8.608 4.63304H15.162M-8.608 4.63304V8.55004M71.702 8.55004H105.823M71.702 8.55004H37.58M105.823 8.55004L95.453 12.599M105.823 8.55004L139.944 8.55104M208.186 8.55004H242.307M208.186 8.55004L174.065 8.55104M242.307 8.55004L276.427 8.55104M344.669 8.55004L338.333 12.599M344.669 8.55004H378.791M344.669 8.55004H310.548M378.791 8.55004L375.213 11.065L373.029 12.599M378.791 8.55004H412.912M481.153 8.55004L477.121 12.599M481.153 8.55004H515.274M481.153 8.55004H447.033M515.274 8.55004L513.128 11.065L511.818 12.599M515.274 8.55004L549.395 8.55104M617.638 8.55004L617.21 9.54904L616.564 11.065L616.128 12.085L615.909 12.599M617.638 8.55004H651.758M617.638 8.55004H583.516M651.758 8.55004L651.33 10.052L650.752 12.085L650.606 12.599M651.758 8.55004H685.879M754.121 8.55004L754.192 9.04904L754.263 9.54904L754.335 10.052L754.406 10.557L754.479 11.065L754.697 12.599M754.121 8.55004H788.242M754.121 8.55004L720 8.55104M788.242 8.55004L788.67 10.052L789.248 12.085L789.394 12.599M788.242 8.55004L822.362 8.55104M890.605 8.55004L891.316 9.54904L893.485 12.599M890.605 8.55004H924.726M890.605 8.55004L856.483 8.55104M924.726 8.55004L926.872 11.065L928.182 12.599M924.726 8.55004L958.847 8.55104M1027.09 8.55004L1031.62 12.085L1032.27 12.599M1027.09 8.55004H1061.21M1027.09 8.55004H992.967M1061.21 8.55004L1064.79 11.065L1066.97 12.599M1061.21 8.55004L1095.33 8.55104M1163.57 8.55004L1171.06 12.599M1163.57 8.55004H1197.69M1163.57 8.55004H1129.45M1197.69 8.55004L1205.76 12.599M1197.69 8.55004L1231.81 8.54904L1240.45 12.599M1300.06 8.55004L1309.85 12.599M1300.06 8.55004L1265.94 8.55104M1300.06 8.55004H1334.18M1334.18 8.55004L1344.55 12.599M1334.18 8.55004L1368.3 8.55104M-8.725 40.088H-8.608M-8.608 40.088H25.057M-8.608 40.088V45.284M-8.608 40.088V38.259M25.057 40.088L37.871 35.085M25.057 40.088L11.752 45.284M25.057 40.088H63.665M37.871 35.085L50.221 30.262M37.871 35.085H75.766M11.752 45.284L-2.073 50.682M11.752 45.284H51.099M11.752 45.284H-8.608M63.665 40.088L75.767 35.086M63.665 40.088L51.099 45.284M63.665 40.088H102.273M37.872 35.085H-0.0249996M-0.0249996 35.085L13.011 30.262M-0.0249996 35.085H-8.608M-0.0249996 35.085L-8.608 38.259M-8.608 35.085V38.259M-8.608 35.085V30.263M37.718 21.12H73.628M37.718 21.12L49.435 16.786M37.718 21.12H1.81M73.628 21.12L84.729 16.786M73.628 21.12L62.134 25.61M73.628 21.12H109.539M49.435 16.786H84.729M49.435 16.786L60.758 12.598M49.435 16.786H14.142M1.81 21.12L14.143 16.787M1.81 21.12H-8.608M1.81 21.12L-8.608 24.781M37.72 21.12L25.586 25.61H62.133M84.729 16.786H120.021M84.729 16.786L95.454 12.598M60.758 12.598L95.453 12.599M60.758 12.598L71.702 8.54804M14.142 16.786L26.06 12.598M14.142 16.786H-8.608M120.021 16.786L109.538 21.121M120.021 16.786L155.314 16.787M120.021 16.786L130.15 12.599M-8.977 119.068H-8.607M-8.607 119.068H22.175M-8.607 119.068L-8.608 110.773M-8.607 119.068L-8.608 127.777M22.175 119.068L38.699 110.773M22.175 119.068L4.83 127.777M22.175 119.068H72.02M38.699 110.773L54.46 102.86M38.699 110.773H87.364M38.699 110.773H-8.608M4.83 127.777H55.914M4.83 127.777H-8.608M4.83 127.777L-8.608 134.523M72.02 119.068L87.364 110.773M72.02 119.068L55.914 127.777M72.02 119.068H121.865M54.46 102.86H6.921M54.46 102.86L69.506 95.306M54.46 102.86H101.998M87.364 110.773L101.998 102.86M87.364 110.773H136.029M-8.608 110.773V110.137M6.921 102.86L23.043 95.306M6.921 102.86H-8.608M6.921 102.86L-8.608 110.137M23.043 95.306L38.452 88.085M23.043 95.306H69.506M23.043 95.306H-8.607M-8.608 102.86V110.137M-8.608 102.86L-8.607 95.306M38.452 88.085H83.888M38.452 88.085L53.193 81.177M38.452 88.085H-6.985M83.888 88.085L97.648 81.177M83.888 88.085L69.506 95.306M83.888 88.085H129.325M53.193 81.177H97.648M53.193 81.177H8.74M53.193 81.177L67.312 74.562M-6.985 88.085L8.74 81.177M-6.985 88.085H-8.608M-6.985 88.085L-8.608 88.798M97.648 81.177L110.824 74.562M97.648 81.177H142.1M69.506 95.306H115.97M129.325 88.085L142.1 81.177M129.325 88.085L115.97 95.306M129.325 88.085H174.761M8.74 81.177L23.799 74.562M8.74 81.177H-8.608M67.312 74.562H110.824M67.312 74.562H23.799M67.312 74.562L80.844 68.221M110.824 74.562L123.455 68.221M110.824 74.562H154.337M142.1 81.177L154.337 74.562M142.1 81.177H186.555M93.826 62.137H135.571M93.826 62.137L106.292 56.296M93.826 62.137H52.082M106.292 56.296H147.207M106.292 56.296H65.379M106.292 56.296L118.273 50.682M52.082 62.137H10.339M52.082 62.137L65.379 56.296M52.082 62.137L38.235 68.221M93.827 62.137L80.844 68.221M80.844 68.221H123.455M80.844 68.221H38.235M135.572 62.137L147.207 56.296M135.572 62.137L123.455 68.221M135.572 62.137H177.317M147.207 56.296L158.388 50.682M147.207 56.296H188.121M123.455 68.221H166.065M177.317 62.137L188.121 56.296M177.317 62.137L166.065 68.221M177.317 62.137H219.062M65.379 56.296H24.467M65.379 56.296L78.157 50.682M118.273 50.682H158.388M118.273 50.682H78.157M118.273 50.682L129.793 45.284M158.388 50.682L169.14 45.284M158.388 50.682H198.503M188.121 56.296L198.503 50.682M188.121 56.296H229.035M140.881 40.088H179.489M140.881 40.088L151.559 35.085M140.881 40.088H102.273M140.881 40.088L129.793 45.284M179.489 40.088L189.455 35.085M179.489 40.088L169.14 45.284M179.489 40.088H218.096M151.559 35.085H189.455M151.559 35.085H113.663M151.559 35.085L161.852 30.262M102.273 40.088L113.663 35.085M102.273 40.088L90.446 45.283L129.793 45.284M129.793 45.284H169.14M189.455 35.085L199.061 30.262M189.455 35.085H227.351M169.14 45.284H208.487M218.096 40.088L227.351 35.085M218.096 40.088L208.487 45.284M218.096 40.088H256.704M113.663 35.085L75.767 35.086M113.663 35.085L124.642 30.262M161.852 30.262H199.061M161.852 30.262H124.642M161.852 30.262L171.777 25.611M199.061 30.262H236.27M227.351 35.085L236.27 30.262M227.351 35.085H265.248M217.266 21.122H181.356L190.607 16.787M190.607 16.787H225.899M190.607 16.787L199.545 12.599M190.607 16.787H155.314M171.777 25.611L181.356 21.121H145.447H109.538M171.777 25.611L135.229 25.61M217.266 21.121L225.899 16.787M217.266 21.121L208.325 25.611M217.266 21.121H253.176M225.899 16.787H261.193M225.899 16.787L234.242 12.599M199.545 12.599H234.241M199.545 12.599L208.185 8.54904M199.545 12.599H164.846M155.314 16.787L145.446 21.121L135.228 25.61M155.314 16.787L164.846 12.599M16.929 262.896L40.186 246.549M16.929 262.896L-7.975 280.401M16.929 262.896H87.236M16.929 262.896H-8.608M40.186 246.549L61.953 231.25M40.186 246.549H108.167M40.186 246.549H-8.608M-7.975 280.401H64.822M-7.975 280.401H-8.608M-7.975 280.401L-8.608 280.845M87.236 262.896L108.167 246.549M87.236 262.896L64.822 280.401M87.236 262.896H157.543M-8.608 262.896V280.401M-8.608 262.896V246.549M61.953 231.25L82.37 216.899M61.953 231.25H127.758M61.953 231.25H-3.852L18.607 216.899M108.167 246.549L127.758 231.25M108.167 246.549H176.148M-8.608 246.549V234.289M39.714 203.412H101.558M39.714 203.412L59.587 190.713M39.714 203.412L18.607 216.899M39.714 203.412H-8.608M101.558 203.412L119.624 190.713M101.558 203.412L82.37 216.899M101.558 203.412H163.402M59.587 190.713H119.624M59.587 190.713H-0.45M59.587 190.713L78.333 178.735M18.607 216.899H82.37M18.607 216.899H-8.608M-8.608 203.412V216.899M-8.608 203.412V195.491M119.624 190.713L136.666 178.735M119.624 190.713H179.662M82.37 216.899H146.133M163.402 203.412L179.662 190.713M163.402 203.412L146.133 216.899M163.402 203.412H225.247M-0.45 190.713L19.999 178.735M-0.45 190.713H-8.608M-0.45 190.713L-8.608 195.491M78.333 178.735H136.666M78.333 178.735H19.999M78.333 178.735L96.043 167.419M136.666 178.735L152.766 167.419M136.666 178.735H195M179.662 190.713L195 178.735M179.662 190.713H239.7M112.802 156.709H168.002M112.802 156.709L128.685 146.561M112.802 156.709H57.602M112.802 156.709L96.043 167.419M168.002 156.709L182.441 146.561M168.002 156.709L152.766 167.419M168.002 156.709H223.202M128.685 146.561H182.441M128.685 146.561H74.929M128.685 146.561L143.757 136.929M57.602 156.709H2.403M57.602 156.709L74.929 146.561M57.602 156.709L39.32 167.419M96.043 167.419H152.766M96.043 167.419H39.32M182.441 146.561L196.143 136.929M182.441 146.561H236.196M152.766 167.419H209.49M223.202 156.709L236.196 146.561M223.202 156.709L209.49 167.419M223.202 156.709H278.402M74.929 146.561H21.172M74.929 146.561L91.372 136.929M143.757 136.929H196.143M143.757 136.929H91.372M143.757 136.929L158.081 127.777M196.143 136.929L209.164 127.777M196.143 136.929H248.529M236.196 146.561L248.529 136.929M236.196 146.561H289.952M171.709 119.068H221.554M171.709 119.068L184.693 110.773M171.709 119.068H121.865M171.709 119.068L158.081 127.777M221.554 119.068L233.357 110.773M221.554 119.068L209.164 127.777M221.554 119.068H271.399M184.693 110.773H233.357M184.693 110.773H136.029M184.693 110.773L197.075 102.86M121.865 119.068L136.029 110.773M121.865 119.068L106.997 127.777M158.081 127.777H209.164M158.081 127.777H106.997M233.357 110.773L244.614 102.86M233.357 110.773H282.021M209.164 127.777H260.248M271.399 119.068L282.021 110.773M271.399 119.068L260.248 127.777M271.399 119.068H321.243M136.029 110.773L149.537 102.86M197.075 102.86H244.614M197.075 102.86H149.537M197.075 102.86L208.898 95.306M244.614 102.86L255.362 95.306M244.614 102.86H292.153M282.021 110.773L292.153 102.86M282.021 110.773H330.685M220.198 88.085H265.634M220.198 88.085L231.009 81.177M220.198 88.085H174.761M220.198 88.085L208.898 95.306M265.634 88.085L275.463 81.177M265.634 88.085L255.362 95.306M265.634 88.085H311.07M231.009 81.177H275.463M231.009 81.177H186.555M231.009 81.177L241.362 74.562M174.761 88.085L186.555 81.177M174.761 88.085L162.434 95.306M208.898 95.306H255.362M208.898 95.306H162.434M275.463 81.177L284.875 74.562M275.463 81.177H319.916M255.362 95.306H301.826M311.07 88.085L319.916 81.177M311.07 88.085L301.826 95.306M311.07 88.085H356.508M186.555 81.177L197.849 74.562M241.362 74.562H284.875M241.362 74.562H197.849M241.362 74.562L251.286 68.221M284.875 74.562L293.897 68.221M284.875 74.562H328.387M319.916 81.177L328.387 74.562M319.916 81.177H364.37M260.806 62.137H302.551M260.806 62.137L269.948 56.296M260.806 62.137H219.062M260.806 62.137L251.286 68.221M302.551 62.137L303.609 61.394L310.862 56.296M302.551 62.137L293.897 68.221M302.551 62.137H344.297M269.948 56.296H310.862M269.948 56.296H229.035M269.948 56.296L278.733 50.682M219.062 62.137L229.035 56.296M219.062 62.137L208.675 68.221M251.286 68.221H293.897M251.286 68.221H208.675M310.862 56.296L318.848 50.682M310.862 56.296H351.776M293.897 68.221H336.506M344.297 62.137L351.776 56.296M344.297 62.137L336.506 68.221M344.297 62.137H386.041M229.035 56.296L238.618 50.682M278.733 50.682H318.848M278.733 50.682H238.618M278.733 50.682L287.181 45.284M318.848 50.682L325.585 45.947L326.528 45.284M318.848 50.682H358.964M351.776 56.296L358.964 50.682M351.776 56.296H392.69M295.312 40.088H333.921M295.312 40.088L303.144 35.085M295.312 40.088H256.704M295.312 40.088L287.181 45.284M333.921 40.088L341.04 35.085M333.921 40.088L331.182 42.014L326.528 45.284M333.921 40.088H372.529M303.144 35.085H341.04M303.144 35.085H265.248M303.144 35.085L310.691 30.262M256.704 40.088L264.197 35.699L265.248 35.085M256.704 40.088L247.834 45.283M287.181 45.284H326.528M287.181 45.284L247.834 45.283M341.04 35.085L347.901 30.262M341.04 35.085H378.936M326.528 45.284H365.875M372.529 40.088L378.936 35.085M372.529 40.088L370.888 41.368L365.875 45.284M372.529 40.088H411.136M265.248 35.085L273.481 30.262M310.691 30.262H347.901M310.691 30.262H273.481M310.691 30.262L317.97 25.611M347.901 30.262L354.518 25.611M347.901 30.262H385.111M378.936 35.085L385.111 30.262M378.936 35.085H416.832M360.904 21.122H324.994L331.778 16.787M331.778 16.787H367.072M331.778 16.787L338.333 12.599M331.778 16.787H296.485M289.086 21.121H324.994L317.97 25.611M317.97 25.611H354.518M317.97 25.611L281.422 25.61L273.481 30.262M360.904 21.121L365.55 17.857L366.312 17.32L367.072 16.787M360.904 21.121L354.518 25.611M360.904 21.121H396.814M367.072 16.787H402.364M367.072 16.787L373.029 12.599M354.518 25.611L391.066 25.61M396.814 21.121L402.364 16.787M396.814 21.121L391.066 25.61M396.814 21.121H432.724M338.333 12.599H373.029M338.333 12.599H303.635M296.485 16.787H261.192M296.485 16.787L289.085 21.121M296.485 16.787L303.635 12.599M402.364 16.787H437.657M402.364 16.787L407.727 12.599M373.029 12.599H407.727M42.403 449.107H139.203M42.403 449.107L72.883 418.502M42.403 449.107L8.909 482.739M42.403 449.107L-8.607 449.108M139.203 449.107L165.328 418.502M139.203 449.107L110.494 482.739M139.203 449.107H236.002M72.883 418.502H165.328M72.883 418.502L100.739 390.531M72.883 418.502H-8.607M8.909 482.739H110.494M8.909 482.739L-8.607 500.329M8.909 482.739H-8.608M-8.607 449.108L-8.608 482.739M-8.607 449.108V418.502M165.328 418.502L189.205 390.531M165.328 418.502H257.774M110.494 482.739L78.799 519.868M110.494 482.739H212.079M236.002 449.107L257.774 418.502M236.002 449.107L212.079 482.739M236.002 449.107H332.802M100.739 390.531H189.205M100.739 390.531H12.273M100.739 390.531L126.296 364.869M-8.607 418.502V408.877M189.205 390.531L211.111 364.869M189.205 390.531H277.671M257.774 418.502L277.671 390.531M257.774 418.502H350.219M149.827 341.241H231.28M149.827 341.241L171.563 319.415M149.827 341.241H68.374M149.827 341.241L126.296 364.869M231.28 341.241L249.911 319.415M231.28 341.241L211.111 364.869M231.28 341.241H312.733M171.563 319.415H249.911M171.563 319.415H93.215M171.563 319.415L191.704 299.192M68.374 341.241L93.215 319.415M68.374 341.241L41.481 364.869M68.374 341.241H-8.608M126.296 364.869H211.111M126.296 364.869H41.481M249.911 319.415L267.175 299.192M249.911 319.415H328.26M211.111 364.869H295.925M312.733 341.241L328.26 319.415M312.733 341.241L295.925 364.869M312.733 341.241H394.186M93.215 319.415H14.867M93.215 319.415L116.233 299.192M191.704 299.192H267.175M191.704 299.192H116.233M191.704 299.192L210.417 280.401M267.175 299.192L283.215 280.401M267.175 299.192H342.646M328.26 319.415L342.646 299.192M328.26 319.415H406.608M227.851 262.896H298.157M227.851 262.896L244.13 246.549M227.851 262.896H157.543M227.851 262.896L210.417 280.401M298.157 262.896L312.112 246.549M298.157 262.896L283.215 280.401M298.157 262.896H368.464M244.13 246.549H312.112M244.13 246.549H176.148M244.13 246.549L259.367 231.25M157.543 262.896L176.148 246.549M157.543 262.896L137.619 280.401M210.417 280.401H283.215M210.417 280.401H137.619M312.112 246.549L325.172 231.25M312.112 246.549H380.093M283.215 280.401H356.013M368.464 262.896L380.093 246.549M368.464 262.896L356.013 280.401M368.464 262.896H438.772M176.148 246.549L193.563 231.25M259.367 231.25H325.172M259.367 231.25H193.563M259.367 231.25L273.659 216.899M325.172 231.25L337.422 216.899M325.172 231.25H390.977M380.093 246.549L390.977 231.25M380.093 246.549H448.075M287.09 203.412H348.935M287.09 203.412L299.738 190.713M287.09 203.412H225.247M287.09 203.412L273.659 216.899M348.935 203.412L359.775 190.713M348.935 203.412L337.422 216.899M348.935 203.412H410.779M299.738 190.713H359.775M299.738 190.713H239.7M299.738 190.713L311.666 178.735M225.247 203.412L239.7 190.713M225.247 203.412L209.896 216.899M273.659 216.899H337.422M273.659 216.899H209.896M359.775 190.713L370 178.735M359.775 190.713H419.812M337.422 216.899H401.185M410.779 203.412L419.812 190.713M410.779 203.412L401.185 216.899M410.779 203.412H472.623M239.7 190.713L253.333 178.735M311.666 178.735H370M311.666 178.735H253.333M311.666 178.735L322.936 167.419M370 178.735L379.66 167.419M370 178.735H428.333M419.812 190.713L428.333 178.735M419.812 190.713H479.85M333.601 156.709H388.802M333.601 156.709L343.708 146.561M333.601 156.709H278.402M333.601 156.709L322.936 167.419M388.802 156.709L397.464 146.561M388.802 156.709L379.66 167.419M388.802 156.709H444.001M343.708 146.561H397.464M343.708 146.561H289.952M343.708 146.561L353.3 136.929M278.402 156.709L289.952 146.561M278.402 156.709L266.213 167.419M322.936 167.419H379.66M322.936 167.419H266.213M397.464 146.561L405.686 136.929M397.464 146.561H451.22M379.66 167.419H436.383M444.001 156.709L451.22 146.561M444.001 156.709L436.383 167.419M444.001 156.709H499.201M289.952 146.561L300.915 136.929M353.3 136.929H405.686M353.3 136.929H300.915M353.3 136.929L362.415 127.777M405.686 136.929L413.498 127.777M405.686 136.929H458.072M451.22 146.561L458.072 136.929M451.22 146.561H504.977M371.088 119.068H420.932M371.088 119.068L379.35 110.773M371.088 119.068H321.243M371.088 119.068L362.415 127.777M420.932 119.068L428.014 110.773M420.932 119.068L413.498 127.777M420.932 119.068H470.777M379.35 110.773H428.014M379.35 110.773H330.685M379.35 110.773L387.23 102.86M321.243 119.068L330.685 110.773M321.243 119.068L311.332 127.777M362.415 127.777H413.498M362.415 127.777H311.332M428.014 110.773L434.768 102.86M428.014 110.773H476.678M413.498 127.777H464.582M470.777 119.068L476.678 110.773M470.777 119.068L464.582 127.777M470.777 119.068H520.622M330.685 110.773L339.691 102.86M387.23 102.86H434.768M387.23 102.86H339.691M387.23 102.86L394.753 95.306M434.768 102.86L441.217 95.306M434.768 102.86H482.307M476.678 110.773L480.227 105.784L482.307 102.86M476.678 110.773H525.343M401.944 88.085H447.381M401.944 88.085L408.824 81.177M401.944 88.085H356.508M401.944 88.085L394.753 95.306M447.381 88.085L453.277 81.177M447.381 88.085L441.217 95.306M447.381 88.085H492.817M408.824 81.177H453.277M408.824 81.177H364.37M408.824 81.177L415.412 74.562M356.508 88.085L364.37 81.177M356.508 88.085L348.289 95.306M394.753 95.306H441.217M394.753 95.306H348.289M453.277 81.177L458.925 74.562M453.277 81.177H497.731M441.217 95.306H487.681M492.817 88.085L497.731 81.177M492.817 88.085L491.554 89.86L487.681 95.306M492.817 88.085H538.253M364.37 81.177L371.899 74.562M415.412 74.562H458.925M415.412 74.562H371.899M415.412 74.562L421.727 68.221M458.925 74.562L461.659 71.358L464.338 68.221M458.925 74.562H502.437M497.731 81.177L502.437 74.562M497.731 81.177H542.185M427.786 62.137H469.531M427.786 62.137L433.603 56.296M427.786 62.137H386.041M427.786 62.137L421.727 68.221M469.531 62.137L468.893 62.884L464.338 68.221M469.531 62.137L474.517 56.296M469.531 62.137H511.276M433.603 56.296H474.517M433.603 56.296H392.69M433.603 56.296L439.194 50.682M386.041 62.137L392.69 56.296M386.041 62.137L379.117 68.221M421.727 68.221H464.338M421.727 68.221H379.117M464.338 68.221H506.948M474.517 56.296L479.309 50.682M474.517 56.296H515.431M511.276 62.137L515.431 56.296M511.276 62.137L506.948 68.221M511.276 62.137H553.021M392.69 56.296L399.079 50.682M439.194 50.682H479.309M439.194 50.682H399.079M439.194 50.682L444.57 45.284M479.309 50.682L483.918 45.283M479.309 50.682H519.424M515.431 56.296L519.424 50.682M515.431 56.296H556.345M449.744 40.088H488.352M449.744 40.088L454.728 35.085M449.744 40.088H411.136M449.744 40.088L444.57 45.284M488.352 40.088L492.624 35.085M488.352 40.088L486.709 42.014L485.6 43.313L483.918 45.283M488.352 40.088H526.96M454.728 35.085H492.624M454.728 35.085H416.832M454.728 35.085L459.53 30.262M411.136 40.088L416.832 35.085M411.136 40.088L405.223 45.283M444.57 45.284L483.918 45.283M444.57 45.284L405.223 45.283M492.624 35.085L494.186 33.255L495.215 32.049L496.741 30.262M492.624 35.085H530.52M483.918 45.283L523.265 45.284M526.96 40.088L527.862 38.819L530.52 35.085M526.96 40.088L526.506 40.727L526.049 41.368L524.667 43.313L524.201 43.966L523.265 45.284M526.96 40.088H565.568M416.832 35.085L422.321 30.262M459.53 30.262H496.741M459.53 30.262H422.321M459.53 30.262L463.02 26.757L464.163 25.611M496.741 30.262L498.744 27.915L500.711 25.61M496.741 30.262H533.951M530.52 35.085L530.956 34.472L531.389 33.862L533.105 31.45L533.951 30.262M530.52 35.085H568.416M504.542 21.122H468.633L471.885 17.857L472.95 16.787M472.95 16.787H508.243M472.95 16.787L477.121 12.599M472.95 16.787H437.657M432.724 21.121H468.633L464.73 25.041L464.163 25.611M432.724 21.121L437.657 16.787M432.724 21.121L427.614 25.61M464.163 25.611L500.711 25.61M464.163 25.611L427.614 25.61M504.542 21.121L507.33 17.857L507.787 17.32L508.243 16.787M504.542 21.121L502.643 23.346L500.711 25.61M504.542 21.121H540.452M508.243 16.787H543.536M508.243 16.787L511.818 12.599M500.711 25.61H537.259M540.452 21.121L543.536 16.787M540.452 21.121L537.259 25.61M540.452 21.121H576.362M477.121 12.599H511.818M477.121 12.599H442.424M437.657 16.787L441.248 13.633L442.424 12.599M543.536 16.787H578.828M543.536 16.787L545.779 13.633L546.515 12.599M511.818 12.599H546.515M429.601 449.107H526.401M429.601 449.107L442.664 418.502M429.601 449.107H332.802M429.601 449.107L415.247 482.739M526.401 449.107L535.11 418.502M526.401 449.107L516.832 482.739M526.401 449.107H623.201M442.664 418.502H535.11M442.664 418.502H350.219M442.664 418.502L454.602 390.531M332.802 449.107L350.219 418.502M332.802 449.107L313.662 482.739M415.247 482.739H516.832M415.247 482.739L399.4 519.868M415.247 482.739H313.662M535.11 418.502L543.068 390.531M535.11 418.502H627.555M516.832 482.739L506.267 519.868M516.832 482.739H618.415M623.201 449.107L627.555 418.502M623.201 449.107L618.415 482.739M623.201 449.107H720M350.219 418.502L366.137 390.531M454.602 390.531H543.068M454.602 390.531H366.137M454.602 390.531L465.555 364.869M543.068 390.531L550.37 364.869M543.068 390.531H631.534M627.555 418.502L631.534 390.531M627.555 418.502H720M475.64 341.241H557.093M475.64 341.241L484.956 319.415M475.64 341.241H394.186M475.64 341.241L465.555 364.869M557.093 341.241L563.304 319.415M557.093 341.241L550.37 364.869M557.093 341.241H638.547M484.956 319.415H563.304M484.956 319.415H406.608M484.956 319.415L493.587 299.192M394.186 341.241L406.608 319.415M394.186 341.241L380.741 364.869M465.555 364.869H550.37M465.555 364.869H380.741M563.304 319.415L569.058 299.192M563.304 319.415H641.652M550.37 364.869H635.185M638.547 341.241L641.652 319.415M638.547 341.241L635.185 364.869M638.547 341.241H720M406.608 319.415L418.117 299.192M493.587 299.192H569.058M493.587 299.192H418.117M493.587 299.192L501.607 280.401M569.058 299.192L574.405 280.401M569.058 299.192H644.529M641.652 319.415L644.529 299.192M641.652 319.415H720M509.079 262.896H579.386M509.079 262.896L516.056 246.549M509.079 262.896H438.772M509.079 262.896L501.607 280.401M579.386 262.896L584.037 246.549M579.386 262.896L574.405 280.401M579.386 262.896H649.693M516.056 246.549H584.037M516.056 246.549H448.075M516.056 246.549L522.586 231.25M438.772 262.896L448.075 246.549M438.772 262.896L428.81 280.401M501.607 280.401H574.405M501.607 280.401H428.81M584.037 246.549L588.391 231.25M584.037 246.549H652.019M574.405 280.401H647.202M649.693 262.896L652.019 246.549M649.693 262.896L647.202 280.401M649.693 262.896H720M448.075 246.549L456.781 231.25M522.586 231.25H588.391M522.586 231.25H456.781M522.586 231.25L528.711 216.899M588.391 231.25L592.474 216.899M588.391 231.25H654.195M652.019 246.549L654.195 231.25M652.019 246.549H720M534.468 203.412H596.311M534.468 203.412L539.887 190.713M534.468 203.412H472.623M534.468 203.412L528.711 216.899M596.311 203.412L599.925 190.713M596.311 203.412L592.474 216.899M596.311 203.412H658.156M539.887 190.713H599.925M539.887 190.713H479.85M539.887 190.713L545 178.735M472.623 203.412L479.85 190.713M472.623 203.412L464.948 216.899M528.711 216.899H592.474M528.711 216.899H464.948M599.925 190.713L603.333 178.735M599.925 190.713H659.963M592.474 216.899H656.237M658.156 203.412L659.963 190.713M658.156 203.412L656.237 216.899M658.156 203.412H720M479.85 190.713L486.666 178.735M545 178.735H603.333M545 178.735H486.666M545 178.735L549.83 167.419M603.333 178.735L606.554 167.419M603.333 178.735H661.667M659.963 190.713L661.667 178.735M659.963 190.713H720M554.4 156.709H609.601M554.4 156.709L558.732 146.561M554.4 156.709H499.201M554.4 156.709L549.83 167.419M609.601 156.709L612.488 146.561M609.601 156.709L606.554 167.419M609.601 156.709H664.8M558.732 146.561H612.488M558.732 146.561H504.977M558.732 146.561L562.843 136.929M499.201 156.709L504.977 146.561M499.201 156.709L493.106 167.419M549.83 167.419H606.554M549.83 167.419H493.106M612.488 146.561L615.229 136.929M612.488 146.561H666.244M606.554 167.419H663.276M664.8 156.709L666.244 146.561M664.8 156.709L663.276 167.419M664.8 156.709H720M504.977 146.561L510.457 136.929M562.843 136.929H615.229M562.843 136.929H510.457M562.843 136.929L566.75 127.777M615.229 136.929L617.833 127.777M615.229 136.929H667.615M666.244 146.561L667.615 136.929M666.244 146.561H720M570.466 119.068H620.311M570.466 119.068L574.007 110.773M570.466 119.068H520.622M570.466 119.068L566.75 127.777M620.311 119.068L622.672 110.773M620.311 119.068L617.833 127.777M620.311 119.068H670.156M574.007 110.773H622.672M574.007 110.773H525.343M574.007 110.773L575.292 107.762L577.384 102.86M520.622 119.068L525.343 110.773M520.622 119.068L515.666 127.777M566.75 127.777H617.833M566.75 127.777H515.666M622.672 110.773L624.923 102.86M622.672 110.773H671.336M617.833 127.777H668.916M670.156 119.068L671.336 110.773M670.156 119.068L668.916 127.777M670.156 119.068H720M525.343 110.773L529.846 102.86M577.384 102.86H624.923M577.384 102.86H529.846M577.384 102.86L580.608 95.306M624.923 102.86L627.072 95.306M624.923 102.86H672.461M671.336 110.773L672.461 102.86M671.336 110.773H720M583.69 88.085H629.127M583.69 88.085L586.639 81.177M583.69 88.085H538.253M583.69 88.085L581.392 93.471L580.608 95.306M629.127 88.085L629.874 85.459L631.092 81.177M629.127 88.085L627.072 95.306M629.127 88.085H674.564M586.639 81.177L586.998 80.335L589.462 74.562M586.639 81.177H631.092M586.639 81.177H542.185M538.253 88.085L542.185 81.177M538.253 88.085L537.75 88.97L536.222 91.655L534.144 95.306M580.608 95.306H627.072M580.608 95.306H534.144M631.092 81.177L631.808 78.663L632.043 77.834L632.279 77.01L632.975 74.562M631.092 81.177H675.547M627.072 95.306H673.536M674.564 88.085L675.547 81.177M674.564 88.085L673.536 95.306M674.564 88.085H720M589.462 74.562H632.975M589.462 74.562H545.95M589.462 74.562L592.169 68.221M542.185 81.177L545.95 74.562M632.975 74.562L633.661 72.153L633.886 71.358L634.78 68.221M632.975 74.562H676.488M675.547 81.177L675.666 80.335L676.488 74.562M675.547 81.177H720M594.765 62.137H636.51M594.765 62.137L596.024 59.187L596.336 58.459L596.644 57.734L596.953 57.014L597.258 56.296M594.765 62.137H553.021M594.765 62.137L592.169 68.221M636.51 62.137L637.763 57.734L637.969 57.014L638.172 56.296M636.51 62.137L634.78 68.221M636.51 62.137H678.255M597.258 56.296H638.172M597.258 56.296H556.345M597.258 56.296L598.767 52.761L599.064 52.065L599.655 50.682M553.021 62.137L555.526 57.734L556.345 56.296M553.021 62.137L551.739 64.389L550.437 66.676L549.558 68.221M592.169 68.221H634.78M592.169 68.221H549.558M638.172 56.296L639.178 52.761L639.377 52.065L639.573 51.372L639.77 50.682M638.172 56.296H679.086M634.78 68.221H677.389M678.255 62.137L679.086 56.296M678.255 62.137L677.935 64.389L677.609 66.676L677.389 68.221M678.255 62.137H720M556.345 56.296L559.539 50.682M599.655 50.682H639.77M599.655 50.682H559.539M599.655 50.682L601.959 45.283M639.77 50.682L641.306 45.283M639.77 50.682H679.885M679.086 56.296L679.885 50.682M679.086 56.296H720M604.176 40.088H642.784M604.176 40.088L606.312 35.085M604.176 40.088H565.568M604.176 40.088L603.629 41.368L602.8 43.313L601.959 45.283M642.784 40.088L642.602 40.727L641.493 44.623L641.306 45.283M642.784 40.088L644.208 35.085M642.784 40.088H681.392M606.312 35.085H644.208M606.312 35.085H568.416M606.312 35.085L608.371 30.262M565.568 40.088L568.066 35.699L568.416 35.085M565.568 40.088L565.205 40.727L564.839 41.368L564.473 42.014L562.612 45.283M601.959 45.283H641.306M601.959 45.283H562.612M641.306 45.283L680.653 45.284M644.208 35.085L644.729 33.255L644.9 32.651L645.072 32.049L645.58 30.262M644.208 35.085H682.104M681.392 40.088L681.929 36.318L682.016 35.699L682.104 35.085M681.392 40.088L680.653 45.284M681.392 40.088H720M568.416 35.085L571.161 30.262M608.371 30.262H645.58M608.371 30.262H571.161M608.371 30.262L608.873 29.082L609.123 28.498L609.372 27.915L609.62 27.335L609.866 26.757L610.112 26.183L610.355 25.61M645.58 30.262L645.748 29.671L645.916 29.083L646.248 27.915L646.413 27.335L646.578 26.757L646.741 26.183L646.904 25.61M645.58 30.262H682.79M682.104 35.085L682.79 30.262M682.104 35.085H720M648.181 21.122H612.272L613.665 17.857L614.121 16.787M614.121 16.787H649.414M614.121 16.787L615.688 13.115L615.909 12.599M614.121 16.787H578.828M576.362 21.121H612.272L611.56 22.786L611.322 23.346L611.082 23.908L610.355 25.61M576.362 21.121L578.828 16.787M576.362 21.121L573.807 25.61M610.355 25.61H646.904M610.355 25.61H573.807M648.181 21.121L648.338 20.571L648.648 19.478L648.957 18.395L649.414 16.787M648.181 21.121L647.548 23.346L647.388 23.908L647.066 25.04L646.904 25.61M648.181 21.121H684.09M649.414 16.787L649.566 16.256L649.716 15.726L649.866 15.2L650.015 14.675L650.459 13.115L650.606 12.599M649.414 16.787H684.707M646.904 25.61L683.452 25.611M684.09 21.121L684.707 16.787M684.09 21.121L683.452 25.611M684.09 21.121H720M615.909 12.599H650.606M615.909 12.599H581.212M578.828 16.787L580.031 14.675L580.919 13.115L581.212 12.599M650.606 12.599H685.303M684.707 16.787L684.782 16.256L684.858 15.726L684.933 15.2L685.303 12.599M684.707 16.787H720M816.799 449.107H913.599M816.799 449.107L812.445 418.502M816.799 449.107H720M816.799 449.107L821.585 482.739M913.599 449.107L904.891 418.502M913.599 449.107L923.168 482.739M913.599 449.107H1010.4M812.445 418.502H904.891M812.445 418.502H720M812.445 418.502L808.466 390.531M720 449.107V418.502M720 449.107V482.739M821.585 482.739H923.168M821.585 482.739L826.867 519.868M821.585 482.739H720M904.891 418.502L896.932 390.531M904.891 418.502H997.336M923.168 482.739L933.733 519.868M923.168 482.739H1024.75M1010.4 449.107L997.336 418.502M1010.4 449.107L1024.75 482.739M1010.4 449.107H1107.2M720 418.502V390.531M808.466 390.531H896.932M808.466 390.531H720M808.466 390.531L804.815 364.869M896.932 390.531L889.63 364.869M896.932 390.531H985.398M997.336 418.502L985.398 390.531M997.336 418.502H1089.78M801.453 341.241H882.907M801.453 341.241L798.348 319.415M801.453 341.241H720M801.453 341.241L804.815 364.869M882.907 341.241L876.696 319.415M882.907 341.241L889.63 364.869M882.907 341.241H964.36M798.348 319.415H876.696M798.348 319.415H720M798.348 319.415L795.471 299.192M720 341.241V319.415M720 341.241V364.869M804.815 364.869H889.63M804.815 364.869H720M876.696 319.415L870.942 299.192M876.696 319.415H955.044M889.63 364.869H974.445M964.36 341.241L955.044 319.415M964.36 341.241L974.445 364.869M964.36 341.241H1045.81M720 319.415V299.192M795.471 299.192H870.942M795.471 299.192H720M795.471 299.192L792.798 280.401M870.942 299.192L865.595 280.401M870.942 299.192H946.413M955.044 319.415L946.413 299.192M955.044 319.415H1033.39M790.307 262.896H860.614M790.307 262.896L787.981 246.549M790.307 262.896H720M790.307 262.896L792.798 280.401M860.614 262.896L855.963 246.549M860.614 262.896L865.595 280.401M860.614 262.896H930.921M787.981 246.549H855.963M787.981 246.549H720M787.981 246.549L785.805 231.25M720 262.896V246.549M720 262.896V280.401M792.798 280.401H865.595M792.798 280.401H720M855.963 246.549L851.609 231.25M855.963 246.549H923.944M865.595 280.401H938.393M930.921 262.896L923.944 246.549M930.921 262.896L938.393 280.401M930.921 262.896H1001.23M720 246.549V231.25M785.805 231.25H851.609M785.805 231.25H720M785.805 231.25L783.763 216.899M851.609 231.25L847.526 216.899M851.609 231.25H917.414M923.944 246.549L917.414 231.25M923.944 246.549H991.925M781.844 203.412H843.689M781.844 203.412L780.037 190.713M781.844 203.412H720M781.844 203.412L783.763 216.899M843.689 203.412L840.075 190.713M843.689 203.412L847.526 216.899M843.689 203.412H905.532M780.037 190.713H840.075M780.037 190.713H720M780.037 190.713L778.333 178.735M720 203.412V190.713M720 203.412V216.899M783.763 216.899H847.526M783.763 216.899H720M840.075 190.713L836.667 178.735M840.075 190.713H900.113M847.526 216.899H911.289M905.532 203.412L900.113 190.713M905.532 203.412L911.289 216.899M905.532 203.412H967.377M720 190.713V178.735M778.333 178.735H836.667M778.333 178.735H720M778.333 178.735L776.724 167.419M836.667 178.735L833.446 167.419M836.667 178.735H895M900.113 190.713L895 178.735M900.113 190.713H960.15M775.2 156.709H830.399M775.2 156.709L773.756 146.561M775.2 156.709H720M775.2 156.709L776.724 167.419M830.399 156.709L827.512 146.561M830.399 156.709L833.446 167.419M830.399 156.709H885.6M773.756 146.561H827.512M773.756 146.561H720M773.756 146.561L772.385 136.929M720 156.709V146.561M720 156.709V167.419M776.724 167.419H833.446M776.724 167.419H720M827.512 146.561L824.772 136.929M827.512 146.561H881.268M833.446 167.419H890.17M885.6 156.709L881.268 146.561M885.6 156.709L890.17 167.419M885.6 156.709H940.799M720 146.561V136.929M772.385 136.929H824.772M772.385 136.929H720M772.385 136.929L771.242 128.896L771.084 127.777M824.772 136.929L822.167 127.777M824.772 136.929H877.157M881.268 146.561L877.157 136.929M881.268 146.561H935.023M769.844 119.068H819.689M769.844 119.068L768.664 110.773M769.844 119.068H720M769.844 119.068L771.084 127.777M819.689 119.068L817.328 110.773M819.689 119.068L822.167 127.777M819.689 119.068H869.534M768.664 110.773H817.328M768.664 110.773H720M768.664 110.773L767.539 102.86M720 119.068V110.773M720 119.068V127.777M771.084 127.777H822.167M771.084 127.777H720M817.328 110.773L815.077 102.86M817.328 110.773H865.993M822.167 127.777H873.25M869.534 119.068L865.993 110.773M869.534 119.068L873.25 127.777M869.534 119.068H919.378M720 110.773V102.86M767.539 102.86H815.077M767.539 102.86H720M767.539 102.86L766.464 95.306M815.077 102.86L812.928 95.306M815.077 102.86H862.616M865.993 110.773L865.133 108.76L862.616 102.86M865.993 110.773H914.657M765.436 88.085H810.873M765.436 88.085L764.453 81.177M765.436 88.085H720M765.436 88.085L766.464 95.306M810.873 88.085L809.148 82.025L808.908 81.177M810.873 88.085L812.928 95.306M810.873 88.085H856.31M764.453 81.177L764.334 80.335L763.512 74.562M764.453 81.177H808.908M764.453 81.177H720M720 88.085V81.177M720 88.085V95.306M766.464 95.306H812.928M766.464 95.306H720M808.908 81.177L808.192 78.663L807.957 77.834L807.721 77.01L807.025 74.562M808.908 81.177H853.361M812.928 95.306H859.392M856.31 88.085L853.361 81.177M856.31 88.085L858.608 93.471L859.392 95.306M856.31 88.085H901.747M763.512 74.562H807.025M763.512 74.562H720M763.512 74.562L763.283 72.952L762.832 69.781L762.611 68.221M720 81.177V74.562M807.025 74.562L806.339 72.153L806.114 71.358L805.221 68.221M807.025 74.562H850.538M853.361 81.177L850.538 74.562M853.361 81.177H897.815M761.745 62.137H803.49M761.745 62.137L760.914 56.296M761.745 62.137H720M761.745 62.137L762.065 64.389L762.174 65.147L762.281 65.91L762.5 67.446L762.611 68.221M803.49 62.137L802.237 57.734L801.827 56.296M803.49 62.137L805.221 68.221M803.49 62.137H845.235M760.914 56.296H801.827M760.914 56.296H720M760.914 56.296L760.115 50.682M720 62.137V56.296M720 62.137V68.221M762.611 68.221H805.221M762.611 68.221H720M801.827 56.296L800.822 52.761L800.623 52.065L800.427 51.372L800.23 50.682M801.827 56.296H842.742M805.221 68.221H847.831M845.235 62.137L843.664 58.459L843.356 57.733L843.047 57.013L842.742 56.296M845.235 62.137L847.501 67.446L847.831 68.221M845.235 62.137H886.979M720 56.296V50.682M760.115 50.682H800.23M760.115 50.682H720M760.115 50.682L759.347 45.284M800.23 50.682L798.694 45.283M800.23 50.682H840.345M842.742 56.296L841.532 53.461L841.233 52.761L840.936 52.065L840.345 50.682M842.742 56.296H883.655M758.608 40.088H797.216M758.608 40.088L757.896 35.085M758.608 40.088H720M758.608 40.088L759.347 45.284M797.216 40.088L797.398 40.727L798.507 44.623L798.694 45.283M797.216 40.088L795.792 35.085M797.216 40.088H835.824M757.896 35.085H795.792M757.896 35.085H720M757.896 35.085L757.21 30.262M720 40.088V35.085M720 40.088V45.283M759.347 45.284L798.694 45.283M759.347 45.284L720 45.283M798.694 45.283H838.041M795.792 35.085L795.271 33.255L795.1 32.651L794.928 32.049L794.42 30.262M795.792 35.085H833.688M835.824 40.088L833.688 35.085M835.824 40.088L836.371 41.368L837.2 43.313L838.041 45.283M835.824 40.088H874.432M720 35.085V30.263M757.21 30.262H794.42M757.21 30.262L720 30.263M757.21 30.262L756.548 25.611M794.42 30.262L794.252 29.671L793.752 27.915L793.587 27.335L793.422 26.757L793.259 26.183L793.096 25.61M794.42 30.262H831.63M833.688 35.085L831.63 30.262M833.688 35.085H871.584M791.819 21.122H755.91L755.293 16.787M755.293 16.787L755.218 16.256L755.142 15.726L755.067 15.2L754.697 12.599M755.293 16.787H790.585M755.293 16.787H720M720 21.121H755.91L756.548 25.611M720 21.121V16.787M720 21.121V25.61M756.548 25.611L793.096 25.61M756.548 25.611L720 25.61M791.819 21.121L791.662 20.571L791.351 19.478L791.197 18.935L790.89 17.857L790.738 17.32L790.585 16.787M791.819 21.121L792.452 23.346L792.612 23.908L792.934 25.04L793.096 25.61M791.819 21.121H827.728M790.585 16.787H825.879M790.585 16.787L790.284 15.727L790.134 15.2L789.985 14.675L789.541 13.115L789.394 12.599M793.096 25.61L829.645 25.611M827.728 21.121L826.335 17.857L825.879 16.787M827.728 21.121L828.918 23.908L829.645 25.611M827.728 21.121H863.638M754.697 12.599H789.394M754.697 12.599H720M720 16.787V12.599M825.879 16.787H861.172M825.879 16.787L824.532 13.633L824.091 12.599M789.394 12.599H824.091M1204 449.107H1300.8M1204 449.107L1182.23 418.502M1204 449.107H1107.2M1204 449.107L1227.92 482.739M1300.8 449.107L1274.67 418.502M1300.8 449.107L1329.51 482.739M1300.8 449.107H1397.6M1182.23 418.502H1274.67M1182.23 418.502H1089.78M1182.23 418.502L1162.33 390.531M1107.2 449.107L1089.78 418.502M1107.2 449.107L1126.34 482.739M1227.92 482.739H1329.51M1227.92 482.739L1254.33 519.868M1227.92 482.739H1126.34M1274.67 418.502L1250.8 390.531M1274.67 418.502H1367.12M1329.51 482.739L1361.2 519.868M1329.51 482.739H1431.09M1397.6 449.107L1367.12 418.502M1397.6 449.107L1431.09 482.739M1397.6 449.107H1448.61M1089.78 418.502L1073.86 390.531M1162.33 390.531H1250.8M1162.33 390.531H1073.86M1162.33 390.531L1144.07 364.869M1250.8 390.531L1228.89 364.869M1250.8 390.531H1339.26M1367.12 418.502L1339.26 390.531M1367.12 418.502H1448.61M1127.27 341.241H1208.72M1127.27 341.241L1111.74 319.415M1127.27 341.241H1045.81M1127.27 341.241L1144.07 364.869M1208.72 341.241L1190.09 319.415M1208.72 341.241L1228.89 364.869M1208.72 341.241H1290.17M1111.74 319.415H1190.09M1111.74 319.415H1033.39M1111.74 319.415L1097.35 299.192M1045.81 341.241L1033.39 319.415M1045.81 341.241L1059.26 364.869M1144.07 364.869H1228.89M1144.07 364.869H1059.26M1190.09 319.415L1172.83 299.192M1190.09 319.415H1268.44M1228.89 364.869H1313.7M1290.17 341.241L1268.44 319.415M1290.17 341.241L1313.7 364.869M1290.17 341.241H1371.63M1033.39 319.415L1021.88 299.192M1097.35 299.192H1172.83M1097.35 299.192H1021.88M1097.35 299.192L1083.99 280.401M1172.83 299.192L1156.79 280.401M1172.83 299.192H1248.3M1268.44 319.415L1248.3 299.192M1268.44 319.415H1346.78M1071.54 262.896H1141.84M1071.54 262.896L1059.91 246.549M1071.54 262.896H1001.23M1071.54 262.896L1083.99 280.401M1141.84 262.896L1127.89 246.549M1141.84 262.896L1156.79 280.401M1141.84 262.896H1212.15M1059.91 246.549H1127.89M1059.91 246.549H991.925M1059.91 246.549L1049.02 231.25M1001.23 262.896L991.925 246.549M1001.23 262.896L1011.19 280.401M1083.99 280.401H1156.79M1083.99 280.401H1011.19M1127.89 246.549L1114.83 231.25M1127.89 246.549H1195.87M1156.79 280.401H1229.58M1212.15 262.896L1195.87 246.549M1212.15 262.896L1229.58 280.401M1212.15 262.896H1282.46M991.925 246.549L983.219 231.25M1049.02 231.25H1114.83M1049.02 231.25H983.219M1049.02 231.25L1038.82 216.899M1114.83 231.25L1102.58 216.899M1114.83 231.25H1180.63M1195.87 246.549L1180.63 231.25M1195.87 246.549H1263.85M1029.22 203.412H1091.07M1029.22 203.412L1020.19 190.713M1029.22 203.412H967.377M1029.22 203.412L1038.82 216.899M1091.07 203.412L1080.23 190.713M1091.07 203.412L1102.58 216.899M1091.07 203.412H1152.91M1020.19 190.713H1080.23M1020.19 190.713H960.15M1020.19 190.713L1011.67 178.735M967.377 203.412L960.15 190.713M967.377 203.412L975.052 216.899M1038.82 216.899H1102.58M1038.82 216.899H975.052M1080.23 190.713L1070 178.735M1080.23 190.713H1140.26M1102.58 216.899H1166.34M1152.91 203.412L1140.26 190.713M1152.91 203.412L1166.34 216.899M1152.91 203.412H1214.75M960.15 190.713L953.334 178.735M1011.67 178.735H1070M1011.67 178.735H953.334M1011.67 178.735L1003.62 167.419M1070 178.735L1060.34 167.419M1070 178.735H1128.33M1140.26 190.713L1128.33 178.735M1140.26 190.713H1200.3M995.999 156.709H1051.2M995.999 156.709L988.78 146.561M995.999 156.709H940.799M995.999 156.709L1003.62 167.419M1051.2 156.709L1042.54 146.561M1051.2 156.709L1060.34 167.419M1051.2 156.709H1106.4M988.78 146.561H1042.54M988.78 146.561H935.023M988.78 146.561L981.928 136.929M940.799 156.709L939.326 154.122L935.023 146.561M940.799 156.709L946.894 167.419M1003.62 167.419H1060.34M1003.62 167.419H946.894M1042.54 146.561L1034.31 136.929M1042.54 146.561H1096.29M1060.34 167.419H1117.06M1106.4 156.709L1096.29 146.561M1106.4 156.709L1117.06 167.419M1106.4 156.709H1161.6M935.023 146.561L929.543 136.929M981.928 136.929H1034.31M981.928 136.929H929.543M981.928 136.929L975.418 127.777M1034.31 136.929L1026.5 127.777M1034.31 136.929H1086.7M1096.29 146.561L1086.7 136.929M1096.29 146.561H1150.05M969.223 119.068H1019.07M969.223 119.068L963.321 110.773M969.223 119.068H919.378M969.223 119.068L975.418 127.777M1019.07 119.068L1011.99 110.773M1019.07 119.068L1026.5 127.777M1019.07 119.068H1068.91M963.321 110.773H1011.99M963.321 110.773H914.657M963.321 110.773L957.693 102.86M919.378 119.068L914.657 110.773M919.378 119.068L924.334 127.777M975.418 127.777H1026.5M975.418 127.777H924.334M1011.99 110.773L1005.23 102.86M1011.99 110.773H1060.65M1026.5 127.777H1077.58M1068.91 119.068L1060.65 110.773M1068.91 119.068L1077.58 127.777M1068.91 119.068H1118.76M914.657 110.773L910.154 102.86M957.693 102.86H1005.23M957.693 102.86H910.154M957.693 102.86L952.319 95.306M1005.23 102.86L998.783 95.306M1005.23 102.86H1052.77M1060.65 110.773L1052.77 102.86M1060.65 110.773H1109.31M947.183 88.085L947.812 88.97L948.446 89.86L952.319 95.306M947.183 88.085H992.619M947.183 88.085L942.269 81.177M947.183 88.085H901.747M952.319 95.306H998.783M952.319 95.306H905.856M992.619 88.085L986.723 81.177M992.619 88.085L998.783 95.306M992.619 88.085H1038.06M942.269 81.177H986.723M942.269 81.177H897.815M942.269 81.177L937.563 74.562M901.747 88.085L897.815 81.177M901.747 88.085L903.778 91.655L905.856 95.306M986.723 81.177L981.075 74.562M986.723 81.177H1031.18M998.783 95.306H1045.25M1038.06 88.085L1031.18 81.177M1038.06 88.085L1045.25 95.306M1038.06 88.085H1083.49M897.815 81.177L894.05 74.562M937.563 74.562H981.075M937.563 74.562H894.05M937.563 74.562L936.417 72.952L933.052 68.221M981.075 74.562L979.018 72.153L978.341 71.358L975.662 68.221M981.075 74.562H1024.59M1031.18 81.177L1024.59 74.562M1031.18 81.177H1075.63M928.724 62.137H970.47M928.724 62.137L924.569 56.296M928.724 62.137H886.979M928.724 62.137L933.052 68.221M970.47 62.137L967.329 58.459L965.483 56.296M970.47 62.137L975.662 68.221M970.47 62.137H1012.21M924.569 56.296H965.483M924.569 56.296H883.655M924.569 56.296L921.067 51.372L920.576 50.682M886.979 62.137L884.474 57.734L883.655 56.296M886.979 62.137L888.261 64.389L890.442 68.221M933.052 68.221H975.662M933.052 68.221H890.442M965.483 56.296L960.691 50.682M965.483 56.296H1006.4M975.662 68.221H1018.27M1012.21 62.137L1006.4 56.296M1012.21 62.137L1018.27 68.221M1012.21 62.137H1053.96M883.655 56.296L880.461 50.682M920.576 50.682H960.691M920.576 50.682H880.461M920.576 50.682L916.735 45.284M960.691 50.682L956.082 45.283M960.691 50.682H1000.81M1006.4 56.296L1002.88 52.761L1002.18 52.065L1000.81 50.682M1006.4 56.296H1047.31M913.04 40.088H951.648M913.04 40.088L912.138 38.819L909.48 35.085M913.04 40.088H874.432M913.04 40.088L913.951 41.368L915.799 43.966L916.735 45.284M951.648 40.088L947.376 35.085M951.648 40.088L953.291 42.014L954.4 43.313L956.082 45.283M951.648 40.088H990.256M909.48 35.085H947.376M909.48 35.085H871.584M909.48 35.085L906.895 31.45L906.049 30.262M874.432 40.088L871.934 35.699L871.584 35.085M874.432 40.088L874.795 40.727L875.161 41.368L875.527 42.014L877.388 45.283M916.735 45.284L956.082 45.283M916.735 45.284L877.388 45.283M947.376 35.085L945.814 33.255L944.785 32.049L943.259 30.262M947.376 35.085H985.272M956.082 45.283L995.43 45.284M990.256 40.088L985.272 35.085M990.256 40.088L993.466 43.313L994.118 43.966L995.43 45.284M990.256 40.088H1028.86M871.584 35.085L868.839 30.262M906.049 30.262H943.259M906.049 30.262H868.839M906.049 30.262L902.741 25.611M943.259 30.262L941.256 27.915L940.761 27.335L939.289 25.61M943.259 30.262H980.47M985.272 35.085L980.47 30.262M985.272 35.085H1023.17M935.458 21.122H899.548L897.608 18.395L896.464 16.787M896.464 16.787H931.757M896.464 16.787L894.962 14.675L894.221 13.633L893.852 13.115L893.485 12.599M896.464 16.787H861.172M863.638 21.121H899.548L902.741 25.611M863.638 21.121L861.78 17.857L861.172 16.787M863.638 21.121L866.193 25.61M902.741 25.611L939.289 25.61M902.741 25.611L866.193 25.61M935.458 21.121L932.67 17.857L932.213 17.32L931.757 16.787M935.458 21.121L937.357 23.346L939.289 25.61M935.458 21.121H971.367M931.757 16.787H967.05M931.757 16.787L928.182 12.599M939.289 25.61H975.837M971.367 21.121L968.115 17.857L967.05 16.787M971.367 21.121L975.27 25.041L975.837 25.61M971.367 21.121H1007.28M893.485 12.599H928.182M893.485 12.599H858.788M861.172 16.787L859.969 14.675L859.081 13.115L858.788 12.599M967.05 16.787H1002.34M967.05 16.787L962.879 12.599M928.182 12.599H962.879M1425.13 319.415H1346.78M1425.13 319.415L1399.24 299.192M1425.13 319.415H1448.61M1425.13 319.415L1448.61 337.748M1346.78 319.415L1323.77 299.192M1346.78 319.415L1371.63 341.241M1399.24 299.192L1375.18 280.401M1399.24 299.192H1323.77M1399.24 299.192H1448.61M1448.61 319.415V299.192M1448.61 319.415V337.748M1448.61 337.748V341.241M1352.76 262.896H1423.07M1352.76 262.896L1331.83 246.549M1352.76 262.896H1282.46M1352.76 262.896L1375.18 280.401M1423.07 262.896L1399.81 246.549M1423.07 262.896L1447.98 280.401M1423.07 262.896H1448.61M1331.83 246.549H1399.81M1331.83 246.549H1263.85M1331.83 246.549L1312.24 231.25M1282.46 262.896L1263.85 246.549M1282.46 262.896L1302.38 280.401M1375.18 280.401H1447.98M1375.18 280.401H1302.38M1399.81 246.549L1378.05 231.25M1399.81 246.549H1448.61M1447.98 280.401H1448.61M1447.98 280.401L1448.61 280.845M1448.61 262.896V246.549M1448.61 262.896V280.401M1263.85 246.549L1246.44 231.25M1312.24 231.25H1378.05M1312.24 231.25H1246.44M1312.24 231.25L1293.87 216.899M1378.05 231.25L1357.63 216.899M1378.05 231.25H1443.85M1448.61 246.549V234.289M1276.6 203.412H1338.44M1276.6 203.412L1260.34 190.713M1276.6 203.412H1214.75M1276.6 203.412L1293.87 216.899M1338.44 203.412L1320.38 190.713M1338.44 203.412L1357.63 216.899M1338.44 203.412H1400.29M1260.34 190.713H1320.38M1260.34 190.713H1200.3M1260.34 190.713L1245 178.735M1214.75 203.412L1200.3 190.713M1214.75 203.412L1230.1 216.899M1293.87 216.899H1357.63M1293.87 216.899H1230.1M1320.38 190.713L1303.33 178.735M1320.38 190.713H1380.41M1357.63 216.899H1421.39M1400.29 203.412L1380.41 190.713M1400.29 203.412L1421.39 216.899M1400.29 203.412H1448.61M1200.3 190.713L1186.67 178.735M1245 178.735H1303.33M1245 178.735H1186.67M1245 178.735L1230.51 167.419M1303.33 178.735L1287.23 167.419M1303.33 178.735H1361.67M1380.41 190.713L1361.67 178.735M1380.41 190.713H1440.45M1216.8 156.709H1272M1216.8 156.709L1203.8 146.561M1216.8 156.709H1161.6M1216.8 156.709L1230.51 167.419M1272 156.709L1257.56 146.561M1272 156.709L1287.23 167.419M1272 156.709H1327.2M1203.8 146.561H1257.56M1203.8 146.561H1150.05M1203.8 146.561L1191.47 136.929M1161.6 156.709L1150.05 146.561M1161.6 156.709L1173.79 167.419M1230.51 167.419H1287.23M1230.51 167.419H1173.79M1257.56 146.561L1243.86 136.929M1257.56 146.561H1311.32M1287.23 167.419H1343.96M1327.2 156.709L1311.32 146.561M1327.2 156.709L1343.96 167.419M1327.2 156.709H1382.4M1150.05 146.561L1139.09 136.929M1191.47 136.929H1243.86M1191.47 136.929H1139.09M1191.47 136.929L1179.75 127.777M1243.86 136.929L1230.84 127.777M1243.86 136.929H1296.24M1311.32 146.561L1296.24 136.929M1311.32 146.561H1365.07M1168.6 119.068H1218.45M1168.6 119.068L1157.98 110.773M1168.6 119.068H1118.76M1168.6 119.068L1179.75 127.777M1218.45 119.068L1206.64 110.773M1218.45 119.068L1230.84 127.777M1218.45 119.068H1268.29M1157.98 110.773H1206.64M1157.98 110.773H1109.31M1157.98 110.773L1147.85 102.86M1118.76 119.068L1109.31 110.773M1118.76 119.068L1128.67 127.777M1179.75 127.777H1230.84M1179.75 127.777H1128.67M1206.64 110.773L1195.39 102.86M1206.64 110.773H1255.31M1230.84 127.777H1281.92M1268.29 119.068L1255.31 110.773M1268.29 119.068L1281.92 127.777M1268.29 119.068H1318.14M1109.31 110.773L1100.31 102.86M1147.85 102.86H1195.39M1147.85 102.86H1100.31M1147.85 102.86L1138.17 95.306M1195.39 102.86L1184.64 95.306M1195.39 102.86H1242.92M1255.31 110.773L1242.92 102.86M1255.31 110.773H1303.97M1128.93 88.085H1174.37M1128.93 88.085L1120.08 81.177M1128.93 88.085H1083.49M1128.93 88.085L1138.17 95.306M1174.37 88.085L1164.54 81.177M1174.37 88.085L1184.64 95.306M1174.37 88.085H1219.8M1120.08 81.177H1164.54M1120.08 81.177H1075.63M1120.08 81.177L1111.61 74.562M1083.49 88.085L1075.63 81.177M1083.49 88.085L1091.71 95.306M1138.17 95.306H1184.64M1138.17 95.306H1091.71M1164.54 81.177L1155.13 74.562M1164.54 81.177H1208.99M1184.64 95.306H1231.1M1219.8 88.085L1208.99 81.177M1219.8 88.085L1231.1 95.306M1219.8 88.085H1265.24M1075.63 81.177L1068.1 74.562M1111.61 74.562H1155.13M1111.61 74.562H1068.1M1111.61 74.562L1103.49 68.221M1155.13 74.562L1146.1 68.221M1155.13 74.562H1198.64M1208.99 81.177L1198.64 74.562M1208.99 81.177H1253.44M1095.7 62.137H1137.45M1095.7 62.137L1088.22 56.296M1095.7 62.137H1053.96M1095.7 62.137L1103.49 68.221M1137.45 62.137L1129.14 56.296M1137.45 62.137L1146.1 68.221M1137.45 62.137H1179.19M1088.22 56.296H1129.14M1088.22 56.296H1047.31M1088.22 56.296L1081.04 50.682M1053.96 62.137L1047.31 56.296M1053.96 62.137L1060.88 68.221M1103.49 68.221H1146.1M1103.49 68.221H1060.88M1129.14 56.296L1121.15 50.682M1129.14 56.296H1170.05M1146.1 68.221H1188.71M1179.19 62.137L1170.05 56.296M1179.19 62.137L1188.71 68.221M1179.19 62.137H1220.94M1047.31 56.296L1040.92 50.682M1081.04 50.682H1121.15M1081.04 50.682H1040.92M1081.04 50.682L1074.12 45.284M1121.15 50.682L1114.41 45.947L1113.47 45.284M1121.15 50.682H1161.27M1170.05 56.296L1161.27 50.682M1170.05 56.296H1210.97M1067.47 40.088H1106.08M1067.47 40.088L1061.06 35.085M1067.47 40.088H1028.86M1067.47 40.088L1069.11 41.368L1069.94 42.014L1074.12 45.284M1106.08 40.088L1098.96 35.085M1106.08 40.088L1113.47 45.284M1106.08 40.088H1144.69M1061.06 35.085H1098.96M1061.06 35.085H1023.17M1061.06 35.085L1054.89 30.262M1028.86 40.088L1023.17 35.085M1028.86 40.088L1034.78 45.283M1074.12 45.284H1113.47M1074.12 45.284L1034.78 45.283M1098.96 35.085L1092.1 30.262M1098.96 35.085H1136.86M1113.47 45.284H1152.82M1144.69 40.088L1136.86 35.085M1144.69 40.088L1152.82 45.284M1144.69 40.088H1183.3M1023.17 35.085L1017.68 30.262M1054.89 30.262H1092.1M1054.89 30.262H1017.68M1054.89 30.262L1048.93 25.611M1092.1 30.262L1085.48 25.611M1092.1 30.262H1129.31M1136.86 35.085L1129.31 30.262M1136.86 35.085H1174.75M1079.1 21.122H1043.19L1037.64 16.787M1037.64 16.787H1072.93M1037.64 16.787L1032.93 13.115L1032.27 12.599M1037.64 16.787H1002.34M1007.28 21.121H1043.19L1048.93 25.611M1007.28 21.121L1002.34 16.787M1007.28 21.121L1012.38 25.61M1048.93 25.611H1085.48M1048.93 25.611L1012.38 25.61M1079.1 21.121L1074.45 17.857L1073.69 17.32L1072.93 16.787M1079.1 21.121L1085.48 25.611M1079.1 21.121H1115M1072.93 16.787H1108.22M1072.93 16.787L1066.97 12.599M1085.48 25.611L1122.03 25.61M1115 21.121L1108.22 16.787M1115 21.121L1122.03 25.61M1115 21.121H1150.91M1032.27 12.599H1066.97M1032.27 12.599H997.576M1002.34 16.787L998.752 13.633L997.576 12.599M1108.22 16.787H1143.51M1108.22 16.787L1101.67 12.599M1066.97 12.599H1101.67M1437.6 156.709L1418.83 146.561M1437.6 156.709H1382.4M1437.6 156.709L1448.61 162.662M1437.6 156.709H1448.61M1418.83 146.561H1365.07M1418.83 146.561L1401.01 136.929M1418.83 146.561H1448.61M1382.4 156.709L1365.07 146.561M1382.4 156.709L1400.68 167.419M1448.61 162.662V156.709M1448.61 162.662V167.419M1448.61 156.709V146.561M1365.07 146.561L1348.63 136.929M1401.01 136.929L1384.09 127.777M1401.01 136.929H1348.63M1401.01 136.929H1448.61M1448.61 146.561V136.929M1367.98 119.068H1417.82M1367.98 119.068L1352.64 110.773M1367.98 119.068H1318.14M1367.98 119.068L1384.09 127.777M1417.82 119.068L1401.3 110.773M1417.82 119.068L1435.17 127.777M1417.82 119.068H1448.61M1352.64 110.773H1401.3M1352.64 110.773H1303.97M1352.64 110.773L1338 102.86M1318.14 119.068L1303.97 110.773M1318.14 119.068L1333 127.777M1384.09 127.777H1435.17M1384.09 127.777H1333M1401.3 110.773L1385.54 102.86M1401.3 110.773H1448.61M1435.17 127.777L1448.61 134.523M1435.17 127.777H1448.61M1448.61 119.068H1448.98M1448.61 119.068V110.773M1448.61 119.068V127.777M1303.97 110.773L1290.46 102.86M1338 102.86H1385.54M1338 102.86H1290.46M1338 102.86L1324.03 95.306M1385.54 102.86L1370.49 95.306M1385.54 102.86H1433.08M1448.61 110.773V110.137M1310.68 88.085H1356.11M1310.68 88.085L1297.9 81.177M1310.68 88.085H1265.24M1310.68 88.085L1324.03 95.306M1356.11 88.085L1342.35 81.177M1356.11 88.085L1370.49 95.306M1356.11 88.085H1401.55M1297.9 81.177H1342.35M1297.9 81.177H1253.44M1297.9 81.177L1285.66 74.562M1265.24 88.085L1253.44 81.177M1265.24 88.085L1277.57 95.306M1324.03 95.306H1370.49M1324.03 95.306H1277.57M1342.35 81.177L1329.18 74.562M1342.35 81.177H1386.81M1370.49 95.306H1416.96M1401.55 88.085L1386.81 81.177M1401.55 88.085L1416.96 95.306M1401.55 88.085H1446.98M1253.44 81.177L1242.15 74.562M1285.66 74.562H1329.18M1285.66 74.562H1242.15M1285.66 74.562L1273.93 68.221M1329.18 74.562L1316.55 68.221M1329.18 74.562H1372.69M1386.81 81.177L1372.69 74.562M1386.81 81.177H1431.26M1262.68 62.137H1304.43M1262.68 62.137L1251.88 56.296M1262.68 62.137H1220.94M1262.68 62.137L1273.93 68.221M1304.43 62.137L1292.79 56.296M1304.43 62.137L1316.55 68.221M1304.43 62.137H1346.17M1251.88 56.296H1292.79M1251.88 56.296H1210.97M1251.88 56.296L1241.5 50.682M1220.94 62.137L1210.97 56.296M1220.94 62.137L1231.32 68.221M1273.93 68.221H1316.55M1273.93 68.221H1231.32M1292.79 56.296L1281.61 50.682M1292.79 56.296H1333.71M1316.55 68.221H1359.16M1346.17 62.137L1333.71 56.296M1346.17 62.137L1359.16 68.221M1346.17 62.137H1387.92M1210.97 56.296L1201.38 50.682M1241.5 50.682H1281.61M1241.5 50.682H1201.38M1241.5 50.682L1231.51 45.284M1281.61 50.682L1270.86 45.284M1281.61 50.682H1321.73M1333.71 56.296L1321.73 50.682M1333.71 56.296H1374.62M1221.9 40.088H1260.51M1221.9 40.088L1212.65 35.085M1221.9 40.088H1183.3M1221.9 40.088L1231.51 45.284M1260.51 40.088L1250.54 35.085M1260.51 40.088L1270.86 45.284M1260.51 40.088H1299.12M1212.65 35.085H1250.54M1212.65 35.085H1174.75M1212.65 35.085L1203.73 30.262M1183.3 40.088L1175.8 35.699L1174.75 35.085M1183.3 40.088L1192.17 45.283M1231.51 45.284H1270.86M1231.51 45.284L1192.17 45.283M1250.54 35.085L1240.94 30.262M1250.54 35.085H1288.44M1270.86 45.284H1310.21M1299.12 40.088L1288.44 35.085M1299.12 40.088L1310.21 45.284M1299.12 40.088H1337.73M1174.75 35.085L1166.52 30.262M1203.73 30.262H1240.94M1203.73 30.262H1166.52M1203.73 30.262L1195.13 25.611M1240.94 30.262L1231.67 25.611M1240.94 30.262H1278.15M1288.44 35.085L1278.15 30.262M1288.44 35.085H1326.34M1222.73 21.122H1186.82L1178.81 16.787M1178.81 16.787H1214.1M1178.81 16.787L1171.06 12.599M1178.81 16.787H1143.51M1150.91 21.121H1186.82L1195.13 25.611M1150.91 21.121L1143.51 16.787M1150.91 21.121L1158.58 25.61M1195.13 25.611H1231.67M1195.13 25.611L1158.58 25.61M1222.73 21.121L1214.1 16.787M1222.73 21.121L1231.67 25.611M1222.73 21.121H1258.64M1214.1 16.787H1249.39M1214.1 16.787L1205.76 12.599M1231.67 25.611L1268.22 25.61M1258.64 21.121L1249.39 16.787M1258.64 21.121L1268.22 25.61M1258.64 21.121H1294.55M1171.06 12.599H1205.76M1171.06 12.599H1136.36M1143.51 16.787L1136.36 12.599M1249.39 16.787H1284.69M1249.39 16.787L1240.45 12.599M1205.76 12.599H1240.45M1429.66 62.137L1415.53 56.296M1429.66 62.137H1387.92M1429.66 62.137L1444.38 68.221M1429.66 62.137H1448.61M1415.53 56.296H1374.62M1415.53 56.296L1401.96 50.682M1415.53 56.296H1448.61M1387.92 62.137L1374.62 56.296M1387.92 62.137L1401.77 68.221M1444.38 68.221H1401.77M1444.38 68.221H1448.61M1444.38 68.221L1448.61 69.97M1448.61 62.137V56.296M1448.61 62.137V68.221M1374.62 56.296L1361.84 50.682M1401.96 50.682H1442.07M1401.96 50.682H1361.84M1401.96 50.682L1388.9 45.284M1448.61 56.296V53.234M1376.34 40.088H1414.94M1376.34 40.088L1364.23 35.085M1376.34 40.088H1337.73M1376.34 40.088L1388.9 45.284M1414.94 40.088L1402.13 35.085M1414.94 40.088L1428.25 45.284M1414.94 40.088H1448.61M1364.23 35.085H1402.13M1364.23 35.085H1326.34M1364.23 35.085L1352.57 30.262M1337.73 40.088L1326.34 35.085M1337.73 40.088L1349.55 45.284M1388.9 45.284H1428.25M1388.9 45.284H1349.55M1402.13 35.085L1389.78 30.262M1402.13 35.085H1440.02M1428.25 45.284L1442.07 50.682M1428.25 45.284H1448.61M1448.61 40.088H1448.73M1448.61 40.088V38.259M1448.61 40.088V45.284M1326.34 35.085L1315.36 30.262M1352.57 30.262H1389.78M1352.57 30.262H1315.36M1352.57 30.262L1341.32 25.611M1389.78 30.262L1377.87 25.611M1389.78 30.262H1426.99M1440.02 35.085L1426.99 30.262M1440.02 35.085L1448.61 38.259M1440.02 35.085H1448.61M1366.37 21.122H1330.46L1319.98 16.787M1319.98 16.787H1355.27M1319.98 16.787L1309.85 12.599M1319.98 16.787H1284.69M1294.55 21.121H1330.46L1341.32 25.611M1294.55 21.121L1284.69 16.787M1294.55 21.121L1304.77 25.61M1341.32 25.611H1377.87M1341.32 25.611L1304.77 25.61M1366.37 21.121L1355.27 16.787M1366.37 21.121L1377.87 25.611M1366.37 21.121H1402.28M1355.27 16.787H1390.56M1355.27 16.787L1344.55 12.599M1377.87 25.611L1414.42 25.61M1402.28 21.121L1390.56 16.787M1402.28 21.121L1414.42 25.61M1402.28 21.121H1438.19M1309.85 12.599H1344.55M1309.85 12.599H1275.15M1284.69 16.787L1275.15 12.599M1390.56 16.787H1425.86M1390.56 16.787L1379.24 12.599M1344.55 12.599H1379.24M1414.42 25.61L1426.99 30.262M1414.42 25.61H1448.61M1438.19 21.121L1425.86 16.787M1438.19 21.121L1448.61 24.782M1425.86 16.787L1413.94 12.599M1425.86 16.787H1448.61M1379.24 12.599H1413.94M1379.24 12.599L1368.3 8.54904M1426.99 30.262H1448.61M1448.61 25.61V24.782M1448.61 25.61V30.262M1448.61 24.782V21.121V16.787M1438.19 21.122H1448.61M1413.94 12.599L1402.42 8.54904M1413.94 12.599H1448.61M1448.61 16.787V12.599M1448.61 12.599H1448.64L1448.61 12.59M1448.61 12.599V12.59M1448.61 38.259V35.085M1448.61 35.085V30.262M1315.36 30.262L1304.77 25.61M1315.36 30.262H1278.15M1304.77 25.61H1268.22M1442.07 50.682L1448.61 53.234M1442.07 50.682H1448.61M1448.61 45.284V50.682M1448.61 53.234V50.682M1361.84 50.682L1349.55 45.284M1361.84 50.682H1321.73M1349.55 45.284H1310.21M1268.22 25.61L1278.15 30.262M1240.45 12.599H1275.15M1275.15 12.599L1265.94 8.54904M1166.52 30.262L1158.58 25.61M1166.52 30.262H1129.31M1158.58 25.61H1122.03M1310.21 45.284L1321.73 50.682M1201.38 50.682L1192.17 45.283M1201.38 50.682H1161.27M1192.17 45.283L1152.82 45.284M1359.16 68.221L1372.69 74.562M1359.16 68.221H1401.77M1401.77 68.221L1416.2 74.562M1372.69 74.562H1416.2M1416.2 74.562L1431.26 81.177M1416.2 74.562H1448.61M1448.61 68.221V69.97M1448.61 69.97V74.562M1431.26 81.177L1446.98 88.085M1431.26 81.177H1448.61M1242.15 74.562L1231.32 68.221M1242.15 74.562H1198.64M1448.61 74.562H1448.84M1448.61 74.562V81.177M1231.32 68.221H1188.71M1416.96 95.306L1433.08 102.86M1416.96 95.306H1448.61M1446.98 88.085L1448.61 88.798M1446.98 88.085H1448.61M1448.61 81.177V88.085M1448.61 88.798L1449 88.97M1448.61 88.798V88.085M1448.61 88.798V95.306M1433.08 102.86H1448.61M1433.08 102.86L1448.61 110.137M1448.61 95.306V102.86M1448.61 102.86V110.137M1290.46 102.86L1277.57 95.306M1290.46 102.86H1242.92M1277.57 95.306H1231.1M1448.61 134.523L1448.76 134.598M1448.61 134.523V127.777M1448.61 134.523V136.929M1333 127.777H1281.92M1333 127.777L1348.63 136.929M1122.03 25.61L1129.31 30.262M1101.67 12.599H1136.36M1101.67 12.599L1095.33 8.54904M1136.36 12.599L1135.49 12.085L1133.74 11.065L1129.45 8.55004M1129.45 8.55004L1095.33 8.55104M1017.68 30.262L1012.38 25.61M1017.68 30.262H980.47M1012.38 25.61H975.837M1152.82 45.284L1161.27 50.682M1040.92 50.682L1034.78 45.283M1040.92 50.682H1000.81M1034.78 45.283L995.43 45.284M1188.71 68.221L1198.64 74.562M1068.1 74.562L1060.88 68.221M1068.1 74.562H1024.59M1060.88 68.221H1018.27M1231.1 95.306L1242.92 102.86M1100.31 102.86L1091.71 95.306M1100.31 102.86H1052.77M1091.71 95.306H1045.25M1281.92 127.777L1296.24 136.929M1296.24 136.929H1348.63M1139.09 136.929L1128.67 127.777M1139.09 136.929H1086.7M1128.67 127.777H1077.58M1343.96 167.419L1361.67 178.735M1343.96 167.419H1400.68M1400.68 167.419L1420 178.735M1400.68 167.419H1448.61M1361.67 178.735H1420M1420 178.735L1440.45 190.713M1420 178.735H1448.61M1448.61 167.419V178.735M1440.45 190.713H1448.61M1440.45 190.713L1448.61 195.491M1186.67 178.735L1173.79 167.419M1186.67 178.735H1128.33M1448.61 178.735V190.713M1173.79 167.419H1117.06M1421.39 216.899L1443.85 231.25M1421.39 216.899H1448.61M1448.61 203.412V195.491M1448.61 203.412V216.899M1448.61 190.713V195.491M1443.85 231.25L1448.61 234.289M1443.85 231.25H1448.61M1448.61 216.899V231.25M1448.61 234.289V231.25M1246.44 231.25L1230.1 216.899M1246.44 231.25H1180.63M1230.1 216.899H1166.34M1448.61 280.401V280.845M1448.61 280.845V299.192M1302.38 280.401H1229.58M1302.38 280.401L1323.77 299.192M975.837 25.61L976.98 26.757L980.47 30.262M962.879 12.599H997.576M962.879 12.599L958.847 8.54904M997.576 12.599L995.83 11.065L992.967 8.55004M992.967 8.55004L958.847 8.55104M868.839 30.262L868.169 29.083L866.193 25.61M868.839 30.262H831.63M866.193 25.61L829.645 25.611M995.43 45.284L1000.81 50.682M880.461 50.682L880.071 49.996L879.681 49.313L877.388 45.283M880.461 50.682H840.345M877.388 45.283H838.041M1018.27 68.221L1024.59 74.562M894.05 74.562L890.442 68.221M894.05 74.562H850.538M890.442 68.221H847.831M1045.25 95.306L1052.77 102.86M910.154 102.86L905.856 95.306M910.154 102.86H862.616M905.856 95.306H859.392M1077.58 127.777L1086.7 136.929M929.543 136.929L924.334 127.777M929.543 136.929H877.157M924.334 127.777H873.25M1117.06 167.419L1128.33 178.735M953.334 178.735L946.894 167.419M953.334 178.735H895M946.894 167.419H890.17M1166.34 216.899L1180.63 231.25M983.219 231.25L975.052 216.899M983.219 231.25H917.414M975.052 216.899H911.289M1229.58 280.401L1248.3 299.192M1248.3 299.192H1323.77M1021.88 299.192L1011.19 280.401M1021.88 299.192H946.413M1011.19 280.401H938.393M1313.7 364.869L1339.26 390.531M1313.7 364.869H1398.52M1371.63 341.241L1398.52 364.869M1371.63 341.241H1448.61M1398.52 364.869L1427.73 390.531M1398.52 364.869H1448.61M1448.61 341.241V364.869M1339.26 390.531H1427.73M1427.73 390.531H1448.61M1427.73 390.531L1448.61 408.877M1448.61 364.869V390.531M1448.61 418.502V408.877M1448.61 418.502V449.107M1073.86 390.531L1059.26 364.869M1073.86 390.531H985.398M1448.61 390.531V408.877M1059.26 364.869H974.445M1431.09 482.739L1448.61 500.329M1431.09 482.739H1448.61M1448.61 449.107V482.739M1361.2 519.868H1254.33M1361.2 519.868H1448.61M1448.61 500.329V482.739M1448.61 500.329V519.868M1254.33 519.868H1147.47M1448.61 519.868V520H-8.608V519.868M1147.47 519.868L1126.34 482.739M1147.47 519.868H1040.6M1126.34 482.739H1024.75M829.645 25.611L829.888 26.183L830.134 26.757L830.38 27.335L830.628 27.915L831.63 30.262M824.091 12.599L823.872 12.085L823.436 11.065L823.004 10.052L822.79 9.54904L822.362 8.54904M824.091 12.599H858.788M858.788 12.599L856.768 9.04904L856.483 8.54904M720 30.263V25.61M720 30.263L682.79 30.262M720 25.61L683.452 25.611M838.041 45.283L840.345 50.682M720 50.682V45.283M720 50.682H679.885M720 45.283L680.653 45.284M847.831 68.221L850.538 74.562M720 74.562V68.221M720 74.562H676.488M720 68.221H677.389M859.392 95.306L862.616 102.86M720 102.86V95.306M720 102.86H672.461M720 95.306H673.536M873.25 127.777L877.157 136.929M720 136.929V127.777M720 136.929H667.615M720 127.777H668.916M890.17 167.419L895 178.735M720 178.735V167.419M720 178.735H661.667M720 167.419H663.276M911.289 216.899L917.414 231.25M720 231.25V216.899M720 231.25H654.195M720 216.899H656.237M938.393 280.401L946.413 299.192M720 299.192V280.401M720 299.192H644.529M720 280.401H647.202M974.445 364.869L985.398 390.531M720 390.531V364.869M720 390.531H631.534M720 364.869H635.185M1024.75 482.739L1040.6 519.868M933.733 519.868H1040.6M933.733 519.868H826.867M826.867 519.868H720M720 519.868V482.739M720 519.868H613.133M720 482.739H618.415M683.452 25.611L683.37 26.183L683.289 26.757L683.206 27.335L682.79 30.262M685.303 12.599H720M685.303 12.599L685.521 11.065L685.594 10.557L685.879 8.55004M720 12.599V8.54904M685.879 8.55004L720 8.55104M571.161 30.262L571.831 29.083L573.807 25.61M571.161 30.262H533.951M573.807 25.61H537.259M680.653 45.284L679.885 50.682M559.539 50.682L562.612 45.283M559.539 50.682H519.424M562.612 45.283L523.265 45.284M677.389 68.221L677.168 69.781L676.717 72.952L676.488 74.562M545.95 74.562L549.558 68.221M545.95 74.562H502.437M549.558 68.221H506.948M673.536 95.306L672.461 102.86M529.846 102.86L534.144 95.306M529.846 102.86H482.307M534.144 95.306H487.681M668.916 127.777L667.615 136.929M510.457 136.929L515.666 127.777M510.457 136.929H458.072M515.666 127.777H464.582M663.276 167.419L661.667 178.735M486.666 178.735L493.106 167.419M486.666 178.735H428.333M493.106 167.419H436.383M656.237 216.899L654.195 231.25M456.781 231.25L464.948 216.899M456.781 231.25H390.977M464.948 216.899H401.185M647.202 280.401L644.529 299.192M418.117 299.192L428.81 280.401M418.117 299.192H342.646M428.81 280.401H356.013M635.185 364.869L631.534 390.531M366.137 390.531L380.741 364.869M366.137 390.531H277.671M380.741 364.869H295.925M618.415 482.739L613.133 519.868M506.267 519.868H613.133M506.267 519.868H399.4M399.4 519.868H292.533M292.533 519.868L313.662 482.739M292.533 519.868H185.667M313.662 482.739H212.079M537.259 25.61L533.951 30.262M546.515 12.599H581.212M546.515 12.599L548.684 9.54904L549.395 8.54904M581.212 12.599L581.504 12.085L582.085 11.065L583.516 8.55004M583.516 8.55004L549.395 8.55104M422.321 30.262L427.614 25.61M422.321 30.262H385.111M427.614 25.61H391.066M523.265 45.284L519.424 50.682M399.079 50.682L404.468 45.947L405.223 45.283M399.079 50.682H358.964M405.223 45.283L365.875 45.284M506.948 68.221L502.437 74.562M371.899 74.562L379.117 68.221M371.899 74.562H328.387M379.117 68.221H336.506M487.681 95.306L482.307 102.86M339.691 102.86L348.289 95.306M339.691 102.86H292.153M348.289 95.306H301.826M464.582 127.777L458.072 136.929M300.915 136.929L311.332 127.777M300.915 136.929H248.529M311.332 127.777H260.248M436.383 167.419L428.333 178.735M253.333 178.735L266.213 167.419M253.333 178.735H195M266.213 167.419H209.49M401.185 216.899L390.977 231.25M193.563 231.25L209.896 216.899M209.896 216.899H146.133M356.013 280.401L342.646 299.192M116.233 299.192L137.619 280.401M116.233 299.192H40.762M137.619 280.401H64.822M295.925 364.869L277.671 390.531M12.273 390.531L41.481 364.869M12.273 390.531H-8.607M12.273 390.531L-8.607 408.877M41.481 364.869H-8.608M212.079 482.739L185.667 519.868M78.799 519.868H185.667M78.799 519.868H-8.608M-8.608 519.868L-8.607 500.329M-8.607 500.329L-8.608 482.739M391.066 25.61L385.111 30.262M407.727 12.599L408.384 12.085L412.912 8.55004M407.727 12.599H442.424M442.424 12.599L444.17 11.065L447.033 8.55004M412.912 8.55004H447.033M273.481 30.262H236.27M365.875 45.284L358.964 50.682M238.618 50.682L247.834 45.283M238.618 50.682H198.503M247.834 45.283L208.487 45.284M336.506 68.221L328.387 74.562M197.849 74.562L208.675 68.221M197.849 74.562H154.337M208.675 68.221H166.065M301.826 95.306L292.153 102.86M149.537 102.86L162.434 95.306M149.537 102.86H101.998M162.434 95.306H115.97M260.248 127.777L248.529 136.929M91.372 136.929L106.997 127.777M91.372 136.929H38.986M106.997 127.777H55.914M209.49 167.419L195 178.735M19.999 178.735L39.32 167.419M19.999 178.735H-8.608M39.32 167.419H-8.608M146.133 216.899L127.758 231.25M127.758 231.25H193.562M-8.608 231.25H-3.851L-8.608 234.289M-8.608 231.25V234.289M-8.608 231.25V216.899M64.822 280.401L40.762 299.192M-8.608 280.401V280.845M-8.608 280.845V299.192M40.762 299.192L14.867 319.415M40.762 299.192H-8.608M14.867 319.415H-8.608M14.867 319.415L-8.608 337.748M-8.608 319.415V337.748M-8.608 319.415V299.192M-8.608 337.748V341.241M-8.608 341.241V364.869M-8.608 364.869L-8.607 390.531M-8.607 390.531V408.877M208.324 25.61L199.06 30.262M208.324 25.61H244.873M208.324 25.61H171.776M244.873 25.61L253.175 21.121M244.873 25.61L236.27 30.262M244.873 25.61H281.421L289.085 21.121M253.175 21.121L261.192 16.787M253.175 21.121H289.085M261.192 16.787L268.938 12.599M268.938 12.599H234.241M268.938 12.599L269.887 12.085L276.426 8.55004M268.938 12.599H303.635M234.241 12.599L242.306 8.54904M303.635 12.599L304.512 12.085L310.548 8.55004M310.548 8.55004L276.427 8.55104M124.642 30.262L87.432 30.263M208.487 45.284L198.503 50.682M78.157 50.682L90.447 45.284H51.099M78.157 50.682H38.042M166.065 68.221L154.337 74.562M23.799 74.562L38.235 68.221M23.799 74.562H-8.608M38.235 68.221H-4.375M115.97 95.306L101.998 102.86M-8.607 95.306L-8.608 88.798M55.914 127.777L38.986 136.929M-8.608 127.777V134.523M-8.608 134.523L-8.756 134.598M-8.608 134.523V136.929M38.986 136.929L21.172 146.561M38.986 136.929H-8.608M21.172 146.561L2.403 156.709M21.172 146.561H-8.607M2.403 156.709H-8.608M2.403 156.709L-8.608 162.662M-8.607 146.561L-8.608 156.709M-8.607 146.561L-8.608 136.929M-8.608 156.709V162.662M-8.608 162.662V167.419M-8.608 167.419V178.735M-8.608 190.713V195.491M-8.608 190.713V178.735M62.133 25.61L50.223 30.262M62.133 25.61H98.681M98.681 25.61L109.538 21.121M98.681 25.61L87.431 30.262M98.681 25.61H135.228M130.15 12.599H95.453M130.15 12.599H164.846M130.15 12.599L139.943 8.54904M135.228 25.61L124.641 30.262M164.846 12.599L174.064 8.54904M87.432 30.263H50.222H13.012M87.432 30.263L75.767 35.086M13.012 30.263L25.585 25.611L-8.608 25.61M13.012 30.263H-8.608M-8.608 30.263V25.61M-8.608 25.61V24.782V21.122V16.786M51.099 45.284L38.042 50.682M-2.073 50.682H38.042M-2.073 50.682L-8.608 53.234M-2.073 50.682H-8.608M-8.608 45.284V50.682M38.042 50.682L24.467 56.296M24.467 56.296L10.339 62.137M24.467 56.296H-8.608M10.339 62.137L-4.375 68.221M10.339 62.137H-8.608M-8.608 56.296V62.137M-8.608 56.296V53.234M-8.608 53.234V50.682M-4.375 68.221L-8.608 69.97M-4.375 68.221H-8.608M-8.608 62.137V68.221M-8.608 69.97V74.562M-8.608 69.97V68.221M-8.608 81.177V88.085M-8.608 81.177V74.562M-8.608 74.562H-8.835M-8.608 88.085V88.798M-8.608 88.798L-9 88.97M-8.608 16.786V12.6M60.757 12.6H26.06M26.06 12.6L37.58 8.55004M26.06 12.6H-8.608M37.58 8.55004H3.46M-8.608 12.6L-8.638 12.599L-8.608 12.59M-8.608 12.6V12.59M1368.3 8.55104H1402.42M856.483 8.55104H822.362M174.065 8.55104H139.944M15.161 4.63404L3.46 8.55004M3.46 8.55004L-8.608 12.59M3.46 8.55004H-8.608M-8.608 12.59V8.55004M1448.61 12.59V8.55004" stroke="url(#paint0_linear_84_1103)" stroke-width="1.012" stroke-miterlimit="10" stroke-linecap="round" stroke-linejoin="round"/>
<defs>
<linearGradient id="paint0_linear_84_1103" x1="720" y1="0.842041" x2="720" y2="364.836" gradientUnits="userSpaceOnUse">
<stop stop-color="#CED2DF" stop-opacity="0"/>
<stop offset="1" stop-color="#CED2DF"/>
</linearGradient>
</defs>
</svg>
