<svg width="25" height="25" viewBox="0 0 25 25" fill="none" xmlns="http://www.w3.org/2000/svg">
<g clip-path="url(#clip0_349_5042)">
<path d="M24.5 12.8984C24.5 6.27102 19.1274 0.898438 12.5 0.898438C5.87258 0.898438 0.5 6.27102 0.5 12.8984C0.5 18.8879 4.8882 23.8524 10.625 24.7527V16.3672H7.57812V12.8984H10.625V10.2547C10.625 7.24719 12.4166 5.58594 15.1576 5.58594C16.4701 5.58594 17.8438 5.82031 17.8438 5.82031V8.77344H16.3306C14.84 8.77344 14.375 9.69852 14.375 10.6484V12.8984H17.7031L17.1711 16.3672H14.375V24.7527C20.1118 23.8524 24.5 18.8879 24.5 12.8984Z" fill="#1877F2"/>
<path d="M17.1711 16.3672L17.7031 12.8984H14.375V10.6484C14.375 9.69945 14.84 8.77344 16.3306 8.77344H17.8438V5.82031C17.8438 5.82031 16.4705 5.58594 15.1576 5.58594C12.4166 5.58594 10.625 7.24719 10.625 10.2547V12.8984H7.57812V16.3672H10.625V24.7527C11.8674 24.947 13.1326 24.947 14.375 24.7527V16.3672H17.1711Z" fill="white"/>
</g>
<defs>
<clipPath id="clip0_349_5042">
<rect width="24" height="24" fill="white" transform="translate(0.5 0.898438)"/>
</clipPath>
</defs>
</svg>
