<svg width="25" height="25" viewBox="0 0 25 25" fill="none" xmlns="http://www.w3.org/2000/svg">
<g clip-path="url(#clip0_349_5045)">
<path d="M24.2663 13.1747C24.2663 12.359 24.2001 11.5388 24.059 10.7363H12.7402V15.3573H19.222C18.953 16.8477 18.0888 18.1661 16.8233 19.0038V22.0022H20.6903C22.9611 19.9121 24.2663 16.8256 24.2663 13.1747Z" fill="#4285F4"/>
<path d="M12.7401 24.8993C15.9766 24.8993 18.7059 23.8366 20.6945 22.0023L16.8276 19.004C15.7517 19.7359 14.3627 20.1504 12.7445 20.1504C9.61388 20.1504 6.95946 18.0383 6.00705 15.1987H2.0166V18.2897C4.05371 22.3418 8.2029 24.8993 12.7401 24.8993Z" fill="#34A853"/>
<path d="M6.00277 15.1986C5.50011 13.7083 5.50011 12.0945 6.00277 10.6041V7.51318H2.01674C0.314734 10.904 0.314734 14.8988 2.01674 18.2896L6.00277 15.1986Z" fill="#FBBC04"/>
<path d="M12.7401 5.6481C14.4509 5.62164 16.1044 6.2654 17.3434 7.44711L20.7695 4.02105C18.6001 1.98394 15.7208 0.863972 12.7401 0.899246C8.2029 0.899246 4.05371 3.45666 2.0166 7.51325L6.00264 10.6042C6.95064 7.76017 9.60947 5.6481 12.7401 5.6481Z" fill="#EA4335"/>
</g>
<defs>
<clipPath id="clip0_349_5045">
<rect width="24" height="24" fill="white" transform="translate(0.5 0.898438)"/>
</clipPath>
</defs>
</svg>
