<svg width="25" height="25" viewBox="0 0 25 25" fill="none" xmlns="http://www.w3.org/2000/svg">
<g clip-path="url(#clip0_349_5044)">
<path d="M22.7283 0.898438H2.27167C1.80179 0.898438 1.35116 1.08509 1.01891 1.41735C0.686657 1.7496 0.5 2.20023 0.5 2.6701V23.1268C0.5 23.5966 0.686657 24.0473 1.01891 24.3795C1.35116 24.7118 1.80179 24.8984 2.27167 24.8984H22.7283C23.1982 24.8984 23.6488 24.7118 23.9811 24.3795C24.3133 24.0473 24.5 23.5966 24.5 23.1268V2.6701C24.5 2.20023 24.3133 1.7496 23.9811 1.41735C23.6488 1.08509 23.1982 0.898438 22.7283 0.898438ZM7.65333 21.3434H4.045V9.88177H7.65333V21.3434ZM5.84667 8.29344C5.43736 8.29113 5.03792 8.16763 4.69873 7.93853C4.35955 7.70942 4.09584 7.38497 3.94088 7.00613C3.78591 6.62728 3.74665 6.21103 3.82803 5.80989C3.90941 5.40875 4.1078 5.04071 4.39816 4.75222C4.68851 4.46372 5.05782 4.2677 5.45947 4.1889C5.86112 4.11009 6.27711 4.15203 6.65495 4.30942C7.03279 4.46681 7.35554 4.7326 7.58247 5.07325C7.80939 5.4139 7.93032 5.81413 7.93 6.22344C7.93386 6.49747 7.88251 6.76948 7.77901 7.02324C7.67551 7.27701 7.52198 7.50734 7.32757 7.7005C7.13316 7.89367 6.90185 8.04572 6.64742 8.14759C6.393 8.24946 6.12067 8.29906 5.84667 8.29344ZM20.9533 21.3534H17.3467V15.0918C17.3467 13.2451 16.5617 12.6751 15.5483 12.6751C14.4783 12.6751 13.4283 13.4818 13.4283 15.1384V21.3534H9.82V9.89011H13.29V11.4784H13.3367C13.685 10.7734 14.905 9.56844 16.7667 9.56844C18.78 9.56844 20.955 10.7634 20.955 14.2634L20.9533 21.3534Z" fill="#0A66C2"/>
</g>
<defs>
<clipPath id="clip0_349_5044">
<rect width="24" height="24" fill="white" transform="translate(0.5 0.898438)"/>
</clipPath>
</defs>
</svg>
