<svg width="170" height="40" viewBox="0 0 170 40" fill="none" xmlns="http://www.w3.org/2000/svg">
<path d="M122.327 10.0313C124.574 10.0313 126.4 10.7756 127.808 12.2641C129.269 13.7797 130 15.8366 130 18.4347V30.8977H124.763V19.0843C124.763 17.7581 124.398 16.7297 123.667 15.999C122.963 15.2682 121.989 14.9029 120.744 14.9029C119.364 14.9029 118.268 15.3359 117.456 16.2019C116.671 17.0409 116.279 18.2859 116.279 19.9368V30.8977H111.042V2.48047H116.279V12.8731C117.523 10.9786 119.54 10.0313 122.327 10.0313Z" fill="url(#paint0_linear_374_1347)"/>
<path d="M122.327 10.0313C124.574 10.0313 126.4 10.7756 127.808 12.2641C129.269 13.7797 130 15.8366 130 18.4347V30.8977H124.763V19.0843C124.763 17.7581 124.398 16.7297 123.667 15.999C122.963 15.2682 121.989 14.9029 120.744 14.9029C119.364 14.9029 118.268 15.3359 117.456 16.2019C116.671 17.0409 116.279 18.2859 116.279 19.9368V30.8977H111.042V2.48047H116.279V12.8731C117.523 10.9786 119.54 10.0313 122.327 10.0313Z" fill="url(#paint1_linear_374_1347)"/>
<path d="M99.2298 16.3642C99.2298 17.2303 100.461 17.9745 102.924 18.597C103.79 18.7865 104.575 19.0165 105.279 19.2872C105.982 19.5307 106.686 19.8961 107.39 20.3832C108.12 20.8433 108.689 21.4658 109.095 22.2507C109.501 23.0355 109.704 23.9422 109.704 24.9706C109.704 27.0545 108.919 28.6648 107.349 29.8015C105.779 30.9112 103.844 31.466 101.544 31.466C97.3759 31.466 94.5341 29.8557 93.0186 26.635L97.5653 24.0775C98.1878 25.8367 99.5139 26.7162 101.544 26.7162C103.411 26.7162 104.345 26.1344 104.345 24.9706C104.345 24.1046 103.113 23.3603 100.651 22.7378C99.7304 22.4942 98.9456 22.2507 98.296 22.0071C97.6465 21.7635 96.9428 21.4117 96.185 20.9516C95.4273 20.4644 94.8454 19.8555 94.4394 19.1248C94.0605 18.367 93.8711 17.4874 93.8711 16.486C93.8711 14.4833 94.6018 12.9136 96.0633 11.7769C97.5518 10.6131 99.3921 10.0312 101.584 10.0312C103.235 10.0312 104.737 10.4101 106.09 11.1679C107.444 11.8987 108.513 12.9542 109.298 14.3344L104.832 16.7702C104.182 15.3899 103.1 14.6998 101.584 14.6998C100.908 14.6998 100.339 14.8622 99.8793 15.187C99.4463 15.4847 99.2298 15.8771 99.2298 16.3642Z" fill="url(#paint2_linear_374_1347)"/>
<path d="M99.2298 16.3642C99.2298 17.2303 100.461 17.9745 102.924 18.597C103.79 18.7865 104.575 19.0165 105.279 19.2872C105.982 19.5307 106.686 19.8961 107.39 20.3832C108.12 20.8433 108.689 21.4658 109.095 22.2507C109.501 23.0355 109.704 23.9422 109.704 24.9706C109.704 27.0545 108.919 28.6648 107.349 29.8015C105.779 30.9112 103.844 31.466 101.544 31.466C97.3759 31.466 94.5341 29.8557 93.0186 26.635L97.5653 24.0775C98.1878 25.8367 99.5139 26.7162 101.544 26.7162C103.411 26.7162 104.345 26.1344 104.345 24.9706C104.345 24.1046 103.113 23.3603 100.651 22.7378C99.7304 22.4942 98.9456 22.2507 98.296 22.0071C97.6465 21.7635 96.9428 21.4117 96.185 20.9516C95.4273 20.4644 94.8454 19.8555 94.4394 19.1248C94.0605 18.367 93.8711 17.4874 93.8711 16.486C93.8711 14.4833 94.6018 12.9136 96.0633 11.7769C97.5518 10.6131 99.3921 10.0312 101.584 10.0312C103.235 10.0312 104.737 10.4101 106.09 11.1679C107.444 11.8987 108.513 12.9542 109.298 14.3344L104.832 16.7702C104.182 15.3899 103.1 14.6998 101.584 14.6998C100.908 14.6998 100.339 14.8622 99.8793 15.187C99.4463 15.4847 99.2298 15.8771 99.2298 16.3642Z" fill="url(#paint3_linear_374_1347)"/>
<path d="M86.6015 12.9948V10.5996H91.8384V30.8976H86.6015V28.5025C85.0318 30.4781 82.8261 31.466 79.9844 31.466C77.278 31.466 74.9504 30.4375 73.0018 28.3807C71.0803 26.2967 70.1195 23.7527 70.1195 20.7486C70.1195 17.7716 71.0803 15.2411 73.0018 13.1571C74.9504 11.0732 77.278 10.0312 79.9844 10.0312C82.8261 10.0312 85.0318 11.0191 86.6015 12.9948ZM76.9397 24.8894C77.9952 25.9449 79.3348 26.4727 80.9587 26.4727C82.5825 26.4727 83.9222 25.9449 84.9777 24.8894C86.0602 23.8069 86.6015 22.4266 86.6015 20.7486C86.6015 19.0706 86.0602 17.7039 84.9777 16.6484C83.9222 15.5658 82.5825 15.0246 80.9587 15.0246C79.3348 15.0246 77.9952 15.5658 76.9397 16.6484C75.8842 17.7039 75.3564 19.0706 75.3564 20.7486C75.3564 22.4266 75.8842 23.8069 76.9397 24.8894Z" fill="url(#paint4_linear_374_1347)"/>
<path d="M86.6015 12.9948V10.5996H91.8384V30.8976H86.6015V28.5025C85.0318 30.4781 82.8261 31.466 79.9844 31.466C77.278 31.466 74.9504 30.4375 73.0018 28.3807C71.0803 26.2967 70.1195 23.7527 70.1195 20.7486C70.1195 17.7716 71.0803 15.2411 73.0018 13.1571C74.9504 11.0732 77.278 10.0312 79.9844 10.0312C82.8261 10.0312 85.0318 11.0191 86.6015 12.9948ZM76.9397 24.8894C77.9952 25.9449 79.3348 26.4727 80.9587 26.4727C82.5825 26.4727 83.9222 25.9449 84.9777 24.8894C86.0602 23.8069 86.6015 22.4266 86.6015 20.7486C86.6015 19.0706 86.0602 17.7039 84.9777 16.6484C83.9222 15.5658 82.5825 15.0246 80.9587 15.0246C79.3348 15.0246 77.9952 15.5658 76.9397 16.6484C75.8842 17.7039 75.3564 19.0706 75.3564 20.7486C75.3564 22.4266 75.8842 23.8069 76.9397 24.8894Z" fill="url(#paint5_linear_374_1347)"/>
<path d="M165.985 7.51306C165.109 7.51306 164.342 7.1982 163.685 6.56848C163.055 5.91139 162.74 5.14477 162.74 4.26864C162.74 3.39251 163.055 2.6259 163.685 1.9688C164.342 1.3117 165.109 0.983154 165.985 0.983154C166.888 0.983154 167.655 1.3117 168.285 1.9688C168.942 2.6259 169.27 3.39251 169.27 4.26864C169.27 5.14477 168.942 5.91139 168.285 6.56848C167.655 7.1982 166.888 7.51306 165.985 7.51306ZM168.654 30.5115H163.356V9.97718H168.654V30.5115Z" fill="#6853E4"/>
<path d="M165.985 7.51306C165.109 7.51306 164.342 7.1982 163.685 6.56848C163.055 5.91139 162.74 5.14477 162.74 4.26864C162.74 3.39251 163.055 2.6259 163.685 1.9688C164.342 1.3117 165.109 0.983154 165.985 0.983154C166.888 0.983154 167.655 1.3117 168.285 1.9688C168.942 2.6259 169.27 3.39251 169.27 4.26864C169.27 5.14477 168.942 5.91139 168.285 6.56848C167.655 7.1982 166.888 7.51306 165.985 7.51306ZM168.654 30.5115H163.356V9.97718H168.654V30.5115Z" fill="url(#paint6_linear_374_1347)"/>
<path d="M155.308 12.4004V9.9773H160.606V30.5116H155.308V28.0886C153.72 30.0872 151.489 31.0866 148.614 31.0866C145.876 31.0866 143.521 30.0462 141.55 27.9653C139.606 25.8572 138.634 23.2835 138.634 20.2445C138.634 17.2328 139.606 14.6728 141.55 12.5646C143.521 10.4564 145.876 9.40234 148.614 9.40234C151.489 9.40234 153.72 10.4017 155.308 12.4004ZM145.534 24.4334C146.601 25.5012 147.957 26.0351 149.599 26.0351C151.242 26.0351 152.597 25.5012 153.665 24.4334C154.76 23.3383 155.308 21.942 155.308 20.2445C155.308 18.547 154.76 17.1643 153.665 16.0965C152.597 15.0014 151.242 14.4538 149.599 14.4538C147.957 14.4538 146.601 15.0014 145.534 16.0965C144.466 17.1643 143.932 18.547 143.932 20.2445C143.932 21.942 144.466 23.3383 145.534 24.4334Z" fill="#6853E4"/>
<path d="M155.308 12.4004V9.9773H160.606V30.5116H155.308V28.0886C153.72 30.0872 151.489 31.0866 148.614 31.0866C145.876 31.0866 143.521 30.0462 141.55 27.9653C139.606 25.8572 138.634 23.2835 138.634 20.2445C138.634 17.2328 139.606 14.6728 141.55 12.5646C143.521 10.4564 145.876 9.40234 148.614 9.40234C151.489 9.40234 153.72 10.4017 155.308 12.4004ZM145.534 24.4334C146.601 25.5012 147.957 26.0351 149.599 26.0351C151.242 26.0351 152.597 25.5012 153.665 24.4334C154.76 23.3383 155.308 21.942 155.308 20.2445C155.308 18.547 154.76 17.1643 153.665 16.0965C152.597 15.0014 151.242 14.4538 149.599 14.4538C147.957 14.4538 146.601 15.0014 145.534 16.0965C144.466 17.1643 143.932 18.547 143.932 20.2445C143.932 21.942 144.466 23.3383 145.534 24.4334Z" fill="url(#paint7_linear_374_1347)"/>
<path d="M138.982 27.5545C138.982 28.5128 138.639 29.3342 137.955 30.0187C137.27 30.7031 136.449 31.0454 135.491 31.0454C134.533 31.0454 133.711 30.7031 133.027 30.0187C132.342 29.3342 132 28.5128 132 27.5545C132 26.5963 132.342 25.7749 133.027 25.0904C133.711 24.406 134.533 24.0637 135.491 24.0637C136.449 24.0637 137.27 24.406 137.955 25.0904C138.639 25.7749 138.982 26.5963 138.982 27.5545Z" fill="#6853E4"/>
<path d="M138.982 27.5545C138.982 28.5128 138.639 29.3342 137.955 30.0187C137.27 30.7031 136.449 31.0454 135.491 31.0454C134.533 31.0454 133.711 30.7031 133.027 30.0187C132.342 29.3342 132 28.5128 132 27.5545C132 26.5963 132.342 25.7749 133.027 25.0904C133.711 24.406 134.533 24.0637 135.491 24.0637C136.449 24.0637 137.27 24.406 137.955 25.0904C138.639 25.7749 138.982 26.5963 138.982 27.5545Z" fill="url(#paint8_linear_374_1347)"/>
<path d="M61.5776 31.466C58.5194 31.466 55.9618 30.4375 53.9049 28.3807C51.8751 26.3238 50.8602 23.7798 50.8602 20.7486C50.8602 17.7174 51.8751 15.1734 53.9049 13.1166C55.9618 11.0597 58.5194 10.0312 61.5776 10.0312C63.5533 10.0312 65.353 10.5049 66.9769 11.4521C68.6007 12.3994 69.8321 13.6714 70.6711 15.2681L66.165 17.9069C65.759 17.0679 65.1365 16.4048 64.2975 15.9177C63.4856 15.4305 62.5654 15.187 61.537 15.187C59.9673 15.187 58.6682 15.7147 57.6398 16.7702C56.6113 17.7986 56.0971 19.1248 56.0971 20.7486C56.0971 22.3183 56.6113 23.6445 57.6398 24.727C58.6682 25.7555 59.9673 26.2697 61.537 26.2697C62.5925 26.2697 63.5262 26.0396 64.3381 25.5795C65.1771 25.0924 65.7996 24.4293 66.2055 23.5903L70.7523 26.1885C69.8592 27.8123 68.5872 29.0979 66.9363 30.0451C65.3124 30.9924 63.5262 31.466 61.5776 31.466Z" fill="url(#paint9_linear_374_1347)"/>
<path d="M61.5776 31.466C58.5194 31.466 55.9618 30.4375 53.9049 28.3807C51.8751 26.3238 50.8602 23.7798 50.8602 20.7486C50.8602 17.7174 51.8751 15.1734 53.9049 13.1166C55.9618 11.0597 58.5194 10.0312 61.5776 10.0312C63.5533 10.0312 65.353 10.5049 66.9769 11.4521C68.6007 12.3994 69.8321 13.6714 70.6711 15.2681L66.165 17.9069C65.759 17.0679 65.1365 16.4048 64.2975 15.9177C63.4856 15.4305 62.5654 15.187 61.537 15.187C59.9673 15.187 58.6682 15.7147 57.6398 16.7702C56.6113 17.7986 56.0971 19.1248 56.0971 20.7486C56.0971 22.3183 56.6113 23.6445 57.6398 24.727C58.6682 25.7555 59.9673 26.2697 61.537 26.2697C62.5925 26.2697 63.5262 26.0396 64.3381 25.5795C65.1771 25.0924 65.7996 24.4293 66.2055 23.5903L70.7523 26.1885C69.8592 27.8123 68.5872 29.0979 66.9363 30.0451C65.3124 30.9924 63.5262 31.466 61.5776 31.466Z" fill="url(#paint10_linear_374_1347)"/>
<path d="M52.3637 28.3807C50.3068 30.4375 47.7628 31.466 44.7316 31.466C41.7005 31.466 39.1565 30.4375 37.0996 28.3807C35.0427 26.3238 34.0143 23.7798 34.0143 20.7486C34.0143 17.7445 35.0427 15.214 37.0996 13.1571C39.1835 11.0732 41.7275 10.0312 44.7316 10.0312C47.7358 10.0312 50.2798 11.0732 52.3637 13.1571C54.4476 15.2411 55.4896 17.7716 55.4896 20.7486C55.4896 23.7527 54.4476 26.2967 52.3637 28.3807ZM40.7938 24.7676C41.8493 25.8231 43.1619 26.3509 44.7316 26.3509C46.3014 26.3509 47.614 25.8231 48.6695 24.7676C49.725 23.7121 50.2527 22.3725 50.2527 20.7486C50.2527 19.1248 49.725 17.7851 48.6695 16.7296C47.614 15.6741 46.3014 15.1464 44.7316 15.1464C43.1619 15.1464 41.8493 15.6741 40.7938 16.7296C39.7654 17.8122 39.2512 19.1518 39.2512 20.7486C39.2512 22.3454 39.7654 23.6851 40.7938 24.7676Z" fill="url(#paint11_linear_374_1347)"/>
<path d="M52.3637 28.3807C50.3068 30.4375 47.7628 31.466 44.7316 31.466C41.7005 31.466 39.1565 30.4375 37.0996 28.3807C35.0427 26.3238 34.0143 23.7798 34.0143 20.7486C34.0143 17.7445 35.0427 15.214 37.0996 13.1571C39.1835 11.0732 41.7275 10.0312 44.7316 10.0312C47.7358 10.0312 50.2798 11.0732 52.3637 13.1571C54.4476 15.2411 55.4896 17.7716 55.4896 20.7486C55.4896 23.7527 54.4476 26.2967 52.3637 28.3807ZM40.7938 24.7676C41.8493 25.8231 43.1619 26.3509 44.7316 26.3509C46.3014 26.3509 47.614 25.8231 48.6695 24.7676C49.725 23.7121 50.2527 22.3725 50.2527 20.7486C50.2527 19.1248 49.725 17.7851 48.6695 16.7296C47.614 15.6741 46.3014 15.1464 44.7316 15.1464C43.1619 15.1464 41.8493 15.6741 40.7938 16.7296C39.7654 17.8122 39.2512 19.1518 39.2512 20.7486C39.2512 22.3454 39.7654 23.6851 40.7938 24.7676Z" fill="url(#paint12_linear_374_1347)"/>
<path d="M28.6192 10.5998V14.0911C29.0793 12.8191 29.8642 11.8583 30.9738 11.2088C32.0834 10.5321 33.3554 10.1938 34.7898 10.1938V16.0397C33.193 15.8232 31.7586 16.1479 30.4866 17.014C29.2417 17.853 28.6192 19.2468 28.6192 21.1954V30.8978H23.3823V10.5998H28.6192Z" fill="url(#paint13_linear_374_1347)"/>
<path d="M28.6192 10.5998V14.0911C29.0793 12.8191 29.8642 11.8583 30.9738 11.2088C32.0834 10.5321 33.3554 10.1938 34.7898 10.1938V16.0397C33.193 15.8232 31.7586 16.1479 30.4866 17.014C29.2417 17.853 28.6192 19.2468 28.6192 21.1954V30.8978H23.3823V10.5998H28.6192Z" fill="url(#paint14_linear_374_1347)"/>
<path d="M11.8135 10.0312C14.5469 10.0312 16.8744 11.0732 18.796 13.1571C20.7446 15.2411 21.7189 17.7716 21.7189 20.7486C21.7189 23.7798 20.7446 26.3238 18.796 28.3807C16.9015 30.4375 14.574 31.466 11.8135 31.466C8.97173 31.466 6.77954 30.4781 5.23689 28.5025V39.0168H0V10.5996H5.23689V12.9948C6.77954 11.0191 8.97173 10.0312 11.8135 10.0312ZM6.82014 24.8894C7.87564 25.9449 9.21531 26.4727 10.8392 26.4727C12.463 26.4727 13.8027 25.9449 14.8582 24.8894C15.9407 23.8069 16.482 22.4266 16.482 20.7486C16.482 19.0706 15.9407 17.7039 14.8582 16.6484C13.8027 15.5658 12.463 15.0246 10.8392 15.0246C9.21531 15.0246 7.87564 15.5658 6.82014 16.6484C5.76464 17.7039 5.23689 19.0706 5.23689 20.7486C5.23689 22.4266 5.76464 23.8069 6.82014 24.8894Z" fill="url(#paint15_linear_374_1347)"/>
<path d="M11.8135 10.0312C14.5469 10.0312 16.8744 11.0732 18.796 13.1571C20.7446 15.2411 21.7189 17.7716 21.7189 20.7486C21.7189 23.7798 20.7446 26.3238 18.796 28.3807C16.9015 30.4375 14.574 31.466 11.8135 31.466C8.97173 31.466 6.77954 30.4781 5.23689 28.5025V39.0168H0V10.5996H5.23689V12.9948C6.77954 11.0191 8.97173 10.0312 11.8135 10.0312ZM6.82014 24.8894C7.87564 25.9449 9.21531 26.4727 10.8392 26.4727C12.463 26.4727 13.8027 25.9449 14.8582 24.8894C15.9407 23.8069 16.482 22.4266 16.482 20.7486C16.482 19.0706 15.9407 17.7039 14.8582 16.6484C13.8027 15.5658 12.463 15.0246 10.8392 15.0246C9.21531 15.0246 7.87564 15.5658 6.82014 16.6484C5.76464 17.7039 5.23689 19.0706 5.23689 20.7486C5.23689 22.4266 5.76464 23.8069 6.82014 24.8894Z" fill="url(#paint16_linear_374_1347)"/>
<defs>
<linearGradient id="paint0_linear_374_1347" x1="120.083" y1="7.74454" x2="118.037" y2="25.0107" gradientUnits="userSpaceOnUse">
<stop stop-color="#5D74F1"/>
<stop offset="1" stop-color="#6853E4"/>
</linearGradient>
<linearGradient id="paint1_linear_374_1347" x1="120.083" y1="7.74454" x2="118.037" y2="25.0107" gradientUnits="userSpaceOnUse">
<stop stop-color="#3A3A3A"/>
<stop offset="1"/>
</linearGradient>
<linearGradient id="paint2_linear_374_1347" x1="100.976" y1="14.0019" x2="99.6482" y2="27.0736" gradientUnits="userSpaceOnUse">
<stop stop-color="#5D74F1"/>
<stop offset="1" stop-color="#6853E4"/>
</linearGradient>
<linearGradient id="paint3_linear_374_1347" x1="100.976" y1="14.0019" x2="99.6482" y2="27.0736" gradientUnits="userSpaceOnUse">
<stop stop-color="#3A3A3A"/>
<stop offset="1"/>
</linearGradient>
<linearGradient id="paint4_linear_374_1347" x1="80.4778" y1="14.0019" x2="79.4534" y2="27.1285" gradientUnits="userSpaceOnUse">
<stop stop-color="#5D74F1"/>
<stop offset="1" stop-color="#6853E4"/>
</linearGradient>
<linearGradient id="paint5_linear_374_1347" x1="80.4778" y1="14.0019" x2="79.4534" y2="27.1285" gradientUnits="userSpaceOnUse">
<stop stop-color="#3A3A3A"/>
<stop offset="1"/>
</linearGradient>
<linearGradient id="paint6_linear_374_1347" x1="165.855" y1="6.45304" x2="160.087" y2="22.5841" gradientUnits="userSpaceOnUse">
<stop stop-color="#5D74F1"/>
<stop offset="1" stop-color="#6853E4"/>
</linearGradient>
<linearGradient id="paint7_linear_374_1347" x1="149.113" y1="13.4192" x2="148.077" y2="26.6986" gradientUnits="userSpaceOnUse">
<stop stop-color="#5D74F1"/>
<stop offset="1" stop-color="#6853E4"/>
</linearGradient>
<linearGradient id="paint8_linear_374_1347" x1="135.33" y1="25.357" x2="134.992" y2="29.6319" gradientUnits="userSpaceOnUse">
<stop stop-color="#5D74F1"/>
<stop offset="1" stop-color="#6853E4"/>
</linearGradient>
<linearGradient id="paint9_linear_374_1347" x1="60.3472" y1="14.0019" x2="59.2301" y2="27.1133" gradientUnits="userSpaceOnUse">
<stop stop-color="#5D74F1"/>
<stop offset="1" stop-color="#6853E4"/>
</linearGradient>
<linearGradient id="paint10_linear_374_1347" x1="60.3472" y1="14.0019" x2="59.2301" y2="27.1133" gradientUnits="userSpaceOnUse">
<stop stop-color="#3A3A3A"/>
<stop offset="1"/>
</linearGradient>
<linearGradient id="paint11_linear_374_1347" x1="44.2564" y1="14.0019" x2="43.2206" y2="27.1267" gradientUnits="userSpaceOnUse">
<stop stop-color="#5D74F1"/>
<stop offset="1" stop-color="#6853E4"/>
</linearGradient>
<linearGradient id="paint12_linear_374_1347" x1="44.2564" y1="14.0019" x2="43.2206" y2="27.1267" gradientUnits="userSpaceOnUse">
<stop stop-color="#3A3A3A"/>
<stop offset="1"/>
</linearGradient>
<linearGradient id="paint13_linear_374_1347" x1="28.8228" y1="14.0291" x2="27.0291" y2="26.5281" gradientUnits="userSpaceOnUse">
<stop stop-color="#5D74F1"/>
<stop offset="1" stop-color="#6853E4"/>
</linearGradient>
<linearGradient id="paint14_linear_374_1347" x1="28.8228" y1="14.0291" x2="27.0291" y2="26.5281" gradientUnits="userSpaceOnUse">
<stop stop-color="#3A3A3A"/>
<stop offset="1"/>
</linearGradient>
<linearGradient id="paint15_linear_374_1347" x1="10.3582" y1="15.4006" x2="8.49446" y2="33.0628" gradientUnits="userSpaceOnUse">
<stop stop-color="#5D74F1"/>
<stop offset="1" stop-color="#6853E4"/>
</linearGradient>
<linearGradient id="paint16_linear_374_1347" x1="10.3582" y1="15.4006" x2="8.49446" y2="33.0628" gradientUnits="userSpaceOnUse">
<stop stop-color="#3A3A3A"/>
<stop offset="1"/>
</linearGradient>
</defs>
</svg>
