<svg width="18" height="18" viewBox="0 0 18 18" fill="none" xmlns="http://www.w3.org/2000/svg">
<path d="M6.6276 3.50694C7.68314 1.6134 8.21091 0.666626 8.99996 0.666626C9.78901 0.666626 10.3168 1.6134 11.3723 3.50694L11.6454 3.99682C11.9454 4.53491 12.0953 4.80395 12.3292 4.98147C12.563 5.15898 12.8543 5.22488 13.4367 5.35667L13.967 5.47665C16.0167 5.94042 17.0416 6.17231 17.2854 6.9564C17.5293 7.7405 16.8306 8.55752 15.4332 10.1916L15.0717 10.6143C14.6746 11.0787 14.4761 11.3108 14.3867 11.5981C14.2974 11.8853 14.3274 12.1951 14.3875 12.8146L14.4421 13.3786C14.6534 15.5588 14.759 16.6489 14.1207 17.1335C13.4823 17.6181 12.5227 17.1762 10.6036 16.2926L10.1071 16.064C9.56169 15.8129 9.289 15.6873 8.99996 15.6873C8.71091 15.6873 8.43823 15.8129 7.89287 16.064L7.39635 16.2926C5.47719 17.1762 4.51761 17.6181 3.87925 17.1335C3.24089 16.6489 3.34653 15.5588 3.55779 13.3786L3.61245 12.8146C3.67248 12.1951 3.7025 11.8853 3.61318 11.5981C3.52386 11.3108 3.32531 11.0787 2.92822 10.6143L2.56671 10.1916C1.16933 8.55752 0.470646 7.7405 0.714477 6.9564C0.958307 6.17231 1.98317 5.94042 4.03291 5.47665L4.5632 5.35667C5.14567 5.22488 5.4369 5.15898 5.67075 4.98147C5.90459 4.80395 6.05456 4.53491 6.35452 3.99682L6.6276 3.50694Z" fill="#F59E0C"/>
</svg>
