<svg width="1440" height="270" viewBox="0 0 1440 270" fill="none" xmlns="http://www.w3.org/2000/svg">
<path d="M23.864 265.255L35.05 269M23.864 265.255H57.014M23.864 265.255L12.306 261.387M23.864 265.255H0.387M35.05 269L30.98 268.999L26.952 268.99L23.007 268.968L19.187 268.923L15.531 268.85L12.081 268.74L8.877 268.588L5.902 268.394L3.35 268.125L1.026 267.814L0.387 267.705V265.255M35.05 269H67.667M57.014 265.255L67.667 269M57.014 265.255H90.163M57.014 265.255L54.295 264.3L46.006 261.387M0.387 265.255L0.386 261.387M67.667 269H100.283M100.283 269H132.9M100.283 269L90.163 265.255M132.9 269H165.517M132.9 269L123.312 265.255M90.163 265.255H123.312M90.163 265.255L79.705 261.387M165.517 269H198.133M165.517 269L156.461 265.255M123.312 265.255H156.461M123.312 265.255L113.405 261.387M198.133 269H230.75M198.133 269L189.61 265.255M156.461 265.255H189.61M156.461 265.255L147.105 261.387M230.75 269H263.367M230.75 269L222.76 265.255M189.61 265.255H222.76M189.61 265.255L187.436 264.3L186.342 263.82L180.805 261.387M263.367 269H295.983M263.367 269L255.909 265.255M222.76 265.255H255.909M222.76 265.255L220.722 264.3L214.504 261.387M295.983 269H328.6M295.983 269L289.059 265.255M255.909 265.255H289.059M255.909 265.255L248.204 261.387M328.6 269H361.217M328.6 269L322.208 265.255M289.059 265.255H322.208M289.059 265.255L287.292 264.3L286.403 263.82L281.904 261.387M361.217 269H393.833M361.217 269L355.357 265.255M322.208 265.255H355.357M322.208 265.255L315.603 261.387M393.833 269H426.45M393.833 269L388.507 265.255M355.357 265.255H388.507M355.357 265.255L353.863 264.3L353.11 263.82L349.303 261.387M426.45 269H459.067M426.45 269L425.266 268.075L423.472 266.674L421.656 265.255M388.507 265.255H421.656M388.507 265.255L387.828 264.779L387.148 264.3L383.003 261.387M459.067 269H491.683M459.067 269L458.015 268.075L454.806 265.255M421.656 265.255H454.806M421.656 265.255L420.433 264.3L419.817 263.82L416.703 261.387M491.683 269H524.3M491.683 269L487.955 265.255M454.806 265.255H487.955M454.806 265.255L450.402 261.387M524.3 269H556.917M524.3 269L523.114 267.61L521.912 266.203L521.509 265.73L521.104 265.255M487.955 265.255H521.104M487.955 265.255L487.48 264.779L487.004 264.3L486.525 263.82L484.102 261.387M556.917 269H589.533M556.917 269L555.928 267.61L555.596 267.143L555.262 266.674L554.253 265.255M521.104 265.255H554.253M521.104 265.255L520.289 264.3L519.878 263.82L519.466 263.337L517.802 261.387M589.533 269H622.15M589.533 269L587.402 265.255M554.253 265.255H587.402M554.253 265.255L553.574 264.3L552.198 262.367L551.851 261.878L551.501 261.387M622.15 269L621.953 268.539L621.756 268.075L620.755 265.73L620.552 265.255M622.15 269H654.766M587.402 265.255H620.552M587.402 265.255L587.131 264.779L586.859 264.3L586.585 263.82L585.202 261.387M620.552 265.255H653.701M620.552 265.255L618.901 261.387M654.766 269H687.384M654.766 269L653.701 265.255M687.384 269H720M687.384 269L687.186 267.61L686.851 265.255M653.701 265.255H686.851M653.701 265.255L653.566 264.779L653.43 264.3L653.293 263.82L652.601 261.387M720 269H752.616M720 269V265.255M686.851 265.255H720M686.851 265.255L686.3 261.387M752.616 269H785.234M752.616 269L752.814 267.61L753.149 265.255M720 265.255H753.149M720 265.255V261.387M785.234 269H817.85M785.234 269L786.299 265.255M753.149 265.255H786.299M753.149 265.255L753.7 261.387M817.85 269L818.047 268.539L818.244 268.075L819.245 265.73L819.448 265.255M817.85 269H850.466M786.299 265.255H819.448M786.299 265.255L786.434 264.779L786.57 264.3L786.707 263.82L787.121 262.367L787.399 261.387M819.448 265.255H852.598M819.448 265.255L821.099 261.387M850.466 269H883.084M850.466 269L852.327 265.73L852.598 265.255M883.084 269H915.7M883.084 269L884.072 267.61L884.404 267.143L885.073 266.203L885.409 265.73L885.747 265.255M852.598 265.255H885.747M852.598 265.255L852.869 264.779L853.141 264.3L853.415 263.82L854.799 261.387M915.7 269H948.317M915.7 269L916.886 267.61L918.087 266.203L918.491 265.73L918.896 265.255M885.747 265.255H918.896M885.747 265.255L886.426 264.3L887.802 262.367L888.499 261.387M948.317 269H980.933M948.317 269L952.045 265.255M918.896 265.255H952.045M918.896 265.255L919.711 264.3L920.122 263.82L920.533 263.337L922.198 261.387M980.933 269H1013.55M980.933 269L981.985 268.075L985.194 265.255M952.045 265.255L952.52 264.779L955.898 261.387M952.045 265.255H985.194M1013.55 269H1046.17M1013.55 269L1018.34 265.255M985.194 265.255H1018.34M985.194 265.255L985.737 264.779L989.597 261.387M1046.17 269H1078.78M1046.17 269L1051.49 265.255M1018.34 265.255H1051.49M1018.34 265.255L1019.57 264.3L1020.18 263.82L1023.3 261.387M1078.78 269H1111.4M1078.78 269L1084.64 265.255M1051.49 265.255H1084.64M1051.49 265.255L1052.17 264.779L1052.85 264.3L1057 261.387M1111.4 269H1144.02M1111.4 269L1117.79 265.255M1084.64 265.255H1117.79M1084.64 265.255L1086.14 264.3L1086.89 263.82L1090.7 261.387M1144.02 269H1176.63M1144.02 269L1150.94 265.255M1117.79 265.255H1150.94M1117.79 265.255L1118.61 264.779L1124.4 261.387M1176.63 269H1209.25M1176.63 269L1184.09 265.255M1150.94 265.255H1184.09M1150.94 265.255L1152.71 264.3L1153.6 263.82L1158.1 261.387M1209.25 269H1241.87M1209.25 269L1217.24 265.255M1184.09 265.255H1217.24M1184.09 265.255L1191.8 261.387M1241.87 269H1274.48M1241.87 269L1250.39 265.255M1217.24 265.255H1250.39M1217.24 265.255L1219.28 264.3L1225.5 261.387M1274.48 269H1307.1M1274.48 269L1283.54 265.255M1250.39 265.255H1283.54M1250.39 265.255L1252.56 264.3L1253.66 263.82L1259.2 261.387M1307.1 269H1339.72M1307.1 269L1316.69 265.255M1283.54 265.255H1316.69M1283.54 265.255L1292.89 261.387M1339.72 269H1372.33M1339.72 269L1349.84 265.255M1316.69 265.255H1349.84M1316.69 265.255L1326.6 261.387M1372.33 269H1404.95M1372.33 269L1382.99 265.255M1349.84 265.255H1382.99M1349.84 265.255L1360.29 261.387M1404.95 269L1409.02 268.999L1413.05 268.99L1416.99 268.968L1420.81 268.923L1424.47 268.85L1427.92 268.74L1431.12 268.588L1434.1 268.394L1436.65 268.125L1438.97 267.814L1439.61 267.705V265.255M1404.95 269L1416.14 265.255M1382.99 265.255H1416.14M1382.99 265.255L1385.7 264.3L1393.99 261.387M1439.61 265.255H1416.14M1439.61 265.255V261.387M1416.14 265.255L1427.69 261.387M1360.29 261.387L1371.1 257.388M1360.29 261.387H1326.6M1360.29 261.387H1393.99M1326.6 261.387L1336.84 257.388M1326.6 261.387H1292.89M1225.5 261.387L1234.03 257.388M1225.5 261.387H1191.8M1225.5 261.387H1259.2M1191.8 261.387L1199.76 257.388M1191.8 261.387H1158.1M1090.7 261.387L1096.96 257.388M1090.7 261.387H1057M1090.7 261.387H1124.4M1057 261.387L1060.53 258.903L1062.69 257.388M1057 261.387H1023.3M955.898 261.387L959.881 257.388M955.898 261.387H922.198M955.898 261.387H989.597M922.198 261.387L924.318 258.903L925.612 257.388M922.198 261.387H888.499M821.099 261.387L821.521 260.4L822.159 258.903L822.59 257.896L822.806 257.388M821.099 261.387H787.399M821.099 261.387H854.799M787.399 261.387H753.7M686.3 261.387H652.601M686.3 261.387H720M652.601 261.387L652.178 259.903L651.607 257.896L651.463 257.388M652.601 261.387H618.901M551.501 261.387L550.799 260.4L548.656 257.388M551.501 261.387H517.802M551.501 261.387H585.202M517.802 261.387L515.682 258.903L514.388 257.388M517.802 261.387H484.102M416.703 261.387L412.231 257.896L411.582 257.388M416.703 261.387H383.003M416.703 261.387H450.402M383.003 261.387L379.47 258.903L377.313 257.388M383.003 261.387H349.303M281.904 261.387L274.507 257.388M281.904 261.387H248.204M281.904 261.387H315.603M248.204 261.387L240.239 257.388M248.204 261.387H214.504M147.105 261.387L137.432 257.388M147.105 261.387H180.805M147.105 261.387H113.405M113.405 261.387L103.164 257.388M113.405 261.387H79.705M1439.73 230.238H1439.61M1439.61 230.238H1406.36M1439.61 230.238V225.107M1439.61 230.238V232.045M1406.36 230.238L1393.71 235.18M1406.36 230.238L1419.5 225.107M1406.36 230.238H1368.23M1393.71 235.18H1431.14M1393.71 235.18L1381.51 239.943M1393.71 235.18H1356.28M1419.5 225.107L1433.16 219.775M1419.5 225.107H1380.64M1419.5 225.107H1439.61M1368.23 230.238L1356.28 235.18M1368.23 230.238L1380.64 225.107M1368.23 230.238H1330.1M1431.14 235.18L1418.26 239.943M1431.14 235.18H1439.61M1431.14 235.18L1439.61 232.045M1381.51 239.943L1369.74 244.537M1381.51 239.943H1344.76M1381.51 239.943H1418.26M1356.28 235.18L1344.76 239.943M1356.28 235.18H1318.85M1418.26 239.943L1405.84 244.537M1418.26 239.943H1439.61M1439.61 235.18V232.045M1439.61 235.18V239.943M1393.86 248.971H1358.39M1393.86 248.971L1382.29 253.252M1393.86 248.971H1429.32M1393.86 248.971L1405.84 244.537M1358.39 248.971L1347.43 253.252M1358.39 248.971L1369.74 244.537M1358.39 248.971H1322.93M1382.29 253.252H1347.43M1382.29 253.252L1371.1 257.388M1382.29 253.252H1417.14M1429.32 248.971L1417.14 253.252M1429.32 248.971H1439.61M1429.32 248.971L1439.61 245.355M1405.84 244.537H1369.74M1405.84 244.537H1439.61M1347.43 253.252H1312.57M1347.43 253.252L1336.84 257.388M1369.74 244.537H1333.65M1322.93 248.971L1312.57 253.252M1322.93 248.971L1333.65 244.537M1322.93 248.971H1287.46M1371.1 257.388H1336.84M1371.1 257.388H1405.37M1417.14 253.252L1405.37 257.388M1417.14 253.252H1439.61M1312.57 253.252H1277.71M1312.57 253.252L1302.57 257.388M1336.84 257.388H1302.57M1439.98 152.233H1439.61M1439.61 152.233H1409.21M1439.61 152.233V160.426M1439.61 152.233V143.632M1409.21 152.233L1392.89 160.426M1409.21 152.233L1426.34 143.632M1409.21 152.233H1359.98M1392.89 160.426L1377.32 168.241M1392.89 160.426H1344.83M1392.89 160.426H1439.61M1426.34 143.632H1375.89M1426.34 143.632H1439.61M1426.34 143.632L1439.61 136.969M1359.98 152.233L1344.83 160.426M1359.98 152.233L1375.89 143.632M1359.98 152.233H1310.75M1377.32 168.241H1424.28M1377.32 168.241L1362.46 175.702M1377.32 168.241H1330.37M1344.83 160.426L1330.37 168.241M1344.83 160.426H1296.76M1439.61 160.426V161.054M1424.28 168.241L1408.35 175.702M1424.28 168.241H1439.61M1424.28 168.241L1439.61 161.054M1408.35 175.702L1393.13 182.834M1408.35 175.702H1362.46M1408.35 175.702H1439.61M1439.61 168.241V161.054M1439.61 168.241V175.702M1393.13 182.834H1348.26M1393.13 182.834L1378.57 189.656M1393.13 182.834H1438.01M1348.26 182.834L1334.67 189.656M1348.26 182.834L1362.46 175.702M1348.26 182.834H1303.38M1378.57 189.656H1334.67M1378.57 189.656H1422.48M1378.57 189.656L1364.63 196.19M1438.01 182.834L1422.48 189.656M1438.01 182.834H1439.61M1438.01 182.834L1439.61 182.13M1334.67 189.656L1321.66 196.19M1334.67 189.656H1290.76M1362.46 175.702H1316.57M1303.38 182.834L1290.76 189.656M1303.38 182.834L1316.57 175.702M1303.38 182.834H1258.51M1422.48 189.656L1407.61 196.19M1422.48 189.656H1439.61M1364.63 196.19H1321.66M1364.63 196.19H1407.61M1364.63 196.19L1351.27 202.453M1321.66 196.19L1309.18 202.453M1321.66 196.19H1278.68M1290.76 189.656L1278.68 196.19M1290.76 189.656H1246.86M1338.44 208.462H1297.21M1338.44 208.462L1326.13 214.231M1338.44 208.462H1379.67M1338.44 208.462L1351.27 202.453M1297.21 208.462L1285.72 214.231M1297.21 208.462L1309.18 202.453M1297.21 208.462H1255.98M1326.13 214.231H1285.72M1326.13 214.231H1366.54M1326.13 214.231L1314.3 219.775M1379.67 208.462H1420.9M1379.67 208.462L1366.54 214.231M1379.67 208.462L1393.35 202.453M1351.27 202.453H1309.18M1351.27 202.453H1393.35M1285.72 214.231L1274.68 219.775M1285.72 214.231H1245.31M1309.18 202.453H1267.1M1255.98 208.462L1245.31 214.231M1255.98 208.462L1267.1 202.453M1255.98 208.462H1214.75M1366.54 214.231H1406.95M1366.54 214.231L1353.92 219.775M1314.3 219.775H1274.68M1314.3 219.775H1353.92M1314.3 219.775L1302.92 225.107M1274.68 219.775L1264.06 225.107M1274.68 219.775H1235.06M1245.31 214.231L1235.06 219.775M1245.31 214.231H1204.9M1291.97 230.238H1253.84M1291.97 230.238L1281.42 235.18M1291.97 230.238H1330.1M1291.97 230.238L1302.92 225.107M1253.84 230.238L1243.99 235.18M1253.84 230.238L1264.06 225.107M1253.84 230.238H1215.71M1281.42 235.18H1243.99M1281.42 235.18H1318.85M1281.42 235.18L1271.26 239.943M1330.1 230.238L1318.85 235.18M1330.1 230.238L1341.78 225.107M1302.92 225.107H1264.06M1302.92 225.107H1341.78M1243.99 235.18L1234.51 239.943M1243.99 235.18H1206.57M1264.06 225.107H1225.2M1215.71 230.238L1206.57 235.18M1215.71 230.238L1225.2 225.107M1215.71 230.238H1177.58M1318.85 235.18L1308.01 239.943M1271.26 239.943H1234.51M1271.26 239.943H1308.01M1271.26 239.943L1261.45 244.537M1234.51 239.943L1225.36 244.537M1234.51 239.943H1197.76M1206.57 235.18L1197.76 239.943M1206.57 235.18H1169.14M1251.99 248.971H1216.53M1251.99 248.971L1242.86 253.252M1251.99 248.971H1287.46M1251.99 248.971L1261.45 244.537M1216.53 248.971L1208 253.252M1216.53 248.971L1225.36 244.537M1216.53 248.971H1181.06M1242.86 253.252H1208M1242.86 253.252L1234.03 257.388M1242.86 253.252H1277.71M1287.46 248.971L1277.71 253.252M1287.46 248.971L1297.55 244.537M1261.45 244.537H1225.36M1261.45 244.537H1297.55M1208 253.252H1173.14M1208 253.252L1199.76 257.388M1225.36 244.537H1189.26M1181.06 248.971L1173.14 253.252M1181.06 248.971L1189.26 244.537M1181.06 248.971H1145.59M1234.03 257.388H1199.76M1234.03 257.388H1268.3M1277.71 253.252L1268.3 257.388M1173.14 253.252H1138.29M1173.14 253.252L1165.49 257.388M1199.76 257.388H1165.49M1414.39 10.181L1391.42 26.326M1414.39 10.181L1438.99 -7.10803M1414.39 10.181H1344.95M1414.39 10.181H1439.61M1391.42 26.326L1369.92 41.436M1391.42 26.326H1324.28M1391.42 26.326H1439.61M1438.99 -7.10803H1367.09L1344.95 10.18M1438.99 -7.10803H1439.61M1438.99 -7.10803L1439.61 -7.54703M1344.95 10.181L1324.28 26.326M1344.95 10.181H1275.51M1324.28 26.326L1304.93 41.436H1239.94H1174.95M1324.28 26.326H1257.14M1439.61 26.326V10.18V-7.10703V-7.54703M1439.61 26.326V38.435M1391.89 68.931H1330.81M1391.89 68.931L1372.26 81.473M1391.89 68.931L1412.73 55.61M1391.89 68.931H1439.61M1330.81 68.931L1312.96 81.473M1330.81 68.931L1349.76 55.61M1330.81 68.931H1269.73M1372.26 81.473H1312.96M1372.26 81.473H1431.56M1372.26 81.473L1353.75 93.303M1412.73 55.61H1349.76M1412.73 55.61L1434.91 41.436M1412.73 55.61H1439.61M1439.61 68.931V55.61M1439.61 68.931V76.754V81.473M1312.96 81.473L1296.13 93.303M1312.96 81.473H1253.67M1349.76 55.61L1369.92 41.437M1349.76 55.61H1286.78M1269.73 68.931L1253.67 81.473M1269.73 68.931L1286.78 55.61M1269.73 68.931H1208.65M1431.56 81.473L1411.36 93.303M1431.56 81.473H1439.61M1431.56 81.473L1439.61 76.753M1353.75 93.303H1296.13M1353.75 93.303H1411.36M1353.75 93.303L1336.25 104.48M1296.13 93.303L1280.23 104.48M1296.13 93.303H1238.52M1253.67 81.473L1238.52 93.303M1253.67 81.473H1194.37M1319.7 115.057H1265.18M1319.7 115.057L1304.01 125.08M1319.7 115.057H1374.22M1319.7 115.057L1336.25 104.48M1265.18 115.057L1250.92 125.08M1265.18 115.057L1280.23 104.48M1265.18 115.057H1210.66M1304.01 125.08H1250.92M1304.01 125.08H1357.11M1304.01 125.08L1289.13 134.592M1374.22 115.057H1428.74M1374.22 115.057L1357.11 125.08M1374.22 115.057L1392.28 104.48M1336.25 104.48H1280.23M1336.25 104.48H1392.28M1250.92 125.08L1237.39 134.592M1250.92 125.08H1197.83M1280.23 104.48H1224.21M1210.66 115.057L1197.83 125.08M1210.66 115.057L1224.21 104.48M1210.66 115.057H1156.15M1357.11 125.08H1410.2M1357.11 125.08L1340.87 134.592M1289.13 134.592H1237.39M1289.13 134.592H1340.87M1289.13 134.592L1274.98 143.632M1237.39 134.592L1224.53 143.632M1237.39 134.592H1185.65M1197.83 125.08L1185.65 134.592M1197.83 125.08H1144.74M1261.52 152.233H1212.29M1261.52 152.233L1248.7 160.426M1261.52 152.233H1310.75M1261.52 152.233L1274.98 143.632M1212.29 152.233L1200.64 160.426M1212.29 152.233L1224.53 143.632M1212.29 152.233H1163.06M1248.7 160.426H1200.64M1248.7 160.426H1296.76M1248.7 160.426L1236.47 168.241M1310.75 152.233L1296.76 160.426M1310.75 152.233L1325.43 143.632M1274.98 143.632H1224.53M1274.98 143.632H1325.43M1200.64 160.426L1189.52 168.241M1200.64 160.426H1152.57M1224.53 143.632H1174.08M1163.06 152.233L1152.57 160.426M1163.06 152.233L1174.08 143.632M1163.06 152.233H1113.83M1296.76 160.426L1283.42 168.241M1236.47 168.241H1189.52M1236.47 168.241H1283.42M1236.47 168.241L1224.79 175.702M1189.52 168.241L1178.9 175.702M1189.52 168.241H1142.57M1152.57 160.426L1142.57 168.241M1152.57 160.426H1104.51M1213.63 182.834H1168.76M1213.63 182.834L1202.95 189.656M1213.63 182.834H1258.51M1213.63 182.834L1224.79 175.702M1168.76 182.834L1159.05 189.656M1168.76 182.834L1178.9 175.702M1168.76 182.834H1123.88M1202.95 189.656H1159.05M1202.95 189.656H1246.86M1202.95 189.656L1192.73 196.19M1258.51 182.834L1246.86 189.656M1258.51 182.834L1270.68 175.702M1224.79 175.702H1178.9M1224.79 175.702H1270.68M1159.05 189.656L1149.75 196.19M1159.05 189.656H1115.14M1178.9 175.702H1133.01M1123.88 182.834L1115.14 189.656M1123.88 182.834L1133.01 175.702M1123.88 182.834H1079M1246.86 189.656L1235.7 196.19M1192.73 196.19H1149.75M1192.73 196.19H1235.7M1192.73 196.19L1182.93 202.453M1149.75 196.19L1140.84 202.453M1149.75 196.19H1106.78M1115.14 189.656L1106.78 196.19M1115.14 189.656H1071.24M1173.52 208.462H1132.3M1173.52 208.462L1164.5 214.231M1173.52 208.462H1214.75M1173.52 208.462L1182.93 202.453M1132.3 208.462L1131.25 209.195L1124.09 214.231M1132.3 208.462L1140.84 202.453M1132.3 208.462H1091.07M1164.5 214.231H1124.09M1164.5 214.231H1204.9M1164.5 214.231L1155.82 219.775M1214.75 208.462L1204.9 214.231M1214.75 208.462L1225.01 202.453M1182.93 202.453H1140.84M1182.93 202.453H1225.01M1124.09 214.231L1116.2 219.775M1124.09 214.231H1083.68M1140.84 202.453H1098.76M1091.07 208.462L1083.68 214.231M1091.07 208.462L1098.76 202.453M1091.07 208.462H1049.84M1204.9 214.231L1195.44 219.775M1155.82 219.775H1116.2M1155.82 219.775H1195.44M1155.82 219.775L1147.48 225.107M1116.2 219.775L1109.55 224.451L1108.61 225.107M1116.2 219.775H1076.58M1083.68 214.231L1076.58 219.775M1083.68 214.231H1043.27M1139.44 230.238H1101.31M1139.44 230.238L1131.71 235.18M1139.44 230.238H1177.58M1139.44 230.238L1147.48 225.107M1101.31 230.238L1094.28 235.18M1101.31 230.238L1104.02 228.336L1108.61 225.107M1101.31 230.238H1063.18M1131.71 235.18H1094.28M1131.71 235.18H1169.14M1131.71 235.18L1124.26 239.943M1177.58 230.238L1170.18 234.573L1169.14 235.18M1177.58 230.238L1186.34 225.107M1147.48 225.107H1108.61M1147.48 225.107H1186.34M1094.28 235.18L1087.51 239.943M1094.28 235.18H1056.85M1108.61 225.107H1069.75M1063.18 230.238L1056.85 235.18M1063.18 230.238L1064.8 228.974L1069.75 225.107M1063.18 230.238H1025.05M1169.14 235.18L1161.01 239.943M1124.26 239.943H1087.51M1124.26 239.943H1161.01M1124.26 239.943L1117.07 244.537M1087.51 239.943L1080.97 244.537M1087.51 239.943H1050.75M1056.85 235.18L1050.75 239.943M1056.85 235.18H1019.43M1110.13 248.971H1074.66M1110.13 248.971L1103.43 253.252M1110.13 248.971H1145.59M1110.13 248.971L1117.07 244.537M1074.66 248.971L1070.07 252.195L1069.32 252.725L1068.57 253.252M1074.66 248.971L1080.97 244.537M1074.66 248.971H1039.2M1103.43 253.252H1068.57M1103.43 253.252L1096.96 257.388M1103.43 253.252H1138.29M1145.59 248.971L1138.29 253.252M1145.59 248.971L1153.16 244.537M1117.07 244.537H1080.97M1117.07 244.537H1153.16M1068.57 253.252H1033.71M1068.57 253.252L1062.69 257.388M1080.97 244.537H1044.87M1039.2 248.971L1033.71 253.252M1039.2 248.971L1044.87 244.537M1039.2 248.971H1003.73M1096.96 257.388H1062.69M1096.96 257.388H1131.22M1138.29 253.252L1131.22 257.388M1033.71 253.252H998.857M1033.71 253.252L1028.42 257.388M1062.69 257.388H1028.42M1389.23 -173.731H1293.63M1389.23 -173.731L1359.13 -143.504M1389.23 -173.731L1422.31 -206.948M1389.23 -173.731L1439.61 -173.732M1293.63 -173.731L1267.82 -143.504M1293.63 -173.731L1321.98 -206.948M1293.63 -173.731H1198.02M1359.13 -143.504H1267.82M1359.13 -143.504L1331.62 -115.878M1359.13 -143.504H1439.61M1422.31 -206.948H1321.98M1422.31 -206.948L1439.61 -224.32M1422.31 -206.948H1439.61M1439.61 -173.732V-206.948M1439.61 -173.732V-143.504M1267.82 -143.504L1244.24 -115.878M1267.82 -143.504H1176.52M1321.98 -206.948L1353.28 -243.619M1321.98 -206.948H1221.65M1198.02 -173.731L1176.52 -143.504M1198.02 -173.731L1221.65 -206.948M1198.02 -173.731H1102.42M1331.62 -115.878H1244.24M1331.62 -115.878H1418.99M1331.62 -115.878L1306.37 -90.533M1439.61 -143.504V-133.998M1244.24 -115.878L1222.61 -90.533M1244.24 -115.878H1156.87M1176.52 -143.504L1156.87 -115.878M1176.52 -143.504H1085.22M1283.13 -67.197H1202.69M1283.13 -67.197L1261.67 -45.64M1283.13 -67.197H1363.58M1283.13 -67.197L1306.37 -90.533M1202.69 -67.197L1184.28 -45.64M1202.69 -67.197L1222.61 -90.533M1202.69 -67.197H1122.24M1261.67 -45.64H1184.28M1261.67 -45.64H1339.05M1261.67 -45.64L1241.77 -25.667M1363.58 -67.197L1339.05 -45.64M1363.58 -67.197L1390.14 -90.533M1363.58 -67.197H1439.61M1306.37 -90.533H1222.61M1184.28 -45.64L1167.23 -25.667M1184.28 -45.64H1106.9M1222.61 -90.533H1138.84M1122.24 -67.197L1106.9 -45.64M1122.24 -67.197H1041.79M1339.05 -45.64H1416.43M1339.05 -45.64L1316.31 -25.667M1241.77 -25.667H1167.23M1241.77 -25.667H1316.31M1241.77 -25.667L1223.29 -7.10703H1151.39H1079.49M1167.23 -25.667L1151.39 -7.10803L1136.63 10.181M1167.23 -25.667H1092.7M1106.9 -45.64L1092.7 -25.667M1106.9 -45.64H1029.52M1136.63 10.18H1206.07L1189.99 26.326M1189.99 26.326H1122.85M1189.99 26.326H1257.14M1189.99 26.326L1174.95 41.436M1275.51 10.181H1206.07L1223.29 -7.10803H1295.19L1275.51 10.181ZM1275.51 10.181L1257.14 26.326M1136.63 10.181L1122.85 26.326M1136.63 10.181H1067.2M1122.85 26.326L1109.95 41.436M1122.85 26.326H1055.71M1067.2 10.181L1055.71 26.326M1067.2 10.181H997.756M1257.14 26.326L1239.94 41.437L1223.81 55.61M1174.95 41.436L1160.83 55.61M1055.71 26.326L1044.96 41.436H979.969H914.977M1055.71 26.326H988.568M1147.57 68.931H1086.48M1147.57 68.931L1135.07 81.473M1147.57 68.931H1208.65M1147.57 68.931L1160.83 55.61M1086.48 68.931L1075.78 81.473M1086.48 68.931L1097.85 55.61M1086.48 68.931H1025.4M1135.07 81.473H1075.78M1135.07 81.473H1194.37M1135.07 81.473L1123.29 93.303M1208.65 68.931L1194.37 81.473M1208.65 68.931L1223.81 55.61M1160.83 55.61H1097.85M1160.83 55.61H1223.81M1075.78 81.473L1065.68 93.303M1075.78 81.473H1016.48M1097.85 55.61L1109.95 41.437M1097.85 55.61H1034.88M1025.4 68.931L1016.48 81.473M1025.4 68.931L1034.88 55.61M1025.4 68.931H964.323M1194.37 81.473L1180.91 93.303M1123.29 93.303H1065.68M1123.29 93.303H1180.91M1123.29 93.303L1112.16 104.48M1065.68 93.303L1056.14 104.48M1065.68 93.303H1008.07M1016.48 81.473L1008.07 93.303M1016.48 81.473H957.185M1101.63 115.057H1047.11M1101.63 115.057L1091.65 125.08M1101.63 115.057H1156.15M1101.63 115.057L1112.16 104.48M1047.11 115.057L1038.55 125.08M1047.11 115.057L1056.14 104.48M1047.11 115.057H992.591M1091.65 125.08H1038.55M1091.65 125.08H1144.74M1091.65 125.08L1082.17 134.592M1156.15 115.057L1144.74 125.08M1156.15 115.057L1168.18 104.48M1112.16 104.48H1056.14M1112.16 104.48H1168.18M1038.55 125.08L1030.43 134.592M1038.55 125.08H985.461M1056.14 104.48H1000.12M992.591 115.057L985.461 125.08M992.591 115.057L1000.12 104.48M992.591 115.057H938.073M1144.74 125.08L1133.91 134.592M1082.17 134.592H1030.43M1082.17 134.592H1133.91M1082.17 134.592L1073.17 143.632M1030.43 134.592L1022.72 143.632M1030.43 134.592H978.695M985.461 125.08L978.695 134.592M985.461 125.08H932.369M1064.6 152.233H1015.38M1064.6 152.233L1056.44 160.426M1064.6 152.233H1113.83M1064.6 152.233L1073.17 143.632M1015.38 152.233L1008.38 160.426M1015.38 152.233L1022.72 143.632M1015.38 152.233H966.146M1056.44 160.426H1008.38M1056.44 160.426H1104.51M1056.44 160.426L1048.66 168.241M1113.83 152.233L1104.51 160.426M1113.83 152.233L1123.62 143.632M1073.17 143.632H1022.72M1073.17 143.632H1123.62M1008.38 160.426L1001.71 168.241M1008.38 160.426H960.318M1022.72 143.632H972.265M966.146 152.233L960.318 160.426M966.146 152.233L972.265 143.632M966.146 152.233H916.917M1104.51 160.426L1095.61 168.241M1048.66 168.241H1001.71M1048.66 168.241H1095.61M1048.66 168.241L1041.23 175.702M1001.71 168.241L995.341 175.702M1001.71 168.241H954.759M960.318 160.426L956.812 165.353L954.759 168.241M960.318 160.426H912.254M1034.13 182.834H989.253M1034.13 182.834L1027.33 189.656M1034.13 182.834H1079M1034.13 182.834L1041.23 175.702M989.253 182.834L983.43 189.656M989.253 182.834L995.341 175.702M989.253 182.834H944.378M1027.33 189.656H983.43M1027.33 189.656H1071.24M1027.33 189.656L1020.83 196.19M1079 182.834L1071.24 189.656M1079 182.834L1087.12 175.702M1041.23 175.702H995.341M1041.23 175.702H1087.12M983.43 189.656L977.852 196.19M983.43 189.656H939.524M995.341 175.702H949.451M944.378 182.834L939.524 189.656M944.378 182.834L945.625 181.081L949.451 175.702M944.378 182.834H899.503M1071.24 189.656L1063.8 196.19M1020.83 196.19H977.852M1020.83 196.19H1063.8M1020.83 196.19L1014.59 202.453M977.852 196.19L975.151 199.355L972.506 202.453M977.852 196.19H934.877M939.524 189.656L934.877 196.19M939.524 189.656H895.62M1008.61 208.462H967.376M1008.61 208.462L1002.86 214.231M1008.61 208.462H1049.84M1008.61 208.462L1014.59 202.453M967.376 208.462L968.007 207.724L972.506 202.453M967.376 208.462L962.452 214.231M967.376 208.462H926.147M1002.86 214.231H962.452M1002.86 214.231H1043.27M1002.86 214.231L997.339 219.775M1049.84 208.462L1043.27 214.231M1049.84 208.462L1056.67 202.453M1014.59 202.453H972.506M1014.59 202.453H1056.67M972.506 202.453H930.421M962.452 214.231L957.719 219.775M962.452 214.231H922.043M926.147 208.462L922.043 214.231M926.147 208.462L930.421 202.453M926.147 208.462H884.918M1043.27 214.231L1036.96 219.775M997.339 219.775H957.719M997.339 219.775H1036.96M997.339 219.775L992.029 225.107M957.719 219.775L953.168 225.107M957.719 219.775H918.1M922.043 214.231L918.1 219.775M922.043 214.231H881.635M986.919 230.238H948.788M986.919 230.238L981.997 235.18M986.919 230.238H1025.05M986.919 230.238L992.029 225.107M948.788 230.238L944.569 235.18M948.788 230.238L950.411 228.336L951.506 227.054L953.168 225.107M948.788 230.238H910.657M981.997 235.18H944.569M981.997 235.18H1019.43M981.997 235.18L977.254 239.943M1025.05 230.238L1019.43 235.18M1025.05 230.238L1030.89 225.107M992.029 225.107H953.168M992.029 225.107H1030.89M944.569 235.18L943.027 236.987L942.01 238.178L940.503 239.943M944.569 235.18H907.141M953.168 225.107H914.307M910.657 230.238L909.765 231.491L907.141 235.18M910.657 230.238L911.105 229.607L911.556 228.974L912.921 227.054L913.382 226.408L914.307 225.107M910.657 230.238H872.526M1019.43 235.18L1014 239.943M977.254 239.943H940.503M977.254 239.943H1014M977.254 239.943L973.807 243.405L972.678 244.537M940.503 239.943L938.525 242.261L936.582 244.537M940.503 239.943H903.752M907.141 235.18L906.71 235.785L906.282 236.388L904.588 238.769L903.752 239.943M907.141 235.18H869.712M968.263 248.971H932.798M968.263 248.971L965.052 252.195L964 253.252M968.263 248.971H1003.73M968.263 248.971L972.118 245.1L972.678 244.537M932.798 248.971L930.044 252.195L929.593 252.725L929.143 253.252M932.798 248.971L934.673 246.774L936.582 244.537M932.798 248.971H897.331M964 253.252H929.143M964 253.252L959.881 257.388M964 253.252H998.857M1003.73 248.971L998.857 253.252M1003.73 248.971L1008.78 244.537M972.678 244.537H936.582M972.678 244.537H1008.78M929.143 253.252H894.286M929.143 253.252L925.612 257.388M936.582 244.537H900.485M897.331 248.971L894.286 253.252M897.331 248.971L900.485 244.537M897.331 248.971H861.865M959.881 257.388H925.612M959.881 257.388H994.149M998.857 253.252L995.311 256.367L994.149 257.388M894.286 253.252H859.429M894.286 253.252L892.07 256.367L891.343 257.388M925.612 257.388H891.343M1006.81 -173.731H911.209M1006.81 -173.731L993.912 -143.504M1006.81 -173.731H1102.42M1006.81 -173.731L1020.99 -206.948M911.209 -173.731L902.608 -143.504M911.209 -173.731L920.66 -206.948M911.209 -173.731H815.604L811.304 -143.504M993.912 -143.504H902.608M993.912 -143.504H1085.22M993.912 -143.504L982.121 -115.878M1102.42 -173.731L1085.22 -143.504M1102.42 -173.731L1121.32 -206.947M1020.99 -206.948H920.66M1020.99 -206.948L1036.64 -243.618M1020.99 -206.948L1121.32 -206.947M902.608 -143.504L894.747 -115.878M902.608 -143.504H811.304M920.66 -206.948L931.095 -243.618M920.66 -206.948L820.33 -206.947M1085.22 -143.504L1069.49 -115.878M982.121 -115.878H894.747M982.121 -115.878H1069.49M982.121 -115.878L971.304 -90.533M894.747 -115.878L887.535 -90.533M894.747 -115.878H807.374M811.304 -143.504L807.374 -115.878M811.304 -143.504H720M961.343 -67.197H880.896M961.343 -67.197L952.142 -45.64M961.343 -67.197H1041.79M961.343 -67.197L971.304 -90.533M880.896 -67.197L874.762 -45.64M880.896 -67.197L887.535 -90.533M880.896 -67.197H800.447M952.142 -45.64H874.762M952.142 -45.64H1029.52M952.142 -45.64L943.617 -25.667M1041.79 -67.197L1029.52 -45.64M1041.79 -67.197L1055.07 -90.533M971.304 -90.533H887.535M874.762 -45.64L869.078 -25.667M874.762 -45.64H797.381M887.535 -90.533H803.768M800.447 -67.197L797.381 -45.64M800.447 -67.197H720M1029.52 -45.64L1018.16 -25.667M943.617 -25.667H869.078M943.617 -25.667H1018.16M943.617 -25.667L935.696 -7.10703H863.797H791.899M869.078 -25.667L863.797 -7.10803L858.878 10.181M869.078 -25.667H794.539M797.381 -45.64L794.539 -25.667M797.381 -45.64H720M858.878 10.18H928.317L921.426 26.326M921.426 26.326H854.284M921.426 26.326H988.568M921.426 26.326L914.977 41.436M997.756 10.181H928.317L935.696 -7.10803H1007.6L997.756 10.181ZM997.756 10.181L988.568 26.326M858.878 10.181L854.284 26.326M858.878 10.181H789.439M854.284 26.326L849.984 41.436M854.284 26.326H787.142M789.439 10.181L787.142 26.326M789.439 10.181H720H650.561L648.101 -7.10803H720V10.18V26.326M988.568 26.326L979.969 41.437L971.903 55.61M914.977 41.436L908.927 55.61M787.142 26.326L784.992 41.436H720H655.008M787.142 26.326H720M903.242 68.931H842.162M903.242 68.931L897.889 81.473M903.242 68.931H964.323M903.242 68.931L908.927 55.61M842.162 68.931L838.593 81.473M842.162 68.931L845.952 55.61M842.162 68.931H781.081M897.889 81.473H838.593M897.889 81.473H957.185M897.889 81.473L892.84 93.303M964.323 68.931L957.185 81.473M964.323 68.931L971.903 55.61M908.927 55.61H845.952M908.927 55.61H971.903M838.593 81.473L835.226 93.303M838.593 81.473H779.296M845.952 55.61L849.984 41.437M845.952 55.61H782.976M781.081 68.931L779.296 81.473M781.081 68.931L782.976 55.61M781.081 68.931H720M957.185 81.473L950.453 93.303M892.84 93.303H835.226M892.84 93.303H950.453M892.84 93.303L888.069 104.48M835.226 93.303L832.046 104.48M835.226 93.303H777.613M779.296 81.473L777.613 93.303M779.296 81.473L720 81.472M883.555 115.057H829.036M883.555 115.057L879.277 125.08M883.555 115.057H938.073M883.555 115.057L888.069 104.48M829.036 115.057L826.185 125.08M829.036 115.057L832.046 104.48M829.036 115.057H774.518M879.277 125.08H826.185M879.277 125.08H932.369M879.277 125.08L875.217 134.592M938.073 115.057L932.369 125.08M938.073 115.057L944.093 104.48M888.069 104.48H832.046M888.069 104.48H944.093M826.185 125.08L823.478 134.592M826.185 125.08H773.092M832.046 104.48H776.023M774.518 115.057L773.092 125.08M774.518 115.057L776.023 104.48M774.518 115.057H720M932.369 125.08L926.956 134.592M875.217 134.592H823.478M875.217 134.592H926.956M875.217 134.592L871.358 143.632M823.478 134.592L820.906 143.632M823.478 134.592H771.739M773.092 125.08L771.739 134.592M773.092 125.08L720 125.079M867.688 152.233H818.459M867.688 152.233L864.191 160.426M867.688 152.233H916.917M867.688 152.233L871.358 143.632M818.459 152.233L816.127 160.426M818.459 152.233L820.906 143.632M818.459 152.233H769.229M864.191 160.426H816.127M864.191 160.426H912.254M864.191 160.426L862.921 163.4L860.855 168.241M916.917 152.233L912.254 160.426M916.917 152.233L921.812 143.632M871.358 143.632H820.906M871.358 143.632H921.812M816.127 160.426L813.903 168.241M816.127 160.426H768.063M820.906 143.632H770.453M769.229 152.233L768.063 160.426M769.229 152.233L770.453 143.632M769.229 152.233H720M912.254 160.426L907.807 168.241M860.855 168.241H813.903M860.855 168.241H907.807M860.855 168.241L857.671 175.702M813.903 168.241L811.781 175.702M813.903 168.241H766.952M768.063 160.426L766.952 168.241M768.063 160.426L720 160.425M854.627 182.834H809.751M854.627 182.834L851.715 189.656M854.627 182.834H899.503M854.627 182.834L856.896 177.515L857.671 175.702M809.751 182.834L809.013 185.427L807.81 189.656M809.751 182.834L811.781 175.702M809.751 182.834H764.875M851.715 189.656L851.36 190.488L848.926 196.19M851.715 189.656H807.81M851.715 189.656H895.62M899.503 182.834L895.62 189.656M899.503 182.834L900 181.959L901.509 179.308L903.561 175.702M857.671 175.702H811.781M857.671 175.702H903.561M807.81 189.656L807.103 192.139L806.871 192.958L806.638 193.772L805.951 196.19M807.81 189.656H763.905M811.781 175.702H765.89M764.875 182.834L763.905 189.656M764.875 182.834L765.89 175.702M764.875 182.834H720M848.926 196.19H805.951M848.926 196.19H891.901M848.926 196.19L846.253 202.453M895.62 189.656L891.901 196.19M805.951 196.19L805.273 198.569L805.051 199.355L804.168 202.453M805.951 196.19H762.975M763.905 189.656L763.787 190.488L762.975 196.19M763.905 189.656H720M843.689 208.462H802.459M843.689 208.462L842.445 211.375L842.138 212.094L841.833 212.81L841.528 213.522L841.226 214.231M843.689 208.462H884.918M843.689 208.462L846.253 202.453M802.459 208.462L801.222 212.81L801.019 213.522L800.818 214.231M802.459 208.462L804.168 202.453M802.459 208.462H761.229M841.226 214.231H800.818M841.226 214.231H881.635M841.226 214.231L839.736 217.721L839.443 218.41L838.86 219.775M884.918 208.462L882.443 212.81L881.635 214.231M884.918 208.462L886.184 206.237L887.47 203.979L888.338 202.453M846.253 202.453H804.168M846.253 202.453H888.338M800.818 214.231L799.824 217.721L799.628 218.41L799.434 219.094L799.24 219.775M800.818 214.231H760.408M804.168 202.453H762.085M761.229 208.462L760.408 214.231M761.229 208.462L761.546 206.237L761.867 203.979L762.085 202.453M761.229 208.462H720M881.635 214.231L878.48 219.775M838.86 219.775H799.24M838.86 219.775H878.48M838.86 219.775L836.584 225.107M799.24 219.775L797.723 225.107M799.24 219.775H759.62M760.408 214.231L759.62 219.775M760.408 214.231L720 214.23M834.394 230.238H796.262M834.394 230.238L832.284 235.18M834.394 230.238H872.526M834.394 230.238L834.934 228.974L835.753 227.054L836.584 225.107M796.262 230.238L796.442 229.607L797.537 225.759L797.723 225.107M796.262 230.238L794.856 235.18M796.262 230.238H758.131M832.284 235.18H794.856M832.284 235.18H869.712M832.284 235.18L830.251 239.943M872.526 230.238L870.059 234.573L869.712 235.18M872.526 230.238L872.884 229.607L873.245 228.974L873.607 228.336L875.445 225.107M836.584 225.107H797.723M836.584 225.107H875.445M797.723 225.107H758.861M794.856 235.18L794.342 236.987L794.173 237.584L794.003 238.178L793.501 239.943M794.856 235.18H757.428M758.131 230.238L757.601 233.963L757.515 234.574L757.428 235.181M758.131 230.238L758.861 225.107M758.131 230.238H720M869.712 235.18L867.002 239.943M826.398 248.971H790.933M826.398 248.971L825.022 252.195L824.572 253.252M826.398 248.971H861.865M826.398 248.971L827.101 247.327L827.336 246.774L827.574 246.218L828.291 244.537M790.933 248.971L790.778 249.514L790.471 250.593L790.166 251.664L789.715 253.252M790.933 248.971L791.558 246.774L791.715 246.218L792.034 245.1L792.194 244.537M790.933 248.971H755.466M824.572 253.252H789.715M824.572 253.252L823.024 256.879L822.806 257.388M824.572 253.252H859.429M861.865 248.971L859.429 253.252M861.865 248.971L864.388 244.537M828.291 244.537H792.194M828.291 244.537L828.532 243.973L828.775 243.406L829.017 242.835L829.263 242.262L829.508 241.686L829.755 241.109L830.251 239.944M828.291 244.537H864.388M789.715 253.252L789.565 253.777L789.416 254.299L789.268 254.819L789.121 255.338L788.682 256.879L788.537 257.388M789.715 253.252H754.857M792.194 244.537L792.355 243.973L792.516 243.406L792.679 242.835L792.841 242.262L793.17 241.109L793.335 240.528L793.501 239.944M792.194 244.537L756.097 244.538M822.806 257.388H857.075M859.429 253.252L858.241 255.338L857.364 256.879L857.075 257.388M624.396 -173.731H528.791M624.396 -173.731L628.696 -143.504M624.396 -173.731H720M624.396 -173.731L619.67 -206.948M528.791 -173.731L537.392 -143.504M528.791 -173.731L519.34 -206.948M528.791 -173.731H433.186L446.088 -143.504M628.696 -143.504H537.392M628.696 -143.504H720M628.696 -143.504L632.626 -115.878M619.67 -206.948H519.34M619.67 -206.948L614.452 -243.618M619.67 -206.948L720 -206.947M537.392 -143.504L545.253 -115.878M537.392 -143.504H446.088M519.34 -206.948L508.905 -243.618M519.34 -206.948L419.009 -206.947M720 -143.504V-115.878M720 -143.504V-173.73M632.626 -115.878H545.253M632.626 -115.878H720M632.626 -115.878L636.232 -90.533M545.253 -115.878L552.464 -90.533M545.253 -115.878H457.879M446.088 -143.504L457.879 -115.878M446.088 -143.504H354.784M639.553 -67.197H559.104M639.553 -67.197L642.619 -45.64M639.553 -67.197H720M639.553 -67.197L636.232 -90.533M559.104 -67.197L565.238 -45.64M559.104 -67.197L552.464 -90.533M559.104 -67.197H478.657M642.619 -45.64H565.238M642.619 -45.64H720M642.619 -45.64L645.461 -25.667M720 -67.197V-45.64M720 -67.197V-90.533M636.232 -90.533H552.464M565.238 -45.64L570.922 -25.667M565.238 -45.64H487.858M552.464 -90.533H468.696M478.657 -67.197L487.858 -45.64M478.657 -67.197H398.209M720 -45.64V-25.668M645.461 -25.667H570.922M645.461 -25.667H720M645.461 -25.667L648.101 -7.10703H576.203H504.304M570.922 -25.667L576.203 -7.10803L581.122 10.181M570.922 -25.667H496.383M487.858 -45.64L496.383 -25.667M487.858 -45.64H410.476M581.122 10.18H650.561L652.858 26.326M652.858 26.326H585.716M652.858 26.326H720M652.858 26.326L655.008 41.436M581.122 10.181L585.716 26.326M581.122 10.181H511.683M585.716 26.326L590.015 41.436M585.716 26.326H518.574M511.683 10.181L518.574 26.326M511.683 10.181H442.244M720 26.326V41.437V55.61M655.008 41.436L657.024 55.61M518.574 26.326L525.023 41.436H460.031M518.574 26.326H451.432M658.919 68.93H597.838M658.919 68.93L660.704 81.472M658.919 68.93H720M658.919 68.93L657.024 55.609M597.838 68.93L601.407 81.472M597.838 68.93L594.048 55.609M597.838 68.93H536.758M660.704 81.472H601.407M660.704 81.472H720M660.704 81.472L662.387 93.302M720 68.93V81.472M720 68.93V55.61M601.407 81.472L604.774 93.302M601.407 81.472H542.111M720 81.472V93.303M542.111 81.472L547.16 93.303M542.111 81.472L536.758 68.931M542.111 81.472L482.815 81.473M665.482 115.056H610.964M665.482 115.056L666.908 125.079M665.482 115.056H720M665.482 115.056L663.977 104.479M610.964 115.056L613.815 125.079M610.964 115.056L607.954 104.479M610.964 115.056H556.445M666.908 125.079H613.815M666.908 125.079H720M666.908 125.079L668.261 134.591M613.815 125.079L616.522 134.591M613.815 125.079H560.723M720 125.079V134.592M720 125.079V115.057M560.723 125.079L564.783 134.592M560.723 125.079L556.445 115.057M560.723 125.079L507.631 125.08M670.771 152.232H621.541M670.771 152.232L671.937 160.425M670.771 152.232H720M670.771 152.232L669.547 143.631M621.541 152.232L623.873 160.425M621.541 152.232L619.094 143.631M621.541 152.232H572.312M671.937 160.425H623.873M671.937 160.425H720M671.937 160.425L673.048 168.24M669.547 143.631H619.094M669.547 143.631L669.39 142.526L668.261 134.592M669.547 143.631L720 143.632M623.873 160.425L626.097 168.24M623.873 160.425H575.809M619.094 143.631L616.522 134.592M619.094 143.631L568.641 143.632M720 160.425V168.241M720 160.425V152.233M673.048 168.24H626.097M673.048 168.24L720 168.241M673.048 168.24L674.11 175.701M626.097 168.24L628.219 175.701M626.097 168.24L579.145 168.241M575.809 160.425L576.658 162.414L579.145 168.241M575.809 160.425L572.312 152.233M575.809 160.425L527.746 160.426M675.125 182.833H630.249M675.125 182.833L676.095 189.655M675.125 182.833H720M675.125 182.833L674.11 175.701M630.249 182.833L631.952 188.818L632.19 189.655M630.249 182.833L628.219 175.701M630.249 182.833H585.373M676.095 189.655L676.213 190.487L677.025 196.189M676.095 189.655H632.19M676.095 189.655H720M674.11 175.701H628.219M674.11 175.701L720 175.702M632.19 189.655L632.897 192.138L633.129 192.957L633.362 193.771L634.049 196.189M632.19 189.655H588.285M628.219 175.701L582.329 175.702M678.771 208.461H637.541M678.771 208.461L679.591 214.23M678.771 208.461H720M678.771 208.461L678.454 206.236L678.347 205.487L678.241 204.734L678.025 203.217L677.915 202.452M637.541 208.461L638.778 212.809L639.183 214.23M637.541 208.461L635.832 202.452M637.541 208.461H596.311M679.591 214.23H639.183M679.591 214.23H720M679.591 214.23L680.38 219.774M639.183 214.23L640.175 217.72L640.372 218.409L640.566 219.093L640.76 219.774M639.183 214.23H598.774M720 214.23V219.775M720 214.23V208.462M680.38 219.774H640.76M680.38 219.774L720 219.775M680.38 219.774L681.139 225.107M640.76 219.774L642.277 225.107M640.76 219.774L601.14 219.775M598.774 214.23L598.472 213.522L598.167 212.81L597.862 212.094L596.311 208.462M598.774 214.23L599.969 217.03L600.264 217.721L600.557 218.41L601.14 219.775M598.774 214.23L558.365 214.231M681.869 230.237H643.738M681.869 230.237L682.572 235.179M681.869 230.237H720M681.869 230.237L681.139 225.106M643.738 230.237L643.558 229.606L642.463 225.758L642.277 225.106M643.738 230.237L645.144 235.179M643.738 230.237H605.606M682.572 235.179H645.144M682.572 235.179H720M682.572 235.179L683.249 239.942M645.144 235.179L645.658 236.986L645.827 237.583L645.997 238.177L646.499 239.942M645.144 235.179H607.716M684.533 248.97H649.067M684.533 248.97L685.143 253.251M684.533 248.97H720M684.533 248.97L683.903 244.536M649.067 248.97L649.222 249.513L649.53 250.592L649.682 251.129L649.985 252.194L650.135 252.724L650.286 253.251M649.067 248.97L648.442 246.773L648.285 246.217L647.966 245.099L647.806 244.536M649.067 248.97H613.601M685.143 253.251L685.217 253.776L685.292 254.298L685.366 254.818L685.731 257.387M685.143 253.251H650.286M685.143 253.251H720M650.286 253.251H615.428M650.286 253.251L650.584 254.298L650.732 254.818L650.879 255.337L651.317 256.878L651.463 257.387M613.601 248.97L614.978 252.195L615.428 253.251M613.601 248.97L612.426 246.218L611.709 244.537M613.601 248.97L578.135 248.971M615.428 253.251L580.571 253.252M615.428 253.251L616.758 256.367L617.194 257.388M241.977 -173.731H146.373M241.977 -173.731L263.48 -143.504M241.977 -173.731H337.581M241.977 -173.731L218.348 -206.948M146.373 -173.731L172.176 -143.504M146.373 -173.731L118.019 -206.948M146.373 -173.731H50.768M263.48 -143.504H172.176M263.48 -143.504H354.784M263.48 -143.504L283.131 -115.878M218.348 -206.948H118.019M218.348 -206.948L192.263 -243.619M218.348 -206.948H318.679M172.176 -143.504L195.758 -115.878M172.176 -143.504H80.872M118.019 -206.948L86.716 -243.619M118.019 -206.948H17.688M50.768 -173.731L80.872 -143.504M50.768 -173.731L17.688 -206.948M50.768 -173.731H0.388M354.784 -143.504L370.505 -115.878M354.784 -143.504L337.581 -173.73M283.131 -115.878H195.758M283.131 -115.878H370.505M283.131 -115.878L301.161 -90.533M195.758 -115.878L217.393 -90.533M195.758 -115.878H108.384M80.872 -143.504L108.384 -115.878M80.872 -143.504H0.387M317.76 -67.197H237.312M317.76 -67.197L333.095 -45.64M317.76 -67.197H398.208M317.76 -67.197L301.16 -90.533M237.312 -67.197L255.714 -45.64M237.312 -67.197L217.392 -90.533M237.312 -67.197H156.865M333.095 -45.64H255.714M333.095 -45.64H410.476M333.095 -45.64L347.303 -25.667M255.714 -45.64L272.765 -25.667M255.714 -45.64H178.334M156.865 -67.197L178.334 -45.64M156.865 -67.197L133.625 -90.533M156.865 -67.197H76.418M410.476 -45.64L421.844 -25.667M410.476 -45.64L398.209 -67.197M347.303 -25.667H272.765M347.303 -25.667H421.844M347.303 -25.667L360.506 -7.10703M272.765 -25.667L288.607 -7.10803L303.365 10.18H372.804M272.765 -25.667H198.226M178.334 -45.64L198.226 -25.667M178.334 -45.64H100.953M372.804 10.18L384.29 26.326M372.804 10.18H442.244M372.804 10.18L360.506 -7.10803M384.29 26.326H317.147M384.29 26.326H451.432M384.29 26.326L395.039 41.436M317.147 26.326L303.365 10.181H233.926M317.147 26.326L330.046 41.436M317.147 26.326H250.005M451.432 26.326L460.031 41.437L468.097 55.61M451.432 26.326L442.244 10.181M250.005 26.326L265.054 41.436M250.005 26.326L233.926 10.18L216.708 -7.10703M250.005 26.326H182.862M414.596 68.93H353.516M414.596 68.93L423.518 81.472M414.596 68.93H475.677M414.596 68.93L405.121 55.609L395.039 41.435H460.031M353.516 68.93L364.222 81.472M353.516 68.93L342.145 55.61M423.518 81.472H364.222M423.518 81.472L482.815 81.473M423.518 81.472L431.934 93.303H374.321M364.222 81.472L374.321 93.303M364.222 81.472L304.926 81.473M342.145 55.61L330.046 41.437M342.145 55.61H279.169M342.145 55.61H405.121H468.097M353.516 68.931H292.435M292.435 68.931L279.169 55.61M292.435 68.931H231.355M482.815 81.473L489.547 93.303M482.815 81.473L475.677 68.931M374.321 93.303L383.861 104.48M374.321 93.303H316.707M304.926 81.473L316.707 93.303M304.926 81.473L292.435 68.93M304.926 81.473H245.629M447.409 115.057H392.89M447.409 115.057L454.539 125.08M447.409 115.057H501.927M447.409 115.057L439.885 104.48M392.89 115.057L401.446 125.08M392.89 115.057L383.861 104.48M392.89 115.057H338.371M454.539 125.08H401.446M454.539 125.08H507.631M454.539 125.08L461.305 134.592M501.927 115.057H556.445M501.927 115.057L503.382 117.612L507.631 125.08M501.927 115.057L495.907 104.48M439.885 104.48H383.861M439.885 104.48H495.907M401.446 125.08L409.566 134.592M401.446 125.08H348.354M383.861 104.48H327.838M338.371 115.057L348.354 125.08M338.371 115.057L327.838 104.48M338.371 115.057H283.853M507.631 125.08L513.044 134.592M461.305 134.592H409.566M461.305 134.592H513.044M461.305 134.592L467.735 143.632M409.566 134.592L417.282 143.632M409.566 134.592H357.827M348.354 125.08L357.827 134.592M348.354 125.08H295.261M473.854 152.233H424.625M473.854 152.233L479.682 160.426M473.854 152.233H523.083M473.854 152.233L467.735 143.632M424.625 152.233L431.619 160.426M424.625 152.233L417.282 143.632M424.625 152.233H375.396M479.682 160.426H431.619M479.682 160.426H527.746M479.682 160.426L485.241 168.241M523.083 152.233H572.312M523.083 152.233L527.746 160.426M523.083 152.233L518.188 143.632M467.735 143.632H417.282M467.735 143.632H518.188M431.619 160.426L438.29 168.241M431.619 160.426H383.556M417.282 143.632H366.83M375.396 152.233L383.556 160.426M375.396 152.233L366.83 143.632M375.396 152.233H326.166M527.746 160.426L532.193 168.241M485.241 168.241H438.29M485.241 168.241H532.193M485.241 168.241L490.549 175.702M438.29 168.241L444.659 175.702M438.29 168.241H391.338M383.556 160.426L391.338 168.241M383.556 160.426H335.492M495.622 182.834L495 181.959L494.374 181.081L490.549 175.702M495.622 182.834H450.746M495.622 182.834L500.475 189.656M495.622 182.834H540.497M490.549 175.702H444.659M490.549 175.702H536.439M450.746 182.834L456.57 189.656M450.746 182.834L444.659 175.702M450.746 182.834H405.87M500.475 189.656H456.57M500.475 189.656H544.38M500.475 189.656L505.123 196.19M540.497 182.834H585.373M540.497 182.834L544.38 189.656M540.497 182.834L538.491 179.308L536.439 175.702M456.57 189.656L462.148 196.19M456.57 189.656H412.665M444.659 175.702H398.769M405.87 182.834L412.665 189.656M405.87 182.834L398.769 175.702M405.87 182.834H360.995M544.38 189.656H588.285M544.38 189.656L548.099 196.19M505.123 196.19H462.148M505.123 196.19H548.099M505.123 196.19L506.255 197.78L509.579 202.453M462.148 196.19L464.179 198.569L464.849 199.355L467.494 202.453M462.148 196.19H419.173M412.665 189.656L419.173 196.19M412.665 189.656H368.76M513.853 208.462H472.623M513.853 208.462L517.957 214.231M513.853 208.462H555.082M513.853 208.462L509.579 202.453M472.623 208.462L475.725 212.094L477.548 214.231M472.623 208.462L467.494 202.453M472.623 208.462H431.393M517.957 214.231H477.548M517.957 214.231H558.365M517.957 214.231L521.415 219.094L521.9 219.775M555.082 208.462H596.311M555.082 208.462L557.556 212.81L558.365 214.231M555.082 208.462L553.816 206.237L551.662 202.453M509.579 202.453H467.494M509.579 202.453H551.662M477.548 214.231L482.28 219.775M477.548 214.231H437.139M467.494 202.453H425.409M431.393 208.462L437.139 214.231M431.393 208.462L425.409 202.453M431.393 208.462H390.164M558.365 214.231L561.52 219.775M521.9 219.775H482.28M521.9 219.775H561.52M521.9 219.775L525.693 225.107M482.28 219.775L486.832 225.107M482.28 219.775H442.661M437.139 214.231L440.616 217.721L441.3 218.41L442.661 219.775M437.139 214.231H396.731M529.343 230.238H491.212M529.343 230.238L530.234 231.491L532.859 235.18M529.343 230.238H567.474M529.343 230.238L528.444 228.974L526.618 226.408L525.693 225.107M491.212 230.238L495.431 235.18M491.212 230.238L489.589 228.336L488.494 227.054L486.832 225.107M491.212 230.238H453.081M532.859 235.18H495.431M532.859 235.18H570.288M532.859 235.18L535.412 238.769L536.248 239.943M567.474 230.238H605.606M567.474 230.238L569.941 234.573L570.288 235.18M567.474 230.238L567.116 229.607L566.755 228.974L566.393 228.336L564.555 225.107M525.693 225.107H486.832M525.693 225.107H564.555M495.431 235.18L496.973 236.987L497.99 238.178L499.497 239.943M495.431 235.18H458.003M486.832 225.107H447.971M453.081 230.238L458.003 235.18M453.081 230.238L449.91 227.054L449.266 226.408L447.971 225.107M453.081 230.238H414.949M570.288 235.18H607.716M570.288 235.18L572.998 239.943M536.248 239.943H499.497M536.248 239.943H572.998M536.248 239.943L539.515 244.537M499.497 239.943L501.476 242.261L501.965 242.834L503.419 244.537M499.497 239.943H462.746M458.003 235.18L462.746 239.943M458.003 235.18H420.574M542.669 248.971H507.202M542.669 248.971L544.585 251.664L545.714 253.252M542.669 248.971H578.135M542.669 248.971L539.515 244.537M507.202 248.971L509.956 252.195L510.407 252.725L510.857 253.252M507.202 248.971L505.327 246.774L503.418 244.537M507.202 248.971H471.737M545.714 253.252H510.857M545.714 253.252L547.198 255.338L547.93 256.367L548.294 256.879L548.656 257.388M545.714 253.252H580.571M578.135 248.971L579.97 252.195L580.571 253.252M578.135 248.971L575.612 244.537M539.515 244.537H503.419M539.515 244.537H575.612M510.857 253.252H476M510.857 253.252L514.388 257.388M548.656 257.388H514.388M548.656 257.388H582.925M580.571 253.252L581.759 255.338L582.636 256.879L582.925 257.388M476 253.252H441.143M476 253.252L480.119 257.388M514.388 257.388H480.119M23.572 -45.64H100.953M23.572 -45.64L49.147 -25.667M23.572 -45.64H0.387M23.572 -45.64L0.387 -63.747M100.953 -45.64L123.686 -25.667M100.953 -45.64L76.418 -67.197M49.147 -25.667L72.912 -7.10703H144.81M49.147 -25.667H123.686M49.147 -25.667H0.387M0.387 -45.64V-25.667M0.387 -45.64V-63.747M0.387 -63.747V-67.197V-90.533M95.048 10.18H25.609L1.012 -7.10803H72.911L95.048 10.18ZM95.048 10.18L115.72 26.325M95.048 10.18H164.487M115.72 26.325L48.579 26.326M115.72 26.325L182.862 26.326M115.72 26.325L135.07 41.436M164.487 10.18L182.862 26.327M164.487 10.18L144.809 -7.10803M48.579 26.326L25.609 10.181H0.387M48.579 26.326L70.078 41.436M48.579 26.326H0.388M182.862 26.326L200.062 41.437M186.332 81.472L170.273 68.93H109.192L90.242 55.61M231.355 68.93H170.274L153.217 55.61M231.355 68.93L245.629 81.473M231.355 68.93L216.193 55.61M153.217 55.61H90.242M153.217 55.61L135.07 41.437M153.217 55.61H216.193M127.036 81.473L109.193 68.931H48.112M127.036 81.473H186.333M127.036 81.473L143.868 93.303M127.036 81.473H67.74M90.242 55.61L70.077 41.437M90.242 55.61H27.266M48.112 68.931L27.266 55.61M48.112 68.931H0.387M186.333 81.473H245.629M186.333 81.473L201.481 93.303M245.629 81.473L259.094 93.303M201.481 93.303H143.868M201.481 93.303H259.094M201.481 93.303L215.792 104.48M143.868 93.303L159.769 104.48M143.868 93.303H86.254M67.74 81.473L86.254 93.303M67.74 81.473L48.112 68.93M67.74 81.473H8.444M229.335 115.057H174.817M229.335 115.057L242.169 125.08M229.335 115.057H283.853M229.335 115.057L215.792 104.48M174.817 115.057L189.077 125.08M174.817 115.057L159.769 104.48M174.817 115.057H120.298M242.169 125.08H189.077M242.169 125.08H295.261M242.169 125.08L254.349 134.592M283.853 115.057L295.261 125.08M283.853 115.057L271.816 104.48M215.792 104.48H159.769M215.792 104.48H271.816M189.077 125.08L202.611 134.592M189.077 125.08H135.985M159.769 104.48H103.746M120.298 115.057L135.985 125.08M120.298 115.057L103.746 104.48M120.298 115.057H65.78M295.261 125.08L306.089 134.592M254.349 134.592H202.611M254.349 134.592H306.089M254.349 134.592L265.924 143.632M202.611 134.592L215.471 143.632M202.611 134.592H150.871M135.985 125.08L150.871 134.592M135.985 125.08H82.893M276.937 152.233H227.708M276.937 152.233L287.428 160.426M276.937 152.233H326.166M276.937 152.233L265.924 143.632M227.708 152.233L239.365 160.426M227.708 152.233L215.471 143.632M227.708 152.233H178.479M287.428 160.426H239.365M287.428 160.426H335.492M287.428 160.426L297.435 168.241M326.166 152.233L335.492 160.426M326.166 152.233L316.377 143.632M265.924 143.632H215.471M265.924 143.632H316.377M239.365 160.426L250.483 168.241M239.365 160.426H191.301M215.471 143.632H165.018M178.479 152.233L191.301 160.426M178.479 152.233L165.018 143.632M178.479 152.233H129.249M335.492 160.426L344.386 168.241M297.435 168.241H250.483M297.435 168.241H344.386M297.435 168.241L306.988 175.702M250.483 168.241L261.098 175.702M250.483 168.241H203.531M191.301 160.426L203.531 168.241M191.301 160.426H143.238M316.119 182.834H271.244M316.119 182.834L324.856 189.656M316.119 182.834H360.995M316.119 182.834L306.988 175.702M271.244 182.834L280.951 189.656M271.244 182.834L261.098 175.702M271.244 182.834H226.368M324.856 189.656H280.951M324.856 189.656H368.76M324.856 189.656L333.222 196.19M360.995 182.834L368.76 189.656M360.995 182.834L352.878 175.702M306.988 175.702H261.098M306.988 175.702H352.878M280.951 189.656L290.247 196.19M280.951 189.656H237.046M261.098 175.702H215.208M226.368 182.834L237.046 189.656M226.368 182.834L215.208 175.702M226.368 182.834H181.492M368.76 189.656L376.197 196.19M333.222 196.19H290.247M333.222 196.19H376.197M333.222 196.19L341.241 202.453M290.247 196.19L299.156 202.453M290.247 196.19H247.271M237.046 189.656L247.271 196.19M237.046 189.656H193.141M348.935 208.462H307.706M348.935 208.462L356.322 214.231M348.935 208.462H390.164M348.935 208.462L341.241 202.453M307.706 208.462L315.913 214.231M307.706 208.462L299.156 202.453M307.706 208.462H266.475M356.322 214.231H315.913M356.322 214.231H396.731M356.322 214.231L363.421 219.775M390.164 208.462L396.731 214.231M390.164 208.462L383.326 202.453M341.241 202.453H299.156M341.241 202.453H383.326M315.913 214.231L323.801 219.775M315.913 214.231H275.504M299.156 202.453H257.073M266.475 208.462L275.504 214.231M266.475 208.462L257.073 202.453M266.475 208.462H225.246M396.731 214.231L403.041 219.775M363.421 219.775H323.801M363.421 219.775H403.041M363.421 219.775L370.247 225.107M323.801 219.775L330.454 224.451L331.386 225.107M323.801 219.775H284.181M275.504 214.231L284.181 219.775M275.504 214.231H235.096M376.818 230.238H338.687M376.818 230.238L383.146 235.18M376.818 230.238H414.949M376.818 230.238L375.198 228.974L374.384 228.336L370.247 225.107M338.687 230.238L345.718 235.18M338.687 230.238L331.386 225.107M338.687 230.238H300.556M383.146 235.18H345.718M383.146 235.18H420.574M383.146 235.18L389.245 239.943M414.949 230.238L420.574 235.18M414.949 230.238L409.109 225.107M370.247 225.107H331.386M370.247 225.107H409.109M345.718 235.18L352.495 239.943M345.718 235.18H308.29M331.386 225.107H292.525M300.556 230.238L308.29 235.18M300.556 230.238L292.525 225.107M300.556 230.238H262.424M420.574 235.18L425.996 239.943M389.245 239.943H352.495M389.245 239.943H425.996M389.245 239.943L395.127 244.537M352.495 239.943L359.03 244.537M352.495 239.943H315.744M308.29 235.18L315.744 239.943M308.29 235.18H270.862M400.804 248.971H365.338M400.804 248.971L406.286 253.252M400.804 248.971H436.27M400.804 248.971L395.127 244.537M365.338 248.971L369.926 252.195L370.678 252.725L371.429 253.252M365.338 248.971L359.03 244.537M365.338 248.971H329.872M406.286 253.252H371.429M406.286 253.252L410.929 256.879L411.582 257.388M406.286 253.252H441.143M436.27 248.971H471.738M436.27 248.971L441.143 253.252M436.27 248.971L431.225 244.537M395.127 244.537H359.03M395.127 244.537H431.225M371.429 253.252H336.571M371.429 253.252L377.313 257.388M359.03 244.537H322.934M329.872 248.971L336.571 253.252M329.872 248.971L322.934 244.537M329.872 248.971H294.405M411.582 257.388H377.313M411.582 257.388H445.851M441.143 253.252L444.689 256.367L445.851 257.388M336.571 253.252H301.714M336.571 253.252L343.044 257.388M377.313 257.388H343.044M11.262 115.057L29.8 125.08M11.262 115.057H65.78M11.262 115.057L0.387 109.177M11.262 115.057H0.387M29.8 125.08H82.893M29.8 125.08L47.393 134.592M29.8 125.08H0.387M65.78 115.057L82.893 125.08M65.78 115.057L47.723 104.48M0.387 109.177V115.057M0.387 109.177V104.48M0.387 115.057V125.08M82.893 125.08L99.132 134.592M47.393 134.592L64.112 143.632M47.393 134.592H99.132M47.393 134.592H0.387M0.387 125.08V134.592M80.02 152.233H30.79M80.02 152.233L95.175 160.426M80.02 152.233H129.249M80.02 152.233L64.112 143.632M30.79 152.233L47.11 160.426M30.79 152.233L13.659 143.632M30.79 152.233H0.387M95.175 160.426H47.11M95.175 160.426H143.237M95.175 160.426L109.627 168.241M129.249 152.233L143.238 160.426M129.249 152.233L114.565 143.632M64.112 143.632H13.659M64.112 143.632H114.565M47.11 160.426L62.675 168.241M47.11 160.426H0.387M13.659 143.632L0.387 136.969M13.659 143.632H0.387M0.387 152.233H0.022M0.387 152.233V160.426M0.387 152.233V143.632M109.627 168.241H62.675M109.627 168.241H156.579M109.627 168.241L123.427 175.702M62.675 168.241L77.537 175.702M62.675 168.241H15.724M0.387 160.426V161.054M136.617 182.834H91.741M136.617 182.834L149.236 189.656M136.617 182.834H181.492M136.617 182.834L123.427 175.702M91.741 182.834L105.331 189.656M91.741 182.834L77.537 175.702M91.741 182.834H46.865M149.236 189.656H105.331M149.236 189.656H193.141M149.236 189.656L161.321 196.19M181.492 182.834L193.141 189.656M181.492 182.834L169.317 175.702M123.427 175.702H77.537M123.427 175.702H169.317M105.331 189.656L118.345 196.19M105.331 189.656H61.426M77.537 175.702H31.647M46.865 182.834L61.426 189.656M46.865 182.834L31.647 175.702M46.865 182.834H1.99M193.141 189.656L204.296 196.19M161.321 196.19H118.345M161.321 196.19H204.296M161.321 196.19L172.904 202.453M118.345 196.19L130.82 202.453M118.345 196.19H75.37M61.426 189.656L75.37 196.19M61.426 189.656H17.52M184.017 208.462H142.788M184.017 208.462L194.687 214.231M184.017 208.462H225.246M184.017 208.462L172.904 202.453M142.788 208.462L154.278 214.231M142.788 208.462L130.82 202.453M142.788 208.462H101.557M194.687 214.231H154.278M194.687 214.231H235.096M194.687 214.231L204.941 219.775M225.246 208.462L235.096 214.231M225.246 208.462L214.989 202.453M172.904 202.453H130.82M172.904 202.453H214.989M154.278 214.231L165.321 219.775M154.278 214.231H113.87M130.82 202.453H88.735M101.557 208.462L113.87 214.231M101.557 208.462L88.735 202.453M101.557 208.462H60.329M235.096 214.231L244.561 219.775M204.941 219.775H165.321M204.941 219.775H244.561M204.941 219.775L214.802 225.107M165.321 219.775L175.941 225.107M165.321 219.775H125.701M113.87 214.231L125.701 219.775M113.87 214.231H73.46H33.053L19.099 208.462M224.293 230.238H186.161M224.293 230.238L233.433 235.18M224.293 230.238H262.424M224.293 230.238L214.802 225.107M186.161 230.238L196.005 235.18M186.161 230.238L175.941 225.107M186.161 230.238H148.03M233.433 235.18H196.005M233.433 235.18H270.862M233.433 235.18L242.243 239.943M262.424 230.238L269.824 234.573L270.862 235.18M262.424 230.238L253.663 225.107M214.802 225.107H175.941M214.802 225.107H253.663M196.005 235.18L205.493 239.943M196.005 235.18H158.577M175.941 225.107H137.079M148.03 230.238L158.577 235.18M148.03 230.238L137.079 225.107M148.03 230.238H109.899M270.862 235.18L278.994 239.943M242.243 239.943H205.493M242.243 239.943H278.994M242.243 239.943L250.74 244.537M205.493 239.943L214.642 244.537M205.493 239.943H168.742M158.577 235.18L168.742 239.943M158.577 235.18H121.149M258.939 248.971H223.473M258.939 248.971L266.857 253.252M258.939 248.971H294.405M258.939 248.971L250.74 244.537M223.473 248.971L232 253.252M223.473 248.971L214.642 244.537M223.473 248.971H188.006M266.857 253.252H232M266.857 253.252L274.507 257.388M266.857 253.252H301.714M294.405 248.971L301.714 253.252M294.405 248.971L286.837 244.537M250.74 244.537H214.642M250.74 244.537H286.837M232 253.252H197.142M232 253.252L240.239 257.388M214.642 244.537H178.546M188.006 248.971L197.142 253.252M188.006 248.971L178.546 244.537M188.006 248.971H152.541M274.507 257.388H240.239M274.507 257.388H308.776M301.714 253.252L308.776 257.388M197.142 253.252H162.285M197.142 253.252L205.97 257.388M240.239 257.388H205.97M19.099 208.462H60.329M19.099 208.462L4.566 202.453M19.099 208.462H0.387M60.329 208.462L73.462 214.231L86.081 219.775M60.329 208.462L46.651 202.453M4.566 202.453H46.651M4.566 202.453H0.387M4.566 202.453L0.387 200.726M0.387 208.462V214.231M0.387 208.462V202.453M46.46 219.775L33.052 214.231H0.387M46.46 219.775H6.841M46.46 219.775H86.081M46.46 219.775L59.357 225.107M0.387 214.231V217.255M71.767 230.238H33.637M71.767 230.238L83.721 235.18M71.767 230.238H109.899M71.767 230.238L59.357 225.107M33.637 230.238L46.293 235.18M33.637 230.238L20.496 225.107M33.637 230.238H0.387M83.721 235.18H46.293M83.721 235.18H121.149M83.721 235.18L95.241 239.943M109.899 230.238L121.149 235.18M109.899 230.238L98.218 225.107M59.357 225.107H20.496M59.357 225.107H98.218M46.293 235.18L58.491 239.943M46.293 235.18H8.865M20.496 225.107L6.841 219.775M20.496 225.107H0.387M0.387 230.238H0.271M0.387 230.238V232.045M0.387 230.238V225.107M121.149 235.18L131.992 239.943M95.241 239.943H58.491M95.241 239.943H131.992M95.241 239.943L106.352 244.537M58.491 239.943L70.255 244.537M58.491 239.943H21.74M8.865 235.18L21.74 239.943M8.865 235.18L0.387 232.045M8.865 235.18H0.387M117.074 248.971H81.608M117.074 248.971L127.428 253.252M117.074 248.971H152.541M117.074 248.971L106.352 244.537M81.608 248.971L92.571 253.252M81.608 248.971L70.255 244.537M81.608 248.971H46.14M127.428 253.252H92.571M127.428 253.252L137.432 257.388M127.428 253.252H162.285M152.541 248.971L162.285 253.252M152.541 248.971L142.449 244.537M106.352 244.537H70.255M106.352 244.537H142.449M92.571 253.252H57.714M92.571 253.252L103.164 257.388M70.255 244.537H34.158M137.432 257.388H103.164M137.432 257.388H171.701M162.285 253.252L171.701 257.388M57.714 253.252L46.142 248.971M57.714 253.252H22.857M57.714 253.252L68.895 257.388M103.164 257.388H68.895M34.158 244.537L46.142 248.971M34.158 244.537L21.74 239.943M34.158 244.537H0.388M46.142 248.971H10.676M10.676 248.971L22.857 253.252M10.676 248.971L0.387 245.355M10.676 248.971H0.387M22.857 253.252L34.627 257.388M22.857 253.252H0.387M68.895 257.388H34.627M68.895 257.388L79.705 261.387M21.74 239.943H0.387M0.387 245.355V248.971M0.387 245.355V244.537V239.943M0.387 248.971V253.252M34.627 257.388L46.006 261.387M34.627 257.388H0.388M0.387 253.252V257.388M79.705 261.387H46.006M46.006 261.387H12.307M0.387 232.045V235.18M0.387 235.18V239.943M131.992 239.943L142.449 244.537M131.992 239.943H168.742M142.449 244.537H178.546M6.841 219.775L0.387 217.255M6.841 219.775H0.387M0.387 225.107V219.775M0.387 217.255V219.775M86.081 219.775L98.218 225.107M86.081 219.775H125.701M98.218 225.107H137.079M178.546 244.537L168.742 239.943M205.97 257.388H171.701M205.97 257.388L214.504 261.387M171.701 257.388L180.805 261.387M214.504 261.387H180.805M278.994 239.943L286.837 244.537M278.994 239.943H315.744M286.837 244.537H322.934M137.079 225.107L125.701 219.775M244.561 219.775L253.663 225.107M244.561 219.775H284.181M253.663 225.107H292.525M88.735 202.453L75.37 196.19M88.735 202.453H46.651M46.651 202.453L32.393 196.19M75.37 196.19H32.393M32.393 196.19L17.52 189.656M32.393 196.19H0.388M0.387 202.453V200.726M0.387 200.726V196.19M17.52 189.656L1.991 182.834M17.52 189.656H0.387M204.296 196.19L214.989 202.453M204.296 196.19H247.271M214.989 202.453H257.073M31.647 175.702L15.724 168.241M31.647 175.702H0.387M1.99 182.834L0.387 182.13M1.99 182.834H0.387M0.387 189.656V196.19M0.387 189.656V182.834M0.163 196.19H0.387M0.387 182.13L0 181.959M0.387 182.13V182.834M0.387 182.13V175.702M15.724 168.241H0.387M15.724 168.241L0.387 161.054M0.387 175.702V168.241M0.387 168.241V161.054M156.579 168.241L169.317 175.702M156.579 168.241H203.531M156.579 168.241L143.238 160.426M169.317 175.702H215.208M0.387 136.969L0.241 136.895M0.387 136.969V143.632M0.387 136.969V134.592M114.565 143.632H165.018M114.565 143.632L99.132 134.592M322.934 244.537L315.744 239.943M343.044 257.388H308.776M343.044 257.388L349.303 261.387M308.776 257.388L309.642 257.896L311.364 258.903L315.603 261.387M349.303 261.387H315.603M425.996 239.943L431.225 244.537M425.996 239.943H462.746M431.225 244.537H467.322M292.525 225.107L284.181 219.775M403.041 219.775L409.109 225.107M403.041 219.775H442.661M409.109 225.107H447.971M257.073 202.453L247.271 196.19M376.197 196.19L383.326 202.453M376.197 196.19H419.173M383.326 202.453H425.409M215.208 175.702L203.531 168.241M344.386 168.241L352.878 175.702M344.386 168.241H391.338M352.878 175.702H398.769M165.018 143.632L150.871 134.592M150.871 134.592H99.132M306.089 134.592L316.377 143.632M306.089 134.592H357.827M316.377 143.632H366.83M103.746 104.48L86.254 93.303M103.746 104.48H47.723M47.723 104.48L28.64 93.303H0.387M47.723 104.48H0.387M86.254 93.303H28.641L8.443 81.473M0.387 104.48V93.303M8.444 81.473H0.387M8.444 81.473L0.387 76.753V68.931M259.094 93.303L271.816 104.48M0.387 93.303V81.473M271.816 104.48H327.838M27.266 55.61L5.086 41.437M27.266 55.61H0.387M0.387 68.931V55.61M0.387 81.473L0.386 76.754M70.077 41.437H5.086M70.077 41.437H135.07M5.086 41.437L0.387 38.435M5.086 41.437H0.387M0.387 55.61V41.437M135.07 41.437H200.062M0.387 38.435V41.437M0.387 38.435V26.325V10.182V-7.10803V-7.54703V-25.667M200.062 41.437L216.193 55.61M216.193 55.61H279.169M1.01 -7.10803H0.388M1.013 -7.10803L0.388 -7.54703M144.81 -7.10703H216.708M144.81 -7.10703L123.686 -25.667M503.419 244.537H467.322M467.322 244.537L467.882 245.1L471.738 248.971M467.322 244.537L466.193 243.405L462.746 239.943M471.738 248.971L474.949 252.195L476.001 253.252M480.119 257.388H445.851M480.119 257.388L484.102 261.387M445.851 257.388L447.576 258.903L450.402 261.387M484.102 261.387H450.402M572.998 239.943L573.66 241.108L575.612 244.537M572.998 239.943H609.749M575.612 244.537H611.709M447.971 225.107L442.661 219.775M561.52 219.775L561.906 220.453L562.29 221.128L564.555 225.107M561.52 219.775H601.14M564.555 225.107H603.416M425.409 202.453L419.173 196.19M548.099 196.19L551.662 202.453M548.099 196.19H591.074M551.662 202.453H593.747M398.769 175.702L391.338 168.241M532.193 168.241L536.439 175.702M532.193 168.241H579.145M536.439 175.702H582.329M366.83 143.632L357.827 134.592M513.044 134.592L518.188 143.632M513.044 134.592H564.783M518.188 143.632H568.641M327.838 104.48L316.707 93.303M316.707 93.302H259.094M489.547 93.302H431.934L439.885 104.479M495.907 104.48H551.931M495.907 104.48L489.547 93.303M279.169 55.61L265.054 41.437H330.046M330.046 41.437H395.039M265.054 41.435H200.062M468.097 55.61L475.677 68.931M468.097 55.61H531.073M216.708 -7.10703H288.607H360.506M216.708 -7.10703L198.226 -25.667M233.926 10.182H164.487M360.506 -7.10703H432.405M198.226 -25.667H123.686M421.844 -25.667L432.405 -7.10703M421.844 -25.667H496.383M432.405 -7.10703H504.304M133.625 -90.533H217.393M133.625 -90.533L108.384 -115.878M133.625 -90.533H49.857M76.418 -67.197L49.857 -90.533M76.418 -67.197H0.388M49.857 -90.533L21.01 -115.878M49.857 -90.533H0.387M217.393 -90.533H301.161M301.161 -90.533H384.929M108.384 -115.878H21.01M21.01 -115.878H0.386M21.01 -115.878L0.387 -133.998M0.387 -90.533L0.386 -115.878M0.387 -143.504V-133.998M0.387 -143.504V-173.731V-206.948V-224.32V-243.618M370.505 -115.878L384.929 -90.533M370.505 -115.878H457.879M0.386 -115.878L0.387 -133.998M384.929 -90.533L398.209 -67.197M384.929 -90.533H468.696M17.688 -206.948L0.388 -224.32M17.688 -206.948H0.388M86.716 -243.619H192.263M86.716 -243.619L0.387 -243.618M192.263 -243.619H297.81M0.387 -243.618V-243.749H1439.61V-243.618M318.679 -206.948L337.581 -173.73M318.679 -206.948L419.009 -206.947M318.679 -206.948L297.81 -243.618H403.358M647.806 244.537L647.645 243.972L647.484 243.405L647.321 242.834L647.159 242.261L646.665 240.527L646.499 239.943M647.806 244.537H611.709M647.806 244.537H683.903M646.499 239.943H609.749M646.499 239.943H683.249M611.709 244.537L611.468 243.972L611.225 243.405L610.982 242.834L610.737 242.261L609.749 239.943M683.903 244.537L683.249 239.943M683.903 244.537H720M617.194 257.388H651.463M617.194 257.388L617.41 257.896L617.84 258.903L618.268 259.903L618.479 260.4L618.901 261.387M617.194 257.388H582.925M651.463 257.388H685.731M609.749 239.943L607.716 235.18M582.925 257.388L584.92 260.895L585.202 261.387M618.901 261.387H585.202M683.249 239.943H720V235.18V230.238M607.716 235.18L605.606 230.238M605.606 230.238L605.066 228.974L604.247 227.054L603.416 225.107M720 244.537L756.097 244.538M720 244.537V248.972M720 244.537V239.944H756.75M603.416 225.107H642.277M603.416 225.107L601.14 219.775M642.277 225.107H681.139M681.139 225.107H720M596.311 208.462L594.073 203.218L593.747 202.453M720 219.775V225.107M720 219.775H759.62M720 225.107V230.238M720 225.107H758.861M593.747 202.453H635.832M593.747 202.453L591.074 196.19M635.832 202.453L634.949 199.355L634.727 198.569L634.049 196.19M635.832 202.453H677.915M634.049 196.19H591.074M634.049 196.19H677.025M677.915 202.453L677.696 200.912L677.251 197.78L677.025 196.19M677.915 202.453H720M591.074 196.19L588.285 189.656M677.025 196.19H720M588.285 189.656L585.373 182.834M585.373 182.834L583.103 177.515L582.329 175.702M720 196.19V202.453M720 196.19H762.975M720 196.19V189.656M720 202.453V208.462M720 202.453H762.085M582.329 175.702L579.145 168.241M572.312 152.233L568.641 143.632M720 168.241V175.702M720 168.241H766.952M720 175.702V182.834M720 175.702H765.89M568.641 143.632L564.783 134.592M616.522 134.592H564.783M616.522 134.592H668.261M668.261 134.592H720M556.445 115.057L551.931 104.48M720 134.592V143.632M720 134.592H771.739M720 143.632V152.233M720 143.632H770.453M551.931 104.48H607.954M551.931 104.48L547.16 93.303M607.954 104.48L604.774 93.303M607.954 104.48H663.977M604.774 93.303H547.16M604.774 93.303H662.387M663.977 104.48L662.387 93.303M663.977 104.48H720M547.16 93.303H489.547M662.387 93.303H720M536.758 68.931L531.073 55.61M536.758 68.931H475.677M720 93.303V104.48M720 93.303H777.613M720 104.48V115.057M720 104.48H776.023M531.073 55.61H594.048M531.073 55.61L525.023 41.437H590.015M594.048 55.61L590.015 41.437M594.048 55.61H657.024M590.015 41.437H655.008M657.024 55.61H720M720 55.61H782.976M511.683 10.18L504.304 -7.10803M442.244 10.181L432.405 -7.10803M504.304 -7.10703L496.383 -25.667M720 -25.667V-7.10703H791.899M720 -25.667H794.539M478.657 -67.198L468.696 -90.533M468.696 -90.533L457.879 -115.878M720 -115.878V-90.533M720 -115.878H807.374M636.232 -90.534H720M419.009 -206.947L433.186 -173.73H337.581M419.009 -206.947L403.358 -243.618M508.905 -243.618H403.358M508.905 -243.618H614.452M614.452 -243.618H720M720 -243.618V-206.947M720 -243.618H825.548M720 -206.947V-173.73M720 -206.947H820.33M793.501 239.944H756.75M793.501 239.944H830.251M756.097 244.538L755.466 248.972M756.097 244.538L756.178 243.973L756.258 243.406L756.34 242.835L756.75 239.944M755.466 248.972L754.857 253.253M755.466 248.972H720M754.857 253.253L754.783 253.778L754.708 254.3L754.634 254.82L754.268 257.389M754.857 253.253H720M720 248.972V253.253M754.268 257.389H788.537M754.268 257.389H720M754.268 257.389L754.053 258.904L753.981 259.405L753.7 261.388M720 253.253V257.389M788.537 257.389L788.393 257.897L787.822 259.904L787.399 261.388M788.537 257.389H822.806M756.75 239.944L757.428 235.181M720 257.389H685.731L685.946 258.904L686.018 259.405L686.089 259.904L686.16 260.401L686.23 260.896L686.3 261.388M720 257.389V261.388M830.251 239.944H867.002M757.428 235.181H720M864.388 244.537H900.485M864.388 244.537L866.34 241.108L867.002 239.943M758.861 225.107L759.62 219.775M878.48 219.775L875.445 225.107M878.48 219.775H918.1M875.445 225.107H914.307M762.085 202.453L762.303 200.912L762.749 197.78L762.975 196.19M720 189.656V182.834M891.901 196.19L888.338 202.453M891.901 196.19H934.877M888.338 202.453H930.421M765.89 175.702L766.952 168.241M907.807 168.241L903.561 175.702M907.807 168.241H954.759M903.561 175.702H949.451M770.453 143.632L771.739 134.592M926.956 134.592L921.812 143.632M926.956 134.592H978.695M921.812 143.632H972.265M776.023 104.48L777.613 93.303M950.453 93.303L944.093 104.48M950.453 93.303H1008.07M944.093 104.48H1000.12M782.976 55.61L784.992 41.437H849.984M849.984 41.437H914.977M971.903 55.61H1034.88M789.439 10.18L791.899 -7.10803M791.899 -7.10703L794.539 -25.667M1018.16 -25.667L1007.6 -7.10703H1079.49M1018.16 -25.667H1092.7M800.447 -67.198L803.768 -90.533M803.768 -90.533L807.374 -115.878M803.768 -90.533H720M1069.49 -115.878L1055.07 -90.533M1069.49 -115.878H1156.87M971.304 -90.534H1055.07M820.33 -206.947L815.604 -173.73H720M820.33 -206.947L825.548 -243.618M931.095 -243.618H825.548M931.095 -243.618H1036.64M1036.64 -243.618H1142.19M1121.32 -206.947L1221.65 -206.948M1121.32 -206.947L1142.19 -243.619H1247.74M900.485 244.537L903.752 239.943M891.343 257.388H857.075M891.343 257.388L889.201 260.4L888.499 261.387M903.752 239.943H867.002M857.075 257.388L856.786 257.896L856.212 258.903L854.799 261.387M888.499 261.387H854.799M1014 239.943L1008.78 244.537M1014 239.943H1050.75M1008.78 244.537H1044.87M914.307 225.107L918.1 219.775M1036.96 219.775L1031.64 224.451L1030.89 225.107M1036.96 219.775H1076.58M1030.89 225.107H1069.75M930.421 202.453L934.877 196.19M1063.8 196.19L1056.67 202.453M1063.8 196.19H1106.78M1056.67 202.453H1098.76M949.451 175.702L954.759 168.241M1095.61 168.241L1087.12 175.702M1095.61 168.241H1142.57M1087.12 175.702H1133.01M972.265 143.632L978.695 134.592M1133.91 134.592L1123.62 143.632M1133.91 134.592H1185.65M1123.62 143.632H1174.08M1000.12 104.48L1008.07 93.303M1180.91 93.303L1168.18 104.48M1180.91 93.303H1238.52M1168.18 104.48H1224.21M1034.88 55.61L1044.96 41.437H1109.95M1109.95 41.437H1174.95M1223.81 55.61H1286.78M1067.2 10.18L1079.49 -7.10803M1079.49 -7.10703L1092.7 -25.667M1316.31 -25.667L1295.19 -7.10703H1367.09L1390.85 -25.667M1316.31 -25.667H1390.85M1122.24 -67.198L1138.84 -90.533M1138.84 -90.533L1156.87 -115.878M1138.84 -90.533H1055.07M1418.99 -115.878L1390.14 -90.533M1418.99 -115.878H1439.61M1418.99 -115.878L1439.61 -133.998M1306.37 -90.534H1390.14M1221.65 -206.948L1247.74 -243.619M1353.28 -243.619H1247.74M1353.28 -243.619L1439.61 -243.618M1439.61 -243.618V-224.32M1439.61 -224.32V-206.948M1044.87 244.537L1050.75 239.943M1028.42 257.388L1027.77 257.896L1023.3 261.387M1028.42 257.388H994.149M994.149 257.388L992.424 258.903L989.597 261.387M1023.3 261.387H989.597M1161.01 239.943L1153.16 244.537M1161.01 239.943H1197.76M1153.16 244.537H1189.26M1069.75 225.107L1076.58 219.775M1195.44 219.775L1186.34 225.107M1195.44 219.775H1235.06M1186.34 225.107H1225.2M1098.76 202.453L1106.78 196.19M1235.7 196.19L1225.01 202.453M1235.7 196.19H1278.68M1225.01 202.453H1267.1M1133.01 175.702L1142.57 168.241M1283.42 168.241L1270.68 175.702M1283.42 168.241H1330.37M1270.68 175.702H1316.57M1174.08 143.632L1185.65 134.592M1340.87 134.592L1325.43 143.632M1340.87 134.592H1392.61M1325.43 143.632H1375.89M1224.21 104.48L1238.52 93.303M1411.36 93.303L1392.28 104.48M1411.36 93.303H1439.61M1392.28 104.48H1439.61M1286.78 55.61L1304.93 41.437H1369.92M1369.92 41.437H1434.91M1434.91 41.437H1439.61M1434.91 41.437L1439.61 38.435M1439.61 38.435V41.435V55.61M1439.61 -7.54703V-25.667M1390.85 -25.667L1416.43 -45.64M1390.85 -25.667H1439.61M1416.43 -45.64H1439.61M1416.43 -45.64L1439.61 -63.747M1439.61 -45.64V-63.747M1439.61 -45.64V-25.667M1439.61 -63.747V-67.197M1390.14 -90.533H1439.61M1439.61 -67.197V-90.533M1439.61 -90.533V-115.878M1439.61 -115.878V-133.998M1189.26 244.537L1197.76 239.943M1165.49 257.388L1164.55 257.896L1158.1 261.387M1165.49 257.388H1131.22M1131.22 257.388L1130.36 257.896L1124.4 261.387M1158.1 261.387H1124.4M1308.01 239.943L1297.55 244.537M1308.01 239.943H1344.76M1297.55 244.537H1333.65M1225.2 225.107L1235.06 219.775M1353.92 219.775L1341.78 225.107M1353.92 219.775H1393.54M1341.78 225.107H1380.64M1267.1 202.453L1278.68 196.19M1407.61 196.19L1393.35 202.453M1407.61 196.19H1439.61M1393.35 202.453H1435.43M1316.57 175.702L1330.37 168.241M1439.61 175.702V182.13M1375.89 143.632L1392.61 134.592M1439.61 143.632V136.969M1439.61 136.969L1439.76 136.895M1439.61 136.969V134.592M1392.61 134.592L1410.2 125.08M1392.61 134.592H1439.61M1410.2 125.08L1428.74 115.057M1410.2 125.08H1439.61M1428.74 115.057H1439.61M1428.74 115.057L1439.61 109.177M1439.61 125.08V115.057M1439.61 125.08V134.592M1439.61 115.057V109.177M1439.61 109.177V104.48M1439.61 104.48V93.303M1439.61 81.473V93.303M1333.65 244.537L1344.76 239.943M1302.57 257.388H1268.3M1302.57 257.388L1292.89 261.387M1268.3 257.388L1259.2 261.387M1292.89 261.387H1259.2M1439.61 239.943V244.537M1439.61 244.537V245.355M1380.64 225.107L1393.54 219.775M1433.16 219.775H1393.54M1433.16 219.775L1439.61 217.255M1433.16 219.775H1439.61M1439.61 225.107V219.775M1393.54 219.775L1406.95 214.231M1406.95 214.231L1420.9 208.462M1406.95 214.231H1439.61M1420.9 208.462L1435.43 202.453M1420.9 208.462H1439.61M1439.61 214.231V208.462M1439.61 214.231V217.255M1439.61 217.255V219.775M1435.43 202.453L1439.61 200.726M1435.43 202.453H1439.61M1439.61 208.462V202.453M1439.61 200.726V196.19M1439.61 200.726V202.453M1439.61 189.656V182.834M1439.61 189.656V196.19M1439.61 196.19H1439.84M1439.61 182.834V182.13M1439.61 182.13L1440 181.959M1439.61 248.971V245.355M1439.61 248.971V253.252M1405.37 257.388L1393.99 261.387M1405.37 257.388H1439.61M1439.61 253.252V257.388M1393.99 261.387H1427.69M1439.61 257.388H1439.64L1439.61 257.398M1439.61 257.388V257.398M720 261.387H753.7M1427.69 261.387L1439.61 257.398M1427.69 261.387H1439.61M1439.61 257.398V261.387M12.307 261.387L0.387 257.398M12.307 261.387H0.386M0.387 257.398L0.386 261.387M0.387 257.398L0.357 257.388H0.387M0.387 257.398V257.388" stroke="url(#paint0_linear_84_1098)" stroke-miterlimit="10" stroke-linecap="round" stroke-linejoin="round"/>
<defs>
<linearGradient id="paint0_linear_84_1098" x1="720" y1="269" x2="720" y2="-90.5" gradientUnits="userSpaceOnUse">
<stop stop-color="#CED2DF" stop-opacity="0"/>
<stop offset="1" stop-color="#8791AB"/>
</linearGradient>
</defs>
</svg>
