<svg width="17" height="17" viewBox="0 0 17 17" fill="none" xmlns="http://www.w3.org/2000/svg">
<path d="M0 8.025C0 3.59292 3.59291 0 8.025 0H8.525C12.9571 0 16.55 3.59292 16.55 8.025V8.025C16.55 12.4571 12.9571 16.05 8.525 16.05H8.025C3.59292 16.05 0 12.4571 0 8.025V8.025Z" fill="white"/>
<path d="M11.2857 7.22559C11.4654 7.22559 11.6115 7.28528 11.7241 7.40466C11.841 7.52622 11.8995 7.69118 11.8995 7.89956V8.89911H11.4805V7.95165C11.4805 7.84529 11.4513 7.76281 11.3928 7.70421C11.3365 7.6456 11.2586 7.6163 11.159 7.6163C11.0486 7.6163 10.9609 7.65103 10.8959 7.72048C10.8332 7.78777 10.8018 7.88762 10.8018 8.02003V8.89911H10.3828V6.62H10.8018V7.4535C10.9014 7.30156 11.0627 7.22559 11.2857 7.22559Z" fill="url(#paint0_linear_74_327)"/>
<path d="M11.2857 7.22559C11.4654 7.22559 11.6115 7.28528 11.7241 7.40466C11.841 7.52622 11.8995 7.69118 11.8995 7.89956V8.89911H11.4805V7.95165C11.4805 7.84529 11.4513 7.76281 11.3928 7.70421C11.3365 7.6456 11.2586 7.6163 11.159 7.6163C11.0486 7.6163 10.9609 7.65103 10.8959 7.72048C10.8332 7.78777 10.8018 7.88762 10.8018 8.02003V8.89911H10.3828V6.62H10.8018V7.4535C10.9014 7.30156 11.0627 7.22559 11.2857 7.22559Z" fill="url(#paint1_linear_74_327)"/>
<path d="M9.44221 7.73326C9.44221 7.80272 9.54072 7.86241 9.73775 7.91233C9.80703 7.92753 9.86982 7.94598 9.92611 7.96768C9.98241 7.98722 10.0387 8.01652 10.095 8.05559C10.1535 8.09249 10.1989 8.14241 10.2314 8.20536C10.2639 8.26831 10.2801 8.34102 10.2801 8.4235C10.2801 8.59064 10.2173 8.71979 10.0917 8.81095C9.96617 8.89995 9.81136 8.94444 9.62733 8.94444C9.2939 8.94444 9.06656 8.81529 8.94531 8.55699L9.30905 8.35187C9.35885 8.49296 9.46494 8.56351 9.62733 8.56351C9.77672 8.56351 9.85142 8.51684 9.85142 8.4235C9.85142 8.35404 9.7529 8.29435 9.55588 8.24443C9.48226 8.2249 9.41948 8.20536 9.36751 8.18582C9.31555 8.16629 9.25926 8.13807 9.19863 8.10117C9.13801 8.0621 9.09146 8.01326 9.05898 7.95466C9.02867 7.89388 9.01351 7.82334 9.01351 7.74303C9.01351 7.5824 9.07197 7.45651 9.18889 7.36534C9.30797 7.27201 9.4552 7.22534 9.63057 7.22534C9.76265 7.22534 9.88281 7.25573 9.99107 7.31651C10.0993 7.37511 10.1848 7.45976 10.2476 7.57046L9.89039 7.76582C9.83843 7.65512 9.75182 7.59977 9.63057 7.59977C9.57645 7.59977 9.53098 7.61279 9.49417 7.63884C9.45953 7.66271 9.44221 7.69419 9.44221 7.73326Z" fill="url(#paint2_linear_74_327)"/>
<path d="M9.44221 7.73326C9.44221 7.80272 9.54072 7.86241 9.73775 7.91233C9.80703 7.92753 9.86982 7.94598 9.92611 7.96768C9.98241 7.98722 10.0387 8.01652 10.095 8.05559C10.1535 8.09249 10.1989 8.14241 10.2314 8.20536C10.2639 8.26831 10.2801 8.34102 10.2801 8.4235C10.2801 8.59064 10.2173 8.71979 10.0917 8.81095C9.96617 8.89995 9.81136 8.94444 9.62733 8.94444C9.2939 8.94444 9.06656 8.81529 8.94531 8.55699L9.30905 8.35187C9.35885 8.49296 9.46494 8.56351 9.62733 8.56351C9.77672 8.56351 9.85142 8.51684 9.85142 8.4235C9.85142 8.35404 9.7529 8.29435 9.55588 8.24443C9.48226 8.2249 9.41948 8.20536 9.36751 8.18582C9.31555 8.16629 9.25926 8.13807 9.19863 8.10117C9.13801 8.0621 9.09146 8.01326 9.05898 7.95466C9.02867 7.89388 9.01351 7.82334 9.01351 7.74303C9.01351 7.5824 9.07197 7.45651 9.18889 7.36534C9.30797 7.27201 9.4552 7.22534 9.63057 7.22534C9.76265 7.22534 9.88281 7.25573 9.99107 7.31651C10.0993 7.37511 10.1848 7.45976 10.2476 7.57046L9.89039 7.76582C9.83843 7.65512 9.75182 7.59977 9.63057 7.59977C9.57645 7.59977 9.53098 7.61279 9.49417 7.63884C9.45953 7.66271 9.44221 7.69419 9.44221 7.73326Z" fill="url(#paint3_linear_74_327)"/>
<path d="M8.42793 7.46302V7.27092H8.84689V8.89886H8.42793V8.70676C8.30236 8.86522 8.1259 8.94444 7.89856 8.94444C7.68205 8.94444 7.49585 8.86196 7.33996 8.697C7.18624 8.52986 7.10938 8.32583 7.10938 8.08489C7.10938 7.84613 7.18624 7.64318 7.33996 7.47604C7.49585 7.30891 7.68205 7.22534 7.89856 7.22534C8.1259 7.22534 8.30236 7.30457 8.42793 7.46302ZM7.65499 8.41699C7.73943 8.50164 7.8466 8.54397 7.97651 8.54397C8.10641 8.54397 8.21359 8.50164 8.29803 8.41699C8.38463 8.33017 8.42793 8.21947 8.42793 8.08489C8.42793 7.95032 8.38463 7.8407 8.29803 7.75605C8.21359 7.66923 8.10641 7.62581 7.97651 7.62581C7.8466 7.62581 7.73943 7.66923 7.65499 7.75605C7.57055 7.8407 7.52833 7.95032 7.52833 8.08489C7.52833 8.21947 7.57055 8.33017 7.65499 8.41699Z" fill="url(#paint4_linear_74_327)"/>
<path d="M8.42793 7.46302V7.27092H8.84689V8.89886H8.42793V8.70676C8.30236 8.86522 8.1259 8.94444 7.89856 8.94444C7.68205 8.94444 7.49585 8.86196 7.33996 8.697C7.18624 8.52986 7.10938 8.32583 7.10938 8.08489C7.10938 7.84613 7.18624 7.64318 7.33996 7.47604C7.49585 7.30891 7.68205 7.22534 7.89856 7.22534C8.1259 7.22534 8.30236 7.30457 8.42793 7.46302ZM7.65499 8.41699C7.73943 8.50164 7.8466 8.54397 7.97651 8.54397C8.10641 8.54397 8.21359 8.50164 8.29803 8.41699C8.38463 8.33017 8.42793 8.21947 8.42793 8.08489C8.42793 7.95032 8.38463 7.8407 8.29803 7.75605C8.21359 7.66923 8.10641 7.62581 7.97651 7.62581C7.8466 7.62581 7.73943 7.66923 7.65499 7.75605C7.57055 7.8407 7.52833 7.95032 7.52833 8.08489C7.52833 8.21947 7.57055 8.33017 7.65499 8.41699Z" fill="url(#paint5_linear_74_327)"/>
<path d="M14.7825 7.02371C14.7124 7.02371 14.6511 6.99846 14.5985 6.94795C14.5481 6.89525 14.5229 6.83377 14.5229 6.7635C14.5229 6.69323 14.5481 6.63175 14.5985 6.57905C14.6511 6.52635 14.7124 6.5 14.7825 6.5C14.8548 6.5 14.9161 6.52635 14.9665 6.57905C15.0191 6.63175 15.0453 6.69323 15.0453 6.7635C15.0453 6.83377 15.0191 6.89525 14.9665 6.94795C14.9161 6.99846 14.8548 7.02371 14.7825 7.02371ZM14.9961 8.86822H14.5722V7.22134H14.9961V8.86822Z" fill="#6853E4"/>
<path d="M14.7825 7.02371C14.7124 7.02371 14.6511 6.99846 14.5985 6.94795C14.5481 6.89525 14.5229 6.83377 14.5229 6.7635C14.5229 6.69323 14.5481 6.63175 14.5985 6.57905C14.6511 6.52635 14.7124 6.5 14.7825 6.5C14.8548 6.5 14.9161 6.52635 14.9665 6.57905C15.0191 6.63175 15.0453 6.69323 15.0453 6.7635C15.0453 6.83377 15.0191 6.89525 14.9665 6.94795C14.9161 6.99846 14.8548 7.02371 14.7825 7.02371ZM14.9961 8.86822H14.5722V7.22134H14.9961V8.86822Z" fill="url(#paint6_linear_74_327)"/>
<path d="M13.9272 7.41464V7.22031H14.351V8.86719H13.9272V8.67286C13.8001 8.83316 13.6216 8.9133 13.3916 8.9133C13.1726 8.9133 12.9842 8.82986 12.8265 8.66298C12.671 8.4939 12.5933 8.28749 12.5933 8.04375C12.5933 7.80221 12.671 7.59689 12.8265 7.42781C12.9842 7.25873 13.1726 7.17419 13.3916 7.17419C13.6216 7.17419 13.8001 7.25434 13.9272 7.41464ZM13.1452 8.37971C13.2306 8.46535 13.3391 8.50817 13.4705 8.50817C13.6019 8.50817 13.7103 8.46535 13.7958 8.37971C13.8834 8.29188 13.9272 8.17989 13.9272 8.04375C13.9272 7.90761 13.8834 7.79672 13.7958 7.71108C13.7103 7.62324 13.6019 7.57933 13.4705 7.57933C13.3391 7.57933 13.2306 7.62324 13.1452 7.71108C13.0598 7.79672 13.0171 7.90761 13.0171 8.04375C13.0171 8.17989 13.0598 8.29188 13.1452 8.37971Z" fill="#6853E4"/>
<path d="M13.9272 7.41464V7.22031H14.351V8.86719H13.9272V8.67286C13.8001 8.83316 13.6216 8.9133 13.3916 8.9133C13.1726 8.9133 12.9842 8.82986 12.8265 8.66298C12.671 8.4939 12.5933 8.28749 12.5933 8.04375C12.5933 7.80221 12.671 7.59689 12.8265 7.42781C12.9842 7.25873 13.1726 7.17419 13.3916 7.17419C13.6216 7.17419 13.8001 7.25434 13.9272 7.41464ZM13.1452 8.37971C13.2306 8.46535 13.3391 8.50817 13.4705 8.50817C13.6019 8.50817 13.7103 8.46535 13.7958 8.37971C13.8834 8.29188 13.9272 8.17989 13.9272 8.04375C13.9272 7.90761 13.8834 7.79672 13.7958 7.71108C13.7103 7.62324 13.6019 7.57933 13.4705 7.57933C13.3391 7.57933 13.2306 7.62324 13.1452 7.71108C13.0598 7.79672 13.0171 7.90761 13.0171 8.04375C13.0171 8.17989 13.0598 8.29188 13.1452 8.37971Z" fill="url(#paint7_linear_74_327)"/>
<path d="M12.6205 8.63092C12.6205 8.70778 12.5932 8.77365 12.5384 8.82855C12.4836 8.88345 12.4179 8.91089 12.3413 8.91089C12.2646 8.91089 12.1989 8.88345 12.1441 8.82855C12.0894 8.77365 12.062 8.70778 12.062 8.63092C12.062 8.55407 12.0894 8.48819 12.1441 8.4333C12.1989 8.3784 12.2646 8.35095 12.3413 8.35095C12.4179 8.35095 12.4836 8.3784 12.5384 8.4333C12.5932 8.48819 12.6205 8.55407 12.6205 8.63092Z" fill="#6853E4"/>
<path d="M12.6205 8.63092C12.6205 8.70778 12.5932 8.77365 12.5384 8.82855C12.4836 8.88345 12.4179 8.91089 12.3413 8.91089C12.2646 8.91089 12.1989 8.88345 12.1441 8.82855C12.0894 8.77365 12.062 8.70778 12.062 8.63092C12.062 8.55407 12.0894 8.48819 12.1441 8.4333C12.1989 8.3784 12.2646 8.35095 12.3413 8.35095C12.4179 8.35095 12.4836 8.3784 12.5384 8.4333C12.5932 8.48819 12.6205 8.55407 12.6205 8.63092Z" fill="url(#paint8_linear_74_327)"/>
<path d="M6.4277 8.94444C6.18304 8.94444 5.97844 8.86196 5.81389 8.697C5.6515 8.53203 5.57031 8.328 5.57031 8.08489C5.57031 7.84179 5.6515 7.63775 5.81389 7.47279C5.97844 7.30782 6.18304 7.22534 6.4277 7.22534C6.58575 7.22534 6.72973 7.26333 6.85964 7.3393C6.98955 7.41527 7.08806 7.51729 7.15518 7.64535L6.79469 7.85698C6.76221 7.78969 6.71241 7.73651 6.64529 7.69744C6.58034 7.65837 6.50673 7.63884 6.42445 7.63884C6.29888 7.63884 6.19495 7.68116 6.11267 7.76582C6.0304 7.8483 5.98926 7.95466 5.98926 8.08489C5.98926 8.21079 6.0304 8.31714 6.11267 8.40397C6.19495 8.48645 6.29888 8.52769 6.42445 8.52769C6.50889 8.52769 6.58359 8.50924 6.64854 8.47234C6.71566 8.43327 6.76546 8.38009 6.79793 8.3128L7.16167 8.52118C7.09023 8.65141 6.98847 8.75452 6.85639 8.83049C6.72649 8.90646 6.58359 8.94444 6.4277 8.94444Z" fill="url(#paint9_linear_74_327)"/>
<path d="M6.4277 8.94444C6.18304 8.94444 5.97844 8.86196 5.81389 8.697C5.6515 8.53203 5.57031 8.328 5.57031 8.08489C5.57031 7.84179 5.6515 7.63775 5.81389 7.47279C5.97844 7.30782 6.18304 7.22534 6.4277 7.22534C6.58575 7.22534 6.72973 7.26333 6.85964 7.3393C6.98955 7.41527 7.08806 7.51729 7.15518 7.64535L6.79469 7.85698C6.76221 7.78969 6.71241 7.73651 6.64529 7.69744C6.58034 7.65837 6.50673 7.63884 6.42445 7.63884C6.29888 7.63884 6.19495 7.68116 6.11267 7.76582C6.0304 7.8483 5.98926 7.95466 5.98926 8.08489C5.98926 8.21079 6.0304 8.31714 6.11267 8.40397C6.19495 8.48645 6.29888 8.52769 6.42445 8.52769C6.50889 8.52769 6.58359 8.50924 6.64854 8.47234C6.71566 8.43327 6.76546 8.38009 6.79793 8.3128L7.16167 8.52118C7.09023 8.65141 6.98847 8.75452 6.85639 8.83049C6.72649 8.90646 6.58359 8.94444 6.4277 8.94444Z" fill="url(#paint10_linear_74_327)"/>
<path d="M5.6911 8.697C5.52655 8.86196 5.32303 8.94444 5.08053 8.94444C4.83804 8.94444 4.63452 8.86196 4.46997 8.697C4.30542 8.53203 4.22314 8.328 4.22314 8.08489C4.22314 7.84396 4.30542 7.64101 4.46997 7.47604C4.63668 7.30891 4.8402 7.22534 5.08053 7.22534C5.32086 7.22534 5.52438 7.30891 5.6911 7.47604C5.85781 7.64318 5.94117 7.84613 5.94117 8.08489C5.94117 8.32583 5.85781 8.52986 5.6911 8.697ZM4.76551 8.40722C4.84995 8.49188 4.95496 8.5342 5.08053 8.5342C5.20611 8.5342 5.31112 8.49188 5.39556 8.40722C5.48 8.32257 5.52222 8.21513 5.52222 8.08489C5.52222 7.95466 5.48 7.84721 5.39556 7.76256C5.31112 7.67791 5.20611 7.63558 5.08053 7.63558C4.95496 7.63558 4.84995 7.67791 4.76551 7.76256C4.68323 7.84938 4.6421 7.95683 4.6421 8.08489C4.6421 8.21296 4.68323 8.3204 4.76551 8.40722Z" fill="url(#paint11_linear_74_327)"/>
<path d="M5.6911 8.697C5.52655 8.86196 5.32303 8.94444 5.08053 8.94444C4.83804 8.94444 4.63452 8.86196 4.46997 8.697C4.30542 8.53203 4.22314 8.328 4.22314 8.08489C4.22314 7.84396 4.30542 7.64101 4.46997 7.47604C4.63668 7.30891 4.8402 7.22534 5.08053 7.22534C5.32086 7.22534 5.52438 7.30891 5.6911 7.47604C5.85781 7.64318 5.94117 7.84613 5.94117 8.08489C5.94117 8.32583 5.85781 8.52986 5.6911 8.697ZM4.76551 8.40722C4.84995 8.49188 4.95496 8.5342 5.08053 8.5342C5.20611 8.5342 5.31112 8.49188 5.39556 8.40722C5.48 8.32257 5.52222 8.21513 5.52222 8.08489C5.52222 7.95466 5.48 7.84721 5.39556 7.76256C5.31112 7.67791 5.20611 7.63558 5.08053 7.63558C4.95496 7.63558 4.84995 7.67791 4.76551 7.76256C4.68323 7.84938 4.6421 7.95683 4.6421 8.08489C4.6421 8.21296 4.68323 8.3204 4.76551 8.40722Z" fill="url(#paint12_linear_74_327)"/>
<path d="M3.79395 7.27133V7.55133C3.83076 7.44932 3.89355 7.37226 3.98232 7.32017C4.07109 7.2659 4.17285 7.23877 4.2876 7.23877V7.70762C4.15986 7.69025 4.04511 7.7163 3.94335 7.78576C3.84375 7.85305 3.79395 7.96483 3.79395 8.12111V8.89927H3.375V7.27133H3.79395Z" fill="url(#paint13_linear_74_327)"/>
<path d="M3.79395 7.27133V7.55133C3.83076 7.44932 3.89355 7.37226 3.98232 7.32017C4.07109 7.2659 4.17285 7.23877 4.2876 7.23877V7.70762C4.15986 7.69025 4.04511 7.7163 3.94335 7.78576C3.84375 7.85305 3.79395 7.96483 3.79395 8.12111V8.89927H3.375V7.27133H3.79395Z" fill="url(#paint14_linear_74_327)"/>
<path d="M2.44508 7.22534C2.66375 7.22534 2.84995 7.30891 3.00368 7.47604C3.15957 7.64318 3.23751 7.84613 3.23751 8.08489C3.23751 8.328 3.15957 8.53204 3.00368 8.697C2.85212 8.86197 2.66592 8.94445 2.44508 8.94445C2.21774 8.94445 2.04236 8.86522 1.91895 8.70677V9.55004H1.5V7.27092H1.91895V7.46302C2.04236 7.30457 2.21774 7.22534 2.44508 7.22534ZM2.04561 8.41699C2.13005 8.50165 2.23722 8.54397 2.36713 8.54397C2.49704 8.54397 2.60421 8.50165 2.68865 8.41699C2.77526 8.33017 2.81856 8.21947 2.81856 8.08489C2.81856 7.95032 2.77526 7.8407 2.68865 7.75605C2.60421 7.66923 2.49704 7.62582 2.36713 7.62582C2.23722 7.62582 2.13005 7.66923 2.04561 7.75605C1.96117 7.8407 1.91895 7.95032 1.91895 8.08489C1.91895 8.21947 1.96117 8.33017 2.04561 8.41699Z" fill="url(#paint15_linear_74_327)"/>
<path d="M2.44508 7.22534C2.66375 7.22534 2.84995 7.30891 3.00368 7.47604C3.15957 7.64318 3.23751 7.84613 3.23751 8.08489C3.23751 8.328 3.15957 8.53204 3.00368 8.697C2.85212 8.86197 2.66592 8.94445 2.44508 8.94445C2.21774 8.94445 2.04236 8.86522 1.91895 8.70677V9.55004H1.5V7.27092H1.91895V7.46302C2.04236 7.30457 2.21774 7.22534 2.44508 7.22534ZM2.04561 8.41699C2.13005 8.50165 2.23722 8.54397 2.36713 8.54397C2.49704 8.54397 2.60421 8.50165 2.68865 8.41699C2.77526 8.33017 2.81856 8.21947 2.81856 8.08489C2.81856 7.95032 2.77526 7.8407 2.68865 7.75605C2.60421 7.66923 2.49704 7.62582 2.36713 7.62582C2.23722 7.62582 2.13005 7.66923 2.04561 7.75605C1.96117 7.8407 1.91895 7.95032 1.91895 8.08489C1.91895 8.21947 1.96117 8.33017 2.04561 8.41699Z" fill="url(#paint16_linear_74_327)"/>
<defs>
<linearGradient id="paint0_linear_74_327" x1="11.1061" y1="7.04218" x2="10.9416" y2="8.42687" gradientUnits="userSpaceOnUse">
<stop stop-color="#5D74F1"/>
<stop offset="1" stop-color="#6853E4"/>
</linearGradient>
<linearGradient id="paint1_linear_74_327" x1="11.1061" y1="7.04218" x2="10.9416" y2="8.42687" gradientUnits="userSpaceOnUse">
<stop stop-color="#3A3A3A"/>
<stop offset="1"/>
</linearGradient>
<linearGradient id="paint2_linear_74_327" x1="9.58191" y1="7.54379" x2="9.47516" y2="8.59211" gradientUnits="userSpaceOnUse">
<stop stop-color="#5D74F1"/>
<stop offset="1" stop-color="#6853E4"/>
</linearGradient>
<linearGradient id="paint3_linear_74_327" x1="9.58191" y1="7.54379" x2="9.47516" y2="8.59211" gradientUnits="userSpaceOnUse">
<stop stop-color="#3A3A3A"/>
<stop offset="1"/>
</linearGradient>
<linearGradient id="paint4_linear_74_327" x1="7.93803" y1="7.54379" x2="7.85568" y2="8.59654" gradientUnits="userSpaceOnUse">
<stop stop-color="#5D74F1"/>
<stop offset="1" stop-color="#6853E4"/>
</linearGradient>
<linearGradient id="paint5_linear_74_327" x1="7.93803" y1="7.54379" x2="7.85568" y2="8.59654" gradientUnits="userSpaceOnUse">
<stop stop-color="#3A3A3A"/>
<stop offset="1"/>
</linearGradient>
<linearGradient id="paint6_linear_74_327" x1="14.7721" y1="6.93869" x2="14.3086" y2="8.23169" gradientUnits="userSpaceOnUse">
<stop stop-color="#5D74F1"/>
<stop offset="1" stop-color="#6853E4"/>
</linearGradient>
<linearGradient id="paint7_linear_74_327" x1="13.4316" y1="7.49635" x2="13.3483" y2="8.56135" gradientUnits="userSpaceOnUse">
<stop stop-color="#5D74F1"/>
<stop offset="1" stop-color="#6853E4"/>
</linearGradient>
<linearGradient id="paint8_linear_74_327" x1="12.3284" y1="8.45468" x2="12.3012" y2="8.79752" gradientUnits="userSpaceOnUse">
<stop stop-color="#5D74F1"/>
<stop offset="1" stop-color="#6853E4"/>
</linearGradient>
<linearGradient id="paint9_linear_74_327" x1="6.32927" y1="7.54379" x2="6.23945" y2="8.59531" gradientUnits="userSpaceOnUse">
<stop stop-color="#5D74F1"/>
<stop offset="1" stop-color="#6853E4"/>
</linearGradient>
<linearGradient id="paint10_linear_74_327" x1="6.32927" y1="7.54379" x2="6.23945" y2="8.59531" gradientUnits="userSpaceOnUse">
<stop stop-color="#3A3A3A"/>
<stop offset="1"/>
</linearGradient>
<linearGradient id="paint11_linear_74_327" x1="5.04251" y1="7.54379" x2="4.95923" y2="8.59639" gradientUnits="userSpaceOnUse">
<stop stop-color="#5D74F1"/>
<stop offset="1" stop-color="#6853E4"/>
</linearGradient>
<linearGradient id="paint12_linear_74_327" x1="5.04251" y1="7.54379" x2="4.95923" y2="8.59639" gradientUnits="userSpaceOnUse">
<stop stop-color="#3A3A3A"/>
<stop offset="1"/>
</linearGradient>
<linearGradient id="paint13_linear_74_327" x1="3.81024" y1="7.54636" x2="3.66604" y2="8.5487" gradientUnits="userSpaceOnUse">
<stop stop-color="#5D74F1"/>
<stop offset="1" stop-color="#6853E4"/>
</linearGradient>
<linearGradient id="paint14_linear_74_327" x1="3.81024" y1="7.54636" x2="3.66604" y2="8.5487" gradientUnits="userSpaceOnUse">
<stop stop-color="#3A3A3A"/>
<stop offset="1"/>
</linearGradient>
<linearGradient id="paint15_linear_74_327" x1="2.32866" y1="7.65597" x2="2.17881" y2="9.07244" gradientUnits="userSpaceOnUse">
<stop stop-color="#5D74F1"/>
<stop offset="1" stop-color="#6853E4"/>
</linearGradient>
<linearGradient id="paint16_linear_74_327" x1="2.32866" y1="7.65597" x2="2.17881" y2="9.07244" gradientUnits="userSpaceOnUse">
<stop stop-color="#3A3A3A"/>
<stop offset="1"/>
</linearGradient>
</defs>
</svg>
