<svg width="52" height="52" viewBox="0 0 52 52" fill="none" xmlns="http://www.w3.org/2000/svg">
<rect width="52" height="52" rx="8" fill="white"/>
<path d="M35.7755 36C32.7007 36 30.1293 34.9444 28.0612 32.8333C26.0204 30.7222 25 28.1111 25 25C25 21.8889 26.0204 19.2778 28.0612 17.1667C30.1293 15.0556 32.7007 14 35.7755 14C37.7619 14 39.5714 14.4861 41.2041 15.4583C42.8367 16.4306 44.0748 17.7361 44.9184 19.375L40.3878 22.0833C39.9796 21.2222 39.3537 20.5417 38.5102 20.0417C37.6939 19.5417 36.7687 19.2917 35.7347 19.2917C34.1565 19.2917 32.8503 19.8333 31.8163 20.9167C30.7823 21.9722 30.2653 23.3333 30.2653 25C30.2653 26.6111 30.7823 27.9722 31.8163 29.0833C32.8503 30.1389 34.1565 30.6667 35.7347 30.6667C36.7959 30.6667 37.7347 30.4306 38.551 29.9583C39.3946 29.4583 40.0204 28.7778 40.4286 27.9167L45 30.5833C44.102 32.25 42.8231 33.5694 41.1633 34.5417C39.5306 35.5139 37.7347 36 35.7755 36Z" fill="url(#paint0_linear_633_1813)"/>
<path d="M19.9664 14C22.7352 14 25.0928 15.0784 27.0393 17.2353C29.0131 19.3922 30 22.0112 30 25.0924C30 28.2297 29.0131 30.8627 27.0393 32.9916C25.1202 35.1204 22.7626 36.1849 19.9664 36.1849C17.0879 36.1849 14.8673 35.1625 13.3047 33.1176V44H8V14.5882H13.3047V17.0672C14.8673 15.0224 17.0879 14 19.9664 14ZM14.9084 29.3782C15.9776 30.4706 17.3346 31.0168 18.9794 31.0168C20.6243 31.0168 21.9813 30.4706 23.0505 29.3782C24.147 28.2577 24.6953 26.8291 24.6953 25.0924C24.6953 23.3557 24.147 21.9412 23.0505 20.8487C21.9813 19.7283 20.6243 19.1681 18.9794 19.1681C17.3346 19.1681 15.9776 19.7283 14.9084 20.8487C13.8393 21.9412 13.3047 23.3557 13.3047 25.0924C13.3047 26.8291 13.8393 28.2577 14.9084 29.3782Z" fill="url(#paint1_linear_633_1813)"/>
<path d="M19.9664 14C22.7352 14 25.0928 15.0784 27.0393 17.2353C29.0131 19.3922 30 22.0112 30 25.0924C30 28.2297 29.0131 30.8627 27.0393 32.9916C25.1202 35.1204 22.7626 36.1849 19.9664 36.1849C17.0879 36.1849 14.8673 35.1625 13.3047 33.1176V44H8V14.5882H13.3047V17.0672C14.8673 15.0224 17.0879 14 19.9664 14ZM14.9084 29.3782C15.9776 30.4706 17.3346 31.0168 18.9794 31.0168C20.6243 31.0168 21.9813 30.4706 23.0505 29.3782C24.147 28.2577 24.6953 26.8291 24.6953 25.0924C24.6953 23.3557 24.147 21.9412 23.0505 20.8487C21.9813 19.7283 20.6243 19.1681 18.9794 19.1681C17.3346 19.1681 15.9776 19.7283 14.9084 20.8487C13.8393 21.9412 13.3047 23.3557 13.3047 25.0924C13.3047 26.8291 13.8393 28.2577 14.9084 29.3782Z" fill="url(#paint2_linear_633_1813)"/>
<defs>
<linearGradient id="paint0_linear_633_1813" x1="34.5385" y1="18.0753" x2="33.3684" y2="31.5284" gradientUnits="userSpaceOnUse">
<stop stop-color="#5D74F1"/>
<stop offset="1" stop-color="#6853E4"/>
</linearGradient>
<linearGradient id="paint1_linear_633_1813" x1="18.4923" y1="19.5573" x2="16.5223" y2="37.8287" gradientUnits="userSpaceOnUse">
<stop stop-color="#5D74F1"/>
<stop offset="1" stop-color="#6853E4"/>
</linearGradient>
<linearGradient id="paint2_linear_633_1813" x1="18.4923" y1="19.5573" x2="16.5223" y2="37.8287" gradientUnits="userSpaceOnUse">
<stop stop-color="#5D74F1"/>
<stop offset="1" stop-color="#6853E4"/>
</linearGradient>
</defs>
</svg>
