<svg width="24" height="25" viewBox="0 0 24 25" fill="none" xmlns="http://www.w3.org/2000/svg">
<path d="M17 22.3547C16.1667 22.3547 15.4583 22.0631 14.875 21.4797C14.2917 20.8964 14 20.1881 14 19.3547C14 19.2547 14.025 19.0214 14.075 18.6547L7.05 14.5547C6.78333 14.8047 6.475 15.0007 6.125 15.1427C5.775 15.2847 5.4 15.3554 5 15.3547C4.16667 15.3547 3.45833 15.0631 2.875 14.4797C2.29167 13.8964 2 13.1881 2 12.3547C2 11.5214 2.29167 10.8131 2.875 10.2297C3.45833 9.6464 4.16667 9.35474 5 9.35474C5.4 9.35474 5.775 9.42574 6.125 9.56774C6.475 9.70974 6.78333 9.9054 7.05 10.1547L14.075 6.05474C14.0417 5.93807 14.021 5.82574 14.013 5.71774C14.005 5.60974 14.0007 5.48874 14 5.35474C14 4.5214 14.2917 3.81307 14.875 3.22974C15.4583 2.6464 16.1667 2.35474 17 2.35474C17.8333 2.35474 18.5417 2.6464 19.125 3.22974C19.7083 3.81307 20 4.5214 20 5.35474C20 6.18807 19.7083 6.8964 19.125 7.47974C18.5417 8.06307 17.8333 8.35474 17 8.35474C16.6 8.35474 16.225 8.28374 15.875 8.14174C15.525 7.99974 15.2167 7.80407 14.95 7.55474L7.925 11.6547C7.95833 11.7714 7.97933 11.8841 7.988 11.9927C7.99667 12.1014 8.00067 12.2221 8 12.3547C7.99933 12.4874 7.99533 12.6084 7.988 12.7177C7.98067 12.8271 7.95967 12.9394 7.925 13.0547L14.95 17.1547C15.2167 16.9047 15.525 16.7091 15.875 16.5677C16.225 16.4264 16.6 16.3554 17 16.3547C17.8333 16.3547 18.5417 16.6464 19.125 17.2297C19.7083 17.8131 20 18.5214 20 19.3547C20 20.1881 19.7083 20.8964 19.125 21.4797C18.5417 22.0631 17.8333 22.3547 17 22.3547Z" fill="#262A33"/>
</svg>
