<svg width="25" height="24" viewBox="0 0 25 24" fill="none" xmlns="http://www.w3.org/2000/svg">
<path d="M11.9408 2.13464C12.2505 1.82759 12.7498 1.82759 13.0595 2.13464L15.0269 4.08516C15.192 4.24881 15.4205 4.33197 15.6521 4.31271L18.413 4.08317C18.8476 4.04703 19.2302 4.36799 19.27 4.80228L19.5234 7.5611C19.5447 7.79258 19.6662 8.00314 19.8561 8.13729L22.1186 9.73613C22.4748 9.98781 22.5615 10.4795 22.3129 10.8379L20.7336 13.1141C20.6011 13.3051 20.5589 13.5445 20.6181 13.7693L21.3236 16.4484C21.4346 16.8702 21.185 17.3026 20.7642 17.4173L18.0913 18.1459C17.867 18.207 17.6808 18.3633 17.5816 18.5735L16.4 21.0793C16.2139 21.4738 15.7447 21.6446 15.3487 21.462L12.8328 20.302C12.6217 20.2046 12.3786 20.2046 12.1675 20.302L9.65157 21.462C9.25552 21.6446 8.78631 21.4738 8.60029 21.0793L7.41863 18.5735C7.31948 18.3633 7.13323 18.207 6.90896 18.1459L4.23605 17.4173C3.81528 17.3026 3.56562 16.8702 3.67668 16.4484L4.38216 13.7693C4.44135 13.5445 4.39913 13.3051 4.26663 13.1141L2.68739 10.8379C2.43878 10.4795 2.52549 9.98781 2.88165 9.73613L5.14418 8.13729C5.33401 8.00314 5.45558 7.79258 5.47684 7.5611L5.73021 4.80228C5.77009 4.36799 6.1526 4.04703 6.58721 4.08317L9.34812 4.31271C9.57978 4.33197 9.80824 4.24881 9.97332 4.08516L11.9408 2.13464Z" fill="#09F0A4"/>
<path d="M10.882 14.0942L16.4943 8.48187C16.6268 8.34943 16.7813 8.2832 16.9579 8.2832C17.1345 8.2832 17.289 8.34943 17.4214 8.48187C17.5539 8.61431 17.6201 8.7717 17.6201 8.95403C17.6201 9.13636 17.5539 9.29353 17.4214 9.42554L11.3456 15.518C11.2131 15.6504 11.0586 15.7166 10.882 15.7166C10.7054 15.7166 10.5509 15.6504 10.4185 15.518L7.57091 12.6704C7.43846 12.538 7.37489 12.3808 7.38019 12.1989C7.38549 12.017 7.45458 11.8596 7.58746 11.7268C7.72035 11.5939 7.87774 11.5276 8.05963 11.5281C8.24152 11.5285 8.39868 11.5948 8.53113 11.7268L10.882 14.0942Z" fill="#0D767F"/>
</svg>
