<svg width="24" height="25" viewBox="0 0 24 25" fill="none" xmlns="http://www.w3.org/2000/svg">
<path d="M12 21.3545C16.9706 21.3545 21 17.3251 21 12.3545C21 7.38393 16.9706 3.35449 12 3.35449C7.02944 3.35449 3 7.38393 3 12.3545C3 17.3251 7.02944 21.3545 12 21.3545Z" fill="#C9F2E2" stroke="#C9F2E2"/>
<path d="M10.5021 14.1655L16.1145 8.55316C16.2469 8.42071 16.4014 8.35449 16.578 8.35449C16.7546 8.35449 16.9091 8.42071 17.0416 8.55316C17.174 8.6856 17.2402 8.84299 17.2402 9.02532C17.2402 9.20765 17.174 9.36482 17.0416 9.49682L10.9657 15.5893C10.8332 15.7217 10.6787 15.7879 10.5021 15.7879C10.3255 15.7879 10.171 15.7217 10.0386 15.5893L7.19103 12.7417C7.05858 12.6093 6.99501 12.4521 7.00031 12.2702C7.0056 12.0883 7.07469 11.9309 7.20758 11.798C7.34047 11.6652 7.49785 11.5989 7.67974 11.5994C7.86163 11.5998 8.0188 11.666 8.15125 11.798L10.5021 14.1655Z" fill="#13574F"/>
</svg>
