<svg width="40" height="41" viewBox="0 0 40 41" fill="none" xmlns="http://www.w3.org/2000/svg">
<path d="M39.999 20.584C39.999 31.6299 31.0449 40.584 19.999 40.584C8.9541 40.583 0 31.6289 0 20.584C0 9.53808 8.9541 0.583984 20 0.583984C31.0459 0.583984 40 9.53808 40 20.584H39.999Z" fill="#3E62F0"/>
<path d="M19.9275 7.76846C13.7467 7.96879 8.64098 12.9748 8.33194 19.1516C8.2202 21.3783 8.71145 23.4832 9.66675 25.3102L8.32489 31.3199C8.26852 31.5917 8.50911 31.8323 8.78091 31.7759L14.7906 30.4341H14.7946C16.6096 31.3823 18.6923 31.8736 20.9029 31.7709C27.0696 31.485 32.0918 26.4186 32.3303 20.2498C32.6001 13.2637 26.9055 7.54197 19.9285 7.76846H19.9275ZM20.3271 29.2996C18.5796 29.2996 16.9428 28.8275 15.5355 28.003C15.4026 27.9285 15.2748 27.85 15.1499 27.7665L11.3106 28.7892L12.3334 24.9499C11.364 23.459 10.8012 21.6823 10.8012 19.7727C10.8012 14.521 15.0754 10.2468 20.3271 10.2468C25.5788 10.2468 29.853 14.521 29.853 19.7727C29.853 25.0244 25.5788 29.2986 20.3271 29.2986V29.2996Z" fill="white"/>
<path d="M25.9764 23.9663C25.8103 24.216 25.6361 24.4485 25.3573 24.7263C24.7473 25.3364 23.8997 25.6444 23.04 25.5568C21.4998 25.3988 19.3114 24.5482 17.43 22.6708C15.5486 20.7894 14.698 18.6009 14.5439 17.0608C14.4564 16.2011 14.7644 15.3545 15.3744 14.7435C15.6523 14.4656 15.8848 14.2905 16.1344 14.1203C16.5955 13.8093 17.2226 14.0167 17.3968 14.5401L18.0279 16.4336C18.2021 16.953 18.1236 17.2812 17.8991 17.5007L17.3968 18.008C17.1471 18.2577 17.1058 18.6432 17.2971 18.9422C17.5749 19.378 18.0984 20.0757 19.0618 21.039C20.0251 22.0024 20.7227 22.5258 21.1586 22.8037C21.4576 22.9949 21.8441 22.9536 22.0928 22.704L22.6001 22.2017C22.8206 21.9772 23.1487 21.8987 23.6672 22.0728L25.5606 22.704C26.0841 22.8781 26.2915 23.5053 25.9764 23.9663Z" fill="white"/>
</svg>
