<svg width="40" height="41" viewBox="0 0 40 41" fill="none" xmlns="http://www.w3.org/2000/svg">
<path d="M39.999 20.8062C39.999 31.8521 31.0449 40.8062 19.999 40.8062C8.9541 40.8051 0 31.851 0 20.8062C0 9.76025 8.9541 0.806152 20 0.806152C31.0459 0.806152 40 9.76025 40 20.8062H39.999Z" fill="white"/>
<path d="M25.9251 19.254L25.5919 21.9297C25.5356 22.3766 25.1571 22.7128 24.7081 22.7128H20.3745V33.8997C19.9175 33.9409 19.4544 33.9621 18.9863 33.9621C17.9394 33.9621 16.9177 33.8574 15.9302 33.6581V22.7128H12.5972C12.2912 22.7128 12.0415 22.4622 12.0415 22.1552V18.8071C12.0415 18.5 12.2912 18.2494 12.5972 18.2494H15.9302V13.2282C15.9302 10.1469 18.4176 7.64941 21.4868 7.64941H25.3755C25.6815 7.64941 25.9312 7.90007 25.9312 8.20709V11.5552C25.9312 11.8622 25.6815 12.1129 25.3755 12.1129H22.5972C21.3701 12.1129 20.3755 13.1115 20.3755 14.3446V18.2504H25.0423C25.5778 18.2504 25.9916 18.7215 25.9261 19.255L25.9251 19.254Z" fill="#172B54"/>
</svg>
