<svg width="40" height="41" viewBox="0 0 40 41" fill="none" xmlns="http://www.w3.org/2000/svg">
<g clip-path="url(#clip0_888_407)">
<path d="M39.999 20.584C39.999 31.6299 31.0449 40.584 19.999 40.584C8.9541 40.583 0 31.6289 0 20.584C0 9.53808 8.9541 0.583984 20 0.583984C31.0459 0.583984 40 9.53808 40 20.584H39.999Z" fill="#3E62F0"/>
<path d="M25.9251 19.0318L25.5919 21.7075C25.5355 22.1544 25.157 22.4907 24.708 22.4907H20.3744V33.6775C19.9174 33.7188 19.4544 33.7399 18.9863 33.7399C17.9394 33.7399 16.9176 33.6352 15.9301 33.4359V22.4907H12.5971C12.2911 22.4907 12.0414 22.24 12.0414 21.933V18.5849C12.0414 18.2779 12.2911 18.0272 12.5971 18.0272H15.9301V13.0061C15.9301 9.92473 18.4175 7.42725 21.4868 7.42725H25.3754C25.6815 7.42725 25.9311 7.6779 25.9311 7.98493V11.333C25.9311 11.6401 25.6815 11.8907 25.3754 11.8907H22.5971C21.37 11.8907 20.3754 12.8893 20.3754 14.1224V18.0282H25.0422C25.5778 18.0282 25.9915 18.4993 25.9261 19.0328L25.9251 19.0318Z" fill="white"/>
</g>
<defs>
<clipPath id="clip0_888_407">
<rect width="40" height="40" fill="white" transform="translate(0 0.583984)"/>
</clipPath>
</defs>
</svg>
