<svg width="40" height="41" viewBox="0 0 40 41" fill="none" xmlns="http://www.w3.org/2000/svg">
<g clip-path="url(#clip0_888_425)">
<path d="M40 20.5845C40 31.6307 31.0457 40.585 19.9995 40.585C8.95432 40.584 0 31.6297 0 20.5845C0 9.53831 8.95432 0.583984 20.0005 0.583984C31.0467 0.583984 40.001 9.53831 40.001 20.5845H40Z" fill="#3E62F0"/>
<path d="M12.9166 15.2371C14.3393 15.2371 15.4926 14.0838 15.4926 12.661C15.4926 11.2383 14.3393 10.085 12.9166 10.085C11.4939 10.085 10.3405 11.2383 10.3405 12.661C10.3405 14.0838 11.4939 15.2371 12.9166 15.2371Z" fill="white"/>
<path d="M14.8705 16.9546H10.9616C10.8554 16.9546 10.7693 17.0407 10.7693 17.1469V29.6416C10.7693 29.7478 10.8554 29.8339 10.9616 29.8339H14.8705C14.9767 29.8339 15.0628 29.7478 15.0628 29.6416V17.1469C15.0628 17.0407 14.9767 16.9546 14.8705 16.9546Z" fill="white"/>
<path d="M29.6605 21.6768V28.9751C29.6605 29.4473 29.2739 29.8338 28.8018 29.8338H26.2257C25.7536 29.8338 25.3671 29.4473 25.3671 28.9751V22.9643C25.3671 21.7795 24.4057 20.8181 23.2208 20.8181C22.036 20.8181 21.0746 21.7795 21.0746 22.9643V28.9751C21.0746 29.4473 20.6881 29.8338 20.2159 29.8338H17.6399C17.1677 29.8338 16.7812 29.4473 16.7812 28.9751V17.8122C16.7812 17.3401 17.1677 16.9535 17.6399 16.9535H20.2159C20.6881 16.9535 21.0746 17.3401 21.0746 17.8122V18.3618C21.9333 17.2495 23.3547 16.5247 24.9382 16.5247C27.3079 16.5247 29.6605 18.242 29.6605 21.6768Z" fill="white"/>
</g>
<defs>
<clipPath id="clip0_888_425">
<rect width="40" height="40" fill="white" transform="translate(0 0.583984)"/>
</clipPath>
</defs>
</svg>
