<svg width="124" height="29" viewBox="0 0 124 29" fill="none" xmlns="http://www.w3.org/2000/svg">
<path fill-rule="evenodd" clip-rule="evenodd" d="M114.101 20.3605L114.016 19.6434C113.997 19.5236 113.593 16.6974 115.512 14.7095C116.07 14.1295 116.744 13.7973 117.36 13.7973C117.885 13.7973 118.317 14.0264 118.536 14.4635C119.595 16.5786 114.101 20.3605 114.101 20.3605ZM105.749 15.9067L105.676 14.7134L105.665 14.5636C105.663 14.5262 105.397 10.7512 105.634 8.06431C105.894 5.14216 106.748 3.25437 107.809 3.25437C108.026 3.25437 108.234 3.36589 108.396 3.56946C108.925 4.22993 109.08 5.99164 108.749 7.57889C108.216 10.1136 107.371 12.1235 106.752 13.5953C106.577 14.0115 106.422 14.3797 106.3 14.6997L105.749 15.9067ZM99.9555 23.8654C98.6016 23.8654 97.9622 22.5657 97.9622 21.3439C97.9622 15.0399 101.435 13.7973 102.953 14.2815C102.953 14.2815 103.003 15.4789 103.125 17.02C103.232 18.3582 103.328 19.9423 103.35 20.079C103.35 20.079 102.089 23.8654 99.9555 23.8654ZM88.9187 14.5266C88.9187 14.5266 88.5326 23.8654 85.017 23.8654C83.3328 23.8654 83.2021 21.9833 83.2021 21.4059C83.2021 14.7455 88.242 13.5597 88.9187 14.5266ZM56.3927 24.0886C54.3759 24.0886 53.6578 22.0819 53.6578 20.2037C53.6578 16.7822 55.6461 14.1279 57.3557 14.1279C59.021 14.1279 59.6259 16.4222 59.6259 17.9639C59.6259 21.3984 58.2054 24.0886 56.3927 24.0886ZM24.299 16.1457C23.1428 17.9489 20.5095 19.7328 19.7443 20.0171C19.7443 20.0171 19.1948 16.4852 22.0701 14.4227C24.1767 12.9116 25.1347 14.8425 24.299 16.1457ZM112.236 24.4279C113.057 25.726 114.52 26.3584 116.588 26.3584C118.861 26.3584 121.213 24.6437 122.56 23.0466C123.359 22.0994 123.446 21.5551 123.109 21.2577C122.803 20.9875 122.127 21.3411 121.508 21.9035C120.673 22.6615 118.904 23.7513 117.356 23.7513C115.479 23.7513 114.624 22.527 114.624 22.527C118.446 20.187 121.261 17.5308 121.261 15.251C121.261 12.696 119.373 11.5535 117.502 11.5535C114.155 11.5535 110.542 14.6232 110.542 19.583C110.542 21.2221 111.092 22.6149 111.092 22.6149C111.092 22.6149 110.428 23.6512 108.317 23.4762C106.074 23.2903 106.216 19.2201 106.216 19.2201C106.216 19.2201 106.902 17.9363 107.161 17.4582C108.68 14.659 110.758 10.8262 111.094 6.23022C111.281 3.65502 110.554 2.27213 109.911 1.56504C109.34 0.935456 108.576 0.560181 107.868 0.560181C105.273 0.560181 103.473 3.23234 103.036 5.87186C102.61 8.46023 102.781 12.3105 102.781 12.3105C102.781 12.3105 100.45 11.7319 98.1104 13.3252C95.9697 14.7829 95.02 17.7001 94.7211 19.1725C94.585 19.8314 94.5388 20.5229 94.5831 21.2267C94.6037 21.5549 94.7039 22.1871 94.7039 22.1871C94.7039 22.1871 93.9342 23.815 92.5664 23.815C90.363 23.815 91.8175 13.5617 91.902 12.985C91.9701 12.5206 92.2526 11.5295 90.6982 11.4601C89.7589 11.4182 89.3672 11.7702 89.2951 12.2297L89.232 12.6872C89.232 12.6872 86.0457 10.5109 82.4386 14.4304C80.5169 16.5151 79.8192 19.5318 79.7877 21.9522L79.786 22.1047C79.786 22.1047 78.9957 24.3986 77.1564 24.0552C75.9317 23.8267 75.7777 21.6395 75.7777 20.7942C75.7777 19.1725 76.1497 17.3653 76.4492 15.9132C76.6383 14.9929 76.8022 14.1995 76.8022 13.7654C76.8022 12.2148 76.3693 11.5535 75.3556 11.5535C73.9762 11.5535 72.738 12.6508 71.3662 14.3449C69.6156 16.5068 68.3133 19.8847 68.3133 19.8847C68.3133 19.8847 68.3706 19.2809 68.461 18.6987C68.5196 18.3222 68.6788 16.5786 68.9726 14.9953C69.1356 14.1189 69.1949 13.4014 69.2053 13.3241C69.2568 12.8949 69.1602 12.5243 68.9267 12.2523C68.6969 11.985 68.3455 11.8312 67.963 11.8312C67.35 11.8312 66.5614 12.2425 66.1868 13.3966C66.0157 13.9179 65.9176 14.3022 65.7956 14.9211L65.6809 15.4955L65.2547 15.1052C63.5665 13.5554 61.2279 11.7083 57.8743 11.7083C53.1517 11.7083 50.6028 16.0973 50.6028 20.2281C50.6028 20.7371 50.6344 21.2225 50.6955 21.6722L50.7193 21.8496C50.7193 21.8496 49.7335 24.246 48.0031 23.8093C47.2455 23.6182 46.7788 22.807 46.7788 20.8756C46.7788 19.2687 47.1004 17.0851 47.2927 15.7748C47.3578 15.3301 47.41 14.979 47.4243 14.8153L47.4671 14.3307C47.5992 12.8721 47.6365 12.2132 47.1551 11.8955C46.8011 11.665 46.4281 11.5535 46.0163 11.5535C45.6204 11.5535 45.3084 11.7376 45.0305 11.9363C44.603 12.2433 43.2044 14.1124 40.5629 18.4404C40.5202 18.5105 40.4956 18.5478 40.4932 18.5512L40.205 19.1082L39.5121 20.6402L39.8898 18.4143L39.9137 18.2685C39.9753 17.894 40.0846 17.2342 40.1298 17.0241L40.2406 16.541C40.4189 15.7657 40.7902 14.1531 40.8394 13.8681C40.9984 12.9234 40.9358 12.2923 40.6476 11.9396C40.4346 11.6798 40.0783 11.5535 39.558 11.5535C38.5998 11.5535 37.8286 12.2848 36.499 14.4521C36.2916 14.7909 35.5149 16.0841 34.9012 17.1079C34.1061 18.4347 33.3848 19.4162 33.3848 19.4162L33.5525 17.6423C33.6809 16.8457 34.1615 13.1872 34.168 13.0155C34.1663 12.2441 33.7862 11.8849 32.9713 11.8849C32.6397 11.8849 31.8311 11.9583 31.4922 12.6374C31.1818 13.2582 30.3202 16.0698 29.9012 20.3695C29.9012 20.3695 26.5667 23.6097 23.0018 23.6097C21.6881 23.6097 20.6484 23.0936 20.2716 22.0854C20.2716 22.0854 22.1788 21.0851 23.0844 20.4521C25.4036 18.8314 27.0907 17.1799 27.0907 15.059C27.0907 12.4642 24.722 11.2956 22.7651 11.5535C19.4045 11.9962 16.5641 15.5497 16.5641 19.6774C16.5641 23.5601 18.7076 26.3584 22.438 26.3584C26.7586 26.3584 29.7411 22.7622 29.7411 22.7622L29.6512 24.4037C29.5957 25.2593 29.9451 26.3584 31.3678 26.3584C31.7456 26.3584 32.4353 26.237 32.8019 25.4243C35.0152 20.5442 37.333 16.6738 37.3559 16.6356L37.4351 16.5037L37.8373 15.725L38.4361 14.7168L37.9562 16.8807C37.869 17.3744 37.1058 21.765 36.9965 23.701C36.9401 24.6783 36.9394 25.6401 37.3179 26.0521C37.5096 26.2616 37.8176 26.3584 38.2863 26.3584C39.334 26.3584 39.984 25.9927 40.2184 25.2711C41.9241 20.0709 43.762 16.5623 43.8395 16.415L43.9116 16.2789L44.876 14.3805C44.876 14.3805 44.1152 18.7113 44.1152 21.6647C44.1152 23.0763 44.3905 25.6462 46.3839 26.1344C49.4523 26.8861 51.3375 23.6821 51.3375 23.6821L51.5372 24.2434C52.413 25.7264 53.8684 26.5108 55.7467 26.5108C59.6385 26.5108 62.1536 23.4606 62.1536 18.7394C62.1536 15.8102 60.8153 14.132 60.8153 14.132C60.8153 14.132 62.3007 14.658 63.3914 15.4459C64.5731 16.2993 65.4124 17.2033 65.4124 17.2033L65.3831 17.3962C65.3481 17.621 65.3165 17.8474 65.2848 18.0764C65.1621 18.9821 65.0537 19.9317 64.9618 20.9C64.8771 21.8024 64.8335 22.6184 64.8335 23.3247C64.8335 23.7539 64.8565 24.1496 64.9055 24.5357C64.9482 24.8956 65.0361 25.2239 65.1653 25.5089C65.2065 25.596 65.5937 26.3584 66.5723 26.3584C67.2256 26.3584 67.6449 26.1202 67.9543 25.395C70.9786 18.3016 73.4014 16.0283 73.6143 15.8023C74.1757 15.2065 73.9223 16.3154 73.9223 16.3154L73.9002 16.4614C73.8962 16.485 73.5224 18.8875 73.4385 19.6182C73.3538 20.3388 73.311 21.027 73.311 21.6647C73.311 23.6406 73.7493 25.8924 76.0431 26.2482C79.1787 26.7348 80.2651 24.2653 80.2651 24.2653C80.2651 24.2653 81.3995 26.3584 84.0781 26.3584C88.0058 26.3584 89.2218 23.3361 89.2218 23.3361C89.6354 25.1545 90.3717 26.1344 92.1427 26.1344C94.0597 26.1344 95.3913 23.9667 95.3913 23.9667C95.3913 23.9667 96.5002 26.3584 99.21 26.3584C102.347 26.3584 103.95 23.9476 104.016 23.8467L104.38 23.2742C104.38 23.2742 105.401 25.8749 108.035 26.0244C110.525 26.1656 112.236 24.4279 112.236 24.4279ZM4.62142 25.3571C1.85209 25.254 1.69932 23.093 4.24271 22.535C6.56677 22.0252 8.50513 22.8413 8.50513 22.8413C8.50513 22.8413 7.91863 25.48 4.62142 25.3571ZM16.9192 3.51203C18.5193 3.64401 18.399 5.87815 17.9636 7.27894C16.6876 11.3853 13.6354 11.5079 13.6354 11.5079C13.6354 11.5079 14.601 3.32085 16.9192 3.51203ZM13.365 13.4702C13.365 13.4702 18.4955 13.5044 20.2429 7.43059C21.2597 3.89576 19.8197 0.883138 16.8173 0.819412C13.7855 0.755096 11.4369 3.44929 10.3363 11.5016C10.3363 11.5016 7.40587 11.1135 6.1113 8.79401C5.4989 7.69651 4.57491 8.2073 4.86305 9.25032C5.83715 12.7773 10.1516 13.3451 10.1516 13.3451C10.1516 13.3451 9.97289 14.9064 9.70611 16.8176C9.44728 18.6717 9.00296 21.0046 9.00296 21.0046C9.00296 21.0046 6.2809 20.1408 3.3847 20.7479C-1.06604 21.6812 -1.55573 27.2199 3.89028 27.7668C10.2767 28.408 11.4826 23.9759 11.4826 23.9759C11.4826 23.9759 12.7373 24.5876 14.5178 26.1855C16.4909 27.9563 17.3926 29.0545 17.8018 28.661C18.2502 28.2294 17.2623 26.7226 15.4335 24.8012C13.3639 22.6269 11.9315 22.0657 11.9315 22.0657C11.9315 22.0657 12.2739 20.6274 12.6471 18.2935C13.0423 15.8231 13.365 13.4702 13.365 13.4702Z" fill="#626476"/>
</svg>
