<svg width="291" height="42" viewBox="0 0 291 42" fill="none" xmlns="http://www.w3.org/2000/svg">
<path d="M29.7286 10.0479C33.2815 10.0479 36.4293 11.7308 38.4239 14.3176C35.9306 9.11289 30.6012 5.52881 24.4615 5.52881C15.8909 5.52881 8.94092 12.4788 8.94092 21.0183C8.94092 29.5577 15.8909 36.5389 24.4615 36.5389C30.6012 36.5389 35.9306 32.9548 38.455 27.7501C36.4293 30.368 33.2815 32.051 29.7598 32.051C23.6824 32.051 18.7582 27.1268 18.7582 21.0494C18.727 14.9409 23.6512 10.0479 29.7286 10.0479Z" fill="white"/>
<path d="M9.12744 28.2798C9.31444 28.6538 9.47027 28.9966 9.68843 29.3706C9.47027 28.9966 9.28327 28.6538 9.12744 28.2798Z" fill="white"/>
<path d="M10.4989 11.4192C10.156 11.9178 9.81321 12.4788 9.53271 13.0087C9.78204 12.4788 10.1249 11.949 10.4989 11.4192Z" fill="white"/>
<path d="M29.7275 0.230469C23.1203 0.230469 17.2611 3.31589 13.4277 8.11544C16.3885 5.59101 20.2531 4.03271 24.4605 4.03271C33.8414 4.03271 41.4459 11.6684 41.4459 21.0181C41.4459 30.3679 33.8102 38.0036 24.4605 38.0036C20.2531 38.0036 16.4197 36.4764 13.4277 33.9208C17.23 38.7204 23.1203 41.8058 29.7275 41.8058C41.2277 41.8058 50.5152 32.4872 50.5152 21.0181C50.5152 9.54908 41.2277 0.230469 29.7275 0.230469Z" fill="white"/>
<path d="M3.33107 14.2859C3.2999 14.5352 3.33107 14.7222 3.45573 14.9092C3.54923 15.065 3.73622 15.2209 3.95438 15.3455C4.01672 14.7222 4.11021 14.0989 4.23488 13.4756C3.98555 13.4756 3.79855 13.5379 3.64272 13.6626C3.48689 13.7872 3.36223 14.0054 3.33107 14.2859Z" fill="white"/>
<path d="M4.3916 18.7428C4.64093 18.6804 4.82792 18.5869 4.95259 18.3999C5.07725 18.2441 5.17075 18.0259 5.17075 17.8078C5.17075 17.5896 5.10842 17.4026 4.98375 17.2468C4.85909 17.091 4.67209 16.9663 4.42277 16.8728C4.3916 17.4961 4.3916 18.1194 4.3916 18.7428Z" fill="white"/>
<path d="M9.6886 29.3392C9.5016 28.9964 9.31461 28.6224 9.12761 28.2484C9.03411 28.0614 8.97178 27.9056 8.87828 27.7186C8.75362 27.4381 8.62896 27.1576 8.53546 26.846C8.47313 26.7213 8.44196 26.5966 8.37963 26.4408C8.28613 26.1603 8.19263 25.911 8.1303 25.6305C8.09914 25.5058 8.06797 25.35 8.00564 25.2253C7.97447 25.1007 7.94331 24.9448 7.91214 24.8202C7.84981 24.5397 7.78748 24.2592 7.75631 23.9787C7.69398 23.6982 7.66281 23.4177 7.63165 23.1372C7.60048 22.9814 7.60048 22.8567 7.56931 22.7009C7.53815 22.5762 7.53815 22.4204 7.53815 22.2957V22.2646C7.50698 21.8282 7.47582 21.3919 7.47582 20.9556C7.47582 20.7998 7.47582 20.6751 7.47582 20.5193C7.47582 20.3634 7.47582 20.2388 7.50698 20.083C7.50698 19.7713 7.53815 19.4596 7.56931 19.148C7.56931 19.0545 7.56931 18.961 7.60048 18.8675C7.60048 18.8052 7.60048 18.7428 7.63165 18.7117C7.66281 18.4935 7.69398 18.2753 7.72514 18.0572C7.72514 18.026 7.72514 17.9637 7.75631 17.9325C7.78748 17.8078 7.78748 17.6832 7.81864 17.5585C7.84981 17.4027 7.88097 17.2469 7.91214 17.1222C7.97447 16.904 8.00564 16.717 8.06797 16.4989C8.19263 16.0937 8.3173 15.6886 8.44196 15.2834C8.50429 15.0964 8.59779 14.8782 8.66012 14.6913C8.72245 14.5043 8.81595 14.3173 8.90945 14.1303C9.00295 13.9433 9.09645 13.7563 9.18994 13.5693C9.28344 13.3823 9.37694 13.1953 9.47044 13.0083C9.78209 12.4473 10.0938 11.9175 10.4366 11.4188L0.58815 8.20874L0.401154 9.11255C-0.0663346 11.6058 -0.93898 18.8363 3.39308 25.7551C5.4812 28.6847 8.56662 31.4897 13.1168 33.6713C11.7455 32.4247 10.5924 30.9599 9.6886 29.3392ZM6.79017 14.7847C6.29151 14.7224 5.82402 14.6289 5.32537 14.5666C5.32537 14.3796 5.2942 14.1926 5.20071 14.0056C5.10721 13.8498 4.98254 13.6939 4.82671 13.6004C4.70205 14.2549 4.60855 14.9094 4.54622 15.5951C5.01371 15.7821 5.3877 15.9379 5.63703 16.0937C5.91752 16.2495 6.13568 16.4365 6.32268 16.717C6.50967 16.9975 6.60317 17.3404 6.57201 17.8078C6.57201 18.1507 6.47851 18.4623 6.29151 18.774C6.13568 19.0856 5.88636 19.335 5.54353 19.5531C5.23187 19.7713 4.82671 19.896 4.39039 19.9583C4.39039 20.2388 4.42156 20.5193 4.45272 20.8309C4.23456 20.8621 4.04757 20.8621 3.82941 20.8933C3.79824 20.5816 3.79824 20.3011 3.76707 19.9895C3.11259 19.9583 2.58277 19.7713 2.17761 19.3661C1.77245 18.9921 1.55429 18.4312 1.55429 17.7455C2.05295 17.7455 2.52044 17.7767 3.01909 17.7767C3.05026 18.3065 3.29958 18.6493 3.73591 18.7428C3.73591 18.0572 3.73591 17.3715 3.79824 16.6547C3.33075 16.4989 2.98793 16.343 2.70743 16.1872C2.42694 16.0314 2.20878 15.7821 2.02178 15.4704C1.83479 15.1276 1.80362 14.6913 1.86595 14.1614C1.95945 13.4758 2.27111 12.9771 2.7386 12.6343C3.20609 12.2915 3.79824 12.198 4.42156 12.2915C4.48389 12.011 4.54622 11.7305 4.63972 11.45C4.82671 11.5123 5.04488 11.5435 5.23187 11.6058C5.16954 11.8863 5.07604 12.1668 5.01371 12.4473C5.60586 12.6343 6.04219 12.946 6.35384 13.3511C6.69667 13.7251 6.82133 14.1926 6.79017 14.7847Z" fill="white"/>
<path d="M32.6892 22.9195C36.1317 22.9195 38.9224 20.1288 38.9224 16.6863C38.9224 13.2438 36.1317 10.4531 32.6892 10.4531C29.2467 10.4531 26.4561 13.2438 26.4561 16.6863C26.4561 20.1288 29.2467 22.9195 32.6892 22.9195Z" fill="white"/>
<path d="M65.0711 32.9444C63.2439 32.9444 61.6352 32.6267 60.2449 31.9911C58.8547 31.3357 57.6829 30.4718 56.7296 29.3993C55.7961 28.3069 55.0911 27.0855 54.6144 25.735C54.1576 24.3844 53.9292 23.0041 53.9292 21.594C53.9292 20.1839 54.1576 18.8135 54.6144 17.4828C55.0911 16.1323 55.7961 14.9208 56.7296 13.8483C57.6829 12.7758 58.8547 11.9218 60.2449 11.2862C61.6352 10.6308 63.2439 10.3031 65.0711 10.3031C66.9182 10.3031 68.5368 10.6308 69.9271 11.2862C71.3173 11.9218 72.4792 12.7758 73.4126 13.8483C74.3461 14.9208 75.0412 16.1323 75.498 17.4828C75.9747 18.8135 76.213 20.1839 76.213 21.594C76.213 23.0041 75.9747 24.3844 75.498 25.735C75.0412 27.0855 74.3461 28.3069 73.4126 29.3993C72.4792 30.4718 71.3173 31.3357 69.9271 31.9911C68.5368 32.6267 66.9182 32.9444 65.0711 32.9444ZM65.0711 28.8035C66.4614 28.8035 67.6331 28.4559 68.5865 27.7608C69.5398 27.0656 70.2548 26.1719 70.7314 25.0796C71.2081 23.9674 71.4464 22.8055 71.4464 21.594C71.4464 20.3825 71.2081 19.2306 70.7314 18.1382C70.2548 17.0459 69.5398 16.1521 68.5865 15.457C67.6331 14.7619 66.4614 14.4143 65.0711 14.4143C63.6808 14.4143 62.5091 14.7619 61.5557 15.457C60.6223 16.1521 59.9172 17.0459 59.4406 18.1382C58.9639 19.2306 58.7256 20.3825 58.7256 21.594C58.7256 22.8055 58.9639 23.9674 59.4406 25.0796C59.9172 26.1719 60.6223 27.0656 61.5557 27.7608C62.5091 28.4559 63.6808 28.8035 65.0711 28.8035Z" fill="white"/>
<path d="M78.5404 32.6465V16.8572H83.0687V19.1213H83.2176C83.3964 18.8035 83.6546 18.4461 83.9922 18.0488C84.3497 17.6516 84.8164 17.3041 85.3924 17.0061C85.9882 16.7082 86.7429 16.5593 87.6565 16.5593C88.8879 16.5593 89.8909 16.8473 90.6654 17.4232C91.44 17.9793 92.006 18.7042 92.3635 19.598C92.721 20.4719 92.8998 21.3954 92.8998 22.3686V32.6465H88.3715V23.1431C88.3715 22.3884 88.163 21.7231 87.7459 21.1471C87.3487 20.5712 86.7032 20.2832 85.8095 20.2832C85.1342 20.2832 84.598 20.4421 84.2008 20.7598C83.8035 21.0776 83.5156 21.4848 83.3368 21.9813C83.1581 22.4778 83.0687 23.0041 83.0687 23.5602V32.6465H78.5404Z" fill="white"/>
<path d="M96.0474 32.6465V10.0052H100.576V32.6465H96.0474Z" fill="white"/>
<path d="M106.417 14.7122C105.623 14.7122 104.977 14.464 104.481 13.9674C103.984 13.4511 103.736 12.8453 103.736 12.1502C103.736 11.4153 103.984 10.7997 104.481 10.3031C104.977 9.78675 105.623 9.52856 106.417 9.52856C107.172 9.52856 107.808 9.78675 108.324 10.3031C108.84 10.7997 109.098 11.4153 109.098 12.1502C109.098 12.8453 108.84 13.4511 108.324 13.9674C107.808 14.464 107.172 14.7122 106.417 14.7122ZM104.153 32.6465V16.8572H108.681V32.6465H104.153Z" fill="white"/>
<path d="M111.955 32.6465V16.8572H116.484V19.1213H116.633C116.811 18.8035 117.07 18.4461 117.407 18.0488C117.765 17.6516 118.231 17.3041 118.807 17.0061C119.403 16.7082 120.158 16.5593 121.072 16.5593C122.303 16.5593 123.306 16.8473 124.08 17.4232C124.855 17.9793 125.421 18.7042 125.779 19.598C126.136 20.4719 126.315 21.3954 126.315 22.3686V32.6465H121.786V23.1431C121.786 22.3884 121.578 21.7231 121.161 21.1471C120.764 20.5712 120.118 20.2832 119.224 20.2832C118.549 20.2832 118.013 20.4421 117.616 20.7598C117.219 21.0776 116.931 21.4848 116.752 21.9813C116.573 22.4778 116.484 23.0041 116.484 23.5602V32.6465H111.955Z" fill="white"/>
<path d="M136.855 32.9444C135.465 32.9444 134.263 32.716 133.25 32.2592C132.237 31.7826 131.403 31.157 130.748 30.3824C130.092 29.588 129.596 28.7041 129.258 27.731C128.94 26.7578 128.781 25.7548 128.781 24.7221C128.781 23.729 128.93 22.7558 129.228 21.8025C129.546 20.8293 130.023 19.9455 130.658 19.1511C131.314 18.3567 132.138 17.7311 133.131 17.2743C134.144 16.7976 135.335 16.5593 136.706 16.5593C138.156 16.5593 139.437 16.8771 140.549 17.5126C141.681 18.1481 142.565 19.0915 143.2 20.3428C143.836 21.5741 144.154 23.0736 144.154 24.8412V25.9435H133.339C133.399 26.8968 133.727 27.721 134.323 28.4162C134.938 29.1113 135.782 29.4589 136.855 29.4589C137.47 29.4589 137.967 29.3695 138.344 29.1907C138.742 28.9921 139.049 28.7737 139.268 28.5353C139.486 28.2771 139.635 28.0487 139.715 27.8501C139.794 27.6515 139.834 27.5522 139.834 27.5522H144.005C144.005 27.5522 143.955 27.7409 143.856 28.1183C143.776 28.4758 143.598 28.9226 143.319 29.4589C143.041 29.9951 142.634 30.5313 142.098 31.0676C141.582 31.6038 140.896 32.0507 140.042 32.4082C139.188 32.7657 138.126 32.9444 136.855 32.9444ZM133.339 23.2027H139.804C139.745 22.1104 139.417 21.2961 138.821 20.7598C138.225 20.2236 137.49 19.9555 136.616 19.9555C135.743 19.9555 134.998 20.2435 134.382 20.8194C133.766 21.3755 133.419 22.17 133.339 23.2027Z" fill="white"/>
<path d="M146.933 32.6465V10.601H151.521V28.6545H162.306V32.6465H146.933Z" fill="white"/>
<path d="M172.412 32.9444C170.645 32.9444 169.145 32.5671 167.914 31.8124C166.683 31.0378 165.739 30.0348 165.084 28.8035C164.448 27.5522 164.13 26.2017 164.13 24.7519C164.13 23.302 164.448 21.9614 165.084 20.73C165.739 19.4788 166.683 18.4758 167.914 17.7211C169.145 16.9466 170.645 16.5593 172.412 16.5593C174.18 16.5593 175.68 16.9466 176.911 17.7211C178.142 18.4758 179.076 19.4788 179.711 20.73C180.367 21.9614 180.694 23.302 180.694 24.7519C180.694 26.2017 180.367 27.5522 179.711 28.8035C179.076 30.0348 178.142 31.0378 176.911 31.8124C175.68 32.5671 174.18 32.9444 172.412 32.9444ZM172.412 29.2503C173.207 29.2503 173.872 29.0418 174.408 28.6247C174.965 28.2076 175.392 27.6615 175.689 26.9862C175.987 26.2911 176.136 25.5463 176.136 24.7519C176.136 23.9376 175.987 23.1928 175.689 22.5175C175.392 21.8422 174.965 21.2961 174.408 20.879C173.872 20.4619 173.207 20.2534 172.412 20.2534C171.618 20.2534 170.943 20.4619 170.387 20.879C169.831 21.2961 169.404 21.8422 169.106 22.5175C168.828 23.1928 168.689 23.9376 168.689 24.7519C168.689 25.5463 168.828 26.2911 169.106 26.9862C169.404 27.6615 169.831 28.2076 170.387 28.6247C170.943 29.0418 171.618 29.2503 172.412 29.2503Z" fill="white"/>
<path d="M189.939 16.5593C190.952 16.5593 191.786 16.7281 192.442 17.0657C193.097 17.3835 193.594 17.7311 193.931 18.1084C194.289 18.4858 194.507 18.744 194.587 18.883H194.825V16.8572H199.353V32.6465H194.825V30.6207H194.587C194.507 30.7597 194.289 31.0179 193.931 31.3953C193.594 31.7726 193.097 32.1301 192.442 32.4678C191.786 32.7855 190.952 32.9444 189.939 32.9444C188.767 32.9444 187.745 32.716 186.871 32.2592C186.017 31.7826 185.302 31.157 184.726 30.3824C184.15 29.588 183.713 28.7041 183.415 27.731C183.137 26.7578 182.998 25.7648 182.998 24.7519C182.998 23.739 183.137 22.7459 183.415 21.7727C183.713 20.7996 184.15 19.9257 184.726 19.1511C185.302 18.3567 186.017 17.7311 186.871 17.2743C187.745 16.7976 188.767 16.5593 189.939 16.5593ZM191.25 20.2236C190.436 20.2236 189.75 20.452 189.194 20.9088C188.658 21.3457 188.251 21.9118 187.973 22.6069C187.715 23.302 187.586 24.017 187.586 24.7519C187.586 25.4867 187.715 26.2017 187.973 26.8968C188.251 27.5919 188.658 28.1679 189.194 28.6247C189.75 29.0616 190.436 29.2801 191.25 29.2801C192.064 29.2801 192.74 29.0616 193.276 28.6247C193.832 28.1679 194.239 27.5919 194.497 26.8968C194.775 26.2017 194.914 25.4867 194.914 24.7519C194.914 24.017 194.775 23.302 194.497 22.6069C194.239 21.9118 193.832 21.3457 193.276 20.9088C192.74 20.452 192.064 20.2236 191.25 20.2236Z" fill="white"/>
<path d="M202.306 32.6465V16.8572H206.835V19.1213H206.984C207.162 18.8035 207.421 18.4461 207.758 18.0488C208.116 17.6516 208.582 17.3041 209.158 17.0061C209.754 16.7082 210.509 16.5593 211.423 16.5593C212.654 16.5593 213.657 16.8473 214.431 17.4232C215.206 17.9793 215.772 18.7042 216.13 19.598C216.487 20.4719 216.666 21.3954 216.666 22.3686V32.6465H212.138V23.1431C212.138 22.3884 211.929 21.7231 211.512 21.1471C211.115 20.5712 210.469 20.2832 209.576 20.2832C208.9 20.2832 208.364 20.4421 207.967 20.7598C207.57 21.0776 207.282 21.4848 207.103 21.9813C206.924 22.4778 206.835 23.0041 206.835 23.5602V32.6465H202.306Z" fill="white"/>
<path d="M226.159 32.9444C224.848 32.9444 223.766 32.7657 222.912 32.4082C222.058 32.0507 221.372 31.6138 220.856 31.0974C220.36 30.5611 219.982 30.0348 219.724 29.5184C219.486 28.9822 219.327 28.5353 219.247 28.1778C219.188 27.8203 219.158 27.6416 219.158 27.6416H223.359C223.359 27.6416 223.388 27.7409 223.448 27.9395C223.508 28.1381 223.637 28.3665 223.835 28.6247C224.054 28.8829 224.362 29.1113 224.759 29.3099C225.156 29.5085 225.692 29.6078 226.367 29.6078C227.202 29.6078 227.768 29.439 228.066 29.1014C228.383 28.7637 228.542 28.4261 228.542 28.0885C228.542 27.3735 227.956 26.8968 226.785 26.6585L224.64 26.2414C223.726 26.0627 222.862 25.8045 222.048 25.4668C221.253 25.1093 220.608 24.6228 220.111 24.0071C219.635 23.3715 219.396 22.5572 219.396 21.5642C219.396 20.6109 219.645 19.7569 220.141 19.0022C220.638 18.2474 221.343 17.6516 222.256 17.2147C223.19 16.7778 224.302 16.5593 225.593 16.5593C226.804 16.5593 227.807 16.7281 228.602 17.0657C229.416 17.3835 230.062 17.7906 230.538 18.2872C231.015 18.7638 231.372 19.2504 231.611 19.7469C231.849 20.2236 231.998 20.6307 232.058 20.9684C232.137 21.2861 232.177 21.445 232.177 21.445H228.125C228.125 21.445 228.066 21.3159 227.946 21.0577C227.827 20.7797 227.579 20.5116 227.202 20.2534C226.844 19.9753 226.288 19.8363 225.533 19.8363C224.759 19.8363 224.223 19.9952 223.925 20.313C223.627 20.6109 223.478 20.9287 223.478 21.2663C223.478 21.6635 223.647 21.9614 223.984 22.16C224.342 22.3586 224.798 22.5175 225.355 22.6367L227.41 23.0538C228.92 23.3517 230.161 23.878 231.134 24.6327C232.107 25.3675 232.594 26.44 232.594 27.8501C232.594 28.8035 232.346 29.6674 231.849 30.442C231.353 31.2165 230.628 31.8322 229.674 32.289C228.721 32.726 227.549 32.9444 226.159 32.9444Z" fill="white"/>
<path d="M238.198 32.9444C237.443 32.9444 236.827 32.6962 236.351 32.1996C235.874 31.6833 235.636 31.0874 235.636 30.4122C235.636 29.6972 235.874 29.0914 236.351 28.5949C236.827 28.0984 237.443 27.8501 238.198 27.8501C238.913 27.8501 239.509 28.0984 239.985 28.5949C240.482 29.0914 240.73 29.6972 240.73 30.4122C240.73 31.1073 240.482 31.7031 239.985 32.1996C239.509 32.6962 238.913 32.9444 238.198 32.9444Z" fill="white"/>
<path d="M252.377 32.9444C250.61 32.9444 249.11 32.5671 247.879 31.8124C246.647 31.0378 245.704 30.0348 245.049 28.8035C244.413 27.5522 244.095 26.2017 244.095 24.7519C244.095 23.302 244.413 21.9614 245.049 20.73C245.704 19.4788 246.647 18.4758 247.879 17.7211C249.11 16.9466 250.61 16.5593 252.377 16.5593C254.145 16.5593 255.644 16.9466 256.876 17.7211C258.107 18.4758 259.041 19.4788 259.676 20.73C260.332 21.9614 260.659 23.302 260.659 24.7519C260.659 26.2017 260.332 27.5522 259.676 28.8035C259.041 30.0348 258.107 31.0378 256.876 31.8124C255.644 32.5671 254.145 32.9444 252.377 32.9444ZM252.377 29.2503C253.172 29.2503 253.837 29.0418 254.373 28.6247C254.929 28.2076 255.356 27.6615 255.654 26.9862C255.952 26.2911 256.101 25.5463 256.101 24.7519C256.101 23.9376 255.952 23.1928 255.654 22.5175C255.356 21.8422 254.929 21.2961 254.373 20.879C253.837 20.4619 253.172 20.2534 252.377 20.2534C251.583 20.2534 250.908 20.4619 250.351 20.879C249.795 21.2961 249.368 21.8422 249.07 22.5175C248.792 23.1928 248.653 23.9376 248.653 24.7519C248.653 25.5463 248.792 26.2911 249.07 26.9862C249.368 27.6615 249.795 28.2076 250.351 28.6247C250.908 29.0418 251.583 29.2503 252.377 29.2503Z" fill="white"/>
<path d="M263.317 32.6465V16.8572H267.815V19.1511H267.964C268.143 18.734 268.391 18.3269 268.709 17.9297C269.027 17.5325 269.464 17.2048 270.02 16.9466C270.576 16.6884 271.291 16.5593 272.165 16.5593C272.602 16.5593 272.949 16.5891 273.207 16.6487C273.466 16.6884 273.595 16.7082 273.595 16.7082V21.1769C273.595 21.1769 273.446 21.1471 273.148 21.0875C272.87 21.028 272.502 20.9982 272.046 20.9982C270.635 20.9982 269.583 21.3855 268.888 22.16C268.193 22.9147 267.845 24.156 267.845 25.8839V32.6465H263.317Z" fill="white"/>
<path d="M282.927 38.9622C281.457 38.9622 280.246 38.7835 279.292 38.426C278.359 38.0685 277.614 37.6117 277.058 37.0556C276.502 36.5194 276.095 35.9831 275.836 35.4469C275.578 34.9106 275.409 34.4538 275.33 34.0765C275.27 33.719 275.241 33.5403 275.241 33.5403H279.65C279.65 33.5403 279.679 33.6296 279.739 33.8084C279.819 34.007 279.967 34.2254 280.186 34.4638C280.404 34.722 280.722 34.9404 281.139 35.1192C281.576 35.3178 282.152 35.4171 282.867 35.4171C284.099 35.4171 285.002 35.0695 285.578 34.3744C286.174 33.6793 286.472 32.7657 286.472 31.6336V29.9653H286.263C286.065 30.2831 285.767 30.6306 285.37 31.008C284.972 31.3854 284.466 31.7031 283.85 31.9613C283.235 32.2195 282.49 32.3486 281.616 32.3486C280.444 32.3486 279.421 32.1301 278.547 31.6932C277.674 31.2364 276.939 30.6306 276.343 29.8759C275.767 29.1212 275.33 28.2771 275.032 27.3437C274.754 26.4102 274.615 25.447 274.615 24.4539C274.615 23.4808 274.754 22.5274 275.032 21.594C275.33 20.6407 275.767 19.7867 276.343 19.0319C276.939 18.2772 277.674 17.6814 278.547 17.2445C279.421 16.7877 280.444 16.5593 281.616 16.5593C282.49 16.5593 283.235 16.6983 283.85 16.9764C284.466 17.2345 284.972 17.5523 285.37 17.9297C285.787 18.2872 286.085 18.6347 286.263 18.9724H286.472V16.8572H291V31.6336C291 32.9444 290.712 34.1559 290.136 35.2681C289.56 36.3803 288.676 37.2741 287.485 37.9493C286.293 38.6246 284.774 38.9622 282.927 38.9622ZM282.867 28.7737C283.701 28.7737 284.386 28.5651 284.923 28.148C285.479 27.731 285.896 27.1947 286.174 26.5393C286.452 25.8641 286.591 25.1689 286.591 24.4539C286.591 23.7191 286.452 23.024 286.174 22.3686C285.896 21.7132 285.479 21.1769 284.923 20.7598C284.386 20.3428 283.701 20.1342 282.867 20.1342C282.053 20.1342 281.368 20.3428 280.812 20.7598C280.275 21.1769 279.868 21.7132 279.59 22.3686C279.312 23.024 279.173 23.7191 279.173 24.4539C279.173 25.1689 279.312 25.8641 279.59 26.5393C279.868 27.1947 280.275 27.731 280.812 28.148C281.368 28.5651 282.053 28.7737 282.867 28.7737Z" fill="white"/>
</svg>
