<svg width="32" height="32" viewBox="0 0 32 32" fill="none" xmlns="http://www.w3.org/2000/svg">
<circle cx="15.9957" cy="16" r="10.5" stroke="#0E2B56"/>
<path d="M10.2371 16.0021C10.2371 15.6486 10.5236 15.3621 10.8771 15.3621H21.1185C21.472 15.3621 21.7586 15.6486 21.7586 16.0021C21.7586 16.3557 21.472 16.6422 21.1185 16.6422H10.8771C10.5236 16.6422 10.2371 16.3557 10.2371 16.0021Z" fill="#0E2B56"/>
<path d="M15.3578 10.8816C15.3578 10.5281 15.6444 10.2415 15.9979 10.2415C16.3514 10.2415 16.638 10.5281 16.638 10.8816V21.1229C16.638 21.4764 16.3514 21.763 15.9979 21.763C15.6444 21.763 15.3578 21.4764 15.3578 21.1229V10.8816Z" fill="#0E2B56"/>
</svg>
