<svg width="157" height="24" viewBox="0 0 157 24" fill="none" xmlns="http://www.w3.org/2000/svg">
<path d="M15.9863 6.10075C17.8968 6.10075 19.5895 7.00575 20.6621 8.39677C19.3214 5.59797 16.4555 3.67065 13.1539 3.67065C8.54515 3.67065 4.80783 7.40797 4.80783 12C4.80783 16.592 8.54515 20.3461 13.1539 20.3461C16.4555 20.3461 19.3213 18.4188 20.6788 15.62C19.5895 17.0278 17.8968 17.9328 16.003 17.9328C12.735 17.9328 10.087 15.2848 10.087 12.0168C10.0702 8.73195 12.7182 6.10075 15.9863 6.10075Z" fill="#0C2A53"/>
<path d="M4.90833 15.9049C5.00888 16.106 5.09268 16.2904 5.20999 16.4915C5.09268 16.2904 4.99212 16.106 4.90833 15.9049Z" fill="#0C2A53"/>
<path d="M5.64576 6.83813C5.46141 7.10628 5.27705 7.40795 5.12622 7.69286C5.26029 7.40795 5.44465 7.12304 5.64576 6.83813Z" fill="#0C2A53"/>
<path d="M15.9858 0.821533C12.4328 0.821533 9.28209 2.4807 7.2207 5.06163C8.81283 3.70413 10.891 2.86616 13.1535 2.86616C18.198 2.86616 22.2873 6.97218 22.2873 12C22.2873 17.0277 18.1813 21.1338 13.1535 21.1338C10.891 21.1338 8.82959 20.3126 7.2207 18.9383C9.26533 21.5192 12.4328 23.1784 15.9858 23.1784C22.17 23.1784 27.1642 18.1674 27.1642 12C27.1642 5.83255 22.17 0.821533 15.9858 0.821533Z" fill="#0C2A53"/>
<path d="M1.7912 8.37995C1.77444 8.51403 1.7912 8.61458 1.85824 8.71514C1.90852 8.79894 2.00907 8.88273 2.12639 8.94977C2.1599 8.61458 2.21018 8.2794 2.27722 7.94421C2.14315 7.94421 2.04259 7.97773 1.95879 8.04477C1.875 8.11181 1.80796 8.22912 1.7912 8.37995Z" fill="#0C2A53"/>
<path d="M2.36139 10.7766C2.49546 10.743 2.59602 10.6928 2.66306 10.5922C2.73009 10.5084 2.78037 10.3911 2.78037 10.2738C2.78037 10.1565 2.74685 10.0559 2.67981 9.97211C2.61278 9.88831 2.51222 9.82127 2.37815 9.771C2.36139 10.1062 2.36139 10.4414 2.36139 10.7766Z" fill="#0C2A53"/>
<path d="M5.21004 16.4747C5.10948 16.2904 5.00893 16.0893 4.90837 15.8881C4.85809 15.7876 4.82458 15.7038 4.7743 15.6032C4.70726 15.4524 4.64022 15.3016 4.58995 15.134C4.55643 15.0669 4.53967 14.9999 4.50615 14.9161C4.45587 14.7653 4.40559 14.6312 4.37208 14.4804C4.35532 14.4133 4.33856 14.3295 4.30504 14.2625C4.28828 14.1955 4.27152 14.1117 4.25476 14.0446C4.22124 13.8938 4.18772 13.743 4.17096 13.5921C4.13745 13.4413 4.12069 13.2905 4.10393 13.1396C4.08717 13.0558 4.08717 12.9888 4.07041 12.905C4.05365 12.838 4.05365 12.7542 4.05365 12.6871V12.6704C4.03689 12.4357 4.02013 12.2011 4.02013 11.9665C4.02013 11.8827 4.02013 11.8156 4.02013 11.7318C4.02013 11.648 4.02013 11.581 4.03689 11.4972C4.03689 11.3296 4.05365 11.162 4.07041 10.9944C4.07041 10.9442 4.07041 10.8939 4.08717 10.8436C4.08717 10.8101 4.08717 10.7766 4.10393 10.7598C4.12069 10.6425 4.13745 10.5252 4.1542 10.4079C4.1542 10.3911 4.1542 10.3576 4.17096 10.3408C4.18772 10.2738 4.18772 10.2068 4.20448 10.1397C4.22124 10.0559 4.238 9.97212 4.25476 9.90509C4.28828 9.78777 4.30504 9.68722 4.33856 9.5699C4.40559 9.35203 4.47263 9.13416 4.53967 8.91629C4.57319 8.81573 4.62346 8.69842 4.65698 8.59786C4.6905 8.49731 4.74078 8.39675 4.79106 8.2962C4.84133 8.19564 4.89161 8.09509 4.94189 7.99453C4.99217 7.89398 5.04245 7.79342 5.09272 7.69286C5.26032 7.3912 5.42791 7.10629 5.61226 6.83814L0.316335 5.11194L0.215779 5.59796C-0.0356099 6.9387 -0.504869 10.8268 1.82467 14.5474C2.94754 16.1228 4.6067 17.6311 7.05356 18.8043C6.31615 18.1339 5.69606 17.3462 5.21004 16.4747ZM3.65143 8.64814C3.38328 8.61462 3.13189 8.56435 2.86374 8.53083C2.86374 8.43027 2.84698 8.32972 2.79671 8.22916C2.74643 8.14536 2.67939 8.06157 2.59559 8.01129C2.52856 8.36323 2.47828 8.71518 2.44476 9.08388C2.69615 9.18444 2.89726 9.26823 3.03133 9.35203C3.18217 9.43583 3.29948 9.53638 3.40004 9.68722C3.50059 9.83805 3.55087 10.0224 3.53411 10.2738C3.53411 10.4581 3.48383 10.6257 3.38328 10.7933C3.29948 10.9609 3.16541 11.095 2.98106 11.2123C2.81346 11.3296 2.59559 11.3967 2.36096 11.4302C2.36096 11.581 2.37772 11.7318 2.39448 11.8994C2.27717 11.9162 2.17661 11.9162 2.0593 11.933C2.04254 11.7654 2.04254 11.6145 2.02578 11.4469C1.67383 11.4302 1.38893 11.3296 1.17106 11.1118C0.953186 10.9106 0.835872 10.609 0.835872 10.2403C1.10402 10.2403 1.35541 10.257 1.62356 10.257C1.64032 10.5419 1.77439 10.7263 2.00902 10.7766C2.00902 10.4079 2.00902 10.0392 2.04254 9.6537C1.79115 9.5699 1.6068 9.4861 1.45596 9.40231C1.30513 9.31851 1.18782 9.18444 1.08726 9.01685C0.986705 8.83249 0.969946 8.59786 1.00346 8.31296C1.05374 7.94425 1.22133 7.6761 1.47272 7.49175C1.72411 7.3074 2.04254 7.25712 2.37772 7.3074C2.41124 7.15657 2.44476 7.00573 2.49504 6.8549C2.59559 6.88842 2.71291 6.90518 2.81346 6.9387C2.77995 7.08953 2.72967 7.24036 2.69615 7.3912C3.01458 7.49175 3.2492 7.65935 3.4168 7.87722C3.60115 8.07833 3.66819 8.32972 3.65143 8.64814Z" fill="#0C2A53"/>
<path d="M17.5783 13.0223C19.4295 13.0223 20.9302 11.5216 20.9302 9.67046C20.9302 7.81928 19.4295 6.3186 17.5783 6.3186C15.7271 6.3186 14.2265 7.81928 14.2265 9.67046C14.2265 11.5216 15.7271 13.0223 17.5783 13.0223Z" fill="#0C2A53"/>
<path d="M34.9915 18.4133C34.0089 18.4133 33.1438 18.2424 32.3962 17.9006C31.6486 17.5482 31.0185 17.0836 30.5059 16.5069C30.0039 15.9195 29.6248 15.2627 29.3685 14.5364C29.1228 13.8102 29 13.0679 29 12.3096C29 11.5514 29.1228 10.8144 29.3685 10.0989C29.6248 9.37263 30.0039 8.72115 30.5059 8.14443C31.0185 7.56771 31.6486 7.10847 32.3962 6.76671C33.1438 6.41427 34.0089 6.23805 34.9915 6.23805C35.9847 6.23805 36.8551 6.41427 37.6027 6.76671C38.3503 7.10847 38.9751 7.56771 39.4771 8.14443C39.979 8.72115 40.3528 9.37263 40.5985 10.0989C40.8548 10.8144 40.983 11.5514 40.983 12.3096C40.983 13.0679 40.8548 13.8102 40.5985 14.5364C40.3528 15.2627 39.979 15.9195 39.4771 16.5069C38.9751 17.0836 38.3503 17.5482 37.6027 17.9006C36.8551 18.2424 35.9847 18.4133 34.9915 18.4133ZM34.9915 16.1865C35.7391 16.1865 36.3692 15.9996 36.8818 15.6258C37.3945 15.252 37.779 14.7714 38.0353 14.184C38.2916 13.5859 38.4198 12.9611 38.4198 12.3096C38.4198 11.6582 38.2916 11.0387 38.0353 10.4513C37.779 9.86391 37.3945 9.38331 36.8818 9.00951C36.3692 8.63571 35.7391 8.44881 34.9915 8.44881C34.2439 8.44881 33.6138 8.63571 33.1011 9.00951C32.5992 9.38331 32.22 9.86391 31.9637 10.4513C31.7074 11.0387 31.5792 11.6582 31.5792 12.3096C31.5792 12.9611 31.7074 13.5859 31.9637 14.184C32.22 14.7714 32.5992 15.252 33.1011 15.6258C33.6138 15.9996 34.2439 16.1865 34.9915 16.1865Z" fill="#0C2A53"/>
<path d="M42.2345 18.2531V9.76245H44.6696V10.98H44.7497C44.8458 10.8091 44.9846 10.6169 45.1662 10.4033C45.3584 10.1897 45.6094 10.0028 45.9191 9.84255C46.2395 9.68235 46.6454 9.60225 47.1366 9.60225C47.7988 9.60225 48.3381 9.75711 48.7547 10.0668C49.1712 10.3659 49.4756 10.7557 49.6678 11.2363C49.86 11.7062 49.9562 12.2028 49.9562 12.7262V18.2531H47.5211V13.1427C47.5211 12.7368 47.409 12.3791 47.1847 12.0693C46.9711 11.7596 46.624 11.6048 46.1434 11.6048C45.7803 11.6048 45.4919 11.6902 45.2783 11.8611C45.0647 12.032 44.9099 12.2509 44.8137 12.5179C44.7176 12.7849 44.6696 13.0679 44.6696 13.367V18.2531H42.2345Z" fill="#0C2A53"/>
<path d="M51.6488 18.2531V6.07785H54.0838V18.2531H51.6488Z" fill="#0C2A53"/>
<path d="M57.2251 8.60901C56.7979 8.60901 56.4508 8.47551 56.1838 8.20851C55.9168 7.93083 55.7833 7.60509 55.7833 7.23129C55.7833 6.83613 55.9168 6.50505 56.1838 6.23805C56.4508 5.96037 56.7979 5.82153 57.2251 5.82153C57.631 5.82153 57.9727 5.96037 58.2504 6.23805C58.5281 6.50505 58.6669 6.83613 58.6669 7.23129C58.6669 7.60509 58.5281 7.93083 58.2504 8.20851C57.9727 8.47551 57.631 8.60901 57.2251 8.60901ZM56.0076 18.2531V9.76245H58.4426V18.2531H56.0076Z" fill="#0C2A53"/>
<path d="M60.2032 18.2531V9.76245H62.6382V10.98H62.7183C62.8145 10.8091 62.9533 10.6169 63.1349 10.4033C63.3271 10.1897 63.5781 10.0028 63.8878 9.84255C64.2082 9.68235 64.614 9.60225 65.1053 9.60225C65.7675 9.60225 66.3068 9.75711 66.7233 10.0668C67.1399 10.3659 67.4442 10.7557 67.6365 11.2363C67.8287 11.7062 67.9248 12.2028 67.9248 12.7262V18.2531H65.4898V13.1427C65.4898 12.7368 65.3777 12.3791 65.1534 12.0693C64.9398 11.7596 64.5927 11.6048 64.1121 11.6048C63.749 11.6048 63.4606 11.6902 63.247 11.8611C63.0334 12.032 62.8785 12.2509 62.7824 12.5179C62.6863 12.7849 62.6382 13.0679 62.6382 13.367V18.2531H60.2032Z" fill="#0C2A53"/>
<path d="M73.5927 18.4133C72.8451 18.4133 72.1989 18.2904 71.6543 18.0448C71.1096 17.7885 70.661 17.4521 70.3086 17.0355C69.9561 16.6083 69.6891 16.1331 69.5076 15.6098C69.3367 15.0864 69.2513 14.5471 69.2513 13.9917C69.2513 13.4577 69.3314 12.9344 69.4916 12.4218C69.6624 11.8985 69.9188 11.4232 70.2605 10.996C70.6129 10.5688 71.0562 10.2324 71.5902 9.98673C72.1349 9.73041 72.7757 9.60225 73.5126 9.60225C74.2922 9.60225 74.9811 9.77313 75.5792 10.1149C76.1879 10.4567 76.6632 10.964 77.0049 11.6368C77.3467 12.299 77.5176 13.1053 77.5176 14.0558V14.6486H71.7023C71.7344 15.1612 71.9106 15.6044 72.231 15.9782C72.5621 16.352 73.0159 16.5389 73.5927 16.5389C73.9238 16.5389 74.1908 16.4909 74.3937 16.3947C74.6073 16.2879 74.7728 16.1705 74.8903 16.0423C75.0078 15.9035 75.0879 15.7806 75.1306 15.6738C75.1733 15.567 75.1947 15.5136 75.1947 15.5136H77.4375C77.4375 15.5136 77.4108 15.6151 77.3574 15.818C77.3147 16.0103 77.2185 16.2506 77.069 16.5389C76.9195 16.8273 76.7006 17.1156 76.4122 17.404C76.1345 17.6924 75.7661 17.9327 75.3068 18.1249C74.8476 18.3171 74.2762 18.4133 73.5927 18.4133ZM71.7023 13.1747H75.1787C75.1466 12.5873 74.9704 12.1494 74.65 11.8611C74.3296 11.5727 73.9344 11.4285 73.4645 11.4285C72.9946 11.4285 72.5941 11.5834 72.263 11.8931C71.9319 12.1922 71.745 12.6194 71.7023 13.1747Z" fill="#0C2A53"/>
<path d="M79.0123 18.2531V6.39825H81.4794V16.1064H87.2786V18.2531H79.0123Z" fill="#0C2A53"/>
<path d="M92.7135 18.4133C91.763 18.4133 90.9567 18.2103 90.2945 17.8045C89.6324 17.388 89.1251 16.8486 88.7726 16.1865C88.4309 15.5136 88.26 14.7874 88.26 14.0078C88.26 13.2281 88.4309 12.5072 88.7726 11.8451C89.1251 11.1722 89.6324 10.6329 90.2945 10.227C90.9567 9.81051 91.763 9.60225 92.7135 9.60225C93.6641 9.60225 94.4704 9.81051 95.1326 10.227C95.7947 10.6329 96.2967 11.1722 96.6384 11.8451C96.9909 12.5072 97.1671 13.2281 97.1671 14.0078C97.1671 14.7874 96.9909 15.5136 96.6384 16.1865C96.2967 16.8486 95.7947 17.388 95.1326 17.8045C94.4704 18.2103 93.6641 18.4133 92.7135 18.4133ZM92.7135 16.4268C93.1407 16.4268 93.4985 16.3146 93.7869 16.0904C94.0859 15.8661 94.3155 15.5724 94.4757 15.2093C94.6359 14.8355 94.716 14.435 94.716 14.0078C94.716 13.5699 94.6359 13.1694 94.4757 12.8063C94.3155 12.4431 94.0859 12.1494 93.7869 11.9252C93.4985 11.7009 93.1407 11.5887 92.7135 11.5887C92.2863 11.5887 91.9232 11.7009 91.6242 11.9252C91.3251 12.1494 91.0955 12.4431 90.9353 12.8063C90.7858 13.1694 90.711 13.5699 90.711 14.0078C90.711 14.435 90.7858 14.8355 90.9353 15.2093C91.0955 15.5724 91.3251 15.8661 91.6242 16.0904C91.9232 16.3146 92.2863 16.4268 92.7135 16.4268Z" fill="#0C2A53"/>
<path d="M102.138 9.60225C102.683 9.60225 103.132 9.69303 103.484 9.87459C103.837 10.0455 104.104 10.2324 104.285 10.4353C104.477 10.6382 104.595 10.7771 104.638 10.8518H104.766V9.76245H107.201V18.2531H104.766V17.1637H104.638C104.595 17.2385 104.477 17.3773 104.285 17.5802C104.104 17.7831 103.837 17.9754 103.484 18.1569C103.132 18.3278 102.683 18.4133 102.138 18.4133C101.508 18.4133 100.958 18.2904 100.488 18.0448C100.029 17.7885 99.6447 17.4521 99.3349 17.0355C99.0252 16.6083 98.7903 16.1331 98.6301 15.6098C98.4805 15.0864 98.4058 14.5524 98.4058 14.0078C98.4058 13.4631 98.4805 12.9291 98.6301 12.4058C98.7903 11.8824 99.0252 11.4125 99.3349 10.996C99.6447 10.5688 100.029 10.2324 100.488 9.98673C100.958 9.73041 101.508 9.60225 102.138 9.60225ZM102.843 11.5727C102.405 11.5727 102.037 11.6955 101.738 11.9412C101.45 12.1761 101.231 12.4805 101.081 12.8543C100.942 13.2281 100.873 13.6126 100.873 14.0078C100.873 14.4029 100.942 14.7874 101.081 15.1612C101.231 15.535 101.45 15.8447 101.738 16.0904C102.037 16.3253 102.405 16.4428 102.843 16.4428C103.281 16.4428 103.644 16.3253 103.933 16.0904C104.232 15.8447 104.451 15.535 104.589 15.1612C104.739 14.7874 104.814 14.4029 104.814 14.0078C104.814 13.6126 104.739 13.2281 104.589 12.8543C104.451 12.4805 104.232 12.1761 103.933 11.9412C103.644 11.6955 103.281 11.5727 102.843 11.5727Z" fill="#0C2A53"/>
<path d="M108.789 18.2531V9.76245H111.224V10.98H111.304C111.4 10.8091 111.539 10.6169 111.721 10.4033C111.913 10.1897 112.164 10.0028 112.473 9.84255C112.794 9.68235 113.2 9.60225 113.691 9.60225C114.353 9.60225 114.892 9.75711 115.309 10.0668C115.726 10.3659 116.03 10.7557 116.222 11.2363C116.414 11.7062 116.511 12.2028 116.511 12.7262V18.2531H114.075V13.1427C114.075 12.7368 113.963 12.3791 113.739 12.0693C113.525 11.7596 113.178 11.6048 112.698 11.6048C112.335 11.6048 112.046 11.6902 111.833 11.8611C111.619 12.032 111.464 12.2509 111.368 12.5179C111.272 12.7849 111.224 13.0679 111.224 13.367V18.2531H108.789Z" fill="#0C2A53"/>
<path d="M121.615 18.4133C120.91 18.4133 120.328 18.3171 119.869 18.1249C119.41 17.9327 119.041 17.6977 118.764 17.42C118.497 17.1317 118.294 16.8486 118.155 16.571C118.027 16.2826 117.941 16.0423 117.899 15.8501C117.867 15.6578 117.851 15.5617 117.851 15.5617H120.109C120.109 15.5617 120.126 15.6151 120.158 15.7219C120.19 15.8287 120.259 15.9515 120.366 16.0904C120.483 16.2292 120.649 16.352 120.862 16.4588C121.076 16.5656 121.364 16.619 121.728 16.619C122.176 16.619 122.48 16.5282 122.641 16.3467C122.812 16.1651 122.897 15.9836 122.897 15.802C122.897 15.4175 122.582 15.1612 121.952 15.033L120.798 14.8088C120.307 14.7126 119.842 14.5738 119.405 14.3922C118.977 14.2 118.63 13.9383 118.363 13.6073C118.107 13.2655 117.979 12.8276 117.979 12.2936C117.979 11.781 118.112 11.3217 118.379 10.9159C118.646 10.5101 119.025 10.1897 119.517 9.95469C120.019 9.71973 120.617 9.60225 121.311 9.60225C121.962 9.60225 122.502 9.69303 122.929 9.87459C123.367 10.0455 123.714 10.2644 123.97 10.5314C124.227 10.7877 124.419 11.0494 124.547 11.3164C124.675 11.5727 124.755 11.7917 124.787 11.9732C124.83 12.1441 124.851 12.2295 124.851 12.2295H122.673C122.673 12.2295 122.641 12.1601 122.577 12.0213C122.512 11.8718 122.379 11.7276 122.176 11.5887C121.984 11.4392 121.685 11.3645 121.279 11.3645C120.862 11.3645 120.574 11.4499 120.414 11.6208C120.254 11.781 120.174 11.9519 120.174 12.1334C120.174 12.347 120.264 12.5072 120.446 12.614C120.638 12.7208 120.884 12.8063 121.183 12.8703L122.288 13.0946C123.1 13.2548 123.767 13.5378 124.291 13.9437C124.814 14.3388 125.076 14.9156 125.076 15.6738C125.076 16.1865 124.942 16.6511 124.675 17.0676C124.408 17.4841 124.018 17.8152 123.506 18.0608C122.993 18.2958 122.363 18.4133 121.615 18.4133Z" fill="#0C2A53"/>
<path d="M128.089 18.4133C127.683 18.4133 127.352 18.2798 127.096 18.0128C126.84 17.7351 126.711 17.4147 126.711 17.0516C126.711 16.6671 126.84 16.3413 127.096 16.0743C127.352 15.8073 127.683 15.6738 128.089 15.6738C128.474 15.6738 128.794 15.8073 129.05 16.0743C129.317 16.3413 129.451 16.6671 129.451 17.0516C129.451 17.4254 129.317 17.7458 129.05 18.0128C128.794 18.2798 128.474 18.4133 128.089 18.4133Z" fill="#0C2A53"/>
<path d="M135.714 18.4133C134.764 18.4133 133.957 18.2103 133.295 17.8045C132.633 17.388 132.126 16.8486 131.773 16.1865C131.431 15.5136 131.261 14.7874 131.261 14.0078C131.261 13.2281 131.431 12.5072 131.773 11.8451C132.126 11.1722 132.633 10.6329 133.295 10.227C133.957 9.81051 134.764 9.60225 135.714 9.60225C136.665 9.60225 137.471 9.81051 138.133 10.227C138.795 10.6329 139.297 11.1722 139.639 11.8451C139.991 12.5072 140.168 13.2281 140.168 14.0078C140.168 14.7874 139.991 15.5136 139.639 16.1865C139.297 16.8486 138.795 17.388 138.133 17.8045C137.471 18.2103 136.665 18.4133 135.714 18.4133ZM135.714 16.4268C136.141 16.4268 136.499 16.3146 136.787 16.0904C137.086 15.8661 137.316 15.5724 137.476 15.2093C137.637 14.8355 137.717 14.435 137.717 14.0078C137.717 13.5699 137.637 13.1694 137.476 12.8063C137.316 12.4431 137.086 12.1494 136.787 11.9252C136.499 11.7009 136.141 11.5887 135.714 11.5887C135.287 11.5887 134.924 11.7009 134.625 11.9252C134.326 12.1494 134.096 12.4431 133.936 12.8063C133.786 13.1694 133.712 13.5699 133.712 14.0078C133.712 14.435 133.786 14.8355 133.936 15.2093C134.096 15.5724 134.326 15.8661 134.625 16.0904C134.924 16.3146 135.287 16.4268 135.714 16.4268Z" fill="#0C2A53"/>
<path d="M141.597 18.2531V9.76245H144.016V10.996H144.096C144.192 10.7717 144.325 10.5528 144.496 10.3392C144.667 10.1256 144.902 9.94935 145.201 9.81051C145.5 9.67167 145.885 9.60225 146.355 9.60225C146.59 9.60225 146.776 9.61827 146.915 9.65031C147.054 9.67167 147.124 9.68235 147.124 9.68235V12.0854C147.124 12.0854 147.043 12.0693 146.883 12.0373C146.734 12.0053 146.536 11.9892 146.291 11.9892C145.532 11.9892 144.966 12.1975 144.592 12.614C144.219 13.0199 144.032 13.6874 144.032 14.6165V18.2531H141.597Z" fill="#0C2A53"/>
<path d="M152.142 21.6493C151.352 21.6493 150.7 21.5532 150.187 21.3609C149.685 21.1687 149.285 20.9231 148.986 20.624C148.687 20.3357 148.468 20.0473 148.329 19.7589C148.19 19.4706 148.099 19.2249 148.057 19.022C148.025 18.8298 148.009 18.7337 148.009 18.7337H150.38C150.38 18.7337 150.396 18.7817 150.428 18.8778C150.47 18.9846 150.551 19.1021 150.668 19.2303C150.785 19.3691 150.956 19.4866 151.181 19.5827C151.416 19.6895 151.725 19.7429 152.11 19.7429C152.772 19.7429 153.258 19.556 153.568 19.1822C153.888 18.8084 154.048 18.3171 154.048 17.7084V16.8113H153.936C153.829 16.9821 153.669 17.169 153.456 17.372C153.242 17.5749 152.97 17.7458 152.638 17.8846C152.307 18.0234 151.907 18.0929 151.437 18.0929C150.807 18.0929 150.257 17.9754 149.787 17.7404C149.317 17.4948 148.922 17.169 148.601 16.7632C148.292 16.3574 148.057 15.9035 147.897 15.4015C147.747 14.8995 147.672 14.3816 147.672 13.8476C147.672 13.3242 147.747 12.8116 147.897 12.3096C148.057 11.797 148.292 11.3378 148.601 10.9319C148.922 10.5261 149.317 10.2057 149.787 9.97071C150.257 9.72507 150.807 9.60225 151.437 9.60225C151.907 9.60225 152.307 9.67701 152.638 9.82653C152.97 9.96537 153.242 10.1363 153.456 10.3392C153.68 10.5314 153.84 10.7183 153.936 10.8999H154.048V9.76245H156.483V17.7084C156.483 18.4133 156.328 19.0647 156.019 19.6628C155.709 20.2609 155.234 20.7415 154.593 21.1046C153.952 21.4677 153.135 21.6493 152.142 21.6493ZM152.11 16.1705C152.558 16.1705 152.927 16.0583 153.215 15.834C153.514 15.6098 153.739 15.3214 153.888 14.969C154.038 14.6058 154.112 14.232 154.112 13.8476C154.112 13.4524 154.038 13.0786 153.888 12.7262C153.739 12.3737 153.514 12.0854 153.215 11.8611C152.927 11.6368 152.558 11.5247 152.11 11.5247C151.672 11.5247 151.303 11.6368 151.004 11.8611C150.716 12.0854 150.497 12.3737 150.348 12.7262C150.198 13.0786 150.123 13.4524 150.123 13.8476C150.123 14.232 150.198 14.6058 150.348 14.969C150.497 15.3214 150.716 15.6098 151.004 15.834C151.303 16.0583 151.672 16.1705 152.11 16.1705Z" fill="#0C2A53"/>
</svg>
