<svg width="40" height="41" viewBox="0 0 40 41" fill="none" xmlns="http://www.w3.org/2000/svg">
<path d="M40 20.584C40 31.6299 31.0459 40.584 20 40.584C8.9541 40.584 0 31.6299 0 20.584C0 9.53808 8.9541 0.583984 20 0.583984C31.0459 0.583984 40 9.53808 40 20.584Z" fill="#3E62F0"/>
<path d="M25.4268 10.0928H14.5742C11.7777 10.0928 9.50977 12.3607 9.50977 15.1572V26.0098C9.50977 28.8063 11.7777 31.0743 14.5742 31.0743H25.4268C28.2233 31.0743 30.4913 28.8063 30.4913 26.0098V15.1572C30.4913 12.3607 28.2233 10.0928 25.4268 10.0928ZM28.6823 25.6484C28.6823 27.6456 27.0616 29.2663 25.0644 29.2663H14.9356C12.9384 29.2663 11.3177 27.6456 11.3177 25.6484V15.5196C11.3177 13.5224 12.9384 11.9017 14.9356 11.9017H25.0644C27.0616 11.9017 28.6823 13.5224 28.6823 15.5196V25.6484Z" fill="white"/>
<path d="M20.0101 15.1572C17.0154 15.1572 14.5843 17.5883 14.5843 20.583C14.5843 23.5778 17.0154 26.0088 20.0101 26.0088C23.0049 26.0088 25.4359 23.5778 25.4359 20.583C25.4359 17.5883 23.0049 15.1572 20.0101 15.1572ZM20.0101 24.2009C18.017 24.2009 16.3922 22.5762 16.3922 20.583C16.3922 18.5899 18.017 16.9652 20.0101 16.9652C22.0033 16.9652 23.628 18.5899 23.628 20.583C23.628 22.5762 22.0033 24.2009 20.0101 24.2009Z" fill="white"/>
<path d="M25.7983 15.881C25.2003 15.881 24.7131 15.3938 24.7131 14.7959C24.7131 14.1979 25.2003 13.7107 25.7983 13.7107C26.3962 13.7107 26.8834 14.1979 26.8834 14.7959C26.8834 15.3938 26.3962 15.881 25.7983 15.881Z" fill="white"/>
</svg>
