<svg width="6" height="7" viewBox="0 0 6 7" fill="none" xmlns="http://www.w3.org/2000/svg">
<g clip-path="url(#clip0_58_1063)">
<path d="M3.00019 0.951172C3.69643 0.951172 4.36416 1.22775 4.85648 1.72007C5.34879 2.21239 5.62537 2.88012 5.62537 3.57636C5.62537 4.2726 5.34879 4.94033 4.85648 5.43265C4.36416 5.92496 3.69643 6.20155 3.00019 6.20155C2.30394 6.20155 1.63622 5.92496 1.1439 5.43265C0.651581 4.94033 0.375 4.2726 0.375 3.57636C0.375 2.88012 0.651581 2.21239 1.1439 1.72007C1.63622 1.22775 2.30394 0.951172 3.00019 0.951172ZM3.39394 2.56292C3.58894 2.56292 3.74719 2.42755 3.74719 2.22692C3.74719 2.0263 3.58856 1.89092 3.39394 1.89092C3.19894 1.89092 3.04144 2.0263 3.04144 2.22692C3.04144 2.42755 3.19894 2.56292 3.39394 2.56292ZM3.46256 4.67305C3.46256 4.63292 3.47644 4.52867 3.46856 4.46942L3.16031 4.82417C3.09656 4.8913 3.01669 4.9378 2.97919 4.92542C2.96217 4.91916 2.94795 4.90703 2.93909 4.89122C2.93022 4.87541 2.92728 4.85695 2.93081 4.83917L3.44456 3.21617C3.48656 3.0103 3.37106 2.82242 3.12619 2.79842C2.86781 2.79842 2.48756 3.06055 2.25619 3.39317C2.25619 3.43292 2.24869 3.53192 2.25656 3.59117L2.56444 3.23605C2.62819 3.16967 2.70244 3.1228 2.73994 3.13555C2.75841 3.14218 2.77355 3.15579 2.78211 3.17346C2.79066 3.19112 2.79195 3.21144 2.78569 3.23005L2.27644 4.84517C2.21756 5.03417 2.32894 5.21942 2.59894 5.26142C2.99644 5.26142 3.23081 5.00567 3.46256 4.67305Z" fill="#D0D0D0"/>
</g>
<defs>
<clipPath id="clip0_58_1063">
<rect width="6" height="6" fill="white" transform="translate(0 0.576172)"/>
</clipPath>
</defs>
</svg>
