<svg width="58" height="58" viewBox="0 0 58 58" fill="none" xmlns="http://www.w3.org/2000/svg">
<path d="M29.125 56.125C44.0367 56.125 56.125 44.0367 56.125 29.125C56.125 14.2133 44.0367 2.125 29.125 2.125C14.2133 2.125 2.125 14.2133 2.125 29.125C2.125 44.0367 14.2133 56.125 29.125 56.125Z" fill="#0E2B56" stroke="#0E2B56" stroke-width="3.04167"/>
<path d="M32.6427 41.9971H25.3564C25.0776 41.9974 24.8103 42.1083 24.6131 42.3054C24.4159 42.5026 24.305 42.7699 24.3047 43.0487C24.3057 43.9639 24.6697 44.8412 25.3169 45.4883C25.964 46.1354 26.8414 46.4994 27.7565 46.5003H30.2427C31.1579 46.4994 32.0353 46.1354 32.6824 45.4883C33.3295 44.8412 33.6935 43.9639 33.6945 43.0487C33.6942 42.7699 33.5833 42.5026 33.3861 42.3054C33.1889 42.1082 32.9216 41.9974 32.6427 41.9971ZM30.2427 44.8434H27.7565C27.3867 44.843 27.0261 44.7286 26.7237 44.5157C26.4213 44.3029 26.1919 44.002 26.0668 43.654H31.9324C31.8073 44.002 31.5779 44.3029 31.2755 44.5157C30.9732 44.7286 30.6125 44.843 30.2427 44.8434Z" fill="white"/>
<path d="M33.914 39.3567H24.0859C23.9765 39.3557 23.868 39.3764 23.7666 39.4176C23.6652 39.4588 23.573 39.5197 23.4953 39.5967C23.4176 39.6738 23.3559 39.7654 23.3138 39.8664C23.2717 39.9674 23.25 40.0758 23.25 40.1852C23.25 40.2946 23.2717 40.4029 23.3138 40.5039C23.3559 40.6049 23.4176 40.6966 23.4953 40.7736C23.573 40.8506 23.6652 40.9115 23.7666 40.9527C23.868 40.9939 23.9765 41.0146 24.0859 41.0136H33.914C34.1325 41.0117 34.3413 40.9235 34.4951 40.7684C34.6488 40.6132 34.7351 40.4036 34.7351 40.1852C34.7351 39.9667 34.6488 39.7571 34.4951 39.602C34.3413 39.4468 34.1325 39.3587 33.914 39.3567Z" fill="white"/>
<path d="M28.8501 12.5011C26.8633 12.5297 24.9265 13.1278 23.2696 14.2245C21.6127 15.3212 20.3053 16.8703 19.5028 18.688C18.7002 20.5056 18.4361 22.5154 18.7418 24.4787C19.0476 26.442 19.9103 28.2764 21.2276 29.7639C23.1136 31.8915 24.2707 34.5736 24.4865 37.3161C24.5113 37.6093 24.645 37.8826 24.8614 38.0821C25.0777 38.2815 25.361 38.3927 25.6553 38.3936H32.3434C32.6382 38.3927 32.9219 38.2812 33.1383 38.0812C33.3548 37.8811 33.4882 37.6071 33.5122 37.3133C33.7238 34.538 34.8462 31.9103 36.7049 29.8386C38.0593 28.3387 38.9464 26.476 39.2575 24.4792C39.5685 22.4823 39.29 20.438 38.456 18.5972C37.622 16.7564 36.2688 15.199 34.5625 14.1161C32.8561 13.0332 30.8708 12.4719 28.8501 12.5011ZM35.4756 28.7279C33.4743 30.9569 32.2241 33.7584 31.9016 36.7365H26.0955C25.7663 33.7951 24.488 30.9444 22.4676 28.6648C21.0162 27.0289 20.2339 24.9064 20.2766 22.7199C20.3607 18.0648 24.2172 14.2235 28.8736 14.1579C28.9162 14.1572 28.9583 14.1569 29.0007 14.1569C30.6884 14.157 32.3397 14.6465 33.7547 15.5662C35.1697 16.4859 36.2876 17.7962 36.9729 19.3384C37.6583 20.8807 37.8816 22.5885 37.6158 24.2551C37.3501 25.9216 36.6067 27.4754 35.4757 28.7279H35.4756Z" fill="white"/>
<path d="M30.4908 15.566C28.6439 15.1881 26.7224 15.5257 25.1148 16.5105C23.5073 17.4953 22.3337 19.0538 21.8314 20.8709C21.802 20.9759 21.7937 21.0858 21.8068 21.1941C21.82 21.3025 21.8545 21.4071 21.9082 21.5021C21.962 21.5971 22.0339 21.6805 22.12 21.7475C22.2061 21.8146 22.3045 21.864 22.4098 21.893C22.515 21.9219 22.6249 21.9297 22.7331 21.916C22.8414 21.9023 22.9459 21.8674 23.0406 21.8132C23.1353 21.759 23.2184 21.6867 23.2851 21.6003C23.3518 21.5139 23.4007 21.4152 23.4292 21.3099C23.82 19.8982 24.7323 18.6876 25.9814 17.9227C27.2306 17.1578 28.7237 16.8956 30.1587 17.1892C30.2653 17.211 30.3751 17.2116 30.4819 17.191C30.5887 17.1703 30.6904 17.1289 30.7812 17.0689C30.872 17.009 30.9501 16.9317 31.011 16.8416C31.072 16.7515 31.1145 16.6502 31.1363 16.5436C31.1581 16.437 31.1587 16.3272 31.1381 16.2204C31.1174 16.1136 31.076 16.0119 31.016 15.9211C30.9561 15.8303 30.8788 15.7522 30.7887 15.6913C30.6986 15.6304 30.5973 15.5878 30.4907 15.566H30.4908Z" fill="white"/>
<path d="M45.1719 21.4053H43.4476C43.2279 21.4053 43.0172 21.4926 42.8618 21.6479C42.7064 21.8033 42.6191 22.014 42.6191 22.2338C42.6191 22.4535 42.7064 22.6642 42.8618 22.8196C43.0172 22.975 43.2279 23.0622 43.4476 23.0622H45.1719C45.3916 23.0622 45.6023 22.975 45.7577 22.8196C45.9131 22.6642 46.0004 22.4535 46.0004 22.2338C46.0004 22.014 45.9131 21.8033 45.7577 21.6479C45.6023 21.4926 45.3916 21.4053 45.1719 21.4053Z" fill="white"/>
<path d="M41.9592 18.1091C42.1044 18.1091 42.247 18.0708 42.3726 17.9979L43.8658 17.1359C43.96 17.0815 44.0426 17.009 44.1089 16.9227C44.1751 16.8364 44.2237 16.7379 44.2519 16.6328C44.28 16.5277 44.2872 16.4181 44.273 16.3102C44.2588 16.2024 44.2235 16.0984 44.1691 16.0041C44.1147 15.9099 44.0423 15.8273 43.956 15.7611C43.8697 15.6948 43.7712 15.6463 43.6661 15.6181C43.561 15.5899 43.4514 15.5827 43.3435 15.5969C43.2356 15.6111 43.1316 15.6464 43.0374 15.7008L41.5441 16.563C41.3861 16.6543 41.2626 16.7951 41.1929 16.9637C41.1231 17.1323 41.1109 17.3192 41.1582 17.4954C41.2055 17.6716 41.3097 17.8273 41.4545 17.9382C41.5993 18.0492 41.7767 18.1093 41.9592 18.1091Z" fill="white"/>
<path d="M43.8655 27.3309L42.3723 26.4688C42.1821 26.3612 41.9572 26.333 41.7464 26.3905C41.5356 26.4479 41.356 26.5863 41.2467 26.7756C41.1375 26.9648 41.1074 27.1895 41.1631 27.4008C41.2187 27.6121 41.3555 27.7928 41.5438 27.9037L43.0371 28.7658C43.2274 28.8756 43.4535 28.9054 43.6657 28.8485C43.7708 28.8204 43.8693 28.7718 43.9556 28.7056C44.0419 28.6393 44.1144 28.5568 44.1688 28.4625C44.2232 28.3683 44.2585 28.2643 44.2727 28.1565C44.2869 28.0486 44.2797 27.939 44.2515 27.8339C44.2234 27.7288 44.1748 27.6303 44.1085 27.544C44.0423 27.4577 43.9597 27.3853 43.8655 27.3309Z" fill="white"/>
<path d="M15.3812 22.2333C15.3811 22.0136 15.2938 21.803 15.1384 21.6477C14.9831 21.4924 14.7724 21.4052 14.5527 21.4052H12.8285C12.6088 21.4052 12.398 21.4924 12.2427 21.6478C12.0873 21.8032 12 22.0139 12 22.2336C12 22.4534 12.0873 22.6641 12.2427 22.8195C12.398 22.9748 12.6088 23.0621 12.8285 23.0621H14.5527C14.6616 23.0621 14.7693 23.0407 14.8699 22.999C14.9704 22.9574 15.0617 22.8963 15.1387 22.8193C15.2156 22.7424 15.2766 22.651 15.3182 22.5505C15.3599 22.4499 15.3813 22.3421 15.3812 22.2333Z" fill="white"/>
<path d="M16.4567 16.563L14.9634 15.7008C14.7731 15.591 14.547 15.5612 14.3347 15.6181C14.1225 15.675 13.9415 15.8138 13.8317 16.0041C13.7218 16.1944 13.6921 16.4206 13.7489 16.6328C13.8058 16.8451 13.9447 17.026 14.135 17.1359L15.6282 17.9979C15.7225 18.0535 15.8268 18.0898 15.9352 18.1047C16.0435 18.1197 16.1538 18.1131 16.2596 18.0852C16.3654 18.0574 16.4646 18.0088 16.5515 17.9424C16.6385 17.876 16.7114 17.7931 16.7661 17.6983C16.8208 17.6036 16.8562 17.4989 16.8702 17.3904C16.8843 17.282 16.8767 17.1718 16.8479 17.0662C16.8192 16.9607 16.7698 16.8619 16.7026 16.7755C16.6355 16.6891 16.5519 16.6169 16.4567 16.563Z" fill="white"/>
<path d="M15.6281 26.4686L14.1349 27.3307C13.9447 27.4405 13.8058 27.6215 13.7489 27.8337C13.6921 28.0459 13.7218 28.2721 13.8317 28.4623C13.9415 28.6526 14.1225 28.7915 14.3347 28.8483C14.5469 28.9052 14.7731 28.8754 14.9634 28.7656L16.4566 27.9035C16.5518 27.8496 16.6354 27.7774 16.7026 27.6911C16.7697 27.6047 16.8191 27.5059 16.8479 27.4003C16.8767 27.2948 16.8842 27.1846 16.8702 27.0761C16.8561 26.9676 16.8207 26.863 16.766 26.7682C16.7113 26.6735 16.6384 26.5905 16.5515 26.5241C16.4645 26.4577 16.3653 26.4092 16.2595 26.3813C16.1537 26.3535 16.0435 26.3468 15.9351 26.3618C15.8267 26.3768 15.7224 26.4131 15.6281 26.4686Z" fill="white"/>
</svg>
