<svg width="40" height="41" viewBox="0 0 40 41" fill="none" xmlns="http://www.w3.org/2000/svg">
<g clip-path="url(#clip0_1276_961)">
<path d="M40 20.8067C40 31.8528 31.0457 40.8072 19.9995 40.8072C8.95432 40.8061 0 31.8518 0 20.8067C0 9.76047 8.95432 0.806152 20.0005 0.806152C31.0467 0.806152 40.001 9.76047 40.001 20.8067H40Z" fill="white"/>
<path d="M12.9164 15.4593C14.3391 15.4593 15.4925 14.3059 15.4925 12.8832C15.4925 11.4605 14.3391 10.3071 12.9164 10.3071C11.4937 10.3071 10.3403 11.4605 10.3403 12.8832C10.3403 14.3059 11.4937 15.4593 12.9164 15.4593Z" fill="#172B54"/>
<path d="M14.8702 17.1768H10.9613C10.8551 17.1768 10.769 17.2628 10.769 17.369V29.8638C10.769 29.97 10.8551 30.0561 10.9613 30.0561H14.8702C14.9764 30.0561 15.0625 29.97 15.0625 29.8638V17.369C15.0625 17.2628 14.9764 17.1768 14.8702 17.1768Z" fill="#172B54"/>
<path d="M29.6601 21.899V29.1973C29.6601 29.6694 29.2735 30.056 28.8014 30.056H26.2253C25.7532 30.056 25.3666 29.6694 25.3666 29.1973V23.1865C25.3666 22.0016 24.4053 21.0403 23.2204 21.0403C22.0356 21.0403 21.0742 22.0016 21.0742 23.1865V29.1973C21.0742 29.6694 20.6876 30.056 20.2155 30.056H17.6395C17.1673 30.056 16.7808 29.6694 16.7808 29.1973V18.0344C16.7808 17.5622 17.1673 17.1757 17.6395 17.1757H20.2155C20.6876 17.1757 21.0742 17.5622 21.0742 18.0344V18.584C21.9329 17.4716 23.3543 16.7468 24.9378 16.7468C27.3075 16.7468 29.6601 18.4642 29.6601 21.899Z" fill="#172B54"/>
</g>
<defs>
<clipPath id="clip0_1276_961">
<rect width="40" height="40" fill="white" transform="translate(0 0.806152)"/>
</clipPath>
</defs>
</svg>
