<svg width="48" height="48" viewBox="0 0 48 48" fill="none" xmlns="http://www.w3.org/2000/svg">
<rect x="0.5" y="0.5" width="47" height="47" rx="23.5" fill="white" fill-opacity="0.4"/>
<rect x="0.5" y="0.5" width="47" height="47" rx="23.5" stroke="#E5E7F1"/>
<g clip-path="url(#clip0_1322_5903)">
<path d="M35.3288 30.879L24.4998 18.809V17H27.0838C27.2508 17.503 27.6798 18 28.4998 18H30.4998C31.3268 18 31.9998 17.327 31.9998 16.5V14.5C31.9998 13.673 31.3268 13 30.4998 13H28.9078C28.7008 12.419 28.1508 12 27.4998 12H24.9998C24.1728 12 23.4998 12.673 23.4998 13.5V18.809C23.4998 18.809 12.6528 30.9 12.6438 30.912C11.9148 31.88 11.7978 33.155 12.3388 34.24C12.8798 35.326 13.9688 36 15.1818 36H32.8178C34.0298 36 35.1198 35.326 35.6608 34.241C36.2018 33.156 36.0858 31.881 35.3288 30.879ZM30.9998 14.5V16.5C30.9998 16.775 30.7748 17 30.4998 17H28.4998C28.3178 17 28.2058 16.939 28.1298 16.857C28.6418 16.618 28.9998 16.102 28.9998 15.5V14H30.4998C30.7748 14 30.9998 14.225 30.9998 14.5ZM24.4998 13.5C24.4998 13.225 24.7238 13 24.9998 13H27.4998C27.7748 13 27.9998 13.225 27.9998 13.5V15.5C27.9998 15.775 27.7748 16 27.4998 16H24.4998V13.5ZM23.9998 19.749L28.3998 24.652L26.4078 27.899C26.3428 28.001 26.2208 28.007 26.1418 27.91L24.9048 26.207C24.8108 26.077 24.6608 26.001 24.5008 26.001H24.4988C24.3378 26.001 24.1868 26.079 24.0938 26.21L22.1798 28.89C22.0618 29.013 21.9478 29.022 21.8378 28.888L19.2098 25.091L24.0018 19.75L23.9998 19.749ZM34.7668 33.795C34.3898 34.55 33.6628 35 32.8188 35H15.1818C14.3378 35 13.6098 34.549 13.2338 33.794C12.8598 33.046 12.9338 32.201 13.4308 31.53L18.5228 25.855L21.0158 29.456C21.2398 29.779 21.6088 29.974 22.0018 29.977H22.0098C22.3998 29.977 22.7678 29.788 22.9938 29.47L24.5038 27.356L25.3338 28.498C25.5618 28.811 25.9198 28.99 26.3158 28.975C26.7038 28.96 27.0558 28.754 27.2588 28.423L29.0958 25.429L34.5568 31.515C35.0638 32.189 35.1418 33.041 34.7658 33.796L34.7668 33.795Z" fill="#0E2B56"/>
</g>
<defs>
<clipPath id="clip0_1322_5903">
<rect width="24" height="24" fill="white" transform="translate(12 12)"/>
</clipPath>
</defs>
</svg>
