<svg width="48" height="48" viewBox="0 0 48 48" fill="none" xmlns="http://www.w3.org/2000/svg">
<circle cx="24" cy="24" r="23.5" fill="white" fill-opacity="0.4" stroke="#E5E7F1"/>
<path d="M28.8008 14C28.6416 14 28.489 14.0632 28.3765 14.1757C28.264 14.2883 28.2008 14.4409 28.2008 14.6C28.2008 14.7591 28.264 14.9117 28.3765 15.0243C28.489 15.1368 28.6416 15.2 28.8008 15.2H30.9524L25.2008 20.9516L22.0256 17.7752C21.9698 17.7193 21.9036 17.675 21.8307 17.6447C21.7578 17.6145 21.6797 17.5989 21.6008 17.5989C21.5218 17.5989 21.4437 17.6145 21.3708 17.6447C21.2979 17.675 21.2317 17.7193 21.176 17.7752L15.176 23.7752C15.0633 23.8879 15 24.0407 15 24.2C15 24.3593 15.0633 24.5121 15.176 24.6248C15.2886 24.7375 15.4414 24.8008 15.6008 24.8008C15.7601 24.8008 15.9129 24.7375 16.0256 24.6248L21.6008 19.0484L24.776 22.2248C24.8317 22.2807 24.8979 22.325 24.9708 22.3553C25.0437 22.3855 25.1218 22.4011 25.2008 22.4011C25.2797 22.4011 25.3578 22.3855 25.4307 22.3553C25.5036 22.325 25.5698 22.2807 25.6256 22.2248L31.8008 16.0484V18.2C31.8008 18.3591 31.864 18.5117 31.9765 18.6243C32.089 18.7368 32.2416 18.8 32.4008 18.8C32.5599 18.8 32.7125 18.7368 32.825 18.6243C32.9375 18.5117 33.0008 18.3591 33.0008 18.2V14.6C33.0008 14.4409 32.9375 14.2883 32.825 14.1757C32.7125 14.0632 32.5599 14 32.4008 14H28.8008ZM30.0008 22.4C29.8416 22.4 29.689 22.4632 29.5765 22.5757C29.464 22.6883 29.4008 22.8409 29.4008 23V32.6C29.4008 32.7591 29.464 32.9117 29.5765 33.0243C29.689 33.1368 29.8416 33.2 30.0008 33.2C30.1599 33.2 30.3125 33.1368 30.425 33.0243C30.5375 32.9117 30.6008 32.7591 30.6008 32.6V23C30.6008 22.8409 30.5375 22.6883 30.425 22.5757C30.3125 22.4632 30.1599 22.4 30.0008 22.4ZM20.4008 24.8C20.2416 24.8 20.089 24.8632 19.9765 24.9757C19.864 25.0883 19.8008 25.2409 19.8008 25.4V32.6C19.8008 32.7591 19.864 32.9117 19.9765 33.0243C20.089 33.1368 20.2416 33.2 20.4008 33.2C20.5599 33.2 20.7125 33.1368 20.825 33.0243C20.9375 32.9117 21.0008 32.7591 21.0008 32.6V25.4C21.0008 25.2409 20.9375 25.0883 20.825 24.9757C20.7125 24.8632 20.5599 24.8 20.4008 24.8ZM24.6008 27.8C24.6008 27.6409 24.664 27.4883 24.7765 27.3757C24.889 27.2632 25.0416 27.2 25.2008 27.2C25.3599 27.2 25.5125 27.2632 25.625 27.3757C25.7375 27.4883 25.8008 27.6409 25.8008 27.8V32.6C25.8008 32.7591 25.7375 32.9117 25.625 33.0243C25.5125 33.1368 25.3599 33.2 25.2008 33.2C25.0416 33.2 24.889 33.1368 24.7765 33.0243C24.664 32.9117 24.6008 32.7591 24.6008 32.6V27.8ZM15.0008 29C15.0008 28.8409 15.064 28.6883 15.1765 28.5757C15.289 28.4632 15.4416 28.4 15.6008 28.4C15.7599 28.4 15.9125 28.4632 16.025 28.5757C16.1375 28.6883 16.2008 28.8409 16.2008 29V32.6C16.2008 32.7591 16.1375 32.9117 16.025 33.0243C15.9125 33.1368 15.7599 33.2 15.6008 33.2C15.4416 33.2 15.289 33.1368 15.1765 33.0243C15.064 32.9117 15.0008 32.7591 15.0008 32.6V29Z" fill="#0E2B56"/>
</svg>
