<svg width="48" height="48" viewBox="0 0 48 48" fill="none" xmlns="http://www.w3.org/2000/svg">
<circle cx="24" cy="24" r="23.5" fill="white" fill-opacity="0.4" stroke="#E5E7F1"/>
<g clip-path="url(#clip0_1322_5893)">
<path d="M29 23.6V20.414C28.996 19.517 28.502 18.686 27.73 18.237L25.226 16.823C24.466 16.393 23.523 16.393 22.764 16.823L20.268 18.237C19.486 18.68 19 19.513 19 20.412V23.541C19 24.436 19.482 25.268 20.259 25.711L22.774 27.149C23.528 27.58 24.469 27.586 25.228 27.164L27.713 25.784C28.506 25.344 29 24.506 29 23.598V23.6ZM23.5 26.376C23.422 26.348 20.756 24.845 20.756 24.845C20.29 24.579 20.001 24.08 20.001 23.543V20.414C20.001 20.294 20.02 20.177 20.048 20.063L23.5 22.036V26.376ZM20.603 19.228C20.656 19.188 23.257 17.694 23.257 17.694C23.485 17.565 23.74 17.5 23.996 17.5C24.252 17.5 24.506 17.564 24.734 17.693C24.734 17.693 27.345 19.188 27.398 19.228L24.002 21.169L20.603 19.226V19.228ZM28 23.6C28 24.144 27.704 24.647 27.228 24.912C27.228 24.912 24.582 26.36 24.499 26.388V22.038L27.952 20.064C27.98 20.178 27.999 20.295 27.999 20.415V23.601L28 23.6ZM35.426 30.099L31.967 26.75C31.963 26.531 31.954 26.313 31.905 26.099C31.785 25.572 32.027 25.011 32.506 24.702C33.396 24.133 33.992 23.081 33.975 22.002C33.977 21.46 33.844 20.93 33.589 20.47C33.319 19.982 32.954 19.588 32.505 19.298C32.027 18.989 31.785 18.428 31.904 17.902C32.026 17.37 32.008 16.821 31.85 16.272C31.554 15.242 30.731 14.42 29.703 14.126C29.157 13.97 28.608 13.951 28.075 14.071C27.552 14.189 26.988 13.95 26.679 13.471C26.389 13.023 25.995 12.659 25.508 12.388C24.572 11.869 23.408 11.869 22.472 12.388C21.984 12.659 21.59 13.024 21.301 13.472C20.992 13.95 20.429 14.191 19.905 14.072C19.372 13.951 18.825 13.97 18.277 14.127C17.248 14.422 16.425 15.244 16.13 16.274C15.973 16.822 15.954 17.37 16.075 17.903C16.195 18.429 15.954 18.99 15.475 19.299C14.583 19.869 13.99 20.918 14.006 21.999C13.99 23.085 14.581 24.131 15.476 24.703C15.954 25.012 16.196 25.573 16.076 26.099C16.026 26.321 16.014 26.548 16.012 26.774L12.578 30.099C12.048 30.61 11.868 31.36 12.108 32.056C12.348 32.752 12.952 33.232 13.685 33.308L14.819 33.425L14.953 34.391C15.065 35.305 15.85 36.006 16.811 36.006C17.29 36.006 17.758 35.82 18.114 35.473L22.258 31.457C22.745 31.84 23.388 31.996 23.993 32.002C24.603 31.996 25.252 31.836 25.741 31.447L29.893 35.471C30.25 35.82 30.718 36.006 31.198 36.006C31.401 36.006 31.607 35.972 31.806 35.904C32.478 35.675 32.957 35.095 33.055 34.391L33.189 33.425L34.323 33.308C35.056 33.232 35.66 32.752 35.9 32.056C36.14 31.36 35.96 30.61 35.43 30.1L35.426 30.099ZM17.412 34.756C17.173 34.99 16.84 35.066 16.521 34.957C16.203 34.849 15.985 34.585 15.939 34.252L15.751 32.898C15.719 32.67 15.536 32.493 15.307 32.469L13.783 32.312C13.437 32.276 13.162 32.059 13.049 31.729C12.936 31.4 13.017 31.06 13.269 30.817L16.226 27.954C16.572 28.872 17.326 29.601 18.274 29.873C18.823 30.029 19.371 30.049 19.902 29.928C20.584 29.751 21.136 30.246 21.511 30.782L17.411 34.755L17.412 34.756ZM25.838 29.986C25.638 30.295 25.364 30.548 25.022 30.737C24.394 31.086 23.582 31.086 22.955 30.737C22.612 30.548 22.338 30.295 22.139 29.986C21.697 29.3 20.947 28.898 20.172 28.898C19.625 28.927 19.109 29.109 18.549 28.912C17.859 28.715 17.286 28.141 17.088 27.452C16.978 27.067 16.964 26.686 17.047 26.32C17.259 25.385 16.844 24.398 16.014 23.862C15.402 23.467 14.99 22.753 15.002 21.998C14.99 21.248 15.404 20.53 16.014 20.138C16.845 19.602 17.26 18.615 17.047 17.68C16.964 17.314 16.978 16.933 17.088 16.548C17.286 15.858 17.859 15.285 18.549 15.087C18.934 14.978 19.315 14.964 19.68 15.046C20.614 15.257 21.602 14.844 22.138 14.013C22.337 13.704 22.611 13.451 22.953 13.262C23.581 12.913 24.392 12.914 25.02 13.262C25.362 13.452 25.637 13.705 25.836 14.013C26.372 14.844 27.358 15.257 28.294 15.046C28.661 14.963 29.041 14.976 29.425 15.087C30.115 15.284 30.689 15.858 30.887 16.547C30.997 16.932 31.011 17.313 30.927 17.679C30.715 18.614 31.131 19.601 31.96 20.137C32.571 20.53 32.985 21.248 32.972 22.001C32.985 22.75 32.569 23.47 31.96 23.861C31.13 24.396 30.714 25.384 30.927 26.319C31.01 26.685 30.997 27.066 30.886 27.45C30.688 28.14 30.114 28.714 29.424 28.911C29.04 29.022 28.66 29.035 28.293 28.952C27.357 28.744 26.371 29.155 25.835 29.985L25.838 29.986ZM34.95 31.729C34.836 32.059 34.562 32.276 34.216 32.312L32.692 32.469C32.463 32.493 32.28 32.67 32.248 32.898L32.06 34.252C32.014 34.585 31.796 34.848 31.478 34.957C31.162 35.065 30.828 34.991 30.586 34.754L26.475 30.77C26.845 30.236 27.406 29.752 28.074 29.929C28.605 30.049 29.153 30.032 29.702 29.874C30.656 29.601 31.414 28.865 31.757 27.939L34.73 30.817C34.981 31.059 35.063 31.399 34.949 31.728L34.95 31.729Z" fill="#0E2B56"/>
</g>
<defs>
<clipPath id="clip0_1322_5893">
<rect width="24" height="24" fill="white" transform="translate(12 12)"/>
</clipPath>
</defs>
</svg>
