<svg width="139" height="21" viewBox="0 0 139 21" fill="none" xmlns="http://www.w3.org/2000/svg">
<path d="M6.4841 17.0872V14.3956H0.932695V12.2087L6.31587 4.55445H9.09157V12.2087H11.0262V14.3956H9.09157V17.0872H6.4841ZM2.83363 13.1507L2.34578 12.2087H6.4841V6.57314L7.14017 6.77501L2.83363 13.1507ZM13.7028 17.0872V14.5638H16.2261V17.0872H13.7028ZM23.7155 17.289C22.7735 17.289 21.9604 17.1152 21.2763 16.7675C20.6034 16.4199 20.0875 15.9544 19.7286 15.3713C19.3697 14.7881 19.1903 14.1544 19.1903 13.4703C19.1903 12.6516 19.4034 11.9675 19.8295 11.418C20.2669 10.8685 20.9062 10.4535 21.7473 10.1731L21.5791 10.8124C20.9847 10.633 20.508 10.2629 20.1492 9.70211C19.8015 9.14136 19.6277 8.51893 19.6277 7.83482C19.6277 7.16192 19.8015 6.56192 20.1492 6.03482C20.4968 5.50772 20.9791 5.09837 21.5959 4.80678C22.2127 4.50398 22.9193 4.35258 23.7155 4.35258C24.5118 4.35258 25.2127 4.50398 25.8183 4.80678C26.4351 5.09837 26.9174 5.50772 27.2651 6.03482C27.6239 6.56192 27.8034 7.16192 27.8034 7.83482C27.8034 8.51893 27.6295 9.14136 27.2819 9.70211C26.9342 10.2629 26.4576 10.6386 25.852 10.8292L25.7006 10.1563C26.5417 10.4703 27.1809 10.9021 27.6183 11.4516C28.0557 11.99 28.2744 12.6685 28.2744 13.4872C28.2744 14.1713 28.0894 14.8049 27.7193 15.3881C27.3604 15.9601 26.8389 16.4199 26.1548 16.7675C25.4707 17.1152 24.6576 17.289 23.7155 17.289ZM23.7155 15.1021C24.108 15.1021 24.4501 15.0292 24.7417 14.8834C25.0333 14.7376 25.2576 14.5358 25.4146 14.2778C25.5828 14.0199 25.6669 13.7227 25.6669 13.3862C25.6669 13.0386 25.5828 12.7414 25.4146 12.4946C25.2576 12.2367 25.0333 12.0404 24.7417 11.9058C24.4501 11.7601 24.108 11.6872 23.7155 11.6872C23.3342 11.6872 22.9978 11.7601 22.7062 11.9058C22.4258 12.0404 22.2015 12.2367 22.0333 12.4946C21.8763 12.7414 21.7978 13.0386 21.7978 13.3862C21.7978 13.7227 21.8763 14.0199 22.0333 14.2778C22.2015 14.5358 22.4258 14.7376 22.7062 14.8834C22.9978 15.0292 23.3342 15.1021 23.7155 15.1021ZM23.7155 9.50024C24.0183 9.50024 24.2763 9.43295 24.4894 9.29837C24.7137 9.16379 24.8875 8.98435 25.0108 8.76005C25.1342 8.53576 25.1959 8.28903 25.1959 8.01987C25.1959 7.73949 25.1342 7.48716 25.0108 7.26286C24.8875 7.03856 24.7137 6.86473 24.4894 6.74136C24.2763 6.60678 24.0183 6.53949 23.7155 6.53949C23.4239 6.53949 23.166 6.60678 22.9417 6.74136C22.7174 6.86473 22.5436 7.03856 22.4202 7.26286C22.2968 7.48716 22.2351 7.73949 22.2351 8.01987C22.2351 8.28903 22.2968 8.53576 22.4202 8.76005C22.5436 8.98435 22.7174 9.16379 22.9417 9.29837C23.166 9.43295 23.4239 9.50024 23.7155 9.50024Z" fill="#FEA500"/>
<path d="M49.6199 2.03745C49.8777 1.51871 50.6176 1.51871 50.8754 2.03744L52.9803 6.2739C53.0823 6.47932 53.2785 6.6218 53.5054 6.65539L58.1849 7.34813C58.7579 7.43296 58.9866 8.13672 58.5729 8.54213L55.1942 11.8531C55.0304 12.0137 54.9555 12.2442 54.9936 12.4704L55.7809 17.135C55.8773 17.7062 55.2786 18.1411 54.7652 17.8729L50.5722 15.6828C50.3689 15.5766 50.1265 15.5766 49.9231 15.6828L45.7301 17.8729C45.2167 18.1411 44.618 17.7062 44.7144 17.135L45.5017 12.4704C45.5398 12.2442 45.4649 12.0137 45.3011 11.8531L41.9224 8.54213C41.5087 8.13672 41.7374 7.43296 42.3104 7.34813L46.99 6.65539C47.2169 6.6218 47.413 6.47932 47.515 6.2739L49.6199 2.03745Z" fill="#FEA500"/>
<path d="M69.2459 2.03745C69.5036 1.51871 70.2436 1.51871 70.5014 2.03744L72.6063 6.2739C72.7083 6.47932 72.9044 6.6218 73.1313 6.65539L77.8109 7.34813C78.3839 7.43296 78.6125 8.13672 78.1988 8.54213L74.8202 11.8531C74.6564 12.0137 74.5815 12.2442 74.6196 12.4704L75.4069 17.135C75.5032 17.7062 74.9046 18.1411 74.3912 17.8729L70.1981 15.6828C69.9948 15.5766 69.7524 15.5766 69.5491 15.6828L65.3561 17.8729C64.8427 18.1411 64.244 17.7062 64.3404 17.135L65.1276 12.4704C65.1658 12.2442 65.0909 12.0137 64.9271 11.8531L61.5484 8.54213C61.1347 8.13672 61.3634 7.43296 61.9364 7.34813L66.6159 6.65539C66.8428 6.6218 67.0389 6.47932 67.141 6.2739L69.2459 2.03745Z" fill="#FEA500"/>
<path d="M88.8719 2.03745C89.1296 1.51871 89.8696 1.51871 90.1273 2.03744L92.2322 6.2739C92.3343 6.47932 92.5304 6.6218 92.7573 6.65539L97.4369 7.34813C98.0099 7.43296 98.2385 8.13672 97.8248 8.54213L94.4462 11.8531C94.2823 12.0137 94.2074 12.2442 94.2456 12.4704L95.0328 17.135C95.1292 17.7062 94.5306 18.1411 94.0171 17.8729L89.8241 15.6828C89.6208 15.5766 89.3784 15.5766 89.1751 15.6828L84.9821 17.8729C84.4687 18.1411 83.87 17.7062 83.9664 17.135L84.7536 12.4704C84.7918 12.2442 84.7169 12.0137 84.5531 11.8531L81.1744 8.54213C80.7607 8.13672 80.9894 7.43296 81.5623 7.34813L86.2419 6.65539C86.4688 6.6218 86.6649 6.47932 86.767 6.2739L88.8719 2.03745Z" fill="#FEA500"/>
<path d="M108.499 2.03745C108.757 1.51871 109.497 1.51871 109.754 2.03744L111.859 6.2739C111.961 6.47932 112.157 6.6218 112.384 6.65539L117.064 7.34813C117.637 7.43296 117.865 8.13672 117.452 8.54213L114.073 11.8531C113.909 12.0137 113.834 12.2442 113.873 12.4704L114.66 17.135C114.756 17.7062 114.158 18.1411 113.644 17.8729L109.451 15.6828C109.248 15.5766 109.005 15.5766 108.802 15.6828L104.609 17.8729C104.096 18.1411 103.497 17.7062 103.593 17.135L104.381 12.4704C104.419 12.2442 104.344 12.0137 104.18 11.8531L100.801 8.54213C100.388 8.13672 100.616 7.43296 101.189 7.34813L105.869 6.65539C106.096 6.6218 106.292 6.47932 106.394 6.2739L108.499 2.03745Z" fill="#FEA500"/>
<path d="M128.125 2.03745C128.383 1.51871 129.123 1.51871 129.38 2.03744L131.485 6.2739C131.587 6.47932 131.783 6.6218 132.01 6.65539L136.69 7.34813C137.263 7.43296 137.491 8.13672 137.078 8.54213L133.699 11.8531C133.535 12.0137 133.46 12.2442 133.499 12.4704L134.286 17.135C134.382 17.7062 133.783 18.1411 133.27 17.8729L129.077 15.6828C128.874 15.5766 128.631 15.5766 128.428 15.6828L124.235 17.8729C123.722 18.1411 123.123 17.7062 123.219 17.135L124.007 12.4704C124.045 12.2442 123.97 12.0137 123.806 11.8531L120.427 8.54213C120.014 8.13672 120.242 7.43296 120.815 7.34813L125.495 6.65539C125.722 6.6218 125.918 6.47932 126.02 6.2739L128.125 2.03745Z" fill="#FEA500"/>
</svg>
