<svg width="56" height="52" viewBox="0 0 56 52" fill="none" xmlns="http://www.w3.org/2000/svg">
<rect x="4" width="48" height="48" rx="24" fill="#D1FADF"/>
<rect x="4" width="48" height="48" rx="24" stroke="#ECFDF3" stroke-width="8"/>
<path d="M38 23.0801V24.0001C37.9988 26.1565 37.3005 28.2548 36.0093 29.9819C34.7182 31.7091 32.9033 32.9726 30.8354 33.584C28.7674 34.1954 26.5573 34.122 24.5345 33.3747C22.5117 32.6274 20.7847 31.2462 19.611 29.4372C18.4373 27.6281 17.8798 25.4882 18.0217 23.3364C18.1636 21.1847 18.9972 19.1364 20.3983 17.4972C21.7994 15.8579 23.6928 14.7155 25.7962 14.2403C27.8996 13.765 30.1003 13.9824 32.07 14.8601M38 16.0001L28 26.0101L25 23.0101" stroke="#039855" stroke-width="2" stroke-linecap="round" stroke-linejoin="round"/>
</svg>
